<svg viewBox="0 0 215.9 279.4" width="215.9mm" height="279.4mm" xmlns="http://www.w3.org/2000/svg" xmlns:xlink="http://www.w3.org/1999/xlink"><g transform="scale(1, -1)"><g transform="translate(0,0) scale(7,7)"><g transform="translate(0,-2) scale(1,1)"><g><path d="" /><g transform="translate(0.2,0) scale(1,1)"><path d="M0.057 -0.149L0.057 0.148C0.057 0.151 0.06 0.155 0.065 0.155L0.078 0.155C0.082 0.155 0.08700000000000001 0.151 0.08700000000000001 0.148L0.08700000000000001 0.113C0.09 0.12 0.098 0.125 0.105 0.125L0.194 0.125C0.199 0.125 0.20400000000000001 0.123 0.20800000000000002 0.12L0.273 0.066L0.336 0.12C0.34 0.123 0.34600000000000003 0.125 0.35100000000000003 0.125L0.44 0.125C0.448 0.125 0.455 0.12 0.458 0.113L0.458 0.148C0.458 0.151 0.463 0.155 0.467 0.155L0.481 0.155C0.485 0.155 0.489 0.151 0.489 0.148L0.489 -0.149C0.489 -0.152 0.485 -0.155 0.481 -0.155L0.467 -0.155C0.463 -0.155 0.458 -0.152 0.458 -0.149L0.458 -0.113C0.455 -0.12 0.448 -0.125 0.439 -0.125L0.35100000000000003 -0.125C0.34600000000000003 -0.125 0.341 -0.123 0.337 -0.11900000000000001L0.273 -0.066L0.20800000000000002 -0.11900000000000001C0.20400000000000001 -0.123 0.199 -0.125 0.194 -0.125L0.105 -0.125C0.097 -0.125 0.09 -0.12 0.08700000000000001 -0.113L0.08700000000000001 -0.149C0.08700000000000001 -0.152 0.082 -0.155 0.078 -0.155L0.065 -0.155C0.06 -0.155 0.057 -0.152 0.057 -0.149ZM0.192 0.098L0.14400000000000002 0.098L0.253 0L0.14400000000000002 -0.098L0.192 -0.098L0.273 -0.031L0.352 -0.098L0.401 -0.098L0.292 0L0.401 0.098L0.352 0.098L0.273 0.031ZM0.514 -0.149L0.514 0.148C0.514 0.151 0.519 0.155 0.524 0.155L0.536 0.155C0.542 0.155 0.546 0.151 0.546 0.148L0.546 -0.149C0.546 -0.152 0.542 -0.155 0.536 -0.155L0.524 -0.155C0.519 -0.155 0.514 -0.152 0.514 -0.149ZM0 0.148C0 0.151 0.004 0.155 0.009000000000000001 0.155L0.021 0.155C0.027 0.155 0.03 0.151 0.03 0.148L0.03 -0.149C0.03 -0.152 0.027 -0.155 0.021 -0.155L0.009000000000000001 -0.155C0.004 -0.155 0 -0.152 0 -0.149L0 0.148ZM0.36 0L0.458 -0.092L0.458 0.092ZM0.08700000000000001 0.091L0.08700000000000001 -0.091L0.185 0Z" /></g><g transform="translate(0.746,0) scale(1,1)"><path d="" /></g><g transform="translate(0.946,0) scale(1,1)"><path d="M0 0.10300000000000001C0 0.114 0.011 0.125 0.021 0.125L0.11 0.125C0.115 0.125 0.12 0.123 0.124 0.11900000000000001L0.189 0.065L0.253 0.11900000000000001C0.257 0.123 0.262 0.125 0.267 0.125L0.356 0.125C0.367 0.125 0.376 0.114 0.376 0.10300000000000001C0.376 0.097 0.374 0.091 0.369 0.08600000000000001L0.28600000000000003 0L0.369 -0.08600000000000001C0.374 -0.091 0.377 -0.097 0.377 -0.10300000000000001C0.377 -0.114 0.367 -0.125 0.355 -0.125L0.267 -0.125C0.262 -0.125 0.257 -0.123 0.253 -0.11900000000000001L0.189 -0.066L0.124 -0.11900000000000001C0.12 -0.123 0.115 -0.125 0.11 -0.125L0.022 -0.125C0.01 -0.125 0.001 -0.114 0.001 -0.10300000000000001C0.001 -0.097 0.003 -0.091 0.008 -0.08600000000000001L0.092 0L0.008 0.08600000000000001C0.003 0.091 0 0.097 0 0.10300000000000001ZM0.17 0L0.061 -0.098L0.109 -0.098L0.189 -0.031L0.268 -0.098L0.317 -0.098L0.20800000000000002 0L0.317 0.098L0.268 0.098L0.189 0.031L0.109 0.098L0.061 0.098Z" /></g><g transform="translate(1.323,0) scale(1,1)"><path d="" /></g><g transform="translate(1.523,0) scale(1,1)"><path d="M0 -0.10300000000000001C0 -0.096 0.002 -0.091 0.005 -0.088L0.097 0.015L0.01 0.08600000000000001C0.005 0.092 0.003 0.097 0.003 0.10300000000000001C0.003 0.114 0.013000000000000001 0.125 0.025 0.125L0.066 0.125C0.07200000000000001 0.125 0.076 0.123 0.08 0.11900000000000001L0.145 0.068L0.188 0.11800000000000001C0.193 0.123 0.199 0.125 0.20500000000000002 0.125L0.311 0.125C0.325 0.125 0.334 0.115 0.334 0.10300000000000001C0.334 0.096 0.333 0.091 0.329 0.088L0.23700000000000002 -0.015L0.323 -0.08700000000000001C0.329 -0.091 0.332 -0.096 0.332 -0.10200000000000001C0.332 -0.113 0.32 -0.125 0.309 -0.125L0.267 -0.125C0.262 -0.125 0.257 -0.122 0.252 -0.11900000000000001L0.188 -0.069L0.145 -0.11800000000000001C0.14100000000000001 -0.123 0.134 -0.125 0.128 -0.125L0.022 -0.125C0.01 -0.125 0 -0.115 0 -0.10300000000000001ZM0.066 0.10300000000000001L0.025 0.10300000000000001L0.14300000000000002 0.003L0.049 -0.10300000000000001L0.10200000000000001 -0.10300000000000001L0.17200000000000001 -0.024L0.267 -0.10300000000000001L0.309 -0.10300000000000001L0.19 -0.004L0.28500000000000003 0.10300000000000001L0.232 0.10300000000000001L0.162 0.023Z" /></g><g transform="translate(1.857,0) scale(1,1)"><path d="" /></g><g transform="translate(2.057,0) scale(1,1)"><path d="M0.28500000000000003 -0.099C0.28800000000000003 -0.10200000000000001 0.29 -0.106 0.29 -0.111C0.29 -0.117 0.28500000000000003 -0.125 0.277 -0.125C0.275 -0.125 0.272 -0.124 0.27 -0.122L0.14400000000000002 -0.017L0.02 -0.122C0.018000000000000002 -0.124 0.016 -0.125 0.013000000000000001 -0.125C0.005 -0.125 0 -0.11800000000000001 0 -0.11C0 -0.106 0.001 -0.10200000000000001 0.005 -0.099L0.124 0L0.005 0.1C0.002 0.10300000000000001 0 0.108 0 0.112C0 0.11800000000000001 0.005 0.125 0.012 0.125C0.015 0.125 0.018000000000000002 0.124 0.02 0.123L0.14400000000000002 0.018000000000000002L0.27 0.123C0.272 0.124 0.275 0.125 0.277 0.125C0.28300000000000003 0.125 0.29 0.11900000000000001 0.29 0.111C0.29 0.107 0.28800000000000003 0.10200000000000001 0.28500000000000003 0.1L0.166 0Z" /></g><g transform="translate(2.347,0) scale(1,1)"><path d="" /></g><g transform="translate(2.547,0) scale(1,1)"><g><path d="M0.28500000000000003 -0.099C0.28800000000000003 -0.10200000000000001 0.29 -0.106 0.29 -0.111C0.29 -0.117 0.28500000000000003 -0.125 0.277 -0.125C0.275 -0.125 0.272 -0.124 0.27 -0.122L0.14400000000000002 -0.017L0.02 -0.122C0.018000000000000002 -0.124 0.016 -0.125 0.013000000000000001 -0.125C0.005 -0.125 0 -0.11800000000000001 0 -0.11C0 -0.106 0.001 -0.10200000000000001 0.005 -0.099L0.124 0L0.005 0.1C0.002 0.10300000000000001 0 0.108 0 0.112C0 0.11800000000000001 0.005 0.125 0.012 0.125C0.015 0.125 0.018000000000000002 0.124 0.02 0.123L0.14400000000000002 0.018000000000000002L0.27 0.123C0.272 0.124 0.275 0.125 0.277 0.125C0.28300000000000003 0.125 0.29 0.11900000000000001 0.29 0.111C0.29 0.107 0.28800000000000003 0.10200000000000001 0.28500000000000003 0.1L0.166 0Z" /><path d="M0.305 0.111L0.305 0.976C0.305 0.984284272 0.29828427199999996 0.991 0.29 0.991C0.281715728 0.991 0.27499999999999997 0.984284272 0.27499999999999997 0.976L0.27499999999999997 0.111C0.27499999999999997 0.102715728 0.281715728 0.096 0.29 0.096C0.29828427199999996 0.096 0.305 0.102715728 0.305 0.111Z" /><g transform="translate(0.29,0.986) scale(1,1)"><path d="M0.23800000000000002 -0.79C0.234 -0.804 0.222 -0.81 0.215 -0.81C0.213 -0.81 0.211 -0.81 0.21 -0.809C0.20400000000000001 -0.805 0.194 -0.796 0.194 -0.78C0.194 -0.776 0.195 -0.771 0.197 -0.765C0.214 -0.72 0.221 -0.673 0.221 -0.628C0.221 -0.5690000000000001 0.212 -0.512 0.197 -0.47800000000000004C0.161 -0.393 0.066 -0.257 0 -0.245L0 -0.006C0 0.006 0.004 0.009000000000000001 0.01 0.009000000000000001C0.029 0.009000000000000001 0.037 0.003 0.04 -0.013000000000000001C0.056 -0.109 0.098 -0.195 0.149 -0.274C0.212 -0.374 0.264 -0.492 0.264 -0.617C0.264 -0.6950000000000001 0.23800000000000002 -0.79 0.23800000000000002 -0.79Z" /></g></g></g><g transform="translate(3.101,0) scale(1,1)"><path d="" /></g><g transform="translate(3.301,0) scale(1,1)"><g><path d="M0.28500000000000003 -0.099C0.28800000000000003 -0.10200000000000001 0.29 -0.106 0.29 -0.111C0.29 -0.117 0.28500000000000003 -0.125 0.277 -0.125C0.275 -0.125 0.272 -0.124 0.27 -0.122L0.14400000000000002 -0.017L0.02 -0.122C0.018000000000000002 -0.124 0.016 -0.125 0.013000000000000001 -0.125C0.005 -0.125 0 -0.11800000000000001 0 -0.11C0 -0.106 0.001 -0.10200000000000001 0.005 -0.099L0.124 0L0.005 0.1C0.002 0.10300000000000001 0 0.108 0 0.112C0 0.11800000000000001 0.005 0.125 0.012 0.125C0.015 0.125 0.018000000000000002 0.124 0.02 0.123L0.14400000000000002 0.018000000000000002L0.27 0.123C0.272 0.124 0.275 0.125 0.277 0.125C0.28300000000000003 0.125 0.29 0.11900000000000001 0.29 0.111C0.29 0.107 0.28800000000000003 0.10200000000000001 0.28500000000000003 0.1L0.166 0Z" /><path d="M0.305 0.111L0.305 0.964C0.305 0.972284272 0.29828427199999996 0.979 0.29 0.979C0.281715728 0.979 0.27499999999999997 0.972284272 0.27499999999999997 0.964L0.27499999999999997 0.111C0.27499999999999997 0.102715728 0.281715728 0.096 0.29 0.096C0.29828427199999996 0.096 0.305 0.102715728 0.305 0.111Z" /><g transform="translate(0.29,0.986) scale(1,1)"><path d="M0.272 -0.796C0.266 -0.809 0.259 -0.8130000000000001 0.252 -0.8130000000000001C0.23800000000000002 -0.8130000000000001 0.23 -0.8 0.23 -0.787C0.23 -0.784 0.23 -0.782 0.231 -0.778C0.23600000000000002 -0.748 0.23900000000000002 -0.718 0.23900000000000002 -0.6890000000000001C0.23900000000000002 -0.637 0.23 -0.588 0.20700000000000002 -0.54C0.138 -0.4 0.067 -0.398 0.005 -0.396L0 -0.396L0 0.001C-0.067 0.4 0.011 0.002 0.017 0.002C0.023 0.002 0.035 0 0.037 -0.011C0.054 -0.117 0.11 -0.133 0.164 -0.191C0.23600000000000002 -0.269 0.262 -0.297 0.272 -0.365C0.274 -0.377 0.275 -0.388 0.275 -0.401C0.275 -0.462 0.253 -0.522 0.25 -0.528C0.249 -0.531 0.249 -0.533 0.249 -0.535C0.249 -0.539 0.25 -0.541 0.25 -0.544C0.268 -0.581 0.279 -0.622 0.279 -0.664L0.279 -0.686C0.279 -0.734 0.276 -0.791 0.272 -0.796ZM0.209 -0.459C0.211 -0.462 0.213 -0.463 0.216 -0.463C0.221 -0.463 0.228 -0.46 0.229 -0.457C0.234 -0.449 0.234 -0.439 0.23600000000000002 -0.431C0.23700000000000002 -0.424 0.23700000000000002 -0.418 0.23700000000000002 -0.41100000000000003C0.23700000000000002 -0.379 0.228 -0.34800000000000003 0.21 -0.322C0.177 -0.273 0.123 -0.217 0.062 -0.217L0.054 -0.217C0.046 -0.217 0.04 -0.223 0.04 -0.227C0.04 -0.228 0.04 -0.229 0.041 -0.23C0.062 -0.312 0.108 -0.336 0.155 -0.39C0.176 -0.41400000000000003 0.193 -0.434 0.209 -0.459Z" /></g></g></g><g transform="translate(3.87,0) scale(1,1)"><path d="" /></g><g transform="translate(4.07,0) scale(1,1)"><g><path d="M0.28500000000000003 -0.099C0.28800000000000003 -0.10200000000000001 0.29 -0.106 0.29 -0.111C0.29 -0.117 0.28500000000000003 -0.125 0.277 -0.125C0.275 -0.125 0.272 -0.124 0.27 -0.122L0.14400000000000002 -0.017L0.02 -0.122C0.018000000000000002 -0.124 0.016 -0.125 0.013000000000000001 -0.125C0.005 -0.125 0 -0.11800000000000001 0 -0.11C0 -0.106 0.001 -0.10200000000000001 0.005 -0.099L0.124 0L0.005 0.1C0.002 0.10300000000000001 0 0.108 0 0.112C0 0.11800000000000001 0.005 0.125 0.012 0.125C0.015 0.125 0.018000000000000002 0.124 0.02 0.123L0.14400000000000002 0.018000000000000002L0.27 0.123C0.272 0.124 0.275 0.125 0.277 0.125C0.28300000000000003 0.125 0.29 0.11900000000000001 0.29 0.111C0.29 0.107 0.28800000000000003 0.10200000000000001 0.28500000000000003 0.1L0.166 0Z" /><path d="M0.305 0.111L0.305 1.08C0.305 1.088284272 0.29828427199999996 1.095 0.29 1.095C0.281715728 1.095 0.27499999999999997 1.088284272 0.27499999999999997 1.08L0.27499999999999997 0.111C0.27499999999999997 0.102715728 0.281715728 0.096 0.29 0.096C0.29828427199999996 0.096 0.305 0.102715728 0.305 0.111Z" /><g transform="translate(0.29,0.986) scale(1,1)"><path d="M0.26 -0.673C0.26 -0.682 0.261 -0.6910000000000001 0.261 -0.7010000000000001C0.261 -0.744 0.257 -0.79 0.254 -0.796C0.247 -0.807 0.24 -0.812 0.234 -0.812C0.232 -0.812 0.23 -0.811 0.228 -0.81C0.221 -0.807 0.215 -0.798 0.215 -0.786C0.215 -0.784 0.216 -0.782 0.216 -0.779C0.221 -0.75 0.224 -0.722 0.224 -0.6940000000000001C0.224 -0.646 0.215 -0.601 0.193 -0.557C0.129 -0.427 0.063 -0.425 0.005 -0.423L0 -0.423L0 0.137C-0.063 0.6990000000000001 0.006 0.149 0.012 0.149C0.018000000000000002 0.149 0.031 0.139 0.032 0.13C0.049 0.03 0.10300000000000001 0.014 0.153 -0.04C0.22 -0.113 0.243 -0.14 0.254 -0.201C0.256 -0.21 0.256 -0.219 0.256 -0.229C0.256 -0.268 0.245 -0.309 0.23600000000000002 -0.335C0.25 -0.364 0.257 -0.396 0.257 -0.428C0.257 -0.485 0.23600000000000002 -0.54 0.234 -0.547C0.233 -0.549 0.233 -0.551 0.233 -0.553C0.233 -0.556 0.233 -0.558 0.234 -0.56C0.249 -0.596 0.258 -0.634 0.26 -0.673ZM0.20800000000000002 -0.181C0.153 -0.088 0.094 -0.064 0.039 -0.064C0.055 -0.161 0.10400000000000001 -0.178 0.153 -0.232C0.176 -0.257 0.194 -0.276 0.20800000000000002 -0.294C0.213 -0.277 0.218 -0.26 0.22 -0.25C0.221 -0.243 0.223 -0.23700000000000002 0.223 -0.229C0.223 -0.216 0.219 -0.201 0.20800000000000002 -0.181ZM0.219 -0.456C0.22 -0.448 0.221 -0.44 0.221 -0.432C0.221 -0.35100000000000003 0.131 -0.255 0.051000000000000004 -0.255C0.045 -0.256 0.038 -0.267 0.038 -0.268C0.058 -0.34500000000000003 0.10200000000000001 -0.366 0.145 -0.417L0.15 -0.422C0.167 -0.442 0.181 -0.459 0.196 -0.481C0.197 -0.484 0.2 -0.485 0.203 -0.485C0.20800000000000002 -0.485 0.213 -0.482 0.214 -0.47900000000000004C0.217 -0.47200000000000003 0.217 -0.464 0.219 -0.456Z" /></g></g></g><g transform="translate(4.622,0) scale(1,1)"><path d="" /></g><g transform="translate(4.822,0) scale(1,1)"><g><path d="M0.28500000000000003 -0.099C0.28800000000000003 -0.10200000000000001 0.29 -0.106 0.29 -0.111C0.29 -0.117 0.28500000000000003 -0.125 0.277 -0.125C0.275 -0.125 0.272 -0.124 0.27 -0.122L0.14400000000000002 -0.017L0.02 -0.122C0.018000000000000002 -0.124 0.016 -0.125 0.013000000000000001 -0.125C0.005 -0.125 0 -0.11800000000000001 0 -0.11C0 -0.106 0.001 -0.10200000000000001 0.005 -0.099L0.124 0L0.005 0.1C0.002 0.10300000000000001 0 0.108 0 0.112C0 0.11800000000000001 0.005 0.125 0.012 0.125C0.015 0.125 0.018000000000000002 0.124 0.02 0.123L0.14400000000000002 0.018000000000000002L0.27 0.123C0.272 0.124 0.275 0.125 0.277 0.125C0.28300000000000003 0.125 0.29 0.11900000000000001 0.29 0.111C0.29 0.107 0.28800000000000003 0.10200000000000001 0.28500000000000003 0.1L0.166 0Z" /><path d="M0.305 0.111L0.305 1.279C0.305 1.287284272 0.29828427199999996 1.2939999999999998 0.29 1.2939999999999998C0.281715728 1.2939999999999998 0.27499999999999997 1.287284272 0.27499999999999997 1.279L0.27499999999999997 0.111C0.27499999999999997 0.102715728 0.281715728 0.096 0.29 0.096C0.29828427199999996 0.096 0.305 0.102715728 0.305 0.111Z" /><g transform="translate(0.29,0.986) scale(1,1)"><path d="M0.26 -0.673C0.26 -0.682 0.261 -0.6910000000000001 0.261 -0.7010000000000001C0.261 -0.744 0.257 -0.79 0.254 -0.796C0.247 -0.807 0.24 -0.812 0.234 -0.812C0.232 -0.812 0.23 -0.811 0.228 -0.81C0.221 -0.807 0.215 -0.798 0.215 -0.786C0.215 -0.784 0.216 -0.782 0.216 -0.779C0.221 -0.75 0.224 -0.722 0.224 -0.6940000000000001C0.224 -0.646 0.215 -0.601 0.193 -0.557C0.129 -0.427 0.063 -0.425 0.005 -0.423L0 -0.423L0 0.335C-0.063 1.095 0.006 0.34700000000000003 0.012 0.34700000000000003C0.018000000000000002 0.34700000000000003 0.031 0.337 0.032 0.328C0.049 0.228 0.10300000000000001 0.212 0.153 0.158C0.22 0.085 0.243 0.058 0.254 -0.003C0.255 -0.012 0.256 -0.021 0.256 -0.03C0.256 -0.07200000000000001 0.243 -0.116 0.234 -0.14100000000000001C0.249 -0.168 0.256 -0.199 0.256 -0.229C0.256 -0.268 0.245 -0.309 0.23600000000000002 -0.335C0.25 -0.364 0.257 -0.396 0.257 -0.428C0.257 -0.485 0.23600000000000002 -0.54 0.234 -0.547C0.233 -0.549 0.233 -0.551 0.233 -0.553C0.233 -0.556 0.233 -0.558 0.234 -0.56C0.249 -0.596 0.258 -0.634 0.26 -0.673ZM0.20800000000000002 0.017C0.153 0.109 0.096 0.134 0.039 0.134C0.04 0.133 0.04 0.131 0.04 0.13C0.057 0.03 0.10300000000000001 0.014 0.153 -0.04C0.176 -0.065 0.193 -0.084 0.20700000000000002 -0.101L0.22 -0.052000000000000005C0.221 -0.045 0.223 -0.039 0.223 -0.031C0.223 -0.018000000000000002 0.219 -0.003 0.20800000000000002 0.017ZM0.20800000000000002 -0.181C0.153 -0.088 0.094 -0.064 0.039 -0.064C0.055 -0.161 0.10400000000000001 -0.178 0.153 -0.232C0.176 -0.257 0.194 -0.276 0.20800000000000002 -0.294C0.213 -0.277 0.218 -0.26 0.22 -0.25C0.221 -0.243 0.223 -0.23700000000000002 0.223 -0.229C0.223 -0.216 0.219 -0.201 0.20800000000000002 -0.181ZM0.219 -0.456C0.22 -0.448 0.221 -0.44 0.221 -0.432C0.221 -0.35100000000000003 0.131 -0.255 0.051000000000000004 -0.255C0.045 -0.256 0.038 -0.267 0.038 -0.268C0.058 -0.34500000000000003 0.10200000000000001 -0.366 0.145 -0.417L0.15 -0.422C0.167 -0.442 0.181 -0.459 0.196 -0.481C0.197 -0.484 0.2 -0.485 0.203 -0.485C0.20800000000000002 -0.485 0.213 -0.482 0.214 -0.47900000000000004C0.217 -0.47200000000000003 0.217 -0.464 0.219 -0.456Z" /></g></g></g><g transform="translate(5.3740000000000006,0) scale(1,1)"><path d="" /></g><g transform="translate(5.574000000000001,0) scale(1,1)"><g><path d="M0.28500000000000003 -0.099C0.28800000000000003 -0.10200000000000001 0.29 -0.106 0.29 -0.111C0.29 -0.117 0.28500000000000003 -0.125 0.277 -0.125C0.275 -0.125 0.272 -0.124 0.27 -0.122L0.14400000000000002 -0.017L0.02 -0.122C0.018000000000000002 -0.124 0.016 -0.125 0.013000000000000001 -0.125C0.005 -0.125 0 -0.11800000000000001 0 -0.11C0 -0.106 0.001 -0.10200000000000001 0.005 -0.099L0.124 0L0.005 0.1C0.002 0.10300000000000001 0 0.108 0 0.112C0 0.11800000000000001 0.005 0.125 0.012 0.125C0.015 0.125 0.018000000000000002 0.124 0.02 0.123L0.14400000000000002 0.018000000000000002L0.27 0.123C0.272 0.124 0.275 0.125 0.277 0.125C0.28300000000000003 0.125 0.29 0.11900000000000001 0.29 0.111C0.29 0.107 0.28800000000000003 0.10200000000000001 0.28500000000000003 0.1L0.166 0Z" /><path d="M0.305 0.111L0.305 1.4609999999999999C0.305 1.469284272 0.29828427199999996 1.4759999999999998 0.29 1.4759999999999998C0.281715728 1.4759999999999998 0.27499999999999997 1.469284272 0.27499999999999997 1.4609999999999999L0.27499999999999997 0.111C0.27499999999999997 0.102715728 0.281715728 0.096 0.29 0.096C0.29828427199999996 0.096 0.305 0.102715728 0.305 0.111Z" /><g transform="translate(0.29,0.986) scale(1,1)"><path d="M0.26 -0.673C0.26 -0.682 0.261 -0.6910000000000001 0.261 -0.7010000000000001C0.261 -0.744 0.257 -0.79 0.254 -0.796C0.247 -0.807 0.24 -0.812 0.234 -0.812C0.232 -0.812 0.23 -0.811 0.228 -0.81C0.221 -0.807 0.215 -0.798 0.215 -0.786C0.215 -0.784 0.216 -0.782 0.216 -0.779C0.221 -0.75 0.224 -0.722 0.224 -0.6940000000000001C0.224 -0.646 0.215 -0.601 0.193 -0.557C0.129 -0.427 0.063 -0.425 0.005 -0.423L0 -0.423L0 0.521C-0.063 1.467 0.006 0.533 0.012 0.533C0.018000000000000002 0.533 0.031 0.523 0.032 0.514C0.049 0.41400000000000003 0.10300000000000001 0.398 0.153 0.34400000000000003C0.22 0.271 0.243 0.244 0.254 0.183C0.256 0.17400000000000002 0.256 0.164 0.256 0.154C0.256 0.116 0.246 0.077 0.23700000000000002 0.052000000000000005C0.245 0.035 0.25 0.018000000000000002 0.254 -0.003C0.255 -0.012 0.256 -0.021 0.256 -0.03C0.256 -0.07200000000000001 0.243 -0.116 0.234 -0.14100000000000001C0.249 -0.168 0.256 -0.199 0.256 -0.229C0.256 -0.268 0.245 -0.309 0.23600000000000002 -0.335C0.25 -0.364 0.257 -0.396 0.257 -0.428C0.257 -0.485 0.23600000000000002 -0.54 0.234 -0.547C0.233 -0.549 0.233 -0.551 0.233 -0.553C0.233 -0.556 0.233 -0.558 0.234 -0.56C0.249 -0.596 0.258 -0.634 0.26 -0.673ZM0.20800000000000002 0.203C0.153 0.296 0.093 0.32 0.038 0.32C0.055 0.227 0.105 0.211 0.153 0.158C0.177 0.132 0.195 0.112 0.209 0.094C0.214 0.11 0.218 0.125 0.22 0.134C0.221 0.14100000000000001 0.223 0.147 0.223 0.155C0.223 0.168 0.219 0.183 0.20800000000000002 0.203ZM0.20800000000000002 0.017C0.153 0.109 0.095 0.134 0.038 0.134C0.039 0.133 0.039 0.131 0.039 0.13C0.056 0.03 0.10300000000000001 0.014 0.153 -0.04C0.176 -0.065 0.193 -0.084 0.20700000000000002 -0.101L0.22 -0.052000000000000005C0.221 -0.045 0.223 -0.039 0.223 -0.031C0.223 -0.018000000000000002 0.219 -0.003 0.20800000000000002 0.017ZM0.20800000000000002 -0.181C0.153 -0.088 0.094 -0.064 0.039 -0.064C0.055 -0.161 0.10400000000000001 -0.178 0.153 -0.232C0.176 -0.257 0.194 -0.276 0.20800000000000002 -0.294C0.213 -0.277 0.218 -0.26 0.22 -0.25C0.221 -0.243 0.223 -0.23700000000000002 0.223 -0.229C0.223 -0.216 0.219 -0.201 0.20800000000000002 -0.181ZM0.219 -0.456C0.22 -0.448 0.221 -0.44 0.221 -0.432C0.221 -0.35100000000000003 0.131 -0.255 0.051000000000000004 -0.255C0.045 -0.256 0.038 -0.267 0.038 -0.268C0.058 -0.34500000000000003 0.10200000000000001 -0.366 0.145 -0.417L0.15 -0.422C0.167 -0.442 0.181 -0.459 0.196 -0.481C0.197 -0.484 0.2 -0.485 0.203 -0.485C0.20800000000000002 -0.485 0.213 -0.482 0.214 -0.47900000000000004C0.217 -0.47200000000000003 0.217 -0.464 0.219 -0.456Z" /></g></g></g><g transform="translate(6.123000000000001,0) scale(1,1)"><path d="" /></g><g transform="translate(6.323000000000001,0) scale(1,1)"><g><path d="M0.28500000000000003 -0.099C0.28800000000000003 -0.10200000000000001 0.29 -0.106 0.29 -0.111C0.29 -0.117 0.28500000000000003 -0.125 0.277 -0.125C0.275 -0.125 0.272 -0.124 0.27 -0.122L0.14400000000000002 -0.017L0.02 -0.122C0.018000000000000002 -0.124 0.016 -0.125 0.013000000000000001 -0.125C0.005 -0.125 0 -0.11800000000000001 0 -0.11C0 -0.106 0.001 -0.10200000000000001 0.005 -0.099L0.124 0L0.005 0.1C0.002 0.10300000000000001 0 0.108 0 0.112C0 0.11800000000000001 0.005 0.125 0.012 0.125C0.015 0.125 0.018000000000000002 0.124 0.02 0.123L0.14400000000000002 0.018000000000000002L0.27 0.123C0.272 0.124 0.275 0.125 0.277 0.125C0.28300000000000003 0.125 0.29 0.11900000000000001 0.29 0.111C0.29 0.107 0.28800000000000003 0.10200000000000001 0.28500000000000003 0.1L0.166 0Z" /><path d="M0.305 0.111L0.305 1.634C0.305 1.642284272 0.29828427199999996 1.6489999999999998 0.29 1.6489999999999998C0.281715728 1.6489999999999998 0.27499999999999997 1.642284272 0.27499999999999997 1.634L0.27499999999999997 0.111C0.27499999999999997 0.102715728 0.281715728 0.096 0.29 0.096C0.29828427199999996 0.096 0.305 0.102715728 0.305 0.111Z" /><g transform="translate(0.29,0.986) scale(1,1)"><path d="M0.263 -0.67C0.263 -0.679 0.264 -0.6880000000000001 0.264 -0.6980000000000001C0.264 -0.742 0.26 -0.79 0.256 -0.795C0.25 -0.807 0.244 -0.812 0.23700000000000002 -0.812C0.234 -0.812 0.231 -0.811 0.229 -0.81C0.222 -0.808 0.216 -0.799 0.216 -0.787C0.216 -0.784 0.216 -0.782 0.217 -0.779C0.222 -0.749 0.225 -0.721 0.225 -0.6930000000000001C0.225 -0.645 0.216 -0.599 0.195 -0.555C0.13 -0.421 0.061 -0.419 0.004 -0.417L0 -0.417L0 0.6950000000000001C0 0.7010000000000001 0.014 0.704 0.015 0.704C0.023 0.704 0.03 0.704 0.031 0.686C0.048 0.589 0.10300000000000001 0.562 0.155 0.507L0.17300000000000001 0.488C0.227 0.429 0.252 0.4 0.261 0.34700000000000003C0.263 0.337 0.263 0.327 0.263 0.316C0.263 0.277 0.254 0.23600000000000002 0.245 0.209C0.258 0.184 0.263 0.157 0.263 0.129C0.263 0.091 0.254 0.049 0.245 0.022C0.258 -0.003 0.263 -0.03 0.263 -0.058C0.263 -0.096 0.254 -0.138 0.245 -0.165C0.258 -0.189 0.264 -0.219 0.264 -0.246C0.264 -0.28300000000000003 0.255 -0.321 0.247 -0.34800000000000003C0.255 -0.372 0.259 -0.399 0.259 -0.424C0.259 -0.482 0.23800000000000002 -0.537 0.23600000000000002 -0.544C0.23500000000000001 -0.545 0.23500000000000001 -0.547 0.23500000000000001 -0.549C0.23500000000000001 -0.552 0.23600000000000002 -0.556 0.23600000000000002 -0.557C0.252 -0.594 0.261 -0.632 0.263 -0.67ZM0.155 -0.224C0.18 -0.251 0.199 -0.272 0.213 -0.291C0.219 -0.276 0.224 -0.258 0.224 -0.242C0.224 -0.229 0.221 -0.215 0.209 -0.195C0.155 -0.10400000000000001 0.093 -0.078 0.039 -0.077C0.059000000000000004 -0.157 0.107 -0.17300000000000001 0.155 -0.224ZM0.155 -0.054L0.21 -0.115C0.214 -0.101 0.219 -0.08600000000000001 0.221 -0.077C0.223 -0.07 0.224 -0.063 0.224 -0.055C0.224 -0.042 0.221 -0.027 0.209 -0.007C0.154 0.08600000000000001 0.094 0.11 0.039 0.11C0.059000000000000004 0.025 0.107 0 0.155 -0.054ZM0.155 0.133L0.21 0.07200000000000001C0.214 0.08600000000000001 0.219 0.101 0.221 0.11C0.223 0.117 0.224 0.124 0.224 0.132C0.224 0.145 0.22 0.159 0.209 0.178C0.154 0.273 0.094 0.297 0.039 0.297C0.059000000000000004 0.212 0.107 0.187 0.155 0.133ZM0.20800000000000002 0.365C0.154 0.46 0.094 0.484 0.039 0.484C0.059000000000000004 0.399 0.107 0.374 0.155 0.32L0.21 0.259C0.214 0.273 0.219 0.28800000000000003 0.221 0.297C0.223 0.304 0.224 0.311 0.224 0.319C0.224 0.332 0.22 0.34600000000000003 0.20800000000000002 0.365ZM0.221 -0.45C0.222 -0.443 0.223 -0.436 0.223 -0.429C0.223 -0.35100000000000003 0.134 -0.249 0.057 -0.249L0.051000000000000004 -0.249C0.043000000000000003 -0.249 0.039 -0.256 0.039 -0.262C0.057 -0.338 0.101 -0.361 0.147 -0.41300000000000003C0.166 -0.434 0.181 -0.453 0.196 -0.47800000000000004C0.198 -0.481 0.201 -0.482 0.20400000000000001 -0.482C0.209 -0.482 0.214 -0.47800000000000004 0.215 -0.47500000000000003C0.219 -0.467 0.219 -0.459 0.221 -0.45Z" /></g></g></g><g transform="translate(6.881000000000001,0) scale(1,1)"><path d="" /></g><g transform="translate(7.081000000000001,0) scale(1,1)"><path d="M0.125 0.015C0.125 0.007 0.11800000000000001 0 0.108 0L0.016 0C0.007 0 0 0.007 0 0.015L0 0.23500000000000001C0 0.243 0.007 0.25 0.016 0.25L0.108 0.25C0.11800000000000001 0.25 0.125 0.243 0.125 0.23500000000000001L0.125 0.015Z" /></g><g transform="translate(7.207000000000002,0) scale(1,1)"><path d="" /></g><g transform="translate(7.407000000000002,0) scale(1,1)"><path d="M0.28200000000000003 -0.109C0.28200000000000003 -0.123 0.27 -0.135 0.256 -0.135L0.026000000000000002 -0.135C0.011 -0.135 0 -0.123 0 -0.109L0 -0.017C0 -0.002 0.011 0.009000000000000001 0.026000000000000002 0.009000000000000001L0.256 0.009000000000000001C0.27 0.009000000000000001 0.28200000000000003 -0.002 0.28200000000000003 -0.017L0.28200000000000003 -0.109Z" /></g><g transform="translate(7.690000000000002,0) scale(1,1)"><path d="" /></g><g transform="translate(7.890000000000002,0) scale(1,1)"><path d="M0.28200000000000003 0.024C0.28200000000000003 0.01 0.27 -0.002 0.256 -0.002L0.026000000000000002 -0.002C0.011 -0.002 0 0.01 0 0.024L0 0.116C0 0.131 0.011 0.14200000000000002 0.026000000000000002 0.14200000000000002L0.256 0.14200000000000002C0.27 0.14200000000000002 0.28200000000000003 0.131 0.28200000000000003 0.116L0.28200000000000003 0.024Z" /></g><g transform="translate(8.173000000000002,0) scale(1,1)"><path d="" /></g><g transform="translate(8.373000000000001,0) scale(1,1)"><path d="M0.078 -0.038L0.029 0.022C-0.02 0.082 0.019 0.032 0.019 0.046C0.019 0.054 0.023 0.065 0.033 0.075C0.078 0.122 0.093 0.165 0.093 0.202C0.093 0.274 0.036000000000000004 0.325 0.032 0.336C0.029 0.342 0.028 0.34700000000000003 0.028 0.352C0.028 0.366 0.038 0.373 0.048 0.373C0.054 0.373 0.061 0.37 0.066 0.365C0.083 0.34800000000000003 0.231 0.17200000000000001 0.231 0.17200000000000001C0.231 0.17200000000000001 0.23500000000000001 0.163 0.23500000000000001 0.153C0.23500000000000001 0.148 0.234 0.14300000000000002 0.231 0.138C0.20500000000000002 0.097 0.169 0.049 0.165 -0.009000000000000001C0.165 -0.013000000000000001 0.164 -0.018000000000000002 0.164 -0.022C0.164 -0.078 0.195 -0.115 0.233 -0.161C0.244 -0.17300000000000001 0.27 -0.20600000000000002 0.27 -0.218C0.27 -0.221 0.268 -0.222 0.265 -0.222C0.263 -0.222 0.261 -0.222 0.258 -0.221C0.257 -0.221 0.256 -0.22 0.255 -0.22C0.23900000000000002 -0.214 0.20600000000000002 -0.203 0.177 -0.203C0.135 -0.203 0.114 -0.23500000000000001 0.114 -0.276C0.114 -0.28500000000000003 0.115 -0.294 0.11800000000000001 -0.302C0.12 -0.311 0.131 -0.338 0.14400000000000002 -0.338C0.152 -0.34500000000000003 0.16 -0.353 0.16 -0.362C0.16 -0.364 0.159 -0.366 0.158 -0.369C0.157 -0.373 0.15 -0.375 0.14300000000000002 -0.375C0.135 -0.375 0.125 -0.372 0.117 -0.366C0.044 -0.31 0.001 -0.261 0.001 -0.211C0.001 -0.158 0.04 -0.115 0.083 -0.115C0.088 -0.115 0.094 -0.11800000000000001 0.099 -0.11800000000000001C0.10300000000000001 -0.11900000000000001 0.111 -0.121 0.115 -0.121C0.12 -0.121 0.124 -0.12 0.126 -0.116C0.127 -0.115 0.127 -0.113 0.127 -0.112C0.127 -0.11 0.123 -0.10200000000000001 0.121 -0.098C0.108 -0.077 0.094 -0.058 0.078 -0.038Z" /></g><g transform="translate(8.643,0) scale(1,1)"><path d="" /></g><g transform="translate(8.843,0) scale(1,1)"><path d="M0.134 0.107L0.134 0.097C0.167 0.097 0.217 0.157 0.224 0.163C0.23 0.167 0.233 0.167 0.23500000000000001 0.167C0.23700000000000002 0.166 0.247 0.161 0.247 0.151C0.246 0.146 0.241 0.13 0.23700000000000002 0.112C0.23700000000000002 0.112 0.139 -0.23900000000000002 0.136 -0.241C0.126 -0.249 0.112 -0.251 0.101 -0.251C0.095 -0.251 0.07200000000000001 -0.25 0.07200000000000001 -0.23800000000000002C0.09 -0.17200000000000001 0.162 0.027 0.165 0.042C0.166 0.046 0.166 0.05 0.166 0.053C0.166 0.058 0.165 0.062 0.161 0.062C0.16 0.062 0.158 0.062 0.156 0.061C0.14300000000000002 0.054 0.134 0.05 0.12 0.046C0.109 0.042 0.095 0.039 0.081 0.039C0.062 0.039 0.043000000000000003 0.045 0.027 0.056C0.012 0.068 0 0.08600000000000001 0 0.107C0 0.14400000000000002 0.03 0.17400000000000002 0.067 0.17400000000000002C0.10400000000000001 0.17400000000000002 0.134 0.14400000000000002 0.134 0.107Z" /></g><g transform="translate(9.093,0) scale(1,1)"><path d="" /></g><g transform="translate(9.293,0) scale(1,1)"><path d="M0.20800000000000002 0.111L0.20800000000000002 0.101C0.242 0.10200000000000001 0.292 0.162 0.299 0.168C0.302 0.17 0.305 0.17200000000000001 0.31 0.17200000000000001C0.312 0.171 0.32 0.167 0.32 0.161C0.32 0.16 0.319 0.159 0.319 0.157C0.317 0.14400000000000002 0.292 0.056 0.292 0.056C0.292 0.056 0.273 -0.011 0.247 -0.096L0.131 -0.47700000000000004C0.127 -0.488 0.122 -0.5 0.093 -0.5C0.07100000000000001 -0.5 0.062 -0.49 0.062 -0.482C0.062 -0.481 0.063 -0.48 0.063 -0.47900000000000004L0.158 -0.196C0.158 -0.195 0.159 -0.194 0.159 -0.193C0.159 -0.19 0.157 -0.188 0.155 -0.188C0.132 -0.2 0.106 -0.209 0.08 -0.209C0.042 -0.209 0 -0.183 0 -0.14100000000000001C0 -0.10300000000000001 0.03 -0.073 0.068 -0.073C0.105 -0.073 0.136 -0.10300000000000001 0.136 -0.14100000000000001C0.136 -0.14400000000000002 0.136 -0.147 0.135 -0.151C0.149 -0.151 0.176 -0.139 0.184 -0.12C0.191 -0.105 0.242 0.044 0.242 0.06C0.242 0.065 0.24 0.067 0.23700000000000002 0.067C0.23500000000000001 0.067 0.233 0.066 0.23 0.065C0.20700000000000002 0.052000000000000005 0.179 0.043000000000000003 0.152 0.043000000000000003C0.114 0.043000000000000003 0.07200000000000001 0.07 0.07200000000000001 0.111C0.07200000000000001 0.149 0.10300000000000001 0.179 0.14 0.179C0.178 0.179 0.20800000000000002 0.149 0.20800000000000002 0.111Z" /></g><g transform="translate(9.613,0) scale(1,1)"><path d="" /></g><g transform="translate(9.812999999999999,0) scale(1,1)"><path d="M0.353 0.419C0.355 0.419 0.363 0.417 0.363 0.40800000000000003C0.363 0.40700000000000003 0.362 0.406 0.362 0.404C0.36 0.392 0.336 0.303 0.336 0.303C0.336 0.303 0.164 -0.467 0.161 -0.47900000000000004C0.157 -0.49 0.154 -0.5 0.122 -0.5C0.101 -0.5 0.095 -0.492 0.095 -0.484C0.095 -0.482 0.095 -0.48 0.096 -0.47800000000000004C0.098 -0.47100000000000003 0.167 -0.196 0.167 -0.192C0.167 -0.189 0.164 -0.186 0.161 -0.186C0.16 -0.186 0.159 -0.186 0.158 -0.187C0.135 -0.2 0.107 -0.209 0.08 -0.209C0.042 -0.209 0 -0.182 0 -0.14100000000000001C0 -0.10300000000000001 0.031 -0.073 0.068 -0.073C0.106 -0.073 0.136 -0.10300000000000001 0.136 -0.14100000000000001C0.136 -0.14400000000000002 0.136 -0.147 0.135 -0.151C0.15 -0.15 0.181 -0.137 0.186 -0.116L0.226 0.048C0.226 0.053 0.224 0.061 0.219 0.061C0.218 0.061 0.217 0.061 0.216 0.06C0.193 0.048 0.167 0.038 0.14100000000000001 0.038C0.131 0.038 0.122 0.04 0.114 0.042C0.10400000000000001 0.045 0.095 0.049 0.08700000000000001 0.056C0.07100000000000001 0.068 0.059000000000000004 0.08600000000000001 0.059000000000000004 0.106C0.059000000000000004 0.14400000000000002 0.089 0.17400000000000002 0.127 0.17400000000000002C0.164 0.17400000000000002 0.195 0.14400000000000002 0.195 0.106C0.195 0.10300000000000001 0.195 0.1 0.194 0.097C0.21 0.097 0.243 0.117 0.248 0.133L0.28700000000000003 0.293C0.28700000000000003 0.294 0.28800000000000003 0.296 0.28800000000000003 0.297C0.28800000000000003 0.303 0.28400000000000003 0.313 0.277 0.313C0.276 0.313 0.274 0.313 0.273 0.312C0.25 0.3 0.223 0.29 0.197 0.29C0.187 0.29 0.179 0.292 0.171 0.294C0.161 0.297 0.151 0.301 0.14300000000000002 0.308C0.127 0.32 0.115 0.338 0.115 0.358C0.115 0.396 0.146 0.426 0.183 0.426C0.221 0.426 0.251 0.396 0.251 0.358L0.251 0.34900000000000003C0.28500000000000003 0.34900000000000003 0.335 0.41000000000000003 0.342 0.41500000000000004C0.34500000000000003 0.417 0.34800000000000003 0.419 0.353 0.419Z" /></g><g transform="translate(10.175999999999998,0) scale(1,1)"><path d="" /></g><g transform="translate(10.375999999999998,0) scale(1,1)"><path d="M0.41400000000000003 0.423C0.418 0.422 0.423 0.419 0.423 0.40800000000000003C0.42 0.395 0.396 0.306 0.396 0.306L0.303 -0.094C0.299 -0.112 0.28 -0.193 0.279 -0.193C0.159 -0.709 0.151 -0.727 0.149 -0.736C0.145 -0.747 0.14 -0.753 0.116 -0.753C0.093 -0.753 0.084 -0.748 0.084 -0.739C0.084 -0.737 0.084 -0.735 0.085 -0.732L0.157 -0.453C0.157 -0.451 0.158 -0.449 0.158 -0.447C0.158 -0.441 0.155 -0.436 0.15 -0.436C0.149 -0.436 0.148 -0.436 0.146 -0.437C0.129 -0.446 0.101 -0.453 0.082 -0.453C0.064 -0.453 0.042 -0.447 0.028 -0.435C0.012 -0.423 0 -0.405 0 -0.385C0 -0.34700000000000003 0.031 -0.317 0.068 -0.317C0.106 -0.317 0.136 -0.34700000000000003 0.136 -0.385C0.136 -0.388 0.136 -0.391 0.135 -0.394C0.148 -0.394 0.17400000000000002 -0.385 0.18 -0.364C0.184 -0.353 0.219 -0.21 0.22 -0.20500000000000002C0.22 -0.20400000000000001 0.221 -0.2 0.221 -0.197C0.221 -0.191 0.22 -0.183 0.215 -0.183C0.214 -0.183 0.213 -0.183 0.212 -0.184C0.199 -0.19 0.196 -0.194 0.182 -0.199C0.17 -0.203 0.156 -0.20600000000000002 0.14200000000000002 -0.20600000000000002C0.133 -0.20600000000000002 0.123 -0.20400000000000001 0.115 -0.202C0.105 -0.199 0.096 -0.194 0.08700000000000001 -0.188C0.07100000000000001 -0.176 0.059000000000000004 -0.158 0.059000000000000004 -0.137C0.059000000000000004 -0.1 0.09 -0.069 0.127 -0.069C0.165 -0.069 0.195 -0.1 0.195 -0.137L0.195 -0.147C0.209 -0.147 0.23600000000000002 -0.138 0.244 -0.112C0.247 -0.10400000000000001 0.28300000000000003 0.041 0.28500000000000003 0.05C0.28600000000000003 0.052000000000000005 0.28600000000000003 0.053 0.28600000000000003 0.055C0.28600000000000003 0.06 0.28400000000000003 0.064 0.28 0.064C0.279 0.064 0.278 0.064 0.276 0.063C0.25 0.051000000000000004 0.222 0.042 0.194 0.042C0.185 0.042 0.177 0.043000000000000003 0.169 0.045C0.14 0.054 0.113 0.078 0.113 0.11C0.113 0.147 0.14400000000000002 0.178 0.181 0.178C0.219 0.178 0.249 0.147 0.249 0.11L0.249 0.1C0.266 0.1 0.302 0.121 0.309 0.14C0.313 0.151 0.34700000000000003 0.293 0.34800000000000003 0.296C0.34900000000000003 0.3 0.35000000000000003 0.303 0.35000000000000003 0.306C0.35000000000000003 0.313 0.34600000000000003 0.317 0.341 0.317C0.339 0.317 0.336 0.316 0.334 0.315C0.31 0.304 0.28500000000000003 0.293 0.258 0.293C0.22 0.293 0.176 0.32 0.176 0.362C0.176 0.399 0.20600000000000002 0.43 0.244 0.43C0.281 0.43 0.312 0.399 0.312 0.362C0.312 0.358 0.312 0.355 0.311 0.352C0.34500000000000003 0.352 0.395 0.41300000000000003 0.403 0.419C0.406 0.421 0.40900000000000003 0.423 0.41400000000000003 0.423Z" /></g><g transform="translate(10.799999999999997,0) scale(1,1)"><path d="" /></g><g transform="translate(10.999999999999996,0) scale(1,1)"><path d="M0.373 0.621L0.373 0.611C0.40700000000000003 0.612 0.457 0.673 0.464 0.678C0.467 0.68 0.47000000000000003 0.682 0.47500000000000003 0.682C0.47700000000000004 0.681 0.485 0.677 0.485 0.671C0.485 0.67 0.484 0.669 0.484 0.667C0.482 0.654 0.457 0.5660000000000001 0.457 0.5660000000000001L0.16 -0.734C0.156 -0.746 0.152 -0.75 0.12 -0.75C0.097 -0.75 0.091 -0.744 0.091 -0.734C0.093 -0.729 0.163 -0.446 0.165 -0.439C0.166 -0.438 0.166 -0.436 0.166 -0.435C0.166 -0.432 0.164 -0.43 0.161 -0.43C0.16 -0.43 0.159 -0.431 0.158 -0.431C0.146 -0.437 0.137 -0.441 0.125 -0.445C0.124 -0.445 0.123 -0.446 0.122 -0.446C0.111 -0.45 0.096 -0.453 0.082 -0.453C0.044 -0.453 0 -0.427 0 -0.385C0 -0.34700000000000003 0.031 -0.317 0.068 -0.317C0.106 -0.317 0.136 -0.34700000000000003 0.136 -0.385L0.139 -0.395C0.153 -0.394 0.17200000000000001 -0.393 0.185 -0.359C0.193 -0.34 0.225 -0.199 0.227 -0.191C0.227 -0.187 0.225 -0.183 0.221 -0.183C0.22 -0.183 0.218 -0.183 0.217 -0.184C0.20400000000000001 -0.19 0.196 -0.194 0.182 -0.199C0.17 -0.203 0.156 -0.20600000000000002 0.14200000000000002 -0.20600000000000002C0.10400000000000001 -0.20600000000000002 0.06 -0.179 0.06 -0.137C0.06 -0.1 0.09 -0.069 0.128 -0.069C0.165 -0.069 0.196 -0.1 0.196 -0.137C0.196 -0.14100000000000001 0.195 -0.14400000000000002 0.195 -0.147C0.21 -0.147 0.24 -0.136 0.248 -0.109C0.255 -0.088 0.28800000000000003 0.038 0.28800000000000003 0.055C0.28800000000000003 0.061 0.28600000000000003 0.065 0.28200000000000003 0.065C0.28 0.065 0.278 0.064 0.276 0.063C0.263 0.057 0.255 0.053 0.241 0.048C0.229 0.044 0.215 0.041 0.201 0.041C0.192 0.041 0.182 0.043000000000000003 0.17400000000000002 0.045C0.145 0.054 0.11800000000000001 0.078 0.11800000000000001 0.11C0.11800000000000001 0.147 0.149 0.178 0.186 0.178C0.224 0.178 0.254 0.147 0.254 0.11L0.254 0.1C0.27 0.1 0.305 0.12 0.31 0.14L0.34900000000000003 0.296C0.35000000000000003 0.3 0.35100000000000003 0.305 0.35100000000000003 0.31C0.35100000000000003 0.317 0.35000000000000003 0.323 0.34600000000000003 0.323C0.34500000000000003 0.323 0.34400000000000003 0.323 0.343 0.322C0.33 0.316 0.312 0.307 0.298 0.302C0.28600000000000003 0.298 0.27 0.296 0.256 0.296C0.234 0.296 0.221 0.301 0.203 0.313C0.187 0.325 0.17500000000000002 0.343 0.17500000000000002 0.364C0.17500000000000002 0.401 0.20600000000000002 0.432 0.243 0.432C0.281 0.432 0.311 0.401 0.311 0.364L0.311 0.354C0.33 0.354 0.371 0.384 0.375 0.399C0.379 0.41300000000000003 0.41000000000000003 0.537 0.41400000000000003 0.556C0.41500000000000004 0.559 0.41500000000000004 0.562 0.41500000000000004 0.5640000000000001C0.41500000000000004 0.5730000000000001 0.40900000000000003 0.577 0.403 0.577C0.401 0.577 0.397 0.5760000000000001 0.395 0.5750000000000001C0.383 0.5690000000000001 0.374 0.5650000000000001 0.362 0.561C0.361 0.561 0.36 0.56 0.359 0.56C0.34800000000000003 0.556 0.333 0.553 0.319 0.553C0.301 0.553 0.279 0.559 0.265 0.5710000000000001C0.249 0.583 0.23700000000000002 0.601 0.23700000000000002 0.621C0.23700000000000002 0.659 0.268 0.6890000000000001 0.305 0.6890000000000001C0.343 0.6890000000000001 0.373 0.659 0.373 0.621Z" /></g><g transform="translate(11.484999999999996,0) scale(1,1)"><path d="" /></g><g transform="translate(11.684999999999995,0) scale(1,1)"><path d="M0.369 0.15L0.40700000000000003 0.307C0.40800000000000003 0.311 0.40800000000000003 0.314 0.40800000000000003 0.317C0.40800000000000003 0.323 0.406 0.327 0.401 0.327C0.399 0.327 0.397 0.327 0.395 0.326C0.37 0.313 0.342 0.303 0.313 0.303C0.275 0.303 0.232 0.329 0.232 0.371C0.232 0.40800000000000003 0.263 0.439 0.3 0.439C0.338 0.439 0.368 0.40800000000000003 0.368 0.371C0.368 0.368 0.368 0.364 0.367 0.361C0.387 0.361 0.425 0.381 0.432 0.40800000000000003C0.436 0.419 0.466 0.544 0.47100000000000003 0.5630000000000001C0.47100000000000003 0.5650000000000001 0.47200000000000003 0.5670000000000001 0.47200000000000003 0.5690000000000001C0.47200000000000003 0.579 0.466 0.584 0.459 0.584C0.457 0.584 0.454 0.583 0.452 0.582C0.44 0.5760000000000001 0.431 0.5720000000000001 0.419 0.5680000000000001C0.418 0.5680000000000001 0.417 0.5670000000000001 0.41600000000000004 0.5670000000000001C0.405 0.5630000000000001 0.39 0.56 0.376 0.56C0.357 0.56 0.336 0.5650000000000001 0.322 0.578C0.306 0.59 0.294 0.608 0.294 0.628C0.294 0.666 0.324 0.6960000000000001 0.362 0.6960000000000001C0.4 0.6960000000000001 0.43 0.666 0.43 0.628C0.43 0.625 0.43 0.622 0.429 0.618C0.463 0.619 0.514 0.68 0.521 0.685C0.524 0.687 0.527 0.6890000000000001 0.532 0.6890000000000001C0.534 0.6880000000000001 0.541 0.685 0.541 0.678L0.541 0.674C0.538 0.661 0.514 0.5730000000000001 0.514 0.5730000000000001L0.155 -0.976C0.152 -0.987 0.148 -1 0.115 -1C0.094 -1 0.089 -0.992 0.089 -0.985C0.089 -0.982 0.089 -0.98 0.09 -0.978C0.092 -0.973 0.153 -0.717 0.157 -0.7000000000000001C0.158 -0.6950000000000001 0.159 -0.6900000000000001 0.159 -0.687C0.159 -0.683 0.158 -0.681 0.155 -0.681C0.153 -0.681 0.152 -0.682 0.149 -0.683C0.136 -0.6890000000000001 0.136 -0.6910000000000001 0.122 -0.6960000000000001C0.111 -0.7000000000000001 0.096 -0.7030000000000001 0.082 -0.7030000000000001C0.044 -0.7030000000000001 0 -0.676 0 -0.634C0 -0.597 0.03 -0.5660000000000001 0.068 -0.5660000000000001C0.106 -0.5660000000000001 0.136 -0.597 0.136 -0.634C0.136 -0.638 0.136 -0.641 0.135 -0.644C0.147 -0.644 0.17 -0.643 0.18 -0.606C0.187 -0.582 0.20400000000000001 -0.511 0.22 -0.448C0.22 -0.447 0.221 -0.446 0.221 -0.444C0.222 -0.44 0.222 -0.436 0.222 -0.433C0.222 -0.428 0.221 -0.424 0.217 -0.424C0.215 -0.424 0.213 -0.425 0.211 -0.426C0.188 -0.437 0.164 -0.446 0.139 -0.446C0.101 -0.446 0.057 -0.42 0.057 -0.378C0.057 -0.34 0.08700000000000001 -0.31 0.125 -0.31C0.163 -0.31 0.193 -0.34 0.193 -0.378C0.193 -0.381 0.193 -0.384 0.192 -0.388C0.20700000000000002 -0.387 0.23600000000000002 -0.378 0.245 -0.34600000000000003C0.25 -0.331 0.266 -0.261 0.279 -0.20700000000000002C0.281 -0.20500000000000002 0.28400000000000003 -0.187 0.28400000000000003 -0.184C0.28400000000000003 -0.179 0.28200000000000003 -0.17500000000000002 0.279 -0.17500000000000002C0.278 -0.17500000000000002 0.276 -0.176 0.274 -0.177C0.261 -0.183 0.253 -0.187 0.23900000000000002 -0.192C0.227 -0.196 0.213 -0.199 0.199 -0.199C0.19 -0.199 0.18 -0.197 0.17200000000000001 -0.195C0.14300000000000002 -0.186 0.116 -0.162 0.116 -0.13C0.116 -0.093 0.147 -0.062 0.184 -0.062C0.222 -0.062 0.252 -0.093 0.252 -0.13L0.252 -0.14C0.267 -0.14 0.296 -0.13 0.307 -0.098C0.312 -0.084 0.341 0.039 0.34400000000000003 0.051000000000000004C0.34400000000000003 0.054 0.34500000000000003 0.057 0.34500000000000003 0.059000000000000004C0.34500000000000003 0.066 0.342 0.07200000000000001 0.338 0.07200000000000001C0.337 0.07200000000000001 0.335 0.07100000000000001 0.333 0.07C0.309 0.059000000000000004 0.28400000000000003 0.048 0.257 0.048C0.247 0.048 0.23800000000000002 0.05 0.23 0.052000000000000005C0.202 0.061 0.17500000000000002 0.085 0.17500000000000002 0.117C0.17500000000000002 0.154 0.20600000000000002 0.185 0.243 0.185C0.281 0.185 0.311 0.154 0.311 0.117C0.311 0.113 0.311 0.11 0.31 0.107C0.327 0.107 0.362 0.121 0.369 0.15Z" /></g><path d="M0 -0.01625L12.425999999999995 -0.01625C12.434974627999996 -0.01625 12.442249999999994 -0.008974628 12.442249999999994 0C12.442249999999994 0.008974628 12.434974627999996 0.01625 12.425999999999995 0.01625L0 0.01625C-0.008974628 0.01625 -0.01625 0.008974628 -0.01625 0C-0.01625 -0.008974628 -0.008974628 -0.01625 0 -0.01625Z" /></g></g></g></g></svg>
