<svg viewBox="0 0 215.9 279.4" width="215.9mm" height="279.4mm" xmlns="http://www.w3.org/2000/svg" xmlns:xlink="http://www.w3.org/1999/xlink"><g transform="scale(1, -1)"><g transform="translate(0,0) scale(0.007,0.007)"><g transform="translate(0,-2000) scale(1,1)"><g><path d="" /><g transform="translate(200,0) scale(1,1)"><g><path d="M57 -149L57 148C57 151 60 155 65 155L78 155C82 155 87 151 87 148L87 113C90 120 98 125 105 125L194 125C199 125 204 123 208 120L273 66L336 120C340 123 346 125 351 125L440 125C448 125 455 120 458 113L458 148C458 151 463 155 467 155L481 155C485 155 489 151 489 148L489 -149C489 -152 485 -155 481 -155L467 -155C463 -155 458 -152 458 -149L458 -113C455 -120 448 -125 439 -125L351 -125C346 -125 341 -123 337 -119L273 -66L208 -119C204 -123 199 -125 194 -125L105 -125C97 -125 90 -120 87 -113L87 -149C87 -152 82 -155 78 -155L65 -155C60 -155 57 -152 57 -149ZM192 98L144 98L253 0L144 -98L192 -98L273 -31L352 -98L401 -98L292 0L401 98L352 98L273 31ZM514 -149L514 148C514 151 519 155 524 155L536 155C542 155 546 151 546 148L546 -149C546 -152 542 -155 536 -155L524 -155C519 -155 514 -152 514 -149ZM0 148C0 151 4 155 9 155L21 155C27 155 30 151 30 148L30 -149C30 -152 27 -155 21 -155L9 -155C4 -155 0 -152 0 -149L0 148ZM360 0L458 -92L458 92ZM87 91L87 -91L185 0Z" /><g transform="translate(546,125) scale(1,1)"><g></g></g></g></g><g transform="translate(746,0) scale(1,1)"><path d="" /></g><g transform="translate(946,0) scale(1,1)"><g><path d="M0 103C0 114 11 125 21 125L110 125C115 125 120 123 124 119L189 65L253 119C257 123 262 125 267 125L356 125C367 125 376 114 376 103C376 97 374 91 369 86L286 0L369 -86C374 -91 377 -97 377 -103C377 -114 367 -125 355 -125L267 -125C262 -125 257 -123 253 -119L189 -66L124 -119C120 -123 115 -125 110 -125L22 -125C10 -125 1 -114 1 -103C1 -97 3 -91 8 -86L92 0L8 86C3 91 0 97 0 103ZM170 0L61 -98L109 -98L189 -31L268 -98L317 -98L208 0L317 98L268 98L189 31L109 98L61 98Z" /><g transform="translate(377,125) scale(1,1)"><g></g></g></g></g><g transform="translate(1323,0) scale(1,1)"><path d="" /></g><g transform="translate(1523,0) scale(1,1)"><g><path d="M0 -103C0 -96 2 -91 5 -88L97 15L10 86C5 92 3 97 3 103C3 114 13 125 25 125L66 125C72 125 76 123 80 119L145 68L188 118C193 123 199 125 205 125L311 125C325 125 334 115 334 103C334 96 333 91 329 88L237 -15L323 -87C329 -91 332 -96 332 -102C332 -113 320 -125 309 -125L267 -125C262 -125 257 -122 252 -119L188 -69L145 -118C141 -123 134 -125 128 -125L22 -125C10 -125 0 -115 0 -103ZM66 103L25 103L143 3L49 -103L102 -103L172 -24L267 -103L309 -103L190 -4L285 103L232 103L162 23Z" /><path d="M349 118L349 963C349 971.284272 342.284272 978 334 978C325.715728 978 319 971.284272 319 963L319 118C319 109.715728 325.715728 103 334 103C342.284272 103 349 109.715728 349 118Z" /><g transform="translate(334,125) scale(1,1)"><g></g></g></g></g><g transform="translate(1857,0) scale(1,1)"><path d="" /></g><g transform="translate(2057,0) scale(1,1)"><g><path d="M285 -99C288 -102 290 -106 290 -111C290 -117 285 -125 277 -125C275 -125 272 -124 270 -122L144 -17L20 -122C18 -124 16 -125 13 -125C5 -125 0 -118 0 -110C0 -106 1 -102 5 -99L124 0L5 100C2 103 0 108 0 112C0 118 5 125 12 125C15 125 18 124 20 123L144 18L270 123C272 124 275 125 277 125C283 125 290 119 290 111C290 107 288 102 285 100L166 0Z" /><path d="M305 126L305 971C305 979.284272 298.284272 986 290 986C281.715728 986 275 979.284272 275 971L275 126C275 117.715728 281.715728 111 290 111C298.284272 111 305 117.715728 305 126Z" /><g transform="translate(290,125) scale(1,1)"><g></g></g></g></g><g transform="translate(2347,0) scale(1,1)"><path d="" /></g><g transform="translate(2547,0) scale(1,1)"><g><path d="M285 -99C288 -102 290 -106 290 -111C290 -117 285 -125 277 -125C275 -125 272 -124 270 -122L144 -17L20 -122C18 -124 16 -125 13 -125C5 -125 0 -118 0 -110C0 -106 1 -102 5 -99L124 0L5 100C2 103 0 108 0 112C0 118 5 125 12 125C15 125 18 124 20 123L144 18L270 123C272 124 275 125 277 125C283 125 290 119 290 111C290 107 288 102 285 100L166 0Z" /><path d="M305 126L305 961C305 969.284272 298.284272 976 290 976C281.715728 976 275 969.284272 275 961L275 126C275 117.715728 281.715728 111 290 111C298.284272 111 305 117.715728 305 126Z" /><g transform="translate(275,986) scale(1,1)"><path d="M238 -790C234 -804 222 -810 215 -810C213 -810 211 -810 210 -809C204 -805 194 -796 194 -780C194 -776 195 -771 197 -765C214 -720 221 -673 221 -628C221 -569 212 -512 197 -478C161 -393 66 -257 0 -245L0 -6C0 6 4 9 10 9C29 9 37 3 40 -13C56 -109 98 -195 149 -274C212 -374 264 -492 264 -617C264 -695 238 -790 238 -790Z" /></g><g transform="translate(290,125) scale(1,1)"><g></g></g></g></g><g transform="translate(3086,0) scale(1,1)"><path d="" /></g><g transform="translate(3286,0) scale(1,1)"><g><path d="M285 -99C288 -102 290 -106 290 -111C290 -117 285 -125 277 -125C275 -125 272 -124 270 -122L144 -17L20 -122C18 -124 16 -125 13 -125C5 -125 0 -118 0 -110C0 -106 1 -102 5 -99L124 0L5 100C2 103 0 108 0 112C0 118 5 125 12 125C15 125 18 124 20 123L144 18L270 123C272 124 275 125 277 125C283 125 290 119 290 111C290 107 288 102 285 100L166 0Z" /><path d="M305 126L305 949C305 957.284272 298.284272 964 290 964C281.715728 964 275 957.284272 275 949L275 126C275 117.715728 281.715728 111 290 111C298.284272 111 305 117.715728 305 126Z" /><g transform="translate(275,986) scale(1,1)"><path d="M272 -796C266 -809 259 -813 252 -813C238 -813 230 -800 230 -787C230 -784 230 -782 231 -778C236 -748 239 -718 239 -689C239 -637 230 -588 207 -540C138 -400 67 -398 5 -396L0 -396L0 1C0 1 11 2 17 2C23 2 35 0 37 -11C54 -117 110 -133 164 -191C236 -269 262 -297 272 -365C274 -377 275 -388 275 -401C275 -462 253 -522 250 -528C249 -531 249 -533 249 -535C249 -539 250 -541 250 -544C268 -581 279 -622 279 -664L279 -686C279 -734 276 -791 272 -796ZM209 -459C211 -462 213 -463 216 -463C221 -463 228 -460 229 -457C234 -449 234 -439 236 -431C237 -424 237 -418 237 -411C237 -379 228 -348 210 -322C177 -273 123 -217 62 -217L54 -217C46 -217 40 -223 40 -227C40 -228 40 -229 41 -230C62 -312 108 -336 155 -390C176 -414 193 -434 209 -459Z" /></g><g transform="translate(290,125) scale(1,1)"><g></g></g></g></g><g transform="translate(3840,0) scale(1,1)"><path d="" /></g><g transform="translate(4040,0) scale(1,1)"><g><path d="M285 -99C288 -102 290 -106 290 -111C290 -117 285 -125 277 -125C275 -125 272 -124 270 -122L144 -17L20 -122C18 -124 16 -125 13 -125C5 -125 0 -118 0 -110C0 -106 1 -102 5 -99L124 0L5 100C2 103 0 108 0 112C0 118 5 125 12 125C15 125 18 124 20 123L144 18L270 123C272 124 275 125 277 125C283 125 290 119 290 111C290 107 288 102 285 100L166 0Z" /><path d="M305 126L305 1065C305 1073.284272 298.284272 1080 290 1080C281.715728 1080 275 1073.284272 275 1065L275 126C275 117.715728 281.715728 111 290 111C298.284272 111 305 117.715728 305 126Z" /><g transform="translate(275,986) scale(1,1)"><path d="M260 -673C260 -682 261 -691 261 -701C261 -744 257 -790 254 -796C247 -807 240 -812 234 -812C232 -812 230 -811 228 -810C221 -807 215 -798 215 -786C215 -784 216 -782 216 -779C221 -750 224 -722 224 -694C224 -646 215 -601 193 -557C129 -427 63 -425 5 -423L0 -423L0 137C0 137 6 149 12 149C18 149 31 139 32 130C49 30 103 14 153 -40C220 -113 243 -140 254 -201C256 -210 256 -219 256 -229C256 -268 245 -309 236 -335C250 -364 257 -396 257 -428C257 -485 236 -540 234 -547C233 -549 233 -551 233 -553C233 -556 233 -558 234 -560C249 -596 258 -634 260 -673ZM208 -181C153 -88 94 -64 39 -64C55 -161 104 -178 153 -232C176 -257 194 -276 208 -294C213 -277 218 -260 220 -250C221 -243 223 -237 223 -229C223 -216 219 -201 208 -181ZM219 -456C220 -448 221 -440 221 -432C221 -351 131 -255 51 -255C45 -256 38 -267 38 -268C58 -345 102 -366 145 -417L150 -422C167 -442 181 -459 196 -481C197 -484 200 -485 203 -485C208 -485 213 -482 214 -479C217 -472 217 -464 219 -456Z" /></g><g transform="translate(290,125) scale(1,1)"><g></g></g></g></g><g transform="translate(4577,0) scale(1,1)"><path d="" /></g><g transform="translate(4777,0) scale(1,1)"><g><path d="M285 -99C288 -102 290 -106 290 -111C290 -117 285 -125 277 -125C275 -125 272 -124 270 -122L144 -17L20 -122C18 -124 16 -125 13 -125C5 -125 0 -118 0 -110C0 -106 1 -102 5 -99L124 0L5 100C2 103 0 108 0 112C0 118 5 125 12 125C15 125 18 124 20 123L144 18L270 123C272 124 275 125 277 125C283 125 290 119 290 111C290 107 288 102 285 100L166 0Z" /><path d="M305 126L305 1264C305 1272.284272 298.284272 1279 290 1279C281.715728 1279 275 1272.284272 275 1264L275 126C275 117.715728 281.715728 111 290 111C298.284272 111 305 117.715728 305 126Z" /><g transform="translate(275,986) scale(1,1)"><path d="M260 -673C260 -682 261 -691 261 -701C261 -744 257 -790 254 -796C247 -807 240 -812 234 -812C232 -812 230 -811 228 -810C221 -807 215 -798 215 -786C215 -784 216 -782 216 -779C221 -750 224 -722 224 -694C224 -646 215 -601 193 -557C129 -427 63 -425 5 -423L0 -423L0 335C0 335 6 347 12 347C18 347 31 337 32 328C49 228 103 212 153 158C220 85 243 58 254 -3C255 -12 256 -21 256 -30C256 -72 243 -116 234 -141C249 -168 256 -199 256 -229C256 -268 245 -309 236 -335C250 -364 257 -396 257 -428C257 -485 236 -540 234 -547C233 -549 233 -551 233 -553C233 -556 233 -558 234 -560C249 -596 258 -634 260 -673ZM208 17C153 109 96 134 39 134C40 133 40 131 40 130C57 30 103 14 153 -40C176 -65 193 -84 207 -101L220 -52C221 -45 223 -39 223 -31C223 -18 219 -3 208 17ZM208 -181C153 -88 94 -64 39 -64C55 -161 104 -178 153 -232C176 -257 194 -276 208 -294C213 -277 218 -260 220 -250C221 -243 223 -237 223 -229C223 -216 219 -201 208 -181ZM219 -456C220 -448 221 -440 221 -432C221 -351 131 -255 51 -255C45 -256 38 -267 38 -268C58 -345 102 -366 145 -417L150 -422C167 -442 181 -459 196 -481C197 -484 200 -485 203 -485C208 -485 213 -482 214 -479C217 -472 217 -464 219 -456Z" /></g><g transform="translate(290,125) scale(1,1)"><g></g></g></g></g><g transform="translate(5314,0) scale(1,1)"><path d="" /></g><g transform="translate(5514,0) scale(1,1)"><g><path d="M285 -99C288 -102 290 -106 290 -111C290 -117 285 -125 277 -125C275 -125 272 -124 270 -122L144 -17L20 -122C18 -124 16 -125 13 -125C5 -125 0 -118 0 -110C0 -106 1 -102 5 -99L124 0L5 100C2 103 0 108 0 112C0 118 5 125 12 125C15 125 18 124 20 123L144 18L270 123C272 124 275 125 277 125C283 125 290 119 290 111C290 107 288 102 285 100L166 0Z" /><path d="M305 126L305 1446C305 1454.284272 298.284272 1461 290 1461C281.715728 1461 275 1454.284272 275 1446L275 126C275 117.715728 281.715728 111 290 111C298.284272 111 305 117.715728 305 126Z" /><g transform="translate(275,986) scale(1,1)"><path d="M260 -673C260 -682 261 -691 261 -701C261 -744 257 -790 254 -796C247 -807 240 -812 234 -812C232 -812 230 -811 228 -810C221 -807 215 -798 215 -786C215 -784 216 -782 216 -779C221 -750 224 -722 224 -694C224 -646 215 -601 193 -557C129 -427 63 -425 5 -423L0 -423L0 521C0 521 6 533 12 533C18 533 31 523 32 514C49 414 103 398 153 344C220 271 243 244 254 183C256 174 256 164 256 154C256 116 246 77 237 52C245 35 250 18 254 -3C255 -12 256 -21 256 -30C256 -72 243 -116 234 -141C249 -168 256 -199 256 -229C256 -268 245 -309 236 -335C250 -364 257 -396 257 -428C257 -485 236 -540 234 -547C233 -549 233 -551 233 -553C233 -556 233 -558 234 -560C249 -596 258 -634 260 -673ZM208 203C153 296 93 320 38 320C55 227 105 211 153 158C177 132 195 112 209 94C214 110 218 125 220 134C221 141 223 147 223 155C223 168 219 183 208 203ZM208 17C153 109 95 134 38 134C39 133 39 131 39 130C56 30 103 14 153 -40C176 -65 193 -84 207 -101L220 -52C221 -45 223 -39 223 -31C223 -18 219 -3 208 17ZM208 -181C153 -88 94 -64 39 -64C55 -161 104 -178 153 -232C176 -257 194 -276 208 -294C213 -277 218 -260 220 -250C221 -243 223 -237 223 -229C223 -216 219 -201 208 -181ZM219 -456C220 -448 221 -440 221 -432C221 -351 131 -255 51 -255C45 -256 38 -267 38 -268C58 -345 102 -366 145 -417L150 -422C167 -442 181 -459 196 -481C197 -484 200 -485 203 -485C208 -485 213 -482 214 -479C217 -472 217 -464 219 -456Z" /></g><g transform="translate(290,125) scale(1,1)"><g></g></g></g></g><g transform="translate(6048,0) scale(1,1)"><path d="" /></g><g transform="translate(6248,0) scale(1,1)"><g><path d="M285 -99C288 -102 290 -106 290 -111C290 -117 285 -125 277 -125C275 -125 272 -124 270 -122L144 -17L20 -122C18 -124 16 -125 13 -125C5 -125 0 -118 0 -110C0 -106 1 -102 5 -99L124 0L5 100C2 103 0 108 0 112C0 118 5 125 12 125C15 125 18 124 20 123L144 18L270 123C272 124 275 125 277 125C283 125 290 119 290 111C290 107 288 102 285 100L166 0Z" /><path d="M305 126L305 1619C305 1627.284272 298.284272 1634 290 1634C281.715728 1634 275 1627.284272 275 1619L275 126C275 117.715728 281.715728 111 290 111C298.284272 111 305 117.715728 305 126Z" /><g transform="translate(275,986) scale(1,1)"><path d="M263 -670C263 -679 264 -688 264 -698C264 -742 260 -790 256 -795C250 -807 244 -812 237 -812C234 -812 231 -811 229 -810C222 -808 216 -799 216 -787C216 -784 216 -782 217 -779C222 -749 225 -721 225 -693C225 -645 216 -599 195 -555C130 -421 61 -419 4 -417L0 -417L0 695C0 701 14 704 15 704C23 704 30 704 31 686C48 589 103 562 155 507L173 488C227 429 252 400 261 347C263 337 263 327 263 316C263 277 254 236 245 209C258 184 263 157 263 129C263 91 254 49 245 22C258 -3 263 -30 263 -58C263 -96 254 -138 245 -165C258 -189 264 -219 264 -246C264 -283 255 -321 247 -348C255 -372 259 -399 259 -424C259 -482 238 -537 236 -544C235 -545 235 -547 235 -549C235 -552 236 -556 236 -557C252 -594 261 -632 263 -670ZM155 -224C180 -251 199 -272 213 -291C219 -276 224 -258 224 -242C224 -229 221 -215 209 -195C155 -104 93 -78 39 -77C59 -157 107 -173 155 -224ZM155 -54L210 -115C214 -101 219 -86 221 -77C223 -70 224 -63 224 -55C224 -42 221 -27 209 -7C154 86 94 110 39 110C59 25 107 0 155 -54ZM155 133L210 72C214 86 219 101 221 110C223 117 224 124 224 132C224 145 220 159 209 178C154 273 94 297 39 297C59 212 107 187 155 133ZM208 365C154 460 94 484 39 484C59 399 107 374 155 320L210 259C214 273 219 288 221 297C223 304 224 311 224 319C224 332 220 346 208 365ZM221 -450C222 -443 223 -436 223 -429C223 -351 134 -249 57 -249L51 -249C43 -249 39 -256 39 -262C57 -338 101 -361 147 -413C166 -434 181 -453 196 -478C198 -481 201 -482 204 -482C209 -482 214 -478 215 -475C219 -467 219 -459 221 -450Z" /></g><g transform="translate(290,125) scale(1,1)"><g></g></g></g></g><g transform="translate(6791,0) scale(1,1)"><path d="" /></g><g transform="translate(6991,0) scale(1,1)"><g><path d="M57 -149L57 148C57 151 60 155 65 155L78 155C82 155 87 151 87 148L87 113C90 120 98 125 105 125L194 125C199 125 204 123 208 120L273 66L336 120C340 123 346 125 351 125L440 125C448 125 455 120 458 113L458 148C458 151 463 155 467 155L481 155C485 155 489 151 489 148L489 -149C489 -152 485 -155 481 -155L467 -155C463 -155 458 -152 458 -149L458 -113C455 -120 448 -125 439 -125L351 -125C346 -125 341 -123 337 -119L273 -66L208 -119C204 -123 199 -125 194 -125L105 -125C97 -125 90 -120 87 -113L87 -149C87 -152 82 -155 78 -155L65 -155C60 -155 57 -152 57 -149ZM192 98L144 98L253 0L144 -98L192 -98L273 -31L352 -98L401 -98L292 0L401 98L352 98L273 31ZM514 -149L514 148C514 151 519 155 524 155L536 155C542 155 546 151 546 148L546 -149C546 -152 542 -155 536 -155L524 -155C519 -155 514 -152 514 -149ZM0 148C0 151 4 155 9 155L21 155C27 155 30 151 30 148L30 -149C30 -152 27 -155 21 -155L9 -155C4 -155 0 -152 0 -149L0 148ZM360 0L458 -92L458 92ZM87 91L87 -91L185 0Z" /><g transform="translate(546,125) scale(1,1)"><g><g transform="translate(0,0) scale(1,1)"><path d="" /></g><g transform="translate(112.5,0) scale(1,1)"><path d="M100 0C100 -28 78 -50 50 -50C22 -50 0 -28 0 0C0 28 22 50 50 50C78 50 100 28 100 0Z" /></g></g></g></g></g><g transform="translate(7749.5,0) scale(1,1)"><path d="" /></g><g transform="translate(7949.5,0) scale(1,1)"><g><path d="M0 103C0 114 11 125 21 125L110 125C115 125 120 123 124 119L189 65L253 119C257 123 262 125 267 125L356 125C367 125 376 114 376 103C376 97 374 91 369 86L286 0L369 -86C374 -91 377 -97 377 -103C377 -114 367 -125 355 -125L267 -125C262 -125 257 -123 253 -119L189 -66L124 -119C120 -123 115 -125 110 -125L22 -125C10 -125 1 -114 1 -103C1 -97 3 -91 8 -86L92 0L8 86C3 91 0 97 0 103ZM170 0L61 -98L109 -98L189 -31L268 -98L317 -98L208 0L317 98L268 98L189 31L109 98L61 98Z" /><g transform="translate(377,125) scale(1,1)"><g><g transform="translate(0,0) scale(1,1)"><path d="" /></g><g transform="translate(112.5,0) scale(1,1)"><path d="M100 0C100 -28 78 -50 50 -50C22 -50 0 -28 0 0C0 28 22 50 50 50C78 50 100 28 100 0Z" /></g></g></g></g></g><g transform="translate(8539,0) scale(1,1)"><path d="" /></g><g transform="translate(8739,0) scale(1,1)"><g><path d="M0 -103C0 -96 2 -91 5 -88L97 15L10 86C5 92 3 97 3 103C3 114 13 125 25 125L66 125C72 125 76 123 80 119L145 68L188 118C193 123 199 125 205 125L311 125C325 125 334 115 334 103C334 96 333 91 329 88L237 -15L323 -87C329 -91 332 -96 332 -102C332 -113 320 -125 309 -125L267 -125C262 -125 257 -122 252 -119L188 -69L145 -118C141 -123 134 -125 128 -125L22 -125C10 -125 0 -115 0 -103ZM66 103L25 103L143 3L49 -103L102 -103L172 -24L267 -103L309 -103L190 -4L285 103L232 103L162 23Z" /><path d="M349 118L349 963C349 971.284272 342.284272 978 334 978C325.715728 978 319 971.284272 319 963L319 118C319 109.715728 325.715728 103 334 103C342.284272 103 349 109.715728 349 118Z" /><g transform="translate(334,125) scale(1,1)"><g><g transform="translate(0,0) scale(1,1)"><path d="" /></g><g transform="translate(112.5,0) scale(1,1)"><path d="M100 0C100 -28 78 -50 50 -50C22 -50 0 -28 0 0C0 28 22 50 50 50C78 50 100 28 100 0Z" /></g></g></g></g></g><g transform="translate(9285.5,0) scale(1,1)"><path d="" /></g><g transform="translate(9485.5,0) scale(1,1)"><g><path d="M285 -99C288 -102 290 -106 290 -111C290 -117 285 -125 277 -125C275 -125 272 -124 270 -122L144 -17L20 -122C18 -124 16 -125 13 -125C5 -125 0 -118 0 -110C0 -106 1 -102 5 -99L124 0L5 100C2 103 0 108 0 112C0 118 5 125 12 125C15 125 18 124 20 123L144 18L270 123C272 124 275 125 277 125C283 125 290 119 290 111C290 107 288 102 285 100L166 0Z" /><path d="M305 126L305 971C305 979.284272 298.284272 986 290 986C281.715728 986 275 979.284272 275 971L275 126C275 117.715728 281.715728 111 290 111C298.284272 111 305 117.715728 305 126Z" /><g transform="translate(290,125) scale(1,1)"><g><g transform="translate(0,0) scale(1,1)"><path d="" /></g><g transform="translate(112.5,0) scale(1,1)"><path d="M100 0C100 -28 78 -50 50 -50C22 -50 0 -28 0 0C0 28 22 50 50 50C78 50 100 28 100 0Z" /></g></g></g></g></g><g transform="translate(9988,0) scale(1,1)"><path d="" /></g><g transform="translate(10188,0) scale(1,1)"><g><path d="M285 -99C288 -102 290 -106 290 -111C290 -117 285 -125 277 -125C275 -125 272 -124 270 -122L144 -17L20 -122C18 -124 16 -125 13 -125C5 -125 0 -118 0 -110C0 -106 1 -102 5 -99L124 0L5 100C2 103 0 108 0 112C0 118 5 125 12 125C15 125 18 124 20 123L144 18L270 123C272 124 275 125 277 125C283 125 290 119 290 111C290 107 288 102 285 100L166 0Z" /><path d="M305 126L305 961C305 969.284272 298.284272 976 290 976C281.715728 976 275 969.284272 275 961L275 126C275 117.715728 281.715728 111 290 111C298.284272 111 305 117.715728 305 126Z" /><g transform="translate(275,986) scale(1,1)"><path d="M238 -790C234 -804 222 -810 215 -810C213 -810 211 -810 210 -809C204 -805 194 -796 194 -780C194 -776 195 -771 197 -765C214 -720 221 -673 221 -628C221 -569 212 -512 197 -478C161 -393 66 -257 0 -245L0 -6C0 6 4 9 10 9C29 9 37 3 40 -13C56 -109 98 -195 149 -274C212 -374 264 -492 264 -617C264 -695 238 -790 238 -790Z" /></g><g transform="translate(290,125) scale(1,1)"><g><g transform="translate(0,0) scale(1,1)"><path d="" /></g><g transform="translate(112.5,0) scale(1,1)"><path d="M100 0C100 -28 78 -50 50 -50C22 -50 0 -28 0 0C0 28 22 50 50 50C78 50 100 28 100 0Z" /></g></g></g></g></g><g transform="translate(10727,0) scale(1,1)"><path d="" /></g><g transform="translate(10927,0) scale(1,1)"><g><path d="M285 -99C288 -102 290 -106 290 -111C290 -117 285 -125 277 -125C275 -125 272 -124 270 -122L144 -17L20 -122C18 -124 16 -125 13 -125C5 -125 0 -118 0 -110C0 -106 1 -102 5 -99L124 0L5 100C2 103 0 108 0 112C0 118 5 125 12 125C15 125 18 124 20 123L144 18L270 123C272 124 275 125 277 125C283 125 290 119 290 111C290 107 288 102 285 100L166 0Z" /><path d="M305 126L305 949C305 957.284272 298.284272 964 290 964C281.715728 964 275 957.284272 275 949L275 126C275 117.715728 281.715728 111 290 111C298.284272 111 305 117.715728 305 126Z" /><g transform="translate(275,986) scale(1,1)"><path d="M272 -796C266 -809 259 -813 252 -813C238 -813 230 -800 230 -787C230 -784 230 -782 231 -778C236 -748 239 -718 239 -689C239 -637 230 -588 207 -540C138 -400 67 -398 5 -396L0 -396L0 1C0 1 11 2 17 2C23 2 35 0 37 -11C54 -117 110 -133 164 -191C236 -269 262 -297 272 -365C274 -377 275 -388 275 -401C275 -462 253 -522 250 -528C249 -531 249 -533 249 -535C249 -539 250 -541 250 -544C268 -581 279 -622 279 -664L279 -686C279 -734 276 -791 272 -796ZM209 -459C211 -462 213 -463 216 -463C221 -463 228 -460 229 -457C234 -449 234 -439 236 -431C237 -424 237 -418 237 -411C237 -379 228 -348 210 -322C177 -273 123 -217 62 -217L54 -217C46 -217 40 -223 40 -227C40 -228 40 -229 41 -230C62 -312 108 -336 155 -390C176 -414 193 -434 209 -459Z" /></g><g transform="translate(290,125) scale(1,1)"><g><g transform="translate(0,0) scale(1,1)"><path d="" /></g><g transform="translate(112.5,0) scale(1,1)"><path d="M100 0C100 -28 78 -50 50 -50C22 -50 0 -28 0 0C0 28 22 50 50 50C78 50 100 28 100 0Z" /></g></g></g></g></g><g transform="translate(11481,0) scale(1,1)"><path d="" /></g><g transform="translate(11681,0) scale(1,1)"><g><path d="M285 -99C288 -102 290 -106 290 -111C290 -117 285 -125 277 -125C275 -125 272 -124 270 -122L144 -17L20 -122C18 -124 16 -125 13 -125C5 -125 0 -118 0 -110C0 -106 1 -102 5 -99L124 0L5 100C2 103 0 108 0 112C0 118 5 125 12 125C15 125 18 124 20 123L144 18L270 123C272 124 275 125 277 125C283 125 290 119 290 111C290 107 288 102 285 100L166 0Z" /><path d="M305 126L305 1065C305 1073.284272 298.284272 1080 290 1080C281.715728 1080 275 1073.284272 275 1065L275 126C275 117.715728 281.715728 111 290 111C298.284272 111 305 117.715728 305 126Z" /><g transform="translate(275,986) scale(1,1)"><path d="M260 -673C260 -682 261 -691 261 -701C261 -744 257 -790 254 -796C247 -807 240 -812 234 -812C232 -812 230 -811 228 -810C221 -807 215 -798 215 -786C215 -784 216 -782 216 -779C221 -750 224 -722 224 -694C224 -646 215 -601 193 -557C129 -427 63 -425 5 -423L0 -423L0 137C0 137 6 149 12 149C18 149 31 139 32 130C49 30 103 14 153 -40C220 -113 243 -140 254 -201C256 -210 256 -219 256 -229C256 -268 245 -309 236 -335C250 -364 257 -396 257 -428C257 -485 236 -540 234 -547C233 -549 233 -551 233 -553C233 -556 233 -558 234 -560C249 -596 258 -634 260 -673ZM208 -181C153 -88 94 -64 39 -64C55 -161 104 -178 153 -232C176 -257 194 -276 208 -294C213 -277 218 -260 220 -250C221 -243 223 -237 223 -229C223 -216 219 -201 208 -181ZM219 -456C220 -448 221 -440 221 -432C221 -351 131 -255 51 -255C45 -256 38 -267 38 -268C58 -345 102 -366 145 -417L150 -422C167 -442 181 -459 196 -481C197 -484 200 -485 203 -485C208 -485 213 -482 214 -479C217 -472 217 -464 219 -456Z" /></g><g transform="translate(290,125) scale(1,1)"><g><g transform="translate(0,0) scale(1,1)"><path d="" /></g><g transform="translate(112.5,0) scale(1,1)"><path d="M100 0C100 -28 78 -50 50 -50C22 -50 0 -28 0 0C0 28 22 50 50 50C78 50 100 28 100 0Z" /></g></g></g></g></g><g transform="translate(12218,0) scale(1,1)"><path d="" /></g><g transform="translate(12418,0) scale(1,1)"><g><path d="M285 -99C288 -102 290 -106 290 -111C290 -117 285 -125 277 -125C275 -125 272 -124 270 -122L144 -17L20 -122C18 -124 16 -125 13 -125C5 -125 0 -118 0 -110C0 -106 1 -102 5 -99L124 0L5 100C2 103 0 108 0 112C0 118 5 125 12 125C15 125 18 124 20 123L144 18L270 123C272 124 275 125 277 125C283 125 290 119 290 111C290 107 288 102 285 100L166 0Z" /><path d="M305 126L305 1264C305 1272.284272 298.284272 1279 290 1279C281.715728 1279 275 1272.284272 275 1264L275 126C275 117.715728 281.715728 111 290 111C298.284272 111 305 117.715728 305 126Z" /><g transform="translate(275,986) scale(1,1)"><path d="M260 -673C260 -682 261 -691 261 -701C261 -744 257 -790 254 -796C247 -807 240 -812 234 -812C232 -812 230 -811 228 -810C221 -807 215 -798 215 -786C215 -784 216 -782 216 -779C221 -750 224 -722 224 -694C224 -646 215 -601 193 -557C129 -427 63 -425 5 -423L0 -423L0 335C0 335 6 347 12 347C18 347 31 337 32 328C49 228 103 212 153 158C220 85 243 58 254 -3C255 -12 256 -21 256 -30C256 -72 243 -116 234 -141C249 -168 256 -199 256 -229C256 -268 245 -309 236 -335C250 -364 257 -396 257 -428C257 -485 236 -540 234 -547C233 -549 233 -551 233 -553C233 -556 233 -558 234 -560C249 -596 258 -634 260 -673ZM208 17C153 109 96 134 39 134C40 133 40 131 40 130C57 30 103 14 153 -40C176 -65 193 -84 207 -101L220 -52C221 -45 223 -39 223 -31C223 -18 219 -3 208 17ZM208 -181C153 -88 94 -64 39 -64C55 -161 104 -178 153 -232C176 -257 194 -276 208 -294C213 -277 218 -260 220 -250C221 -243 223 -237 223 -229C223 -216 219 -201 208 -181ZM219 -456C220 -448 221 -440 221 -432C221 -351 131 -255 51 -255C45 -256 38 -267 38 -268C58 -345 102 -366 145 -417L150 -422C167 -442 181 -459 196 -481C197 -484 200 -485 203 -485C208 -485 213 -482 214 -479C217 -472 217 -464 219 -456Z" /></g><g transform="translate(290,125) scale(1,1)"><g><g transform="translate(0,0) scale(1,1)"><path d="" /></g><g transform="translate(112.5,0) scale(1,1)"><path d="M100 0C100 -28 78 -50 50 -50C22 -50 0 -28 0 0C0 28 22 50 50 50C78 50 100 28 100 0Z" /></g></g></g></g></g><g transform="translate(12955,0) scale(1,1)"><path d="" /></g><g transform="translate(13155,0) scale(1,1)"><g><path d="M285 -99C288 -102 290 -106 290 -111C290 -117 285 -125 277 -125C275 -125 272 -124 270 -122L144 -17L20 -122C18 -124 16 -125 13 -125C5 -125 0 -118 0 -110C0 -106 1 -102 5 -99L124 0L5 100C2 103 0 108 0 112C0 118 5 125 12 125C15 125 18 124 20 123L144 18L270 123C272 124 275 125 277 125C283 125 290 119 290 111C290 107 288 102 285 100L166 0Z" /><path d="M305 126L305 1446C305 1454.284272 298.284272 1461 290 1461C281.715728 1461 275 1454.284272 275 1446L275 126C275 117.715728 281.715728 111 290 111C298.284272 111 305 117.715728 305 126Z" /><g transform="translate(275,986) scale(1,1)"><path d="M260 -673C260 -682 261 -691 261 -701C261 -744 257 -790 254 -796C247 -807 240 -812 234 -812C232 -812 230 -811 228 -810C221 -807 215 -798 215 -786C215 -784 216 -782 216 -779C221 -750 224 -722 224 -694C224 -646 215 -601 193 -557C129 -427 63 -425 5 -423L0 -423L0 521C0 521 6 533 12 533C18 533 31 523 32 514C49 414 103 398 153 344C220 271 243 244 254 183C256 174 256 164 256 154C256 116 246 77 237 52C245 35 250 18 254 -3C255 -12 256 -21 256 -30C256 -72 243 -116 234 -141C249 -168 256 -199 256 -229C256 -268 245 -309 236 -335C250 -364 257 -396 257 -428C257 -485 236 -540 234 -547C233 -549 233 -551 233 -553C233 -556 233 -558 234 -560C249 -596 258 -634 260 -673ZM208 203C153 296 93 320 38 320C55 227 105 211 153 158C177 132 195 112 209 94C214 110 218 125 220 134C221 141 223 147 223 155C223 168 219 183 208 203ZM208 17C153 109 95 134 38 134C39 133 39 131 39 130C56 30 103 14 153 -40C176 -65 193 -84 207 -101L220 -52C221 -45 223 -39 223 -31C223 -18 219 -3 208 17ZM208 -181C153 -88 94 -64 39 -64C55 -161 104 -178 153 -232C176 -257 194 -276 208 -294C213 -277 218 -260 220 -250C221 -243 223 -237 223 -229C223 -216 219 -201 208 -181ZM219 -456C220 -448 221 -440 221 -432C221 -351 131 -255 51 -255C45 -256 38 -267 38 -268C58 -345 102 -366 145 -417L150 -422C167 -442 181 -459 196 -481C197 -484 200 -485 203 -485C208 -485 213 -482 214 -479C217 -472 217 -464 219 -456Z" /></g><g transform="translate(290,125) scale(1,1)"><g><g transform="translate(0,0) scale(1,1)"><path d="" /></g><g transform="translate(112.5,0) scale(1,1)"><path d="M100 0C100 -28 78 -50 50 -50C22 -50 0 -28 0 0C0 28 22 50 50 50C78 50 100 28 100 0Z" /></g></g></g></g></g><g transform="translate(13689,0) scale(1,1)"><path d="" /></g><g transform="translate(13889,0) scale(1,1)"><g><path d="M285 -99C288 -102 290 -106 290 -111C290 -117 285 -125 277 -125C275 -125 272 -124 270 -122L144 -17L20 -122C18 -124 16 -125 13 -125C5 -125 0 -118 0 -110C0 -106 1 -102 5 -99L124 0L5 100C2 103 0 108 0 112C0 118 5 125 12 125C15 125 18 124 20 123L144 18L270 123C272 124 275 125 277 125C283 125 290 119 290 111C290 107 288 102 285 100L166 0Z" /><path d="M305 126L305 1619C305 1627.284272 298.284272 1634 290 1634C281.715728 1634 275 1627.284272 275 1619L275 126C275 117.715728 281.715728 111 290 111C298.284272 111 305 117.715728 305 126Z" /><g transform="translate(275,986) scale(1,1)"><path d="M263 -670C263 -679 264 -688 264 -698C264 -742 260 -790 256 -795C250 -807 244 -812 237 -812C234 -812 231 -811 229 -810C222 -808 216 -799 216 -787C216 -784 216 -782 217 -779C222 -749 225 -721 225 -693C225 -645 216 -599 195 -555C130 -421 61 -419 4 -417L0 -417L0 695C0 701 14 704 15 704C23 704 30 704 31 686C48 589 103 562 155 507L173 488C227 429 252 400 261 347C263 337 263 327 263 316C263 277 254 236 245 209C258 184 263 157 263 129C263 91 254 49 245 22C258 -3 263 -30 263 -58C263 -96 254 -138 245 -165C258 -189 264 -219 264 -246C264 -283 255 -321 247 -348C255 -372 259 -399 259 -424C259 -482 238 -537 236 -544C235 -545 235 -547 235 -549C235 -552 236 -556 236 -557C252 -594 261 -632 263 -670ZM155 -224C180 -251 199 -272 213 -291C219 -276 224 -258 224 -242C224 -229 221 -215 209 -195C155 -104 93 -78 39 -77C59 -157 107 -173 155 -224ZM155 -54L210 -115C214 -101 219 -86 221 -77C223 -70 224 -63 224 -55C224 -42 221 -27 209 -7C154 86 94 110 39 110C59 25 107 0 155 -54ZM155 133L210 72C214 86 219 101 221 110C223 117 224 124 224 132C224 145 220 159 209 178C154 273 94 297 39 297C59 212 107 187 155 133ZM208 365C154 460 94 484 39 484C59 399 107 374 155 320L210 259C214 273 219 288 221 297C223 304 224 311 224 319C224 332 220 346 208 365ZM221 -450C222 -443 223 -436 223 -429C223 -351 134 -249 57 -249L51 -249C43 -249 39 -256 39 -262C57 -338 101 -361 147 -413C166 -434 181 -453 196 -478C198 -481 201 -482 204 -482C209 -482 214 -478 215 -475C219 -467 219 -459 221 -450Z" /></g><g transform="translate(290,125) scale(1,1)"><g><g transform="translate(0,0) scale(1,1)"><path d="" /></g><g transform="translate(112.5,0) scale(1,1)"><path d="M100 0C100 -28 78 -50 50 -50C22 -50 0 -28 0 0C0 28 22 50 50 50C78 50 100 28 100 0Z" /></g></g></g></g></g><g transform="translate(14432,0) scale(1,1)"><path d="" /></g><g transform="translate(14632,0) scale(1,1)"><g><path d="M125 15C125 7 118 0 108 0L16 0C7 0 0 7 0 15L0 235C0 243 7 250 16 250L108 250C118 250 125 243 125 235L125 15Z" /><g transform="translate(125,125) scale(1,1)"><g></g></g></g></g><g transform="translate(14758,0) scale(1,1)"><path d="" /></g><g transform="translate(14958,0) scale(1,1)"><g><path d="M282 -109C282 -123 270 -135 256 -135L26 -135C11 -135 0 -123 0 -109L0 -17C0 -2 11 9 26 9L256 9C270 9 282 -2 282 -17L282 -109Z" /><g transform="translate(282,125) scale(1,1)"><g></g></g></g></g><g transform="translate(15241,0) scale(1,1)"><path d="" /></g><g transform="translate(15441,0) scale(1,1)"><g><path d="M282 24C282 10 270 -2 256 -2L26 -2C11 -2 0 10 0 24L0 116C0 131 11 142 26 142L256 142C270 142 282 131 282 116L282 24Z" /><g transform="translate(282,125) scale(1,1)"><g></g></g></g></g><g transform="translate(15724,0) scale(1,1)"><path d="" /></g><g transform="translate(15924,0) scale(1,1)"><g><path d="M78 -38L29 22C29 22 19 32 19 46C19 54 23 65 33 75C78 122 93 165 93 202C93 274 36 325 32 336C29 342 28 347 28 352C28 366 38 373 48 373C54 373 61 370 66 365C83 348 231 172 231 172C231 172 235 163 235 153C235 148 234 143 231 138C205 97 169 49 165 -9C165 -13 164 -18 164 -22C164 -78 195 -115 233 -161C244 -173 270 -206 270 -218C270 -221 268 -222 265 -222C263 -222 261 -222 258 -221C257 -221 256 -220 255 -220C239 -214 206 -203 177 -203C135 -203 114 -235 114 -276C114 -285 115 -294 118 -302C120 -311 131 -338 144 -338C152 -345 160 -353 160 -362C160 -364 159 -366 158 -369C157 -373 150 -375 143 -375C135 -375 125 -372 117 -366C44 -310 1 -261 1 -211C1 -158 40 -115 83 -115C88 -115 94 -118 99 -118C103 -119 111 -121 115 -121C120 -121 124 -120 126 -116C127 -115 127 -113 127 -112C127 -110 123 -102 121 -98C108 -77 94 -58 78 -38Z" /><g transform="translate(270,125) scale(1,1)"><g></g></g></g></g><g transform="translate(16194,0) scale(1,1)"><path d="" /></g><g transform="translate(16394,0) scale(1,1)"><g><path d="M134 107L134 97C167 97 217 157 224 163C230 167 233 167 235 167C237 166 247 161 247 151C246 146 241 130 237 112C237 112 139 -239 136 -241C126 -249 112 -251 101 -251C95 -251 72 -250 72 -238C90 -172 162 27 165 42C166 46 166 50 166 53C166 58 165 62 161 62C160 62 158 62 156 61C143 54 134 50 120 46C109 42 95 39 81 39C62 39 43 45 27 56C12 68 0 86 0 107C0 144 30 174 67 174C104 174 134 144 134 107Z" /><g transform="translate(247,125) scale(1,1)"><g></g></g></g></g><g transform="translate(16644,0) scale(1,1)"><path d="" /></g><g transform="translate(16844,0) scale(1,1)"><g><path d="M208 111L208 101C242 102 292 162 299 168C302 170 305 172 310 172C312 171 320 167 320 161C320 160 319 159 319 157C317 144 292 56 292 56C292 56 273 -11 247 -96L131 -477C127 -488 122 -500 93 -500C71 -500 62 -490 62 -482C62 -481 63 -480 63 -479L158 -196C158 -195 159 -194 159 -193C159 -190 157 -188 155 -188C132 -200 106 -209 80 -209C42 -209 0 -183 0 -141C0 -103 30 -73 68 -73C105 -73 136 -103 136 -141C136 -144 136 -147 135 -151C149 -151 176 -139 184 -120C191 -105 242 44 242 60C242 65 240 67 237 67C235 67 233 66 230 65C207 52 179 43 152 43C114 43 72 70 72 111C72 149 103 179 140 179C178 179 208 149 208 111Z" /><g transform="translate(320,125) scale(1,1)"><g></g></g></g></g><g transform="translate(17164,0) scale(1,1)"><path d="" /></g><g transform="translate(17364,0) scale(1,1)"><g><path d="M353 419C355 419 363 417 363 408C363 407 362 406 362 404C360 392 336 303 336 303C336 303 164 -467 161 -479C157 -490 154 -500 122 -500C101 -500 95 -492 95 -484C95 -482 95 -480 96 -478C98 -471 167 -196 167 -192C167 -189 164 -186 161 -186C160 -186 159 -186 158 -187C135 -200 107 -209 80 -209C42 -209 0 -182 0 -141C0 -103 31 -73 68 -73C106 -73 136 -103 136 -141C136 -144 136 -147 135 -151C150 -150 181 -137 186 -116L226 48C226 53 224 61 219 61C218 61 217 61 216 60C193 48 167 38 141 38C131 38 122 40 114 42C104 45 95 49 87 56C71 68 59 86 59 106C59 144 89 174 127 174C164 174 195 144 195 106C195 103 195 100 194 97C210 97 243 117 248 133L287 293C287 294 288 296 288 297C288 303 284 313 277 313C276 313 274 313 273 312C250 300 223 290 197 290C187 290 179 292 171 294C161 297 151 301 143 308C127 320 115 338 115 358C115 396 146 426 183 426C221 426 251 396 251 358L251 349C285 349 335 410 342 415C345 417 348 419 353 419Z" /><g transform="translate(363,125) scale(1,1)"><g></g></g></g></g><g transform="translate(17727,0) scale(1,1)"><path d="" /></g><g transform="translate(17927,0) scale(1,1)"><g><path d="M414 423C418 422 423 419 423 408C420 395 396 306 396 306L303 -94C299 -112 280 -193 279 -193C159 -709 151 -727 149 -736C145 -747 140 -753 116 -753C93 -753 84 -748 84 -739C84 -737 84 -735 85 -732L157 -453C157 -451 158 -449 158 -447C158 -441 155 -436 150 -436C149 -436 148 -436 146 -437C129 -446 101 -453 82 -453C64 -453 42 -447 28 -435C12 -423 0 -405 0 -385C0 -347 31 -317 68 -317C106 -317 136 -347 136 -385C136 -388 136 -391 135 -394C148 -394 174 -385 180 -364C184 -353 219 -210 220 -205C220 -204 221 -200 221 -197C221 -191 220 -183 215 -183C214 -183 213 -183 212 -184C199 -190 196 -194 182 -199C170 -203 156 -206 142 -206C133 -206 123 -204 115 -202C105 -199 96 -194 87 -188C71 -176 59 -158 59 -137C59 -100 90 -69 127 -69C165 -69 195 -100 195 -137L195 -147C209 -147 236 -138 244 -112C247 -104 283 41 285 50C286 52 286 53 286 55C286 60 284 64 280 64C279 64 278 64 276 63C250 51 222 42 194 42C185 42 177 43 169 45C140 54 113 78 113 110C113 147 144 178 181 178C219 178 249 147 249 110L249 100C266 100 302 121 309 140C313 151 347 293 348 296C349 300 350 303 350 306C350 313 346 317 341 317C339 317 336 316 334 315C310 304 285 293 258 293C220 293 176 320 176 362C176 399 206 430 244 430C281 430 312 399 312 362C312 358 312 355 311 352C345 352 395 413 403 419C406 421 409 423 414 423Z" /><g transform="translate(423,125) scale(1,1)"><g></g></g></g></g><g transform="translate(18351,0) scale(1,1)"><path d="" /></g><g transform="translate(18551,0) scale(1,1)"><g><path d="M373 621L373 611C407 612 457 673 464 678C467 680 470 682 475 682C477 681 485 677 485 671C485 670 484 669 484 667C482 654 457 566 457 566L160 -734C156 -746 152 -750 120 -750C97 -750 91 -744 91 -734C93 -729 163 -446 165 -439C166 -438 166 -436 166 -435C166 -432 164 -430 161 -430C160 -430 159 -431 158 -431C146 -437 137 -441 125 -445C124 -445 123 -446 122 -446C111 -450 96 -453 82 -453C44 -453 0 -427 0 -385C0 -347 31 -317 68 -317C106 -317 136 -347 136 -385L139 -395C153 -394 172 -393 185 -359C193 -340 225 -199 227 -191C227 -187 225 -183 221 -183C220 -183 218 -183 217 -184C204 -190 196 -194 182 -199C170 -203 156 -206 142 -206C104 -206 60 -179 60 -137C60 -100 90 -69 128 -69C165 -69 196 -100 196 -137C196 -141 195 -144 195 -147C210 -147 240 -136 248 -109C255 -88 288 38 288 55C288 61 286 65 282 65C280 65 278 64 276 63C263 57 255 53 241 48C229 44 215 41 201 41C192 41 182 43 174 45C145 54 118 78 118 110C118 147 149 178 186 178C224 178 254 147 254 110L254 100C270 100 305 120 310 140L349 296C350 300 351 305 351 310C351 317 350 323 346 323C345 323 344 323 343 322C330 316 312 307 298 302C286 298 270 296 256 296C234 296 221 301 203 313C187 325 175 343 175 364C175 401 206 432 243 432C281 432 311 401 311 364L311 354C330 354 371 384 375 399C379 413 410 537 414 556C415 559 415 562 415 564C415 573 409 577 403 577C401 577 397 576 395 575C383 569 374 565 362 561C361 561 360 560 359 560C348 556 333 553 319 553C301 553 279 559 265 571C249 583 237 601 237 621C237 659 268 689 305 689C343 689 373 659 373 621Z" /><g transform="translate(485,125) scale(1,1)"><g></g></g></g></g><g transform="translate(19036,0) scale(1,1)"><path d="" /></g><g transform="translate(19236,0) scale(1,1)"><g><path d="M369 150L407 307C408 311 408 314 408 317C408 323 406 327 401 327C399 327 397 327 395 326C370 313 342 303 313 303C275 303 232 329 232 371C232 408 263 439 300 439C338 439 368 408 368 371C368 368 368 364 367 361C387 361 425 381 432 408C436 419 466 544 471 563C471 565 472 567 472 569C472 579 466 584 459 584C457 584 454 583 452 582C440 576 431 572 419 568C418 568 417 567 416 567C405 563 390 560 376 560C357 560 336 565 322 578C306 590 294 608 294 628C294 666 324 696 362 696C400 696 430 666 430 628C430 625 430 622 429 618C463 619 514 680 521 685C524 687 527 689 532 689C534 688 541 685 541 678L541 674C538 661 514 573 514 573L155 -976C152 -987 148 -1000 115 -1000C94 -1000 89 -992 89 -985C89 -982 89 -980 90 -978C92 -973 153 -717 157 -700C158 -695 159 -690 159 -687C159 -683 158 -681 155 -681C153 -681 152 -682 149 -683C136 -689 136 -691 122 -696C111 -700 96 -703 82 -703C44 -703 0 -676 0 -634C0 -597 30 -566 68 -566C106 -566 136 -597 136 -634C136 -638 136 -641 135 -644C147 -644 170 -643 180 -606C187 -582 204 -511 220 -448C220 -447 221 -446 221 -444C222 -440 222 -436 222 -433C222 -428 221 -424 217 -424C215 -424 213 -425 211 -426C188 -437 164 -446 139 -446C101 -446 57 -420 57 -378C57 -340 87 -310 125 -310C163 -310 193 -340 193 -378C193 -381 193 -384 192 -388C207 -387 236 -378 245 -346C250 -331 266 -261 279 -207C281 -205 284 -187 284 -184C284 -179 282 -175 279 -175C278 -175 276 -176 274 -177C261 -183 253 -187 239 -192C227 -196 213 -199 199 -199C190 -199 180 -197 172 -195C143 -186 116 -162 116 -130C116 -93 147 -62 184 -62C222 -62 252 -93 252 -130L252 -140C267 -140 296 -130 307 -98C312 -84 341 39 344 51C344 54 345 57 345 59C345 66 342 72 338 72C337 72 335 71 333 70C309 59 284 48 257 48C247 48 238 50 230 52C202 61 175 85 175 117C175 154 206 185 243 185C281 185 311 154 311 117C311 113 311 110 310 107C327 107 362 121 369 150Z" /><g transform="translate(541,125) scale(1,1)"><g></g></g></g></g><g transform="translate(19777,0) scale(1,1)"><path d="" /></g><g transform="translate(19977,0) scale(1,1)"><g><path d="M125 15C125 7 118 0 108 0L16 0C7 0 0 7 0 15L0 235C0 243 7 250 16 250L108 250C118 250 125 243 125 235L125 15Z" /><g transform="translate(125,125) scale(1,1)"><g><g transform="translate(0,0) scale(1,1)"><path d="" /></g><g transform="translate(112.5,0) scale(1,1)"><path d="M100 0C100 -28 78 -50 50 -50C22 -50 0 -28 0 0C0 28 22 50 50 50C78 50 100 28 100 0Z" /></g><g transform="translate(212.5,0) scale(1,1)"><path d="" /></g><g transform="translate(225,0) scale(1,1)"><path d="M100 0C100 -28 78 -50 50 -50C22 -50 0 -28 0 0C0 28 22 50 50 50C78 50 100 28 100 0Z" /></g></g></g></g></g><g transform="translate(20427,0) scale(1,1)"><path d="" /></g><g transform="translate(20627,0) scale(1,1)"><g><path d="M282 -109C282 -123 270 -135 256 -135L26 -135C11 -135 0 -123 0 -109L0 -17C0 -2 11 9 26 9L256 9C270 9 282 -2 282 -17L282 -109Z" /><g transform="translate(282,125) scale(1,1)"><g><g transform="translate(0,0) scale(1,1)"><path d="" /></g><g transform="translate(112.5,0) scale(1,1)"><path d="M100 0C100 -28 78 -50 50 -50C22 -50 0 -28 0 0C0 28 22 50 50 50C78 50 100 28 100 0Z" /></g><g transform="translate(212.5,0) scale(1,1)"><path d="" /></g><g transform="translate(225,0) scale(1,1)"><path d="M100 0C100 -28 78 -50 50 -50C22 -50 0 -28 0 0C0 28 22 50 50 50C78 50 100 28 100 0Z" /></g></g></g></g></g><g transform="translate(21234,0) scale(1,1)"><path d="" /></g><g transform="translate(21434,0) scale(1,1)"><g><path d="M282 24C282 10 270 -2 256 -2L26 -2C11 -2 0 10 0 24L0 116C0 131 11 142 26 142L256 142C270 142 282 131 282 116L282 24Z" /><g transform="translate(282,125) scale(1,1)"><g><g transform="translate(0,0) scale(1,1)"><path d="" /></g><g transform="translate(112.5,0) scale(1,1)"><path d="M100 0C100 -28 78 -50 50 -50C22 -50 0 -28 0 0C0 28 22 50 50 50C78 50 100 28 100 0Z" /></g><g transform="translate(212.5,0) scale(1,1)"><path d="" /></g><g transform="translate(225,0) scale(1,1)"><path d="M100 0C100 -28 78 -50 50 -50C22 -50 0 -28 0 0C0 28 22 50 50 50C78 50 100 28 100 0Z" /></g></g></g></g></g><g transform="translate(22041,0) scale(1,1)"><path d="" /></g><g transform="translate(22241,0) scale(1,1)"><g><path d="M78 -38L29 22C29 22 19 32 19 46C19 54 23 65 33 75C78 122 93 165 93 202C93 274 36 325 32 336C29 342 28 347 28 352C28 366 38 373 48 373C54 373 61 370 66 365C83 348 231 172 231 172C231 172 235 163 235 153C235 148 234 143 231 138C205 97 169 49 165 -9C165 -13 164 -18 164 -22C164 -78 195 -115 233 -161C244 -173 270 -206 270 -218C270 -221 268 -222 265 -222C263 -222 261 -222 258 -221C257 -221 256 -220 255 -220C239 -214 206 -203 177 -203C135 -203 114 -235 114 -276C114 -285 115 -294 118 -302C120 -311 131 -338 144 -338C152 -345 160 -353 160 -362C160 -364 159 -366 158 -369C157 -373 150 -375 143 -375C135 -375 125 -372 117 -366C44 -310 1 -261 1 -211C1 -158 40 -115 83 -115C88 -115 94 -118 99 -118C103 -119 111 -121 115 -121C120 -121 124 -120 126 -116C127 -115 127 -113 127 -112C127 -110 123 -102 121 -98C108 -77 94 -58 78 -38Z" /><g transform="translate(270,125) scale(1,1)"><g><g transform="translate(0,0) scale(1,1)"><path d="" /></g><g transform="translate(112.5,0) scale(1,1)"><path d="M100 0C100 -28 78 -50 50 -50C22 -50 0 -28 0 0C0 28 22 50 50 50C78 50 100 28 100 0Z" /></g><g transform="translate(212.5,0) scale(1,1)"><path d="" /></g><g transform="translate(225,0) scale(1,1)"><path d="M100 0C100 -28 78 -50 50 -50C22 -50 0 -28 0 0C0 28 22 50 50 50C78 50 100 28 100 0Z" /></g></g></g></g></g><g transform="translate(22836,0) scale(1,1)"><path d="" /></g><g transform="translate(23036,0) scale(1,1)"><g><path d="M134 107L134 97C167 97 217 157 224 163C230 167 233 167 235 167C237 166 247 161 247 151C246 146 241 130 237 112C237 112 139 -239 136 -241C126 -249 112 -251 101 -251C95 -251 72 -250 72 -238C90 -172 162 27 165 42C166 46 166 50 166 53C166 58 165 62 161 62C160 62 158 62 156 61C143 54 134 50 120 46C109 42 95 39 81 39C62 39 43 45 27 56C12 68 0 86 0 107C0 144 30 174 67 174C104 174 134 144 134 107Z" /><g transform="translate(247,125) scale(1,1)"><g><g transform="translate(0,0) scale(1,1)"><path d="" /></g><g transform="translate(112.5,0) scale(1,1)"><path d="M100 0C100 -28 78 -50 50 -50C22 -50 0 -28 0 0C0 28 22 50 50 50C78 50 100 28 100 0Z" /></g><g transform="translate(212.5,0) scale(1,1)"><path d="" /></g><g transform="translate(225,0) scale(1,1)"><path d="M100 0C100 -28 78 -50 50 -50C22 -50 0 -28 0 0C0 28 22 50 50 50C78 50 100 28 100 0Z" /></g></g></g></g></g><g transform="translate(23608,0) scale(1,1)"><path d="" /></g><g transform="translate(23808,0) scale(1,1)"><g><path d="M208 111L208 101C242 102 292 162 299 168C302 170 305 172 310 172C312 171 320 167 320 161C320 160 319 159 319 157C317 144 292 56 292 56C292 56 273 -11 247 -96L131 -477C127 -488 122 -500 93 -500C71 -500 62 -490 62 -482C62 -481 63 -480 63 -479L158 -196C158 -195 159 -194 159 -193C159 -190 157 -188 155 -188C132 -200 106 -209 80 -209C42 -209 0 -183 0 -141C0 -103 30 -73 68 -73C105 -73 136 -103 136 -141C136 -144 136 -147 135 -151C149 -151 176 -139 184 -120C191 -105 242 44 242 60C242 65 240 67 237 67C235 67 233 66 230 65C207 52 179 43 152 43C114 43 72 70 72 111C72 149 103 179 140 179C178 179 208 149 208 111Z" /><g transform="translate(320,125) scale(1,1)"><g><g transform="translate(0,0) scale(1,1)"><path d="" /></g><g transform="translate(112.5,0) scale(1,1)"><path d="M100 0C100 -28 78 -50 50 -50C22 -50 0 -28 0 0C0 28 22 50 50 50C78 50 100 28 100 0Z" /></g><g transform="translate(212.5,0) scale(1,1)"><path d="" /></g><g transform="translate(225,0) scale(1,1)"><path d="M100 0C100 -28 78 -50 50 -50C22 -50 0 -28 0 0C0 28 22 50 50 50C78 50 100 28 100 0Z" /></g></g></g></g></g><g transform="translate(24453,0) scale(1,1)"><path d="" /></g><g transform="translate(24653,0) scale(1,1)"><g><path d="M353 419C355 419 363 417 363 408C363 407 362 406 362 404C360 392 336 303 336 303C336 303 164 -467 161 -479C157 -490 154 -500 122 -500C101 -500 95 -492 95 -484C95 -482 95 -480 96 -478C98 -471 167 -196 167 -192C167 -189 164 -186 161 -186C160 -186 159 -186 158 -187C135 -200 107 -209 80 -209C42 -209 0 -182 0 -141C0 -103 31 -73 68 -73C106 -73 136 -103 136 -141C136 -144 136 -147 135 -151C150 -150 181 -137 186 -116L226 48C226 53 224 61 219 61C218 61 217 61 216 60C193 48 167 38 141 38C131 38 122 40 114 42C104 45 95 49 87 56C71 68 59 86 59 106C59 144 89 174 127 174C164 174 195 144 195 106C195 103 195 100 194 97C210 97 243 117 248 133L287 293C287 294 288 296 288 297C288 303 284 313 277 313C276 313 274 313 273 312C250 300 223 290 197 290C187 290 179 292 171 294C161 297 151 301 143 308C127 320 115 338 115 358C115 396 146 426 183 426C221 426 251 396 251 358L251 349C285 349 335 410 342 415C345 417 348 419 353 419Z" /><g transform="translate(363,125) scale(1,1)"><g><g transform="translate(0,0) scale(1,1)"><path d="" /></g><g transform="translate(112.5,0) scale(1,1)"><path d="M100 0C100 -28 78 -50 50 -50C22 -50 0 -28 0 0C0 28 22 50 50 50C78 50 100 28 100 0Z" /></g><g transform="translate(212.5,0) scale(1,1)"><path d="" /></g><g transform="translate(225,0) scale(1,1)"><path d="M100 0C100 -28 78 -50 50 -50C22 -50 0 -28 0 0C0 28 22 50 50 50C78 50 100 28 100 0Z" /></g></g></g></g></g><g transform="translate(25341,0) scale(1,1)"><path d="" /></g><g transform="translate(25541,0) scale(1,1)"><g><path d="M414 423C418 422 423 419 423 408C420 395 396 306 396 306L303 -94C299 -112 280 -193 279 -193C159 -709 151 -727 149 -736C145 -747 140 -753 116 -753C93 -753 84 -748 84 -739C84 -737 84 -735 85 -732L157 -453C157 -451 158 -449 158 -447C158 -441 155 -436 150 -436C149 -436 148 -436 146 -437C129 -446 101 -453 82 -453C64 -453 42 -447 28 -435C12 -423 0 -405 0 -385C0 -347 31 -317 68 -317C106 -317 136 -347 136 -385C136 -388 136 -391 135 -394C148 -394 174 -385 180 -364C184 -353 219 -210 220 -205C220 -204 221 -200 221 -197C221 -191 220 -183 215 -183C214 -183 213 -183 212 -184C199 -190 196 -194 182 -199C170 -203 156 -206 142 -206C133 -206 123 -204 115 -202C105 -199 96 -194 87 -188C71 -176 59 -158 59 -137C59 -100 90 -69 127 -69C165 -69 195 -100 195 -137L195 -147C209 -147 236 -138 244 -112C247 -104 283 41 285 50C286 52 286 53 286 55C286 60 284 64 280 64C279 64 278 64 276 63C250 51 222 42 194 42C185 42 177 43 169 45C140 54 113 78 113 110C113 147 144 178 181 178C219 178 249 147 249 110L249 100C266 100 302 121 309 140C313 151 347 293 348 296C349 300 350 303 350 306C350 313 346 317 341 317C339 317 336 316 334 315C310 304 285 293 258 293C220 293 176 320 176 362C176 399 206 430 244 430C281 430 312 399 312 362C312 358 312 355 311 352C345 352 395 413 403 419C406 421 409 423 414 423Z" /><g transform="translate(423,125) scale(1,1)"><g><g transform="translate(0,0) scale(1,1)"><path d="" /></g><g transform="translate(112.5,0) scale(1,1)"><path d="M100 0C100 -28 78 -50 50 -50C22 -50 0 -28 0 0C0 28 22 50 50 50C78 50 100 28 100 0Z" /></g><g transform="translate(212.5,0) scale(1,1)"><path d="" /></g><g transform="translate(225,0) scale(1,1)"><path d="M100 0C100 -28 78 -50 50 -50C22 -50 0 -28 0 0C0 28 22 50 50 50C78 50 100 28 100 0Z" /></g></g></g></g></g><g transform="translate(26289,0) scale(1,1)"><path d="" /></g><g transform="translate(26489,0) scale(1,1)"><g><path d="M373 621L373 611C407 612 457 673 464 678C467 680 470 682 475 682C477 681 485 677 485 671C485 670 484 669 484 667C482 654 457 566 457 566L160 -734C156 -746 152 -750 120 -750C97 -750 91 -744 91 -734C93 -729 163 -446 165 -439C166 -438 166 -436 166 -435C166 -432 164 -430 161 -430C160 -430 159 -431 158 -431C146 -437 137 -441 125 -445C124 -445 123 -446 122 -446C111 -450 96 -453 82 -453C44 -453 0 -427 0 -385C0 -347 31 -317 68 -317C106 -317 136 -347 136 -385L139 -395C153 -394 172 -393 185 -359C193 -340 225 -199 227 -191C227 -187 225 -183 221 -183C220 -183 218 -183 217 -184C204 -190 196 -194 182 -199C170 -203 156 -206 142 -206C104 -206 60 -179 60 -137C60 -100 90 -69 128 -69C165 -69 196 -100 196 -137C196 -141 195 -144 195 -147C210 -147 240 -136 248 -109C255 -88 288 38 288 55C288 61 286 65 282 65C280 65 278 64 276 63C263 57 255 53 241 48C229 44 215 41 201 41C192 41 182 43 174 45C145 54 118 78 118 110C118 147 149 178 186 178C224 178 254 147 254 110L254 100C270 100 305 120 310 140L349 296C350 300 351 305 351 310C351 317 350 323 346 323C345 323 344 323 343 322C330 316 312 307 298 302C286 298 270 296 256 296C234 296 221 301 203 313C187 325 175 343 175 364C175 401 206 432 243 432C281 432 311 401 311 364L311 354C330 354 371 384 375 399C379 413 410 537 414 556C415 559 415 562 415 564C415 573 409 577 403 577C401 577 397 576 395 575C383 569 374 565 362 561C361 561 360 560 359 560C348 556 333 553 319 553C301 553 279 559 265 571C249 583 237 601 237 621C237 659 268 689 305 689C343 689 373 659 373 621Z" /><g transform="translate(485,125) scale(1,1)"><g><g transform="translate(0,0) scale(1,1)"><path d="" /></g><g transform="translate(112.5,0) scale(1,1)"><path d="M100 0C100 -28 78 -50 50 -50C22 -50 0 -28 0 0C0 28 22 50 50 50C78 50 100 28 100 0Z" /></g><g transform="translate(212.5,0) scale(1,1)"><path d="" /></g><g transform="translate(225,0) scale(1,1)"><path d="M100 0C100 -28 78 -50 50 -50C22 -50 0 -28 0 0C0 28 22 50 50 50C78 50 100 28 100 0Z" /></g></g></g></g></g><g transform="translate(27299,0) scale(1,1)"><path d="" /></g><g transform="translate(27499,0) scale(1,1)"><g><path d="M369 150L407 307C408 311 408 314 408 317C408 323 406 327 401 327C399 327 397 327 395 326C370 313 342 303 313 303C275 303 232 329 232 371C232 408 263 439 300 439C338 439 368 408 368 371C368 368 368 364 367 361C387 361 425 381 432 408C436 419 466 544 471 563C471 565 472 567 472 569C472 579 466 584 459 584C457 584 454 583 452 582C440 576 431 572 419 568C418 568 417 567 416 567C405 563 390 560 376 560C357 560 336 565 322 578C306 590 294 608 294 628C294 666 324 696 362 696C400 696 430 666 430 628C430 625 430 622 429 618C463 619 514 680 521 685C524 687 527 689 532 689C534 688 541 685 541 678L541 674C538 661 514 573 514 573L155 -976C152 -987 148 -1000 115 -1000C94 -1000 89 -992 89 -985C89 -982 89 -980 90 -978C92 -973 153 -717 157 -700C158 -695 159 -690 159 -687C159 -683 158 -681 155 -681C153 -681 152 -682 149 -683C136 -689 136 -691 122 -696C111 -700 96 -703 82 -703C44 -703 0 -676 0 -634C0 -597 30 -566 68 -566C106 -566 136 -597 136 -634C136 -638 136 -641 135 -644C147 -644 170 -643 180 -606C187 -582 204 -511 220 -448C220 -447 221 -446 221 -444C222 -440 222 -436 222 -433C222 -428 221 -424 217 -424C215 -424 213 -425 211 -426C188 -437 164 -446 139 -446C101 -446 57 -420 57 -378C57 -340 87 -310 125 -310C163 -310 193 -340 193 -378C193 -381 193 -384 192 -388C207 -387 236 -378 245 -346C250 -331 266 -261 279 -207C281 -205 284 -187 284 -184C284 -179 282 -175 279 -175C278 -175 276 -176 274 -177C261 -183 253 -187 239 -192C227 -196 213 -199 199 -199C190 -199 180 -197 172 -195C143 -186 116 -162 116 -130C116 -93 147 -62 184 -62C222 -62 252 -93 252 -130L252 -140C267 -140 296 -130 307 -98C312 -84 341 39 344 51C344 54 345 57 345 59C345 66 342 72 338 72C337 72 335 71 333 70C309 59 284 48 257 48C247 48 238 50 230 52C202 61 175 85 175 117C175 154 206 185 243 185C281 185 311 154 311 117C311 113 311 110 310 107C327 107 362 121 369 150Z" /><g transform="translate(541,125) scale(1,1)"><g><g transform="translate(0,0) scale(1,1)"><path d="" /></g><g transform="translate(112.5,0) scale(1,1)"><path d="M100 0C100 -28 78 -50 50 -50C22 -50 0 -28 0 0C0 28 22 50 50 50C78 50 100 28 100 0Z" /></g><g transform="translate(212.5,0) scale(1,1)"><path d="" /></g><g transform="translate(225,0) scale(1,1)"><path d="M100 0C100 -28 78 -50 50 -50C22 -50 0 -28 0 0C0 28 22 50 50 50C78 50 100 28 100 0Z" /></g></g></g></g></g><path d="M16.25 -16.25L28548.75 -16.25C28557.724628 -16.25 28565 -8.974628000000001 28565 0C28565 8.974628000000001 28557.724628 16.25 28548.75 16.25L16.25 16.25C7.275371999999999 16.25 0 8.974628000000001 0 0C0 -8.974628000000001 7.275371999999999 -16.25 16.25 -16.25Z" /></g></g></g></g></svg>
