<svg viewBox="0 0 30842.9 39914.3" width="215.9mm" height="279.4mm" xmlns="http://www.w3.org/2000/svg" xmlns:xlink="http://www.w3.org/1999/xlink">"><g transform="translate(0,2000)"><g><path d="" /><g transform="translate(200,0)"><g><path d="M57 149c0 3 3 6 8 6h13c4 0 9 -3 9 -6v-36c3 7 10 12 18 12h89c5 0 10 -2 14 -6l65 -53l64 53c4 4 9 6 14 6h88c9 0 16 -5 19 -12v36c0 3 5 6 9 6h14c4 0 8 -3 8 -6v-297c0 -3 -4 -7 -8 -7h-14c-4 0 -9 4 -9 7v35c-3 -7 -10 -12 -18 -12h-89c-5 0 -11 2 -15 5l-63 54 l-65 -54c-4 -3 -9 -5 -14 -5h-89c-7 0 -15 5 -18 12v-35c0 -3 -5 -7 -9 -7h-13c-5 0 -8 4 -8 7v297zM192 -98l81 67l79 -67h49l-109 98l109 98h-49l-79 -67l-81 67h-48l109 -98l-109 -98h48zM514 149c0 3 5 6 10 6h12c6 0 10 -3 10 -6v-297c0 -3 -4 -7 -10 -7h-12 c-5 0 -10 4 -10 7v297zM0 -148v297c0 3 4 6 9 6h12c6 0 9 -3 9 -6v-297c0 -3 -3 -7 -9 -7h-12c-5 0 -9 4 -9 7zM360 0l98 -92v184zM87 -91l98 91l-98 91v-182z" /><g transform="translate(546,-125)"><g></g></g></g></g><g transform="translate(746,0)"><path d="" /></g><g transform="translate(946,0)"><g><path d="M0 -103c0 6 3 12 8 17l84 86l-84 86c-5 5 -7 11 -7 17c0 11 9 22 21 22h88c5 0 10 -2 14 -6l65 -53l64 53c4 4 9 6 14 6h88c12 0 22 -11 22 -22c0 -6 -3 -12 -8 -17l-83 -86l83 -86c5 -5 7 -11 7 -17c0 -11 -9 -22 -20 -22h-89c-5 0 -10 2 -14 6l-64 54l-65 -54 c-4 -4 -9 -6 -14 -6h-89c-10 0 -21 11 -21 22zM170 0l-109 -98h48l80 67l79 -67h49l-109 98l109 98h-49l-79 -67l-80 67h-48z" /><g transform="translate(377,-125)"><g></g></g></g></g><g transform="translate(1323,0)"><path d="" /></g><g transform="translate(1523,0)"><g><path d="M0 103c0 12 10 22 22 22h106c6 0 13 -2 17 -7l43 -49l64 50c5 3 10 6 15 6h42c11 0 23 -12 23 -23c0 -6 -3 -11 -9 -15l-86 -72l92 -103c4 -3 5 -8 5 -15c0 -12 -9 -22 -23 -22h-106c-6 0 -12 2 -17 7l-43 50l-65 -51c-4 -4 -8 -6 -14 -6h-41c-12 0 -22 11 -22 22 c0 6 2 11 7 17l87 71l-92 103c-3 3 -5 8 -5 15zM66 -103l96 80l70 -80h53l-95 107l119 99h-42l-95 -79l-70 79h-53l94 -106l-118 -100h41z" /><path d="M349 -963L349 -118C349 -109.715728 342.284272 -103 334 -103C325.715728 -103 319 -109.715728 319 -118L319 -963C319 -971.284272 325.715728 -978 334 -978C342.284272 -978 349 -971.284272 349 -963Z" /><g transform="translate(334,-125)"><g></g></g></g></g><g transform="translate(1857,0)"><path d="" /></g><g transform="translate(2057,0)"><g><path d="M285 99l-119 -99l119 -100c3 -2 5 -7 5 -11c0 -8 -7 -14 -13 -14c-2 0 -5 1 -7 2l-126 105l-124 -105c-2 -1 -5 -2 -8 -2c-7 0 -12 7 -12 13c0 4 2 9 5 12l119 100l-119 99c-4 3 -5 7 -5 11c0 8 5 15 13 15c3 0 5 -1 7 -3l124 -105l126 105c2 2 5 3 7 3c8 0 13 -8 13 -14 c0 -5 -2 -9 -5 -12z" /><path d="M305 -971L305 -126C305 -117.715728 298.284272 -111 290 -111C281.715728 -111 275 -117.715728 275 -126L275 -971C275 -979.284272 281.715728 -986 290 -986C298.284272 -986 305 -979.284272 305 -971Z" /><g transform="translate(290,-125)"><g></g></g></g></g><g transform="translate(2347,0)"><path d="" /></g><g transform="translate(2547,0)"><g><path d="M285 99l-119 -99l119 -100c3 -2 5 -7 5 -11c0 -8 -7 -14 -13 -14c-2 0 -5 1 -7 2l-126 105l-124 -105c-2 -1 -5 -2 -8 -2c-7 0 -12 7 -12 13c0 4 2 9 5 12l119 100l-119 99c-4 3 -5 7 -5 11c0 8 5 15 13 15c3 0 5 -1 7 -3l124 -105l126 105c2 2 5 3 7 3c8 0 13 -8 13 -14 c0 -5 -2 -9 -5 -12z" /><path d="M305 -961L305 -126C305 -117.715728 298.284272 -111 290 -111C281.715728 -111 275 -117.715728 275 -126L275 -961C275 -969.284272 281.715728 -976 290 -976C298.284272 -976 305 -969.284272 305 -961Z" /><g transform="translate(275,-986)"><path d="M238 790c0 0 26 -95 26 -173c0 -125 -52 -243 -115 -343c-51 -79 -93 -165 -109 -261c-3 -16 -11 -22 -30 -22c-6 0 -10 3 -10 15v239c66 12 161 148 197 233c15 34 24 91 24 150c0 45 -7 92 -24 137c-2 6 -3 11 -3 15c0 16 10 25 16 29c1 1 3 1 5 1c7 0 19 -6 23 -20z " /></g><g transform="translate(290,-125)"><g></g></g></g></g><g transform="translate(3086,0)"><path d="" /></g><g transform="translate(3286,0)"><g><path d="M285 99l-119 -99l119 -100c3 -2 5 -7 5 -11c0 -8 -7 -14 -13 -14c-2 0 -5 1 -7 2l-126 105l-124 -105c-2 -1 -5 -2 -8 -2c-7 0 -12 7 -12 13c0 4 2 9 5 12l119 100l-119 99c-4 3 -5 7 -5 11c0 8 5 15 13 15c3 0 5 -1 7 -3l124 -105l126 105c2 2 5 3 7 3c8 0 13 -8 13 -14 c0 -5 -2 -9 -5 -12z" /><path d="M305 -949L305 -126C305 -117.715728 298.284272 -111 290 -111C281.715728 -111 275 -117.715728 275 -126L275 -949C275 -957.284272 281.715728 -964 290 -964C298.284272 -964 305 -957.284272 305 -949Z" /><g transform="translate(275,-986)"><path d="M272 796c4 -5 7 -62 7 -110v-22c0 -42 -11 -83 -29 -120c0 -3 -1 -5 -1 -9c0 -2 0 -4 1 -7c3 -6 25 -66 25 -127c0 -13 -1 -24 -3 -36c-10 -68 -36 -96 -108 -174c-54 -58 -110 -74 -127 -180c-2 -11 -14 -13 -20 -13s-17 1 -17 1v397h5c62 2 133 4 202 144 c23 48 32 97 32 149c0 29 -3 59 -8 89c-1 4 -1 6 -1 9c0 13 8 26 22 26c7 0 14 -4 20 -17zM209 459c-16 -25 -33 -45 -54 -69c-47 -54 -93 -78 -114 -160c-1 -1 -1 -2 -1 -3c0 -4 6 -10 14 -10h8c61 0 115 56 148 105c18 26 27 57 27 89c0 7 0 13 -1 20c-2 8 -2 18 -7 26 c-1 3 -8 6 -13 6c-3 0 -5 -1 -7 -4z" /></g><g transform="translate(290,-125)"><g></g></g></g></g><g transform="translate(3840,0)"><path d="" /></g><g transform="translate(4040,0)"><g><path d="M285 99l-119 -99l119 -100c3 -2 5 -7 5 -11c0 -8 -7 -14 -13 -14c-2 0 -5 1 -7 2l-126 105l-124 -105c-2 -1 -5 -2 -8 -2c-7 0 -12 7 -12 13c0 4 2 9 5 12l119 100l-119 99c-4 3 -5 7 -5 11c0 8 5 15 13 15c3 0 5 -1 7 -3l124 -105l126 105c2 2 5 3 7 3c8 0 13 -8 13 -14 c0 -5 -2 -9 -5 -12z" /><path d="M305 -1065L305 -126C305 -117.715728 298.284272 -111 290 -111C281.715728 -111 275 -117.715728 275 -126L275 -1065C275 -1073.284272 281.715728 -1080 290 -1080C298.284272 -1080 305 -1073.284272 305 -1065Z" /><g transform="translate(275,-986)"><path d="M260 673c-2 -39 -11 -77 -26 -113c-1 -2 -1 -4 -1 -7c0 -2 0 -4 1 -6c2 -7 23 -62 23 -119c0 -32 -7 -64 -21 -93c9 -26 20 -67 20 -106c0 -10 0 -19 -2 -28c-11 -61 -34 -88 -101 -161c-50 -54 -104 -70 -121 -170c-1 -9 -14 -19 -20 -19s-12 12 -12 12v560h5 c58 2 124 4 188 134c22 44 31 89 31 137c0 28 -3 56 -8 85c0 3 -1 5 -1 7c0 12 6 21 13 24c2 1 4 2 6 2c6 0 13 -5 20 -16c3 -6 7 -52 7 -95c0 -10 -1 -19 -1 -28zM208 181c11 20 15 35 15 48c0 8 -2 14 -3 21c-2 10 -7 27 -12 44c-14 -18 -32 -37 -55 -62 c-49 -54 -98 -71 -114 -168c55 0 114 24 169 117zM219 456c-2 8 -2 16 -5 23c-1 3 -6 6 -11 6c-3 0 -6 -1 -7 -4c-15 -22 -29 -39 -46 -59l-5 -5c-43 -51 -87 -72 -107 -149c0 -1 7 -12 13 -13c80 0 170 96 170 177c0 8 -1 16 -2 24z" /></g><g transform="translate(290,-125)"><g></g></g></g></g><g transform="translate(4577,0)"><path d="" /></g><g transform="translate(4777,0)"><g><path d="M285 99l-119 -99l119 -100c3 -2 5 -7 5 -11c0 -8 -7 -14 -13 -14c-2 0 -5 1 -7 2l-126 105l-124 -105c-2 -1 -5 -2 -8 -2c-7 0 -12 7 -12 13c0 4 2 9 5 12l119 100l-119 99c-4 3 -5 7 -5 11c0 8 5 15 13 15c3 0 5 -1 7 -3l124 -105l126 105c2 2 5 3 7 3c8 0 13 -8 13 -14 c0 -5 -2 -9 -5 -12z" /><path d="M305 -1264L305 -126C305 -117.715728 298.284272 -111 290 -111C281.715728 -111 275 -117.715728 275 -126L275 -1264C275 -1272.284272 281.715728 -1279 290 -1279C298.284272 -1279 305 -1272.284272 305 -1264Z" /><g transform="translate(275,-986)"><path d="M260 673c-2 -39 -11 -77 -26 -113c-1 -2 -1 -4 -1 -7c0 -2 0 -4 1 -6c2 -7 23 -62 23 -119c0 -32 -7 -64 -21 -93c9 -26 20 -67 20 -106c0 -30 -7 -61 -22 -88c9 -25 22 -69 22 -111c0 -9 -1 -18 -2 -27c-11 -61 -34 -88 -101 -161c-50 -54 -104 -70 -121 -170 c-1 -9 -14 -19 -20 -19s-12 12 -12 12v758h5c58 2 124 4 188 134c22 44 31 89 31 137c0 28 -3 56 -8 85c0 3 -1 5 -1 7c0 12 6 21 13 24c2 1 4 2 6 2c6 0 13 -5 20 -16c3 -6 7 -52 7 -95c0 -10 -1 -19 -1 -28zM208 -17c11 20 15 35 15 48c0 8 -2 14 -3 21l-13 49 c-14 -17 -31 -36 -54 -61c-50 -54 -96 -70 -113 -170c0 -1 0 -3 -1 -4c57 0 114 25 169 117zM208 181c11 20 15 35 15 48c0 8 -2 14 -3 21c-2 10 -7 27 -12 44c-14 -18 -32 -37 -55 -62c-49 -54 -98 -71 -114 -168c55 0 114 24 169 117zM219 456c-2 8 -2 16 -5 23 c-1 3 -6 6 -11 6c-3 0 -6 -1 -7 -4c-15 -22 -29 -39 -46 -59l-5 -5c-43 -51 -87 -72 -107 -149c0 -1 7 -12 13 -13c80 0 170 96 170 177c0 8 -1 16 -2 24z" /></g><g transform="translate(290,-125)"><g></g></g></g></g><g transform="translate(5314,0)"><path d="" /></g><g transform="translate(5514,0)"><g><path d="M285 99l-119 -99l119 -100c3 -2 5 -7 5 -11c0 -8 -7 -14 -13 -14c-2 0 -5 1 -7 2l-126 105l-124 -105c-2 -1 -5 -2 -8 -2c-7 0 -12 7 -12 13c0 4 2 9 5 12l119 100l-119 99c-4 3 -5 7 -5 11c0 8 5 15 13 15c3 0 5 -1 7 -3l124 -105l126 105c2 2 5 3 7 3c8 0 13 -8 13 -14 c0 -5 -2 -9 -5 -12z" /><path d="M305 -1446L305 -126C305 -117.715728 298.284272 -111 290 -111C281.715728 -111 275 -117.715728 275 -126L275 -1446C275 -1454.284272 281.715728 -1461 290 -1461C298.284272 -1461 305 -1454.284272 305 -1446Z" /><g transform="translate(275,-986)"><path d="M260 673c-2 -39 -11 -77 -26 -113c-1 -2 -1 -4 -1 -7c0 -2 0 -4 1 -6c2 -7 23 -62 23 -119c0 -32 -7 -64 -21 -93c9 -26 20 -67 20 -106c0 -30 -7 -61 -22 -88c9 -25 22 -69 22 -111c0 -9 -1 -18 -2 -27c-4 -21 -9 -38 -17 -55c9 -25 19 -64 19 -102c0 -10 0 -20 -2 -29 c-11 -61 -34 -88 -101 -161c-50 -54 -104 -70 -121 -170c-1 -9 -14 -19 -20 -19s-12 12 -12 12v944h5c58 2 124 4 188 134c22 44 31 89 31 137c0 28 -3 56 -8 85c0 3 -1 5 -1 7c0 12 6 21 13 24c2 1 4 2 6 2c6 0 13 -5 20 -16c3 -6 7 -52 7 -95c0 -10 -1 -19 -1 -28z M208 -203c11 20 15 35 15 48c0 8 -2 14 -3 21c-2 9 -6 24 -11 40c-14 -18 -32 -38 -56 -64c-48 -53 -98 -69 -115 -162c55 0 115 24 170 117zM208 -17c11 20 15 35 15 48c0 8 -2 14 -3 21l-13 49c-14 -17 -31 -36 -54 -61c-50 -54 -97 -70 -114 -170c0 -1 0 -3 -1 -4 c57 0 115 25 170 117zM208 181c11 20 15 35 15 48c0 8 -2 14 -3 21c-2 10 -7 27 -12 44c-14 -18 -32 -37 -55 -62c-49 -54 -98 -71 -114 -168c55 0 114 24 169 117zM219 456c-2 8 -2 16 -5 23c-1 3 -6 6 -11 6c-3 0 -6 -1 -7 -4c-15 -22 -29 -39 -46 -59l-5 -5 c-43 -51 -87 -72 -107 -149c0 -1 7 -12 13 -13c80 0 170 96 170 177c0 8 -1 16 -2 24z" /></g><g transform="translate(290,-125)"><g></g></g></g></g><g transform="translate(6048,0)"><path d="" /></g><g transform="translate(6248,0)"><g><path d="M285 99l-119 -99l119 -100c3 -2 5 -7 5 -11c0 -8 -7 -14 -13 -14c-2 0 -5 1 -7 2l-126 105l-124 -105c-2 -1 -5 -2 -8 -2c-7 0 -12 7 -12 13c0 4 2 9 5 12l119 100l-119 99c-4 3 -5 7 -5 11c0 8 5 15 13 15c3 0 5 -1 7 -3l124 -105l126 105c2 2 5 3 7 3c8 0 13 -8 13 -14 c0 -5 -2 -9 -5 -12z" /><path d="M305 -1619L305 -126C305 -117.715728 298.284272 -111 290 -111C281.715728 -111 275 -117.715728 275 -126L275 -1619C275 -1627.284272 281.715728 -1634 290 -1634C298.284272 -1634 305 -1627.284272 305 -1619Z" /><g transform="translate(275,-986)"><path d="M263 670c-2 -38 -11 -76 -27 -113c0 -1 -1 -5 -1 -8c0 -2 0 -4 1 -5c2 -7 23 -62 23 -120c0 -25 -4 -52 -12 -76c8 -27 17 -65 17 -102c0 -27 -6 -57 -19 -81c9 -27 18 -69 18 -107c0 -28 -5 -55 -18 -80c9 -27 18 -69 18 -107c0 -28 -5 -55 -18 -80 c9 -27 18 -68 18 -107c0 -11 0 -21 -2 -31c-9 -53 -34 -82 -88 -141l-18 -19c-52 -55 -107 -82 -124 -179c-1 -18 -8 -18 -16 -18c-1 0 -15 3 -15 9v1112h4c57 2 126 4 191 138c21 44 30 90 30 138c0 28 -3 56 -8 86c-1 3 -1 5 -1 8c0 12 6 21 13 23c2 1 5 2 8 2 c7 0 13 -5 19 -17c4 -5 8 -53 8 -97c0 -10 -1 -19 -1 -28zM155 224c-48 -51 -96 -67 -116 -147c54 1 116 27 170 118c12 20 15 34 15 47c0 16 -5 34 -11 49c-14 -19 -33 -40 -58 -67zM155 54c-48 -54 -96 -79 -116 -164c55 0 115 24 170 117c12 20 15 35 15 48 c0 8 -1 15 -3 22c-2 9 -7 24 -11 38zM155 -133c-48 -54 -96 -79 -116 -164c55 0 115 24 170 119c11 19 15 33 15 46c0 8 -1 15 -3 22c-2 9 -7 24 -11 38zM208 -365c12 19 16 33 16 46c0 8 -1 15 -3 22c-2 9 -7 24 -11 38l-55 -61c-48 -54 -96 -79 -116 -164 c55 0 115 24 169 119zM221 450c-2 9 -2 17 -6 25c-1 3 -6 7 -11 7c-3 0 -6 -1 -8 -4c-15 -25 -30 -44 -49 -65c-46 -52 -90 -75 -108 -151c0 -6 4 -13 12 -13h6c77 0 166 102 166 180c0 7 -1 14 -2 21z" /></g><g transform="translate(290,-125)"><g></g></g></g></g><g transform="translate(6791,0)"><path d="" /></g><g transform="translate(6991,0)"><g><path d="M57 149c0 3 3 6 8 6h13c4 0 9 -3 9 -6v-36c3 7 10 12 18 12h89c5 0 10 -2 14 -6l65 -53l64 53c4 4 9 6 14 6h88c9 0 16 -5 19 -12v36c0 3 5 6 9 6h14c4 0 8 -3 8 -6v-297c0 -3 -4 -7 -8 -7h-14c-4 0 -9 4 -9 7v35c-3 -7 -10 -12 -18 -12h-89c-5 0 -11 2 -15 5l-63 54 l-65 -54c-4 -3 -9 -5 -14 -5h-89c-7 0 -15 5 -18 12v-35c0 -3 -5 -7 -9 -7h-13c-5 0 -8 4 -8 7v297zM192 -98l81 67l79 -67h49l-109 98l109 98h-49l-79 -67l-81 67h-48l109 -98l-109 -98h48zM514 149c0 3 5 6 10 6h12c6 0 10 -3 10 -6v-297c0 -3 -4 -7 -10 -7h-12 c-5 0 -10 4 -10 7v297zM0 -148v297c0 3 4 6 9 6h12c6 0 9 -3 9 -6v-297c0 -3 -3 -7 -9 -7h-12c-5 0 -9 4 -9 7zM360 0l98 -92v184zM87 -91l98 91l-98 91v-182z" /><g transform="translate(546,-125)"><g><g transform="translate(0,0)"><path d="" /></g><g transform="translate(113,0)"><path d="M100 0c0 -28 -22 -50 -50 -50s-50 22 -50 50s22 50 50 50s50 -22 50 -50z" /></g></g></g></g></g><g transform="translate(7750,0)"><path d="" /></g><g transform="translate(7950,0)"><g><path d="M0 -103c0 6 3 12 8 17l84 86l-84 86c-5 5 -7 11 -7 17c0 11 9 22 21 22h88c5 0 10 -2 14 -6l65 -53l64 53c4 4 9 6 14 6h88c12 0 22 -11 22 -22c0 -6 -3 -12 -8 -17l-83 -86l83 -86c5 -5 7 -11 7 -17c0 -11 -9 -22 -20 -22h-89c-5 0 -10 2 -14 6l-64 54l-65 -54 c-4 -4 -9 -6 -14 -6h-89c-10 0 -21 11 -21 22zM170 0l-109 -98h48l80 67l79 -67h49l-109 98l109 98h-49l-79 -67l-80 67h-48z" /><g transform="translate(377,-125)"><g><g transform="translate(0,0)"><path d="" /></g><g transform="translate(113,0)"><path d="M100 0c0 -28 -22 -50 -50 -50s-50 22 -50 50s22 50 50 50s50 -22 50 -50z" /></g></g></g></g></g><g transform="translate(8539,0)"><path d="" /></g><g transform="translate(8739,0)"><g><path d="M0 103c0 12 10 22 22 22h106c6 0 13 -2 17 -7l43 -49l64 50c5 3 10 6 15 6h42c11 0 23 -12 23 -23c0 -6 -3 -11 -9 -15l-86 -72l92 -103c4 -3 5 -8 5 -15c0 -12 -9 -22 -23 -22h-106c-6 0 -12 2 -17 7l-43 50l-65 -51c-4 -4 -8 -6 -14 -6h-41c-12 0 -22 11 -22 22 c0 6 2 11 7 17l87 71l-92 103c-3 3 -5 8 -5 15zM66 -103l96 80l70 -80h53l-95 107l119 99h-42l-95 -79l-70 79h-53l94 -106l-118 -100h41z" /><path d="M349 -963L349 -118C349 -109.715728 342.284272 -103 334 -103C325.715728 -103 319 -109.715728 319 -118L319 -963C319 -971.284272 325.715728 -978 334 -978C342.284272 -978 349 -971.284272 349 -963Z" /><g transform="translate(334,-125)"><g><g transform="translate(0,0)"><path d="" /></g><g transform="translate(113,0)"><path d="M100 0c0 -28 -22 -50 -50 -50s-50 22 -50 50s22 50 50 50s50 -22 50 -50z" /></g></g></g></g></g><g transform="translate(9286,0)"><path d="" /></g><g transform="translate(9486,0)"><g><path d="M285 99l-119 -99l119 -100c3 -2 5 -7 5 -11c0 -8 -7 -14 -13 -14c-2 0 -5 1 -7 2l-126 105l-124 -105c-2 -1 -5 -2 -8 -2c-7 0 -12 7 -12 13c0 4 2 9 5 12l119 100l-119 99c-4 3 -5 7 -5 11c0 8 5 15 13 15c3 0 5 -1 7 -3l124 -105l126 105c2 2 5 3 7 3c8 0 13 -8 13 -14 c0 -5 -2 -9 -5 -12z" /><path d="M305 -971L305 -126C305 -117.715728 298.284272 -111 290 -111C281.715728 -111 275 -117.715728 275 -126L275 -971C275 -979.284272 281.715728 -986 290 -986C298.284272 -986 305 -979.284272 305 -971Z" /><g transform="translate(290,-125)"><g><g transform="translate(0,0)"><path d="" /></g><g transform="translate(113,0)"><path d="M100 0c0 -28 -22 -50 -50 -50s-50 22 -50 50s22 50 50 50s50 -22 50 -50z" /></g></g></g></g></g><g transform="translate(9988,0)"><path d="" /></g><g transform="translate(10188,0)"><g><path d="M285 99l-119 -99l119 -100c3 -2 5 -7 5 -11c0 -8 -7 -14 -13 -14c-2 0 -5 1 -7 2l-126 105l-124 -105c-2 -1 -5 -2 -8 -2c-7 0 -12 7 -12 13c0 4 2 9 5 12l119 100l-119 99c-4 3 -5 7 -5 11c0 8 5 15 13 15c3 0 5 -1 7 -3l124 -105l126 105c2 2 5 3 7 3c8 0 13 -8 13 -14 c0 -5 -2 -9 -5 -12z" /><path d="M305 -961L305 -126C305 -117.715728 298.284272 -111 290 -111C281.715728 -111 275 -117.715728 275 -126L275 -961C275 -969.284272 281.715728 -976 290 -976C298.284272 -976 305 -969.284272 305 -961Z" /><g transform="translate(275,-986)"><path d="M238 790c0 0 26 -95 26 -173c0 -125 -52 -243 -115 -343c-51 -79 -93 -165 -109 -261c-3 -16 -11 -22 -30 -22c-6 0 -10 3 -10 15v239c66 12 161 148 197 233c15 34 24 91 24 150c0 45 -7 92 -24 137c-2 6 -3 11 -3 15c0 16 10 25 16 29c1 1 3 1 5 1c7 0 19 -6 23 -20z " /></g><g transform="translate(290,-125)"><g><g transform="translate(0,0)"><path d="" /></g><g transform="translate(113,0)"><path d="M100 0c0 -28 -22 -50 -50 -50s-50 22 -50 50s22 50 50 50s50 -22 50 -50z" /></g></g></g></g></g><g transform="translate(10727,0)"><path d="" /></g><g transform="translate(10927,0)"><g><path d="M285 99l-119 -99l119 -100c3 -2 5 -7 5 -11c0 -8 -7 -14 -13 -14c-2 0 -5 1 -7 2l-126 105l-124 -105c-2 -1 -5 -2 -8 -2c-7 0 -12 7 -12 13c0 4 2 9 5 12l119 100l-119 99c-4 3 -5 7 -5 11c0 8 5 15 13 15c3 0 5 -1 7 -3l124 -105l126 105c2 2 5 3 7 3c8 0 13 -8 13 -14 c0 -5 -2 -9 -5 -12z" /><path d="M305 -949L305 -126C305 -117.715728 298.284272 -111 290 -111C281.715728 -111 275 -117.715728 275 -126L275 -949C275 -957.284272 281.715728 -964 290 -964C298.284272 -964 305 -957.284272 305 -949Z" /><g transform="translate(275,-986)"><path d="M272 796c4 -5 7 -62 7 -110v-22c0 -42 -11 -83 -29 -120c0 -3 -1 -5 -1 -9c0 -2 0 -4 1 -7c3 -6 25 -66 25 -127c0 -13 -1 -24 -3 -36c-10 -68 -36 -96 -108 -174c-54 -58 -110 -74 -127 -180c-2 -11 -14 -13 -20 -13s-17 1 -17 1v397h5c62 2 133 4 202 144 c23 48 32 97 32 149c0 29 -3 59 -8 89c-1 4 -1 6 -1 9c0 13 8 26 22 26c7 0 14 -4 20 -17zM209 459c-16 -25 -33 -45 -54 -69c-47 -54 -93 -78 -114 -160c-1 -1 -1 -2 -1 -3c0 -4 6 -10 14 -10h8c61 0 115 56 148 105c18 26 27 57 27 89c0 7 0 13 -1 20c-2 8 -2 18 -7 26 c-1 3 -8 6 -13 6c-3 0 -5 -1 -7 -4z" /></g><g transform="translate(290,-125)"><g><g transform="translate(0,0)"><path d="" /></g><g transform="translate(113,0)"><path d="M100 0c0 -28 -22 -50 -50 -50s-50 22 -50 50s22 50 50 50s50 -22 50 -50z" /></g></g></g></g></g><g transform="translate(11481,0)"><path d="" /></g><g transform="translate(11681,0)"><g><path d="M285 99l-119 -99l119 -100c3 -2 5 -7 5 -11c0 -8 -7 -14 -13 -14c-2 0 -5 1 -7 2l-126 105l-124 -105c-2 -1 -5 -2 -8 -2c-7 0 -12 7 -12 13c0 4 2 9 5 12l119 100l-119 99c-4 3 -5 7 -5 11c0 8 5 15 13 15c3 0 5 -1 7 -3l124 -105l126 105c2 2 5 3 7 3c8 0 13 -8 13 -14 c0 -5 -2 -9 -5 -12z" /><path d="M305 -1065L305 -126C305 -117.715728 298.284272 -111 290 -111C281.715728 -111 275 -117.715728 275 -126L275 -1065C275 -1073.284272 281.715728 -1080 290 -1080C298.284272 -1080 305 -1073.284272 305 -1065Z" /><g transform="translate(275,-986)"><path d="M260 673c-2 -39 -11 -77 -26 -113c-1 -2 -1 -4 -1 -7c0 -2 0 -4 1 -6c2 -7 23 -62 23 -119c0 -32 -7 -64 -21 -93c9 -26 20 -67 20 -106c0 -10 0 -19 -2 -28c-11 -61 -34 -88 -101 -161c-50 -54 -104 -70 -121 -170c-1 -9 -14 -19 -20 -19s-12 12 -12 12v560h5 c58 2 124 4 188 134c22 44 31 89 31 137c0 28 -3 56 -8 85c0 3 -1 5 -1 7c0 12 6 21 13 24c2 1 4 2 6 2c6 0 13 -5 20 -16c3 -6 7 -52 7 -95c0 -10 -1 -19 -1 -28zM208 181c11 20 15 35 15 48c0 8 -2 14 -3 21c-2 10 -7 27 -12 44c-14 -18 -32 -37 -55 -62 c-49 -54 -98 -71 -114 -168c55 0 114 24 169 117zM219 456c-2 8 -2 16 -5 23c-1 3 -6 6 -11 6c-3 0 -6 -1 -7 -4c-15 -22 -29 -39 -46 -59l-5 -5c-43 -51 -87 -72 -107 -149c0 -1 7 -12 13 -13c80 0 170 96 170 177c0 8 -1 16 -2 24z" /></g><g transform="translate(290,-125)"><g><g transform="translate(0,0)"><path d="" /></g><g transform="translate(113,0)"><path d="M100 0c0 -28 -22 -50 -50 -50s-50 22 -50 50s22 50 50 50s50 -22 50 -50z" /></g></g></g></g></g><g transform="translate(12218,0)"><path d="" /></g><g transform="translate(12418,0)"><g><path d="M285 99l-119 -99l119 -100c3 -2 5 -7 5 -11c0 -8 -7 -14 -13 -14c-2 0 -5 1 -7 2l-126 105l-124 -105c-2 -1 -5 -2 -8 -2c-7 0 -12 7 -12 13c0 4 2 9 5 12l119 100l-119 99c-4 3 -5 7 -5 11c0 8 5 15 13 15c3 0 5 -1 7 -3l124 -105l126 105c2 2 5 3 7 3c8 0 13 -8 13 -14 c0 -5 -2 -9 -5 -12z" /><path d="M305 -1264L305 -126C305 -117.715728 298.284272 -111 290 -111C281.715728 -111 275 -117.715728 275 -126L275 -1264C275 -1272.284272 281.715728 -1279 290 -1279C298.284272 -1279 305 -1272.284272 305 -1264Z" /><g transform="translate(275,-986)"><path d="M260 673c-2 -39 -11 -77 -26 -113c-1 -2 -1 -4 -1 -7c0 -2 0 -4 1 -6c2 -7 23 -62 23 -119c0 -32 -7 -64 -21 -93c9 -26 20 -67 20 -106c0 -30 -7 -61 -22 -88c9 -25 22 -69 22 -111c0 -9 -1 -18 -2 -27c-11 -61 -34 -88 -101 -161c-50 -54 -104 -70 -121 -170 c-1 -9 -14 -19 -20 -19s-12 12 -12 12v758h5c58 2 124 4 188 134c22 44 31 89 31 137c0 28 -3 56 -8 85c0 3 -1 5 -1 7c0 12 6 21 13 24c2 1 4 2 6 2c6 0 13 -5 20 -16c3 -6 7 -52 7 -95c0 -10 -1 -19 -1 -28zM208 -17c11 20 15 35 15 48c0 8 -2 14 -3 21l-13 49 c-14 -17 -31 -36 -54 -61c-50 -54 -96 -70 -113 -170c0 -1 0 -3 -1 -4c57 0 114 25 169 117zM208 181c11 20 15 35 15 48c0 8 -2 14 -3 21c-2 10 -7 27 -12 44c-14 -18 -32 -37 -55 -62c-49 -54 -98 -71 -114 -168c55 0 114 24 169 117zM219 456c-2 8 -2 16 -5 23 c-1 3 -6 6 -11 6c-3 0 -6 -1 -7 -4c-15 -22 -29 -39 -46 -59l-5 -5c-43 -51 -87 -72 -107 -149c0 -1 7 -12 13 -13c80 0 170 96 170 177c0 8 -1 16 -2 24z" /></g><g transform="translate(290,-125)"><g><g transform="translate(0,0)"><path d="" /></g><g transform="translate(113,0)"><path d="M100 0c0 -28 -22 -50 -50 -50s-50 22 -50 50s22 50 50 50s50 -22 50 -50z" /></g></g></g></g></g><g transform="translate(12955,0)"><path d="" /></g><g transform="translate(13155,0)"><g><path d="M285 99l-119 -99l119 -100c3 -2 5 -7 5 -11c0 -8 -7 -14 -13 -14c-2 0 -5 1 -7 2l-126 105l-124 -105c-2 -1 -5 -2 -8 -2c-7 0 -12 7 -12 13c0 4 2 9 5 12l119 100l-119 99c-4 3 -5 7 -5 11c0 8 5 15 13 15c3 0 5 -1 7 -3l124 -105l126 105c2 2 5 3 7 3c8 0 13 -8 13 -14 c0 -5 -2 -9 -5 -12z" /><path d="M305 -1446L305 -126C305 -117.715728 298.284272 -111 290 -111C281.715728 -111 275 -117.715728 275 -126L275 -1446C275 -1454.284272 281.715728 -1461 290 -1461C298.284272 -1461 305 -1454.284272 305 -1446Z" /><g transform="translate(275,-986)"><path d="M260 673c-2 -39 -11 -77 -26 -113c-1 -2 -1 -4 -1 -7c0 -2 0 -4 1 -6c2 -7 23 -62 23 -119c0 -32 -7 -64 -21 -93c9 -26 20 -67 20 -106c0 -30 -7 -61 -22 -88c9 -25 22 -69 22 -111c0 -9 -1 -18 -2 -27c-4 -21 -9 -38 -17 -55c9 -25 19 -64 19 -102c0 -10 0 -20 -2 -29 c-11 -61 -34 -88 -101 -161c-50 -54 -104 -70 -121 -170c-1 -9 -14 -19 -20 -19s-12 12 -12 12v944h5c58 2 124 4 188 134c22 44 31 89 31 137c0 28 -3 56 -8 85c0 3 -1 5 -1 7c0 12 6 21 13 24c2 1 4 2 6 2c6 0 13 -5 20 -16c3 -6 7 -52 7 -95c0 -10 -1 -19 -1 -28z M208 -203c11 20 15 35 15 48c0 8 -2 14 -3 21c-2 9 -6 24 -11 40c-14 -18 -32 -38 -56 -64c-48 -53 -98 -69 -115 -162c55 0 115 24 170 117zM208 -17c11 20 15 35 15 48c0 8 -2 14 -3 21l-13 49c-14 -17 -31 -36 -54 -61c-50 -54 -97 -70 -114 -170c0 -1 0 -3 -1 -4 c57 0 115 25 170 117zM208 181c11 20 15 35 15 48c0 8 -2 14 -3 21c-2 10 -7 27 -12 44c-14 -18 -32 -37 -55 -62c-49 -54 -98 -71 -114 -168c55 0 114 24 169 117zM219 456c-2 8 -2 16 -5 23c-1 3 -6 6 -11 6c-3 0 -6 -1 -7 -4c-15 -22 -29 -39 -46 -59l-5 -5 c-43 -51 -87 -72 -107 -149c0 -1 7 -12 13 -13c80 0 170 96 170 177c0 8 -1 16 -2 24z" /></g><g transform="translate(290,-125)"><g><g transform="translate(0,0)"><path d="" /></g><g transform="translate(113,0)"><path d="M100 0c0 -28 -22 -50 -50 -50s-50 22 -50 50s22 50 50 50s50 -22 50 -50z" /></g></g></g></g></g><g transform="translate(13689,0)"><path d="" /></g><g transform="translate(13889,0)"><g><path d="M285 99l-119 -99l119 -100c3 -2 5 -7 5 -11c0 -8 -7 -14 -13 -14c-2 0 -5 1 -7 2l-126 105l-124 -105c-2 -1 -5 -2 -8 -2c-7 0 -12 7 -12 13c0 4 2 9 5 12l119 100l-119 99c-4 3 -5 7 -5 11c0 8 5 15 13 15c3 0 5 -1 7 -3l124 -105l126 105c2 2 5 3 7 3c8 0 13 -8 13 -14 c0 -5 -2 -9 -5 -12z" /><path d="M305 -1619L305 -126C305 -117.715728 298.284272 -111 290 -111C281.715728 -111 275 -117.715728 275 -126L275 -1619C275 -1627.284272 281.715728 -1634 290 -1634C298.284272 -1634 305 -1627.284272 305 -1619Z" /><g transform="translate(275,-986)"><path d="M263 670c-2 -38 -11 -76 -27 -113c0 -1 -1 -5 -1 -8c0 -2 0 -4 1 -5c2 -7 23 -62 23 -120c0 -25 -4 -52 -12 -76c8 -27 17 -65 17 -102c0 -27 -6 -57 -19 -81c9 -27 18 -69 18 -107c0 -28 -5 -55 -18 -80c9 -27 18 -69 18 -107c0 -28 -5 -55 -18 -80 c9 -27 18 -68 18 -107c0 -11 0 -21 -2 -31c-9 -53 -34 -82 -88 -141l-18 -19c-52 -55 -107 -82 -124 -179c-1 -18 -8 -18 -16 -18c-1 0 -15 3 -15 9v1112h4c57 2 126 4 191 138c21 44 30 90 30 138c0 28 -3 56 -8 86c-1 3 -1 5 -1 8c0 12 6 21 13 23c2 1 5 2 8 2 c7 0 13 -5 19 -17c4 -5 8 -53 8 -97c0 -10 -1 -19 -1 -28zM155 224c-48 -51 -96 -67 -116 -147c54 1 116 27 170 118c12 20 15 34 15 47c0 16 -5 34 -11 49c-14 -19 -33 -40 -58 -67zM155 54c-48 -54 -96 -79 -116 -164c55 0 115 24 170 117c12 20 15 35 15 48 c0 8 -1 15 -3 22c-2 9 -7 24 -11 38zM155 -133c-48 -54 -96 -79 -116 -164c55 0 115 24 170 119c11 19 15 33 15 46c0 8 -1 15 -3 22c-2 9 -7 24 -11 38zM208 -365c12 19 16 33 16 46c0 8 -1 15 -3 22c-2 9 -7 24 -11 38l-55 -61c-48 -54 -96 -79 -116 -164 c55 0 115 24 169 119zM221 450c-2 9 -2 17 -6 25c-1 3 -6 7 -11 7c-3 0 -6 -1 -8 -4c-15 -25 -30 -44 -49 -65c-46 -52 -90 -75 -108 -151c0 -6 4 -13 12 -13h6c77 0 166 102 166 180c0 7 -1 14 -2 21z" /></g><g transform="translate(290,-125)"><g><g transform="translate(0,0)"><path d="" /></g><g transform="translate(113,0)"><path d="M100 0c0 -28 -22 -50 -50 -50s-50 22 -50 50s22 50 50 50s50 -22 50 -50z" /></g></g></g></g></g><g transform="translate(14432,0)"><path d="" /></g><g transform="translate(14632,0)"><g><path d="M125 -15v-220c0 -8 -7 -15 -17 -15h-92c-9 0 -16 7 -16 15v220c0 8 7 15 16 15h92c10 0 17 -7 17 -15z" /><g transform="translate(125,-125)"><g></g></g></g></g><g transform="translate(14758,0)"><path d="" /></g><g transform="translate(14958,0)"><g><path d="M282 109v-92c0 -15 -12 -26 -26 -26h-230c-15 0 -26 11 -26 26v92c0 14 11 26 26 26h230c14 0 26 -12 26 -26z" /><g transform="translate(282,-125)"><g></g></g></g></g><g transform="translate(15241,0)"><path d="" /></g><g transform="translate(15441,0)"><g><path d="M282 -24v-92c0 -15 -12 -26 -26 -26h-230c-15 0 -26 11 -26 26v92c0 14 11 26 26 26h230c14 0 26 -12 26 -26z" /><g transform="translate(282,-125)"><g></g></g></g></g><g transform="translate(15724,0)"><path d="" /></g><g transform="translate(15924,0)"><g><path d="M78 38c16 20 30 39 43 60c2 4 6 12 6 14c0 1 0 3 -1 4c-2 4 -6 5 -11 5c-4 0 -12 -2 -16 -3c-5 0 -11 -3 -16 -3c-43 0 -82 43 -82 96c0 50 43 99 116 155c8 6 18 9 26 9c7 0 14 -2 15 -6c1 -3 2 -5 2 -7c0 -9 -8 -17 -16 -24c-13 0 -24 -27 -26 -36c-3 -8 -4 -17 -4 -26 c0 -41 21 -73 63 -73c29 0 62 11 78 17c1 0 2 1 3 1c3 1 5 1 7 1c3 0 5 -1 5 -4c0 -12 -26 -45 -37 -57c-38 -46 -69 -83 -69 -139c0 -4 1 -9 1 -13c4 -58 40 -106 66 -147c3 -5 4 -10 4 -15c0 -10 -4 -19 -4 -19s-148 -176 -165 -193c-5 -5 -12 -8 -18 -8 c-10 0 -20 7 -20 21c0 5 1 10 4 16c4 11 61 62 61 134c0 37 -15 80 -60 127c-10 10 -14 21 -14 29c0 14 10 24 10 24z" /><g transform="translate(270,-125)"><g></g></g></g></g><g transform="translate(16194,0)"><path d="" /></g><g transform="translate(16394,0)"><g><path d="M134 -107c0 -37 -30 -67 -67 -67s-67 30 -67 67c0 21 12 39 27 51c16 11 35 17 54 17c14 0 28 -3 39 -7c14 -4 23 -8 36 -15c2 -1 4 -1 5 -1c4 0 5 4 5 9c0 3 0 7 -1 11c-3 15 -75 214 -93 280c0 12 23 13 29 13c11 0 25 -2 35 -10c3 -2 101 -353 101 -353 c4 -18 9 -34 10 -39c0 -10 -10 -15 -12 -16c-2 0 -5 0 -11 4c-7 6 -57 66 -90 66v-10z" /><g transform="translate(247,-125)"><g></g></g></g></g><g transform="translate(16644,0)"><path d="" /></g><g transform="translate(16844,0)"><g><path d="M208 -111c0 -38 -30 -68 -68 -68c-37 0 -68 30 -68 68c0 41 42 68 80 68c27 0 55 -9 78 -22c3 -1 5 -2 7 -2c3 0 5 2 5 7c0 16 -51 165 -58 180c-8 19 -35 31 -49 31c1 -4 1 -7 1 -10c0 -38 -31 -68 -68 -68c-38 0 -68 30 -68 68c0 42 42 68 80 68c26 0 52 -9 75 -21 c2 0 4 2 4 5c0 1 -1 2 -1 3l-95 283c0 1 -1 2 -1 3c0 8 9 18 31 18c29 0 34 -12 38 -23l116 -381c26 -85 45 -152 45 -152s25 -88 27 -101c0 -2 1 -3 1 -4c0 -6 -8 -10 -10 -11c-5 0 -8 2 -11 4c-7 6 -57 66 -91 67v-10z" /><g transform="translate(320,-125)"><g></g></g></g></g><g transform="translate(17164,0)"><path d="" /></g><g transform="translate(17364,0)"><g><path d="M353 -419c-5 0 -8 2 -11 4c-7 5 -57 66 -91 66v-9c0 -38 -30 -68 -68 -68c-37 0 -68 30 -68 68c0 20 12 38 28 50c8 7 18 11 28 14c8 2 16 4 26 4c26 0 53 -10 76 -22c1 -1 3 -1 4 -1c7 0 11 10 11 16c0 1 -1 3 -1 4l-39 160c-5 16 -38 36 -54 36c1 -3 1 -6 1 -9 c0 -38 -31 -68 -68 -68c-38 0 -68 30 -68 68c0 20 12 38 28 50c8 7 17 11 27 14c8 2 17 4 27 4c26 0 52 -10 75 -22c1 -1 2 -1 3 -1c5 0 7 8 7 13l-40 164c-5 21 -36 34 -51 35c1 -4 1 -7 1 -10c0 -38 -30 -68 -68 -68c-37 0 -68 30 -68 68c0 41 42 68 80 68 c27 0 55 -9 78 -22c1 -1 2 -1 3 -1c3 0 6 3 6 6c0 4 -69 279 -71 286c-1 2 -1 4 -1 6c0 8 6 16 27 16c32 0 35 -10 39 -21c3 -12 175 -782 175 -782s24 -89 26 -101c0 -2 1 -3 1 -4c0 -9 -8 -11 -10 -11z" /><g transform="translate(363,-125)"><g></g></g></g></g><g transform="translate(17727,0)"><path d="" /></g><g transform="translate(17927,0)"><g><path d="M414 -423c-5 0 -8 2 -11 4c-8 6 -58 67 -92 67c1 -3 1 -6 1 -10c0 -37 -31 -68 -68 -68c-38 0 -68 31 -68 68c0 42 44 69 82 69c27 0 52 -11 76 -22c2 -1 5 -2 7 -2c5 0 9 4 9 11c0 3 -1 6 -2 10c-1 3 -35 145 -39 156c-7 19 -43 40 -60 40v-10c0 -37 -30 -68 -68 -68 c-37 0 -68 31 -68 68c0 32 27 56 56 65c8 2 16 3 25 3c28 0 56 -9 82 -21c2 -1 3 -1 4 -1c4 0 6 4 6 9c0 2 0 3 -1 5c-2 9 -38 154 -41 162c-8 26 -35 35 -49 35v-10c0 -37 -30 -68 -68 -68c-37 0 -68 31 -68 68c0 21 12 39 28 51c9 6 18 11 28 14c8 2 18 4 27 4 c14 0 28 -3 40 -7c14 -5 17 -9 30 -15c1 -1 2 -1 3 -1c5 0 6 8 6 14c0 3 -1 7 -1 8c-1 5 -36 148 -40 159c-6 21 -32 30 -45 30c1 -3 1 -6 1 -9c0 -38 -30 -68 -68 -68c-37 0 -68 30 -68 68c0 20 12 38 28 50c14 12 36 18 54 18c19 0 47 -7 64 -16c2 -1 3 -1 4 -1 c5 0 8 5 8 11c0 2 -1 4 -1 6l-72 279c-1 3 -1 5 -1 7c0 9 9 14 32 14c24 0 29 -6 33 -17c2 -9 10 -27 130 -543c1 0 20 -81 24 -99l93 -400s24 -89 27 -102c0 -11 -5 -14 -9 -15z" /><g transform="translate(423,-125)"><g></g></g></g></g><g transform="translate(18351,0)"><path d="" /></g><g transform="translate(18551,0)"><g><path d="M373 -621c0 -38 -30 -68 -68 -68c-37 0 -68 30 -68 68c0 20 12 38 28 50c14 12 36 18 54 18c14 0 29 -3 40 -7c1 0 2 -1 3 -1c12 -4 21 -8 33 -14c2 -1 6 -2 8 -2c6 0 12 4 12 13c0 2 0 5 -1 8c-4 19 -35 143 -39 157c-4 15 -45 45 -64 45v-10c0 -37 -30 -68 -68 -68 c-37 0 -68 31 -68 68c0 21 12 39 28 51c18 12 31 17 53 17c14 0 30 -2 42 -6c14 -5 32 -14 45 -20c1 -1 2 -1 3 -1c4 0 5 6 5 13c0 5 -1 10 -2 14l-39 156c-5 20 -40 40 -56 40v-10c0 -37 -30 -68 -68 -68c-37 0 -68 31 -68 68c0 32 27 56 56 65c8 2 18 4 27 4 c14 0 28 -3 40 -7c14 -5 22 -9 35 -15c2 -1 4 -2 6 -2c4 0 6 4 6 10c0 17 -33 143 -40 164c-8 27 -38 38 -53 38c0 -3 1 -6 1 -10c0 -37 -31 -68 -68 -68c-38 0 -68 31 -68 68c0 42 44 69 82 69c14 0 28 -3 40 -7c14 -5 22 -9 35 -15c1 -1 3 -1 4 -1c4 0 6 4 6 8 c-2 8 -34 149 -42 168c-13 34 -32 35 -46 36l-3 -10c0 -38 -30 -68 -68 -68c-37 0 -68 30 -68 68c0 42 44 68 82 68c14 0 29 -3 40 -7c1 0 2 -1 3 -1c12 -4 21 -8 33 -14c1 0 2 -1 3 -1c3 0 5 2 5 5c0 1 0 3 -1 4c-2 7 -72 290 -74 295c0 10 6 16 29 16c32 0 36 -4 40 -16 l297 -1300s25 -88 27 -101c0 -2 1 -3 1 -4c0 -6 -8 -10 -10 -11c-5 0 -8 2 -11 4c-7 5 -57 66 -91 67v-10z" /><g transform="translate(485,-125)"><g></g></g></g></g><g transform="translate(19036,0)"><path d="" /></g><g transform="translate(19236,0)"><g><path d="M369 -150c-7 29 -42 43 -59 43c1 -3 1 -6 1 -10c0 -37 -30 -68 -68 -68c-37 0 -68 31 -68 68c0 32 27 56 55 65c8 2 17 4 27 4c27 0 52 -11 76 -22c2 -1 4 -2 5 -2c4 0 7 6 7 13c0 2 -1 5 -1 8c-3 12 -32 135 -37 149c-11 32 -40 42 -55 42v-10c0 -37 -30 -68 -68 -68 c-37 0 -68 31 -68 68c0 32 27 56 56 65c8 2 18 4 27 4c14 0 28 -3 40 -7c14 -5 22 -9 35 -15c2 -1 4 -2 5 -2c3 0 5 4 5 9c0 3 -3 21 -5 23c-13 54 -29 124 -34 139c-9 32 -38 41 -53 42c1 -4 1 -7 1 -10c0 -38 -30 -68 -68 -68s-68 30 -68 68c0 42 44 68 82 68 c25 0 49 -9 72 -20c2 -1 4 -2 6 -2c4 0 5 4 5 9c0 3 0 7 -1 11c0 2 -1 3 -1 4c-16 63 -33 134 -40 158c-10 37 -33 38 -45 38c1 -3 1 -6 1 -10c0 -37 -30 -68 -68 -68s-68 31 -68 68c0 42 44 69 82 69c14 0 29 -3 40 -7c14 -5 14 -7 27 -13c3 -1 4 -2 6 -2c3 0 4 2 4 6 c0 3 -1 8 -2 13c-4 17 -65 273 -67 278c-1 2 -1 4 -1 7c0 7 5 15 26 15c33 0 37 -13 40 -24l359 -1549s24 -88 27 -101v-4c0 -7 -7 -10 -9 -11c-5 0 -8 2 -11 4c-7 5 -58 66 -92 67c1 -4 1 -7 1 -10c0 -38 -30 -68 -68 -68s-68 30 -68 68c0 20 12 38 28 50 c14 13 35 18 54 18c14 0 29 -3 40 -7c1 0 2 -1 3 -1c12 -4 21 -8 33 -14c2 -1 5 -2 7 -2c7 0 13 5 13 15c0 2 -1 4 -1 6c-5 19 -35 144 -39 155c-7 27 -45 47 -65 47c1 -3 1 -7 1 -10c0 -37 -30 -68 -68 -68c-37 0 -68 31 -68 68c0 42 43 68 81 68c29 0 57 -10 82 -23 c2 -1 4 -1 6 -1c5 0 7 4 7 10c0 3 0 6 -1 10z" /><g transform="translate(541,-125)"><g></g></g></g></g><g transform="translate(19777,0)"><path d="" /></g><g transform="translate(19977,0)"><g><path d="M125 -15v-220c0 -8 -7 -15 -17 -15h-92c-9 0 -16 7 -16 15v220c0 8 7 15 16 15h92c10 0 17 -7 17 -15z" /><g transform="translate(125,-125)"><g><g transform="translate(0,0)"><path d="" /></g><g transform="translate(113,0)"><path d="M100 0c0 -28 -22 -50 -50 -50s-50 22 -50 50s22 50 50 50s50 -22 50 -50z" /></g><g transform="translate(213,0)"><path d="" /></g><g transform="translate(225,0)"><path d="M100 0c0 -28 -22 -50 -50 -50s-50 22 -50 50s22 50 50 50s50 -22 50 -50z" /></g></g></g></g></g><g transform="translate(20427,0)"><path d="" /></g><g transform="translate(20627,0)"><g><path d="M282 109v-92c0 -15 -12 -26 -26 -26h-230c-15 0 -26 11 -26 26v92c0 14 11 26 26 26h230c14 0 26 -12 26 -26z" /><g transform="translate(282,-125)"><g><g transform="translate(0,0)"><path d="" /></g><g transform="translate(113,0)"><path d="M100 0c0 -28 -22 -50 -50 -50s-50 22 -50 50s22 50 50 50s50 -22 50 -50z" /></g><g transform="translate(213,0)"><path d="" /></g><g transform="translate(225,0)"><path d="M100 0c0 -28 -22 -50 -50 -50s-50 22 -50 50s22 50 50 50s50 -22 50 -50z" /></g></g></g></g></g><g transform="translate(21234,0)"><path d="" /></g><g transform="translate(21434,0)"><g><path d="M282 -24v-92c0 -15 -12 -26 -26 -26h-230c-15 0 -26 11 -26 26v92c0 14 11 26 26 26h230c14 0 26 -12 26 -26z" /><g transform="translate(282,-125)"><g><g transform="translate(0,0)"><path d="" /></g><g transform="translate(113,0)"><path d="M100 0c0 -28 -22 -50 -50 -50s-50 22 -50 50s22 50 50 50s50 -22 50 -50z" /></g><g transform="translate(213,0)"><path d="" /></g><g transform="translate(225,0)"><path d="M100 0c0 -28 -22 -50 -50 -50s-50 22 -50 50s22 50 50 50s50 -22 50 -50z" /></g></g></g></g></g><g transform="translate(22041,0)"><path d="" /></g><g transform="translate(22241,0)"><g><path d="M78 38c16 20 30 39 43 60c2 4 6 12 6 14c0 1 0 3 -1 4c-2 4 -6 5 -11 5c-4 0 -12 -2 -16 -3c-5 0 -11 -3 -16 -3c-43 0 -82 43 -82 96c0 50 43 99 116 155c8 6 18 9 26 9c7 0 14 -2 15 -6c1 -3 2 -5 2 -7c0 -9 -8 -17 -16 -24c-13 0 -24 -27 -26 -36c-3 -8 -4 -17 -4 -26 c0 -41 21 -73 63 -73c29 0 62 11 78 17c1 0 2 1 3 1c3 1 5 1 7 1c3 0 5 -1 5 -4c0 -12 -26 -45 -37 -57c-38 -46 -69 -83 -69 -139c0 -4 1 -9 1 -13c4 -58 40 -106 66 -147c3 -5 4 -10 4 -15c0 -10 -4 -19 -4 -19s-148 -176 -165 -193c-5 -5 -12 -8 -18 -8 c-10 0 -20 7 -20 21c0 5 1 10 4 16c4 11 61 62 61 134c0 37 -15 80 -60 127c-10 10 -14 21 -14 29c0 14 10 24 10 24z" /><g transform="translate(270,-125)"><g><g transform="translate(0,0)"><path d="" /></g><g transform="translate(113,0)"><path d="M100 0c0 -28 -22 -50 -50 -50s-50 22 -50 50s22 50 50 50s50 -22 50 -50z" /></g><g transform="translate(213,0)"><path d="" /></g><g transform="translate(225,0)"><path d="M100 0c0 -28 -22 -50 -50 -50s-50 22 -50 50s22 50 50 50s50 -22 50 -50z" /></g></g></g></g></g><g transform="translate(22836,0)"><path d="" /></g><g transform="translate(23036,0)"><g><path d="M134 -107c0 -37 -30 -67 -67 -67s-67 30 -67 67c0 21 12 39 27 51c16 11 35 17 54 17c14 0 28 -3 39 -7c14 -4 23 -8 36 -15c2 -1 4 -1 5 -1c4 0 5 4 5 9c0 3 0 7 -1 11c-3 15 -75 214 -93 280c0 12 23 13 29 13c11 0 25 -2 35 -10c3 -2 101 -353 101 -353 c4 -18 9 -34 10 -39c0 -10 -10 -15 -12 -16c-2 0 -5 0 -11 4c-7 6 -57 66 -90 66v-10z" /><g transform="translate(247,-125)"><g><g transform="translate(0,0)"><path d="" /></g><g transform="translate(113,0)"><path d="M100 0c0 -28 -22 -50 -50 -50s-50 22 -50 50s22 50 50 50s50 -22 50 -50z" /></g><g transform="translate(213,0)"><path d="" /></g><g transform="translate(225,0)"><path d="M100 0c0 -28 -22 -50 -50 -50s-50 22 -50 50s22 50 50 50s50 -22 50 -50z" /></g></g></g></g></g><g transform="translate(23608,0)"><path d="" /></g><g transform="translate(23808,0)"><g><path d="M208 -111c0 -38 -30 -68 -68 -68c-37 0 -68 30 -68 68c0 41 42 68 80 68c27 0 55 -9 78 -22c3 -1 5 -2 7 -2c3 0 5 2 5 7c0 16 -51 165 -58 180c-8 19 -35 31 -49 31c1 -4 1 -7 1 -10c0 -38 -31 -68 -68 -68c-38 0 -68 30 -68 68c0 42 42 68 80 68c26 0 52 -9 75 -21 c2 0 4 2 4 5c0 1 -1 2 -1 3l-95 283c0 1 -1 2 -1 3c0 8 9 18 31 18c29 0 34 -12 38 -23l116 -381c26 -85 45 -152 45 -152s25 -88 27 -101c0 -2 1 -3 1 -4c0 -6 -8 -10 -10 -11c-5 0 -8 2 -11 4c-7 6 -57 66 -91 67v-10z" /><g transform="translate(320,-125)"><g><g transform="translate(0,0)"><path d="" /></g><g transform="translate(113,0)"><path d="M100 0c0 -28 -22 -50 -50 -50s-50 22 -50 50s22 50 50 50s50 -22 50 -50z" /></g><g transform="translate(213,0)"><path d="" /></g><g transform="translate(225,0)"><path d="M100 0c0 -28 -22 -50 -50 -50s-50 22 -50 50s22 50 50 50s50 -22 50 -50z" /></g></g></g></g></g><g transform="translate(24453,0)"><path d="" /></g><g transform="translate(24653,0)"><g><path d="M353 -419c-5 0 -8 2 -11 4c-7 5 -57 66 -91 66v-9c0 -38 -30 -68 -68 -68c-37 0 -68 30 -68 68c0 20 12 38 28 50c8 7 18 11 28 14c8 2 16 4 26 4c26 0 53 -10 76 -22c1 -1 3 -1 4 -1c7 0 11 10 11 16c0 1 -1 3 -1 4l-39 160c-5 16 -38 36 -54 36c1 -3 1 -6 1 -9 c0 -38 -31 -68 -68 -68c-38 0 -68 30 -68 68c0 20 12 38 28 50c8 7 17 11 27 14c8 2 17 4 27 4c26 0 52 -10 75 -22c1 -1 2 -1 3 -1c5 0 7 8 7 13l-40 164c-5 21 -36 34 -51 35c1 -4 1 -7 1 -10c0 -38 -30 -68 -68 -68c-37 0 -68 30 -68 68c0 41 42 68 80 68 c27 0 55 -9 78 -22c1 -1 2 -1 3 -1c3 0 6 3 6 6c0 4 -69 279 -71 286c-1 2 -1 4 -1 6c0 8 6 16 27 16c32 0 35 -10 39 -21c3 -12 175 -782 175 -782s24 -89 26 -101c0 -2 1 -3 1 -4c0 -9 -8 -11 -10 -11z" /><g transform="translate(363,-125)"><g><g transform="translate(0,0)"><path d="" /></g><g transform="translate(113,0)"><path d="M100 0c0 -28 -22 -50 -50 -50s-50 22 -50 50s22 50 50 50s50 -22 50 -50z" /></g><g transform="translate(213,0)"><path d="" /></g><g transform="translate(225,0)"><path d="M100 0c0 -28 -22 -50 -50 -50s-50 22 -50 50s22 50 50 50s50 -22 50 -50z" /></g></g></g></g></g><g transform="translate(25341,0)"><path d="" /></g><g transform="translate(25541,0)"><g><path d="M414 -423c-5 0 -8 2 -11 4c-8 6 -58 67 -92 67c1 -3 1 -6 1 -10c0 -37 -31 -68 -68 -68c-38 0 -68 31 -68 68c0 42 44 69 82 69c27 0 52 -11 76 -22c2 -1 5 -2 7 -2c5 0 9 4 9 11c0 3 -1 6 -2 10c-1 3 -35 145 -39 156c-7 19 -43 40 -60 40v-10c0 -37 -30 -68 -68 -68 c-37 0 -68 31 -68 68c0 32 27 56 56 65c8 2 16 3 25 3c28 0 56 -9 82 -21c2 -1 3 -1 4 -1c4 0 6 4 6 9c0 2 0 3 -1 5c-2 9 -38 154 -41 162c-8 26 -35 35 -49 35v-10c0 -37 -30 -68 -68 -68c-37 0 -68 31 -68 68c0 21 12 39 28 51c9 6 18 11 28 14c8 2 18 4 27 4 c14 0 28 -3 40 -7c14 -5 17 -9 30 -15c1 -1 2 -1 3 -1c5 0 6 8 6 14c0 3 -1 7 -1 8c-1 5 -36 148 -40 159c-6 21 -32 30 -45 30c1 -3 1 -6 1 -9c0 -38 -30 -68 -68 -68c-37 0 -68 30 -68 68c0 20 12 38 28 50c14 12 36 18 54 18c19 0 47 -7 64 -16c2 -1 3 -1 4 -1 c5 0 8 5 8 11c0 2 -1 4 -1 6l-72 279c-1 3 -1 5 -1 7c0 9 9 14 32 14c24 0 29 -6 33 -17c2 -9 10 -27 130 -543c1 0 20 -81 24 -99l93 -400s24 -89 27 -102c0 -11 -5 -14 -9 -15z" /><g transform="translate(423,-125)"><g><g transform="translate(0,0)"><path d="" /></g><g transform="translate(113,0)"><path d="M100 0c0 -28 -22 -50 -50 -50s-50 22 -50 50s22 50 50 50s50 -22 50 -50z" /></g><g transform="translate(213,0)"><path d="" /></g><g transform="translate(225,0)"><path d="M100 0c0 -28 -22 -50 -50 -50s-50 22 -50 50s22 50 50 50s50 -22 50 -50z" /></g></g></g></g></g><g transform="translate(26289,0)"><path d="" /></g><g transform="translate(26489,0)"><g><path d="M373 -621c0 -38 -30 -68 -68 -68c-37 0 -68 30 -68 68c0 20 12 38 28 50c14 12 36 18 54 18c14 0 29 -3 40 -7c1 0 2 -1 3 -1c12 -4 21 -8 33 -14c2 -1 6 -2 8 -2c6 0 12 4 12 13c0 2 0 5 -1 8c-4 19 -35 143 -39 157c-4 15 -45 45 -64 45v-10c0 -37 -30 -68 -68 -68 c-37 0 -68 31 -68 68c0 21 12 39 28 51c18 12 31 17 53 17c14 0 30 -2 42 -6c14 -5 32 -14 45 -20c1 -1 2 -1 3 -1c4 0 5 6 5 13c0 5 -1 10 -2 14l-39 156c-5 20 -40 40 -56 40v-10c0 -37 -30 -68 -68 -68c-37 0 -68 31 -68 68c0 32 27 56 56 65c8 2 18 4 27 4 c14 0 28 -3 40 -7c14 -5 22 -9 35 -15c2 -1 4 -2 6 -2c4 0 6 4 6 10c0 17 -33 143 -40 164c-8 27 -38 38 -53 38c0 -3 1 -6 1 -10c0 -37 -31 -68 -68 -68c-38 0 -68 31 -68 68c0 42 44 69 82 69c14 0 28 -3 40 -7c14 -5 22 -9 35 -15c1 -1 3 -1 4 -1c4 0 6 4 6 8 c-2 8 -34 149 -42 168c-13 34 -32 35 -46 36l-3 -10c0 -38 -30 -68 -68 -68c-37 0 -68 30 -68 68c0 42 44 68 82 68c14 0 29 -3 40 -7c1 0 2 -1 3 -1c12 -4 21 -8 33 -14c1 0 2 -1 3 -1c3 0 5 2 5 5c0 1 0 3 -1 4c-2 7 -72 290 -74 295c0 10 6 16 29 16c32 0 36 -4 40 -16 l297 -1300s25 -88 27 -101c0 -2 1 -3 1 -4c0 -6 -8 -10 -10 -11c-5 0 -8 2 -11 4c-7 5 -57 66 -91 67v-10z" /><g transform="translate(485,-125)"><g><g transform="translate(0,0)"><path d="" /></g><g transform="translate(113,0)"><path d="M100 0c0 -28 -22 -50 -50 -50s-50 22 -50 50s22 50 50 50s50 -22 50 -50z" /></g><g transform="translate(213,0)"><path d="" /></g><g transform="translate(225,0)"><path d="M100 0c0 -28 -22 -50 -50 -50s-50 22 -50 50s22 50 50 50s50 -22 50 -50z" /></g></g></g></g></g><g transform="translate(27299,0)"><path d="" /></g><g transform="translate(27499,0)"><g><path d="M369 -150c-7 29 -42 43 -59 43c1 -3 1 -6 1 -10c0 -37 -30 -68 -68 -68c-37 0 -68 31 -68 68c0 32 27 56 55 65c8 2 17 4 27 4c27 0 52 -11 76 -22c2 -1 4 -2 5 -2c4 0 7 6 7 13c0 2 -1 5 -1 8c-3 12 -32 135 -37 149c-11 32 -40 42 -55 42v-10c0 -37 -30 -68 -68 -68 c-37 0 -68 31 -68 68c0 32 27 56 56 65c8 2 18 4 27 4c14 0 28 -3 40 -7c14 -5 22 -9 35 -15c2 -1 4 -2 5 -2c3 0 5 4 5 9c0 3 -3 21 -5 23c-13 54 -29 124 -34 139c-9 32 -38 41 -53 42c1 -4 1 -7 1 -10c0 -38 -30 -68 -68 -68s-68 30 -68 68c0 42 44 68 82 68 c25 0 49 -9 72 -20c2 -1 4 -2 6 -2c4 0 5 4 5 9c0 3 0 7 -1 11c0 2 -1 3 -1 4c-16 63 -33 134 -40 158c-10 37 -33 38 -45 38c1 -3 1 -6 1 -10c0 -37 -30 -68 -68 -68s-68 31 -68 68c0 42 44 69 82 69c14 0 29 -3 40 -7c14 -5 14 -7 27 -13c3 -1 4 -2 6 -2c3 0 4 2 4 6 c0 3 -1 8 -2 13c-4 17 -65 273 -67 278c-1 2 -1 4 -1 7c0 7 5 15 26 15c33 0 37 -13 40 -24l359 -1549s24 -88 27 -101v-4c0 -7 -7 -10 -9 -11c-5 0 -8 2 -11 4c-7 5 -58 66 -92 67c1 -4 1 -7 1 -10c0 -38 -30 -68 -68 -68s-68 30 -68 68c0 20 12 38 28 50 c14 13 35 18 54 18c14 0 29 -3 40 -7c1 0 2 -1 3 -1c12 -4 21 -8 33 -14c2 -1 5 -2 7 -2c7 0 13 5 13 15c0 2 -1 4 -1 6c-5 19 -35 144 -39 155c-7 27 -45 47 -65 47c1 -3 1 -7 1 -10c0 -37 -30 -68 -68 -68c-37 0 -68 31 -68 68c0 42 43 68 81 68c29 0 57 -10 82 -23 c2 -1 4 -1 6 -1c5 0 7 4 7 10c0 3 0 6 -1 10z" /><g transform="translate(541,-125)"><g><g transform="translate(0,0)"><path d="" /></g><g transform="translate(113,0)"><path d="M100 0c0 -28 -22 -50 -50 -50s-50 22 -50 50s22 50 50 50s50 -22 50 -50z" /></g><g transform="translate(213,0)"><path d="" /></g><g transform="translate(225,0)"><path d="M100 0c0 -28 -22 -50 -50 -50s-50 22 -50 50s22 50 50 50s50 -22 50 -50z" /></g></g></g></g></g><path d="M16.25 -16.25L28548.75 -16.25C28557.724628 -16.25 28565 -8.974628000000001 28565 0C28565 8.974628000000001 28557.724628 16.25 28548.75 16.25L16.25 16.25C7.275371999999999 16.25 0 8.974628000000001 0 0C0 -8.974628000000001 7.275371999999999 -16.25 16.25 -16.25Z" /></g></g></svg>
