<svg viewBox="0 0 215.9 279.4" width="215.9mm" height="279.4mm" xmlns="http://www.w3.org/2000/svg" xmlns:xlink="http://www.w3.org/1999/xlink"><g transform="scale(1, -1)"><g transform="translate(0,0) scale(0.007,0.007)"><g transform="translate(0,-1000) scale(1,1)"><g><g transform="translate(0,-500) scale(1,1)"><path d="M0 -16.25L3436 -16.25C3444.974628 -16.25 3452.25 -8.974628000000001 3452.25 0C3452.25 8.974628000000001 3444.974628 16.25 3436 16.25L0 16.25C-8.974628000000001 16.25 -16.25 8.974628000000001 -16.25 0C-16.25 -8.974628000000001 -8.974628000000001 -16.25 0 -16.25Z" /></g><g transform="translate(0,-250) scale(1,1)"><path d="M0 -16.25L3436 -16.25C3444.974628 -16.25 3452.25 -8.974628000000001 3452.25 0C3452.25 8.974628000000001 3444.974628 16.25 3436 16.25L0 16.25C-8.974628000000001 16.25 -16.25 8.974628000000001 -16.25 0C-16.25 -8.974628000000001 -8.974628000000001 -16.25 0 -16.25Z" /></g><g transform="translate(0,0) scale(1,1)"><path d="M0 -16.25L3436 -16.25C3444.974628 -16.25 3452.25 -8.974628000000001 3452.25 0C3452.25 8.974628000000001 3444.974628 16.25 3436 16.25L0 16.25C-8.974628000000001 16.25 -16.25 8.974628000000001 -16.25 0C-16.25 -8.974628000000001 -8.974628000000001 -16.25 0 -16.25Z" /></g><g transform="translate(0,250) scale(1,1)"><path d="M0 -16.25L3436 -16.25C3444.974628 -16.25 3452.25 -8.974628000000001 3452.25 0C3452.25 8.974628000000001 3444.974628 16.25 3436 16.25L0 16.25C-8.974628000000001 16.25 -16.25 8.974628000000001 -16.25 0C-16.25 -8.974628000000001 -8.974628000000001 -16.25 0 -16.25Z" /></g><g transform="translate(0,500) scale(1,1)"><path d="M0 -16.25L3436 -16.25C3444.974628 -16.25 3452.25 -8.974628000000001 3452.25 0C3452.25 8.974628000000001 3444.974628 16.25 3436 16.25L0 16.25C-8.974628000000001 16.25 -16.25 8.974628000000001 -16.25 0C-16.25 -8.974628000000001 -8.974628000000001 -16.25 0 -16.25Z" /></g><path d="" /><g transform="translate(200,0) scale(1,1)"><path d="M187 -482L187 482C187 496 194 503 208 503L209 503C223 503 230 496 230 482L230 44C230 39 232 37 235 37C236 37 238 38 239 38C265 45 307 71 328 184C331 200 337 209 347 209C358 209 363 199 368 182C381 138 404 89 475 89C540 89 558 153 558 284C558 415 535 474 452 474C438 474 367 468 367 447C367 442 383 436 394 432C414 425 434 405 434 367C434 323 405 298 366 298C323 298 289 327 289 380C289 443 344 506 463 506C627 506 699 391 699 287C699 149 623 53 490 53C461 53 442 58 429 62C424 64 418 65 413 65C409 65 404 64 400 61C386 52 364 20 364 0C364 -20 386 -52 400 -61C404 -64 409 -65 413 -65C418 -65 424 -64 429 -62C442 -58 461 -53 490 -53C623 -53 699 -149 699 -287C699 -391 627 -506 463 -506C344 -506 289 -443 289 -380C289 -327 323 -298 366 -298C405 -298 434 -323 434 -367C434 -405 414 -425 394 -432C383 -436 367 -442 367 -447C367 -468 438 -474 452 -474C535 -474 558 -415 558 -284C558 -153 540 -89 475 -89C404 -89 381 -138 368 -182C363 -199 358 -209 347 -209C337 -209 331 -200 328 -184C307 -71 265 -45 239 -38C238 -38 236 -37 235 -37C232 -37 230 -39 230 -44L230 -482C230 -496 223 -503 209 -503L208 -503C194 -503 187 -496 187 -482ZM21 -503C7 -503 0 -496 0 -482L0 482C0 496 7 503 21 503L107 503C121 503 128 496 128 482L128 -482C128 -496 121 -503 107 -503L21 -503Z" /></g><g transform="translate(899,0) scale(1,1)"><path d="" /></g><g transform="translate(1099,0) scale(1,1)"><g transform="translate(0,250) scale(1,1)"><path d="M252 262C425 262 531 146 531 -28C531 -332 271 -510 25 -630C19 -633 13 -635 8 -635C-1 -635 -5 -629 -5 -623C-5 -615 1 -610 10 -605C243 -472 381 -316 381 -37C381 120 335 224 229 224C127 224 67 151 67 111C67 101 70 93 83 93C96 93 106 100 133 100C182 100 229 60 229 -4C229 -66 186 -110 123 -110C42 -110 0 -41 0 39C0 135 78 262 252 262ZM630 -71C661 -71 684 -94 684 -125C684 -156 661 -179 630 -179C599 -179 576 -156 576 -125C576 -94 599 -71 630 -71ZM629 180C660 180 684 156 684 125C684 94 660 70 629 70C598 70 574 94 574 125C574 156 598 180 629 180Z" /></g></g><g transform="translate(1783,0) scale(1,1)"><path d="" /></g><g transform="translate(1983,0) scale(1,1)"><g transform="translate(0,-250) scale(1,1)"><path d="M470 943C409 943 337 847 337 691C337 659 339 625 343 599C344 591 346 587 349 587C351 587 353 589 356 591C435 660 530 750 530 861C530 916 503 943 470 943ZM430 103L479 -182C480 -189 481 -192 485 -192C487 -192 490 -190 495 -188C551 -160 589 -109 589 -46C589 42 522 110 441 117L437 117C429 117 428 114 430 103ZM361 262L340 390C339 396 338 399 335 399C333 399 330 397 326 394C205 296 80 190 80 20C80 -119 193 -216 368 -216C388 -216 408 -214 424 -211C439 -208 440 -208 438 -197L388 101C387 108 385 111 380 111C377 111 373 110 368 109C307 92 268 49 268 -8C268 -54 298 -97 340 -115C347 -118 355 -121 355 -128C355 -134 351 -139 343 -139C336 -139 324 -136 316 -133C248 -110 201 -46 201 44C201 129 258 208 346 238C364 244 364 243 361 262ZM376 415L401 270C404 252 404 252 430 252C577 252 671 139 671 11C671 -102 604 -187 503 -227C489 -233 488 -232 490 -244C501 -306 519 -401 519 -458C519 -628 389 -658 322 -658C171 -658 132 -560 132 -495C132 -433 172 -380 239 -380C300 -380 335 -427 335 -482C335 -540 299 -567 268 -576C245 -583 236 -586 236 -593C236 -606 262 -622 316 -622C375 -622 475 -604 475 -456C475 -409 460 -322 448 -255C447 -247 445 -245 441 -245C439 -245 437 -245 433 -246C413 -250 387 -252 364 -252C119 -252 0 -87 0 87C0 289 153 432 297 551C309 561 308 563 306 575C299 616 292 681 292 739C292 843 316 968 390 1050C410 1072 441 1098 455 1098C466 1098 492 1070 507 1048C548 988 572 902 572 815C572 662 490 535 382 434C376 428 374 427 376 415Z" /></g></g><g transform="translate(2654,0) scale(1,1)"><path d="" /></g><g transform="translate(2854,0) scale(1,1)"><path d="M222 -235L222 235C222 243 228 250 236 250L368 250C376 250 382 243 382 235L382 -235C382 -243 376 -250 368 -250L236 -250C228 -250 222 -243 222 -235ZM0 235C0 243 6 250 14 250L146 250C154 250 160 243 160 235L160 -235C160 -243 154 -250 146 -250L14 -250C6 -250 0 -243 0 -235L0 235Z" /></g><g transform="translate(3236,0) scale(1,1)"><path d="" /></g></g></g></g></g></svg>
