<svg viewBox="0 0 30842.9 39914.3" width="215.9mm" height="279.4mm" xmlns="http://www.w3.org/2000/svg" xmlns:xlink="http://www.w3.org/1999/xlink">"><g transform="translate(0,1000)"><g><g transform="translate(0,-500)"><path d="M16.25 -16.249999999999996L3419.75 -16.249999999999996C3428.724628 -16.249999999999996 3436 -8.974628 3436 0C3436 8.974628 3428.724628 16.249999999999996 3419.75 16.249999999999996L16.25 16.249999999999996C7.275372000000001 16.249999999999996 0.000000000000003552713678800501 8.974628 0.000000000000003552713678800501 0C0.000000000000003552713678800501 -8.974628 7.275372000000001 -16.249999999999996 16.25 -16.249999999999996Z" /></g><g transform="translate(0,-250)"><path d="M16.25 -16.249999999999996L3419.75 -16.249999999999996C3428.724628 -16.249999999999996 3436 -8.974628 3436 0C3436 8.974628 3428.724628 16.249999999999996 3419.75 16.249999999999996L16.25 16.249999999999996C7.275372000000001 16.249999999999996 0.000000000000003552713678800501 8.974628 0.000000000000003552713678800501 0C0.000000000000003552713678800501 -8.974628 7.275372000000001 -16.249999999999996 16.25 -16.249999999999996Z" /></g><g transform="translate(0,0)"><path d="M16.25 -16.249999999999996L3419.75 -16.249999999999996C3428.724628 -16.249999999999996 3436 -8.974628 3436 0C3436 8.974628 3428.724628 16.249999999999996 3419.75 16.249999999999996L16.25 16.249999999999996C7.275372000000001 16.249999999999996 0.000000000000003552713678800501 8.974628 0.000000000000003552713678800501 0C0.000000000000003552713678800501 -8.974628 7.275372000000001 -16.249999999999996 16.25 -16.249999999999996Z" /></g><g transform="translate(0,250)"><path d="M16.25 -16.249999999999996L3419.75 -16.249999999999996C3428.724628 -16.249999999999996 3436 -8.974628 3436 0C3436 8.974628 3428.724628 16.249999999999996 3419.75 16.249999999999996L16.25 16.249999999999996C7.275372000000001 16.249999999999996 0.000000000000003552713678800501 8.974628 0.000000000000003552713678800501 0C0.000000000000003552713678800501 -8.974628 7.275372000000001 -16.249999999999996 16.25 -16.249999999999996Z" /></g><g transform="translate(0,500)"><path d="M16.25 -16.249999999999996L3419.75 -16.249999999999996C3428.724628 -16.249999999999996 3436 -8.974628 3436 0C3436 8.974628 3428.724628 16.249999999999996 3419.75 16.249999999999996L16.25 16.249999999999996C7.275372000000001 16.249999999999996 0.000000000000003552713678800501 8.974628 0.000000000000003552713678800501 0C0.000000000000003552713678800501 -8.974628 7.275372000000001 -16.249999999999996 16.25 -16.249999999999996Z" /></g><path d="" /><g transform="translate(200,0)"><path d="M187 482c0 14 7 21 21 21h1c14 0 21 -7 21 -21v-438c0 -5 2 -7 5 -7c1 0 3 1 4 1c26 7 68 33 89 146c3 16 9 25 19 25c11 0 16 -10 21 -27c13 -44 36 -93 107 -93c65 0 83 64 83 195s-23 190 -106 190c-14 0 -85 -6 -85 -27c0 -5 16 -11 27 -15c20 -7 40 -27 40 -65 c0 -44 -29 -69 -68 -69c-43 0 -77 29 -77 82c0 63 55 126 174 126c164 0 236 -115 236 -219c0 -138 -76 -234 -209 -234c-29 0 -48 5 -61 9c-5 2 -11 3 -16 3c-4 0 -9 -1 -13 -4c-14 -9 -36 -41 -36 -61s22 -52 36 -61c4 -3 9 -4 13 -4c5 0 11 1 16 3c13 4 32 9 61 9 c133 0 209 -96 209 -234c0 -104 -72 -219 -236 -219c-119 0 -174 63 -174 126c0 53 34 82 77 82c39 0 68 -25 68 -69c0 -38 -20 -58 -40 -65c-11 -4 -27 -10 -27 -15c0 -21 71 -27 85 -27c83 0 106 59 106 190s-18 195 -83 195c-71 0 -94 -49 -107 -93 c-5 -17 -10 -27 -21 -27c-10 0 -16 9 -19 25c-21 113 -63 139 -89 146c-1 0 -3 1 -4 1c-3 0 -5 -2 -5 -7v-438c0 -14 -7 -21 -21 -21h-1c-14 0 -21 7 -21 21v964zM21 503h86c14 0 21 -7 21 -21v-964c0 -14 -7 -21 -21 -21h-86c-14 0 -21 7 -21 21v964c0 14 7 21 21 21z" /></g><g transform="translate(899,0)"><path d="" /></g><g transform="translate(1099,0)"><g transform="translate(0,-250)"><path d="M252 -262c-174 0 -252 127 -252 223c0 80 42 149 123 149c63 0 106 -44 106 -106c0 -64 -47 -104 -96 -104c-27 0 -37 7 -50 7s-16 -8 -16 -18c0 -40 60 -113 162 -113c106 0 152 104 152 261c0 279 -138 435 -371 568c-9 5 -15 10 -15 18c0 6 4 12 13 12 c5 0 11 -2 17 -5c246 -120 506 -298 506 -602c0 -174 -106 -290 -279 -290zM630 71c-31 0 -54 23 -54 54s23 54 54 54s54 -23 54 -54s-23 -54 -54 -54zM629 -180c-31 0 -55 24 -55 55s24 55 55 55s55 -24 55 -55s-24 -55 -55 -55z" /></g></g><g transform="translate(1783,0)"><path d="" /></g><g transform="translate(1983,0)"><g transform="translate(0,250)"><path d="M470 -943c33 0 60 27 60 82c0 111 -95 201 -174 270c-3 2 -5 4 -7 4c-3 0 -5 -4 -6 -12c-4 -26 -6 -60 -6 -92c0 -156 72 -252 133 -252zM430 -103c-2 -11 -1 -14 7 -14h4c81 7 148 75 148 163c0 63 -38 114 -94 142c-5 2 -8 4 -10 4c-4 0 -5 -3 -6 -10zM361 -262 c3 19 3 18 -15 24c-88 30 -145 109 -145 194c0 90 47 154 115 177c8 3 20 6 27 6c8 0 12 -5 12 -11c0 -7 -8 -10 -15 -13c-42 -18 -72 -61 -72 -107c0 -57 39 -100 100 -117c5 -1 9 -2 12 -2c5 0 7 3 8 10l50 298c2 11 1 11 -14 14c-16 3 -36 5 -56 5 c-175 0 -288 -97 -288 -236c0 -170 125 -276 246 -374c4 -3 7 -5 9 -5c3 0 4 3 5 9zM376 -415c-2 -12 0 -13 6 -19c108 -101 190 -228 190 -381c0 -87 -24 -173 -65 -233c-15 -22 -41 -50 -52 -50c-14 0 -45 26 -65 48c-74 82 -98 207 -98 311c0 58 7 123 14 164 c2 12 3 14 -9 24c-144 119 -297 262 -297 464c0 174 119 339 364 339c23 0 49 -2 69 -6c4 -1 6 -1 8 -1c4 0 6 2 7 10c12 67 27 154 27 201c0 148 -100 166 -159 166c-54 0 -80 -16 -80 -29c0 -7 9 -10 32 -17c31 -9 67 -36 67 -94c0 -55 -35 -102 -96 -102 c-67 0 -107 53 -107 115c0 65 39 163 190 163c67 0 197 -30 197 -200c0 -57 -18 -152 -29 -214c-2 -12 -1 -11 13 -17c101 -40 168 -125 168 -238c0 -128 -94 -241 -241 -241c-26 0 -26 0 -29 -18z" /></g></g><g transform="translate(2654,0)"><path d="" /></g><g transform="translate(2854,0)"><path d="M222 235c0 8 6 15 14 15h132c8 0 14 -7 14 -15v-470c0 -8 -6 -15 -14 -15h-132c-8 0 -14 7 -14 15v470zM0 -235v470c0 8 6 15 14 15h132c8 0 14 -7 14 -15v-470c0 -8 -6 -15 -14 -15h-132c-8 0 -14 7 -14 15z" /></g><g transform="translate(3236,0)"><path d="" /></g></g></g></svg>
