<svg viewBox="0 0 30842.9 39914.3" width="215.9mm" height="279.4mm" xmlns="http://www.w3.org/2000/svg" xmlns:xlink="http://www.w3.org/1999/xlink">"><g transform="translate(0,1000)"><g><g transform="translate(0,-500)"><path d="M16.25 -16.249999999999996L6434.75 -16.249999999999996C6443.724628 -16.249999999999996 6451 -8.974628 6451 0C6451 8.974628 6443.724628 16.249999999999996 6434.75 16.249999999999996L16.25 16.249999999999996C7.275372000000001 16.249999999999996 0.000000000000003552713678800501 8.974628 0.000000000000003552713678800501 0C0.000000000000003552713678800501 -8.974628 7.275372000000001 -16.249999999999996 16.25 -16.249999999999996Z" /></g><g transform="translate(0,-250)"><path d="M16.25 -16.249999999999996L6434.75 -16.249999999999996C6443.724628 -16.249999999999996 6451 -8.974628 6451 0C6451 8.974628 6443.724628 16.249999999999996 6434.75 16.249999999999996L16.25 16.249999999999996C7.275372000000001 16.249999999999996 0.000000000000003552713678800501 8.974628 0.000000000000003552713678800501 0C0.000000000000003552713678800501 -8.974628 7.275372000000001 -16.249999999999996 16.25 -16.249999999999996Z" /></g><g transform="translate(0,0)"><path d="M16.25 -16.249999999999996L6434.75 -16.249999999999996C6443.724628 -16.249999999999996 6451 -8.974628 6451 0C6451 8.974628 6443.724628 16.249999999999996 6434.75 16.249999999999996L16.25 16.249999999999996C7.275372000000001 16.249999999999996 0.000000000000003552713678800501 8.974628 0.000000000000003552713678800501 0C0.000000000000003552713678800501 -8.974628 7.275372000000001 -16.249999999999996 16.25 -16.249999999999996Z" /></g><g transform="translate(0,250)"><path d="M16.25 -16.249999999999996L6434.75 -16.249999999999996C6443.724628 -16.249999999999996 6451 -8.974628 6451 0C6451 8.974628 6443.724628 16.249999999999996 6434.75 16.249999999999996L16.25 16.249999999999996C7.275372000000001 16.249999999999996 0.000000000000003552713678800501 8.974628 0.000000000000003552713678800501 0C0.000000000000003552713678800501 -8.974628 7.275372000000001 -16.249999999999996 16.25 -16.249999999999996Z" /></g><g transform="translate(0,500)"><path d="M16.25 -16.249999999999996L6434.75 -16.249999999999996C6443.724628 -16.249999999999996 6451 -8.974628 6451 0C6451 8.974628 6443.724628 16.249999999999996 6434.75 16.249999999999996L16.25 16.249999999999996C7.275372000000001 16.249999999999996 0.000000000000003552713678800501 8.974628 0.000000000000003552713678800501 0C0.000000000000003552713678800501 -8.974628 7.275372000000001 -16.249999999999996 16.25 -16.249999999999996Z" /></g><path d="" /><g transform="translate(200,0)"><path d="M369 -150c-7 29 -42 43 -59 43c1 -3 1 -6 1 -10c0 -37 -30 -68 -68 -68c-37 0 -68 31 -68 68c0 32 27 56 55 65c8 2 17 4 27 4c27 0 52 -11 76 -22c2 -1 4 -2 5 -2c4 0 7 6 7 13c0 2 -1 5 -1 8c-3 12 -32 135 -37 149c-11 32 -40 42 -55 42v-10c0 -37 -30 -68 -68 -68 c-37 0 -68 31 -68 68c0 32 27 56 56 65c8 2 18 4 27 4c14 0 28 -3 40 -7c14 -5 22 -9 35 -15c2 -1 4 -2 5 -2c3 0 5 4 5 9c0 3 -3 21 -5 23c-13 54 -29 124 -34 139c-9 32 -38 41 -53 42c1 -4 1 -7 1 -10c0 -38 -30 -68 -68 -68s-68 30 -68 68c0 42 44 68 82 68 c25 0 49 -9 72 -20c2 -1 4 -2 6 -2c4 0 5 4 5 9c0 3 0 7 -1 11c0 2 -1 3 -1 4c-16 63 -33 134 -40 158c-10 37 -33 38 -45 38c1 -3 1 -6 1 -10c0 -37 -30 -68 -68 -68s-68 31 -68 68c0 42 44 69 82 69c14 0 29 -3 40 -7c14 -5 14 -7 27 -13c3 -1 4 -2 6 -2c3 0 4 2 4 6 c0 3 -1 8 -2 13c-4 17 -65 273 -67 278c-1 2 -1 4 -1 7c0 7 5 15 26 15c33 0 37 -13 40 -24l359 -1549s24 -88 27 -101v-4c0 -7 -7 -10 -9 -11c-5 0 -8 2 -11 4c-7 5 -58 66 -92 67c1 -4 1 -7 1 -10c0 -38 -30 -68 -68 -68s-68 30 -68 68c0 20 12 38 28 50 c14 13 35 18 54 18c14 0 29 -3 40 -7c1 0 2 -1 3 -1c12 -4 21 -8 33 -14c2 -1 5 -2 7 -2c7 0 13 5 13 15c0 2 -1 4 -1 6c-5 19 -35 144 -39 155c-7 27 -45 47 -65 47c1 -3 1 -7 1 -10c0 -37 -30 -68 -68 -68c-37 0 -68 31 -68 68c0 42 43 68 81 68c29 0 57 -10 82 -23 c2 -1 4 -1 6 -1c5 0 7 4 7 10c0 3 0 6 -1 10z" /></g><g transform="translate(741,0)"><path d="" /></g><g transform="translate(941,0)"><path d="M373 -621c0 -38 -30 -68 -68 -68c-37 0 -68 30 -68 68c0 20 12 38 28 50c14 12 36 18 54 18c14 0 29 -3 40 -7c1 0 2 -1 3 -1c12 -4 21 -8 33 -14c2 -1 6 -2 8 -2c6 0 12 4 12 13c0 2 0 5 -1 8c-4 19 -35 143 -39 157c-4 15 -45 45 -64 45v-10c0 -37 -30 -68 -68 -68 c-37 0 -68 31 -68 68c0 21 12 39 28 51c18 12 31 17 53 17c14 0 30 -2 42 -6c14 -5 32 -14 45 -20c1 -1 2 -1 3 -1c4 0 5 6 5 13c0 5 -1 10 -2 14l-39 156c-5 20 -40 40 -56 40v-10c0 -37 -30 -68 -68 -68c-37 0 -68 31 -68 68c0 32 27 56 56 65c8 2 18 4 27 4 c14 0 28 -3 40 -7c14 -5 22 -9 35 -15c2 -1 4 -2 6 -2c4 0 6 4 6 10c0 17 -33 143 -40 164c-8 27 -38 38 -53 38c0 -3 1 -6 1 -10c0 -37 -31 -68 -68 -68c-38 0 -68 31 -68 68c0 42 44 69 82 69c14 0 28 -3 40 -7c14 -5 22 -9 35 -15c1 -1 3 -1 4 -1c4 0 6 4 6 8 c-2 8 -34 149 -42 168c-13 34 -32 35 -46 36l-3 -10c0 -38 -30 -68 -68 -68c-37 0 -68 30 -68 68c0 42 44 68 82 68c14 0 29 -3 40 -7c1 0 2 -1 3 -1c12 -4 21 -8 33 -14c1 0 2 -1 3 -1c3 0 5 2 5 5c0 1 0 3 -1 4c-2 7 -72 290 -74 295c0 10 6 16 29 16c32 0 36 -4 40 -16 l297 -1300s25 -88 27 -101c0 -2 1 -3 1 -4c0 -6 -8 -10 -10 -11c-5 0 -8 2 -11 4c-7 5 -57 66 -91 67v-10z" /></g><g transform="translate(1426,0)"><path d="" /></g><g transform="translate(1626,0)"><path d="M414 -423c-5 0 -8 2 -11 4c-8 6 -58 67 -92 67c1 -3 1 -6 1 -10c0 -37 -31 -68 -68 -68c-38 0 -68 31 -68 68c0 42 44 69 82 69c27 0 52 -11 76 -22c2 -1 5 -2 7 -2c5 0 9 4 9 11c0 3 -1 6 -2 10c-1 3 -35 145 -39 156c-7 19 -43 40 -60 40v-10c0 -37 -30 -68 -68 -68 c-37 0 -68 31 -68 68c0 32 27 56 56 65c8 2 16 3 25 3c28 0 56 -9 82 -21c2 -1 3 -1 4 -1c4 0 6 4 6 9c0 2 0 3 -1 5c-2 9 -38 154 -41 162c-8 26 -35 35 -49 35v-10c0 -37 -30 -68 -68 -68c-37 0 -68 31 -68 68c0 21 12 39 28 51c9 6 18 11 28 14c8 2 18 4 27 4 c14 0 28 -3 40 -7c14 -5 17 -9 30 -15c1 -1 2 -1 3 -1c5 0 6 8 6 14c0 3 -1 7 -1 8c-1 5 -36 148 -40 159c-6 21 -32 30 -45 30c1 -3 1 -6 1 -9c0 -38 -30 -68 -68 -68c-37 0 -68 30 -68 68c0 20 12 38 28 50c14 12 36 18 54 18c19 0 47 -7 64 -16c2 -1 3 -1 4 -1 c5 0 8 5 8 11c0 2 -1 4 -1 6l-72 279c-1 3 -1 5 -1 7c0 9 9 14 32 14c24 0 29 -6 33 -17c2 -9 10 -27 130 -543c1 0 20 -81 24 -99l93 -400s24 -89 27 -102c0 -11 -5 -14 -9 -15z" /></g><g transform="translate(2050,0)"><path d="" /></g><g transform="translate(2250,0)"><path d="M353 -419c-5 0 -8 2 -11 4c-7 5 -57 66 -91 66v-9c0 -38 -30 -68 -68 -68c-37 0 -68 30 -68 68c0 20 12 38 28 50c8 7 18 11 28 14c8 2 16 4 26 4c26 0 53 -10 76 -22c1 -1 3 -1 4 -1c7 0 11 10 11 16c0 1 -1 3 -1 4l-39 160c-5 16 -38 36 -54 36c1 -3 1 -6 1 -9 c0 -38 -31 -68 -68 -68c-38 0 -68 30 -68 68c0 20 12 38 28 50c8 7 17 11 27 14c8 2 17 4 27 4c26 0 52 -10 75 -22c1 -1 2 -1 3 -1c5 0 7 8 7 13l-40 164c-5 21 -36 34 -51 35c1 -4 1 -7 1 -10c0 -38 -30 -68 -68 -68c-37 0 -68 30 -68 68c0 41 42 68 80 68 c27 0 55 -9 78 -22c1 -1 2 -1 3 -1c3 0 6 3 6 6c0 4 -69 279 -71 286c-1 2 -1 4 -1 6c0 8 6 16 27 16c32 0 35 -10 39 -21c3 -12 175 -782 175 -782s24 -89 26 -101c0 -2 1 -3 1 -4c0 -9 -8 -11 -10 -11z" /></g><g transform="translate(2613,0)"><path d="" /></g><g transform="translate(2813,0)"><path d="M208 -111c0 -38 -30 -68 -68 -68c-37 0 -68 30 -68 68c0 41 42 68 80 68c27 0 55 -9 78 -22c3 -1 5 -2 7 -2c3 0 5 2 5 7c0 16 -51 165 -58 180c-8 19 -35 31 -49 31c1 -4 1 -7 1 -10c0 -38 -31 -68 -68 -68c-38 0 -68 30 -68 68c0 42 42 68 80 68c26 0 52 -9 75 -21 c2 0 4 2 4 5c0 1 -1 2 -1 3l-95 283c0 1 -1 2 -1 3c0 8 9 18 31 18c29 0 34 -12 38 -23l116 -381c26 -85 45 -152 45 -152s25 -88 27 -101c0 -2 1 -3 1 -4c0 -6 -8 -10 -10 -11c-5 0 -8 2 -11 4c-7 6 -57 66 -91 67v-10z" /></g><g transform="translate(3133,0)"><path d="" /></g><g transform="translate(3333,0)"><path d="M134 -107c0 -37 -30 -67 -67 -67s-67 30 -67 67c0 21 12 39 27 51c16 11 35 17 54 17c14 0 28 -3 39 -7c14 -4 23 -8 36 -15c2 -1 4 -1 5 -1c4 0 5 4 5 9c0 3 0 7 -1 11c-3 15 -75 214 -93 280c0 12 23 13 29 13c11 0 25 -2 35 -10c3 -2 101 -353 101 -353 c4 -18 9 -34 10 -39c0 -10 -10 -15 -12 -16c-2 0 -5 0 -11 4c-7 6 -57 66 -90 66v-10z" /></g><g transform="translate(3583,0)"><path d="" /></g><g transform="translate(3783,0)"><path d="M78 38c16 20 30 39 43 60c2 4 6 12 6 14c0 1 0 3 -1 4c-2 4 -6 5 -11 5c-4 0 -12 -2 -16 -3c-5 0 -11 -3 -16 -3c-43 0 -82 43 -82 96c0 50 43 99 116 155c8 6 18 9 26 9c7 0 14 -2 15 -6c1 -3 2 -5 2 -7c0 -9 -8 -17 -16 -24c-13 0 -24 -27 -26 -36c-3 -8 -4 -17 -4 -26 c0 -41 21 -73 63 -73c29 0 62 11 78 17c1 0 2 1 3 1c3 1 5 1 7 1c3 0 5 -1 5 -4c0 -12 -26 -45 -37 -57c-38 -46 -69 -83 -69 -139c0 -4 1 -9 1 -13c4 -58 40 -106 66 -147c3 -5 4 -10 4 -15c0 -10 -4 -19 -4 -19s-148 -176 -165 -193c-5 -5 -12 -8 -18 -8 c-10 0 -20 7 -20 21c0 5 1 10 4 16c4 11 61 62 61 134c0 37 -15 80 -60 127c-10 10 -14 21 -14 29c0 14 10 24 10 24z" /></g><g transform="translate(4053,0)"><path d="" /></g><g transform="translate(4253,0)"><path d="M282 -24v-92c0 -15 -12 -26 -26 -26h-230c-15 0 -26 11 -26 26v92c0 14 11 26 26 26h230c14 0 26 -12 26 -26z" /></g><g transform="translate(4536,0)"><path d="" /></g><g transform="translate(4736,0)"><path d="M282 109v-92c0 -15 -12 -26 -26 -26h-230c-15 0 -26 11 -26 26v92c0 14 11 26 26 26h230c14 0 26 -12 26 -26z" /></g><g transform="translate(5019,0)"><path d="" /></g><g transform="translate(5219,0)"><path d="M125 -15v-220c0 -8 -7 -15 -17 -15h-92c-9 0 -16 7 -16 15v220c0 8 7 15 16 15h92c10 0 17 -7 17 -15z" /></g><g transform="translate(5345,0)"><path d="" /></g><g transform="translate(5545,0)"><path d="M125 229v-459c0 -17 -7 -20 -17 -20h-92c-9 0 -16 3 -16 20v459c0 17 7 20 16 20h92c10 0 17 -3 17 -20z" /></g><g transform="translate(5670,0)"><path d="" /></g><g transform="translate(5870,0)"><path d="M256 229c0 17 7 20 16 20h92c10 0 17 -3 17 -20v-459c0 -17 -7 -20 -17 -20h-92c-9 0 -16 3 -16 20v459zM0 -230v459c0 17 7 20 16 20h92c10 0 17 -3 17 -20v-459c0 -17 -7 -20 -17 -20h-92c-9 0 -16 3 -16 20z" /></g><g transform="translate(6251,0)"><path d="" /></g></g></g></svg>
