<svg viewBox="0 0 30842.9 39914.3" width="215.9mm" height="279.4mm" xmlns="http://www.w3.org/2000/svg" xmlns:xlink="http://www.w3.org/1999/xlink">"><g transform="translate(0,1000)"><g><g transform="translate(0,-500)"><path d="M16.25 -16.249999999999996L6434.75 -16.249999999999996C6443.724628 -16.249999999999996 6451 -8.974628 6451 0C6451 8.974628 6443.724628 16.249999999999996 6434.75 16.249999999999996L16.25 16.249999999999996C7.275372000000001 16.249999999999996 0.000000000000003552713678800501 8.974628 0.000000000000003552713678800501 0C0.000000000000003552713678800501 -8.974628 7.275372000000001 -16.249999999999996 16.25 -16.249999999999996Z" /></g><g transform="translate(0,-250)"><path d="M16.25 -16.249999999999996L6434.75 -16.249999999999996C6443.724628 -16.249999999999996 6451 -8.974628 6451 0C6451 8.974628 6443.724628 16.249999999999996 6434.75 16.249999999999996L16.25 16.249999999999996C7.275372000000001 16.249999999999996 0.000000000000003552713678800501 8.974628 0.000000000000003552713678800501 0C0.000000000000003552713678800501 -8.974628 7.275372000000001 -16.249999999999996 16.25 -16.249999999999996Z" /></g><g transform="translate(0,0)"><path d="M16.25 -16.249999999999996L6434.75 -16.249999999999996C6443.724628 -16.249999999999996 6451 -8.974628 6451 0C6451 8.974628 6443.724628 16.249999999999996 6434.75 16.249999999999996L16.25 16.249999999999996C7.275372000000001 16.249999999999996 0.000000000000003552713678800501 8.974628 0.000000000000003552713678800501 0C0.000000000000003552713678800501 -8.974628 7.275372000000001 -16.249999999999996 16.25 -16.249999999999996Z" /></g><g transform="translate(0,250)"><path d="M16.25 -16.249999999999996L6434.75 -16.249999999999996C6443.724628 -16.249999999999996 6451 -8.974628 6451 0C6451 8.974628 6443.724628 16.249999999999996 6434.75 16.249999999999996L16.25 16.249999999999996C7.275372000000001 16.249999999999996 0.000000000000003552713678800501 8.974628 0.000000000000003552713678800501 0C0.000000000000003552713678800501 -8.974628 7.275372000000001 -16.249999999999996 16.25 -16.249999999999996Z" /></g><g transform="translate(0,500)"><path d="M16.25 -16.249999999999996L6434.75 -16.249999999999996C6443.724628 -16.249999999999996 6451 -8.974628 6451 0C6451 8.974628 6443.724628 16.249999999999996 6434.75 16.249999999999996L16.25 16.249999999999996C7.275372000000001 16.249999999999996 0.000000000000003552713678800501 8.974628 0.000000000000003552713678800501 0C0.000000000000003552713678800501 -8.974628 7.275372000000001 -16.249999999999996 16.25 -16.249999999999996Z" /></g><path d="" /><g transform="translate(200,0)"><path d="M369 -150L407 -307C408 -311 408 -314 408 -317C408 -323 406 -327 401 -327C399 -327 397 -327 395 -326C370 -313 342 -303 313 -303C275 -303 232 -329 232 -371C232 -408 263 -439 300 -439C338 -439 368 -408 368 -371C368 -368 368 -364 367 -361C387 -361 425 -381 432 -408C436 -419 466 -544 471 -563C471 -565 472 -567 472 -569C472 -579 466 -584 459 -584C457 -584 454 -583 452 -582C440 -576 431 -572 419 -568C418 -568 417 -567 416 -567C405 -563 390 -560 376 -560C357 -560 336 -565 322 -578C306 -590 294 -608 294 -628C294 -666 324 -696 362 -696C400 -696 430 -666 430 -628C430 -625 430 -622 429 -618C463 -619 514 -680 521 -685C524 -687 527 -689 532 -689C534 -688 541 -685 541 -678L541 -674C538 -661 514 -573 514 -573L155 976C152 987 148 1000 115 1000C94 1000 89 992 89 985C89 982 89 980 90 978C92 973 153 717 157 700C158 695 159 690 159 687C159 683 158 681 155 681C153 681 152 682 149 683C136 689 136 691 122 696C111 700 96 703 82 703C44 703 0 676 0 634C0 597 30 566 68 566C106 566 136 597 136 634C136 638 136 641 135 644C147 644 170 643 180 606C187 582 204 511 220 448C220 447 221 446 221 444C222 440 222 436 222 433C222 428 221 424 217 424C215 424 213 425 211 426C188 437 164 446 139 446C101 446 57 420 57 378C57 340 87 310 125 310C163 310 193 340 193 378C193 381 193 384 192 388C207 387 236 378 245 346C250 331 266 261 279 207C281 205 284 187 284 184C284 179 282 175 279 175C278 175 276 176 274 177C261 183 253 187 239 192C227 196 213 199 199 199C190 199 180 197 172 195C143 186 116 162 116 130C116 93 147 62 184 62C222 62 252 93 252 130L252 140C267 140 296 130 307 98C312 84 341 -39 344 -51C344 -54 345 -57 345 -59C345 -66 342 -72 338 -72C337 -72 335 -71 333 -70C309 -59 284 -48 257 -48C247 -48 238 -50 230 -52C202 -61 175 -85 175 -117C175 -154 206 -185 243 -185C281 -185 311 -154 311 -117C311 -113 311 -110 310 -107C327 -107 362 -121 369 -150Z" /></g><g transform="translate(741,0)"><path d="" /></g><g transform="translate(941,0)"><path d="M373 -621L373 -611C407 -612 457 -673 464 -678C467 -680 470 -682 475 -682C477 -681 485 -677 485 -671C485 -670 484 -669 484 -667C482 -654 457 -566 457 -566L160 734C156 746 152 750 120 750C97 750 91 744 91 734C93 729 163 446 165 439C166 438 166 436 166 435C166 432 164 430 161 430C160 430 159 431 158 431C146 437 137 441 125 445C124 445 123 446 122 446C111 450 96 453 82 453C44 453 0 427 0 385C0 347 31 317 68 317C106 317 136 347 136 385L139 395C153 394 172 393 185 359C193 340 225 199 227 191C227 187 225 183 221 183C220 183 218 183 217 184C204 190 196 194 182 199C170 203 156 206 142 206C104 206 60 179 60 137C60 100 90 69 128 69C165 69 196 100 196 137C196 141 195 144 195 147C210 147 240 136 248 109C255 88 288 -38 288 -55C288 -61 286 -65 282 -65C280 -65 278 -64 276 -63C263 -57 255 -53 241 -48C229 -44 215 -41 201 -41C192 -41 182 -43 174 -45C145 -54 118 -78 118 -110C118 -147 149 -178 186 -178C224 -178 254 -147 254 -110L254 -100C270 -100 305 -120 310 -140L349 -296C350 -300 351 -305 351 -310C351 -317 350 -323 346 -323C345 -323 344 -323 343 -322C330 -316 312 -307 298 -302C286 -298 270 -296 256 -296C234 -296 221 -301 203 -313C187 -325 175 -343 175 -364C175 -401 206 -432 243 -432C281 -432 311 -401 311 -364L311 -354C330 -354 371 -384 375 -399C379 -413 410 -537 414 -556C415 -559 415 -562 415 -564C415 -573 409 -577 403 -577C401 -577 397 -576 395 -575C383 -569 374 -565 362 -561C361 -561 360 -560 359 -560C348 -556 333 -553 319 -553C301 -553 279 -559 265 -571C249 -583 237 -601 237 -621C237 -659 268 -689 305 -689C343 -689 373 -659 373 -621Z" /></g><g transform="translate(1426,0)"><path d="" /></g><g transform="translate(1626,0)"><path d="M414 -423C418 -422 423 -419 423 -408C420 -395 396 -306 396 -306L303 94C299 112 280 193 279 193C159 709 151 727 149 736C145 747 140 753 116 753C93 753 84 748 84 739C84 737 84 735 85 732L157 453C157 451 158 449 158 447C158 441 155 436 150 436C149 436 148 436 146 437C129 446 101 453 82 453C64 453 42 447 28 435C12 423 0 405 0 385C0 347 31 317 68 317C106 317 136 347 136 385C136 388 136 391 135 394C148 394 174 385 180 364C184 353 219 210 220 205C220 204 221 200 221 197C221 191 220 183 215 183C214 183 213 183 212 184C199 190 196 194 182 199C170 203 156 206 142 206C133 206 123 204 115 202C105 199 96 194 87 188C71 176 59 158 59 137C59 100 90 69 127 69C165 69 195 100 195 137L195 147C209 147 236 138 244 112C247 104 283 -41 285 -50C286 -52 286 -53 286 -55C286 -60 284 -64 280 -64C279 -64 278 -64 276 -63C250 -51 222 -42 194 -42C185 -42 177 -43 169 -45C140 -54 113 -78 113 -110C113 -147 144 -178 181 -178C219 -178 249 -147 249 -110L249 -100C266 -100 302 -121 309 -140C313 -151 347 -293 348 -296C349 -300 350 -303 350 -306C350 -313 346 -317 341 -317C339 -317 336 -316 334 -315C310 -304 285 -293 258 -293C220 -293 176 -320 176 -362C176 -399 206 -430 244 -430C281 -430 312 -399 312 -362C312 -358 312 -355 311 -352C345 -352 395 -413 403 -419C406 -421 409 -423 414 -423Z" /></g><g transform="translate(2050,0)"><path d="" /></g><g transform="translate(2250,0)"><path d="M353 -419C355 -419 363 -417 363 -408C363 -407 362 -406 362 -404C360 -392 336 -303 336 -303C336 -303 164 467 161 479C157 490 154 500 122 500C101 500 95 492 95 484C95 482 95 480 96 478C98 471 167 196 167 192C167 189 164 186 161 186C160 186 159 186 158 187C135 200 107 209 80 209C42 209 0 182 0 141C0 103 31 73 68 73C106 73 136 103 136 141C136 144 136 147 135 151C150 150 181 137 186 116L226 -48C226 -53 224 -61 219 -61C218 -61 217 -61 216 -60C193 -48 167 -38 141 -38C131 -38 122 -40 114 -42C104 -45 95 -49 87 -56C71 -68 59 -86 59 -106C59 -144 89 -174 127 -174C164 -174 195 -144 195 -106C195 -103 195 -100 194 -97C210 -97 243 -117 248 -133L287 -293C287 -294 288 -296 288 -297C288 -303 284 -313 277 -313C276 -313 274 -313 273 -312C250 -300 223 -290 197 -290C187 -290 179 -292 171 -294C161 -297 151 -301 143 -308C127 -320 115 -338 115 -358C115 -396 146 -426 183 -426C221 -426 251 -396 251 -358L251 -349C285 -349 335 -410 342 -415C345 -417 348 -419 353 -419Z" /></g><g transform="translate(2613,0)"><path d="" /></g><g transform="translate(2813,0)"><path d="M208 -111L208 -101C242 -102 292 -162 299 -168C302 -170 305 -172 310 -172C312 -171 320 -167 320 -161C320 -160 319 -159 319 -157C317 -144 292 -56 292 -56C292 -56 273 11 247 96L131 477C127 488 122 500 93 500C71 500 62 490 62 482C62 481 63 480 63 479L158 196C158 195 159 194 159 193C159 190 157 188 155 188C132 200 106 209 80 209C42 209 0 183 0 141C0 103 30 73 68 73C105 73 136 103 136 141C136 144 136 147 135 151C149 151 176 139 184 120C191 105 242 -44 242 -60C242 -65 240 -67 237 -67C235 -67 233 -66 230 -65C207 -52 179 -43 152 -43C114 -43 72 -70 72 -111C72 -149 103 -179 140 -179C178 -179 208 -149 208 -111Z" /></g><g transform="translate(3133,0)"><path d="" /></g><g transform="translate(3333,0)"><path d="M134 -107L134 -97C167 -97 217 -157 224 -163C230 -167 233 -167 235 -167C237 -166 247 -161 247 -151C246 -146 241 -130 237 -112C237 -112 139 239 136 241C126 249 112 251 101 251C95 251 72 250 72 238C90 172 162 -27 165 -42C166 -46 166 -50 166 -53C166 -58 165 -62 161 -62C160 -62 158 -62 156 -61C143 -54 134 -50 120 -46C109 -42 95 -39 81 -39C62 -39 43 -45 27 -56C12 -68 0 -86 0 -107C0 -144 30 -174 67 -174C104 -174 134 -144 134 -107Z" /></g><g transform="translate(3583,0)"><path d="" /></g><g transform="translate(3783,0)"><path d="M78 38L29 -22C29 -22 19 -32 19 -46C19 -54 23 -65 33 -75C78 -122 93 -165 93 -202C93 -274 36 -325 32 -336C29 -342 28 -347 28 -352C28 -366 38 -373 48 -373C54 -373 61 -370 66 -365C83 -348 231 -172 231 -172C231 -172 235 -163 235 -153C235 -148 234 -143 231 -138C205 -97 169 -49 165 9C165 13 164 18 164 22C164 78 195 115 233 161C244 173 270 206 270 218C270 221 268 222 265 222C263 222 261 222 258 221C257 221 256 220 255 220C239 214 206 203 177 203C135 203 114 235 114 276C114 285 115 294 118 302C120 311 131 338 144 338C152 345 160 353 160 362C160 364 159 366 158 369C157 373 150 375 143 375C135 375 125 372 117 366C44 310 1 261 1 211C1 158 40 115 83 115C88 115 94 118 99 118C103 119 111 121 115 121C120 121 124 120 126 116C127 115 127 113 127 112C127 110 123 102 121 98C108 77 94 58 78 38Z" /></g><g transform="translate(4053,0)"><path d="" /></g><g transform="translate(4253,0)"><path d="M282 -24C282 -10 270 2 256 2L26 2C11 2 0 -10 0 -24L0 -116C0 -131 11 -142 26 -142L256 -142C270 -142 282 -131 282 -116L282 -24Z" /></g><g transform="translate(4536,0)"><path d="" /></g><g transform="translate(4736,0)"><path d="M282 109C282 123 270 135 256 135L26 135C11 135 0 123 0 109L0 17C0 2 11 -9 26 -9L256 -9C270 -9 282 2 282 17L282 109Z" /></g><g transform="translate(5019,0)"><path d="" /></g><g transform="translate(5219,0)"><path d="M125 -15C125 -7 118 0 108 0L16 0C7 0 0 -7 0 -15L0 -235C0 -243 7 -250 16 -250L108 -250C118 -250 125 -243 125 -235L125 -15Z" /></g><g transform="translate(5345,0)"><path d="" /></g><g transform="translate(5545,0)"><path d="M125 229C125 246 118 249 108 249L16 249C7 249 0 246 0 229L0 -230C0 -247 7 -250 16 -250L108 -250C118 -250 125 -247 125 -230L125 229Z" /></g><g transform="translate(5670,0)"><path d="" /></g><g transform="translate(5870,0)"><path d="M256 229L256 -230C256 -247 263 -250 272 -250L364 -250C374 -250 381 -247 381 -230L381 229C381 246 374 249 364 249L272 249C263 249 256 246 256 229ZM0 -230C0 -247 7 -250 16 -250L108 -250C118 -250 125 -247 125 -230L125 229C125 246 118 249 108 249L16 249C7 249 0 246 0 229L0 -230Z" /></g><g transform="translate(6251,0)"><path d="" /></g></g></g></svg>
