<svg viewBox="0 0 215.9 279.4" width="215.9mm" height="279.4mm" xmlns="http://www.w3.org/2000/svg" xmlns:xlink="http://www.w3.org/1999/xlink"><g transform="scale(1, -1)"><g transform="translate(0,0) scale(0.007,0.007)"><g transform="translate(0,-1000) scale(1,1)"><g><path d="" /><g transform="translate(200,0) scale(1,1)"><g><g transform="translate(0,247) scale(1,1)"><g><g transform="translate(0,0) scale(1,1)"><path d="M20 -95C20 -92 21 -88 23 -84C23 -83 24 -82 24 -81L30 -73C60 -31 158 108 158 232C158 248 172 251 181 251C189 251 234 249 252 249C270 249 311 251 320 251C328 251 335 245 335 237C335 235 334 234 334 232C331 221 171 -6 91 -74L226 -74L226 10C226 22 231 28 235 33L330 148C336 155 341 157 350 157C361 157 362 148 362 140L362 -74L435 -74C446 -74 450 -81 450 -93C450 -105 445 -112 435 -112L362 -112L362 -171C362 -203 383 -209 393 -209C403 -209 415 -215 415 -229C415 -243 405 -250 395 -250L182 -250C167 -250 163 -239 163 -229C163 -219 170 -210 186 -210C204 -210 226 -202 226 -175L226 -112L40 -112C28 -112 20 -105 20 -95Z" /></g></g></g><g transform="translate(0,-247) scale(1,1)"><g><g transform="translate(0,0) scale(1,1)"><path d="M20 -95C20 -92 21 -88 23 -84C23 -83 24 -82 24 -81L30 -73C60 -31 158 108 158 232C158 248 172 251 181 251C189 251 234 249 252 249C270 249 311 251 320 251C328 251 335 245 335 237C335 235 334 234 334 232C331 221 171 -6 91 -74L226 -74L226 10C226 22 231 28 235 33L330 148C336 155 341 157 350 157C361 157 362 148 362 140L362 -74L435 -74C446 -74 450 -81 450 -93C450 -105 445 -112 435 -112L362 -112L362 -171C362 -203 383 -209 393 -209C403 -209 415 -215 415 -229C415 -243 405 -250 395 -250L182 -250C167 -250 163 -239 163 -229C163 -219 170 -210 186 -210C204 -210 226 -202 226 -175L226 -112L40 -112C28 -112 20 -105 20 -95Z" /></g></g></g></g></g><g transform="translate(670,0) scale(1,1)"><g><g transform="translate(24.5,247) scale(1,1)"><g><g transform="translate(0,0) scale(1,1)"><path d="M213 248C255 245 380 218 380 126C380 80 359 54 319 35C310 30 299 29 288 26C285 25 284 21 284 17C284 15 284 14 285 12C287 8 290 8 295 7L328 -2L349 -14C359 -20 367 -27 373 -35C392 -57 399 -76 401 -105L401 -112C401 -200 299 -251 200 -251L191 -251C93 -249 22 -219 20 -141C20 -119 25 -95 42 -80C54 -67 73 -57 90 -54C94 -53 97 -53 101 -53C144 -53 173 -83 173 -125C172 -154 150 -169 150 -191L150 -196C151 -211 170 -211 178 -212C179 -212 183 -213 187 -213C209 -213 263 -201 263 -95C263 -82 254 -4 139 -4C131 -4 114 -4 114 8C114 19 128 24 138 25C201 28 260 57 260 131L260 138C260 162 252 215 167 215C158 215 127 207 125 190L125 186C125 172 140 174 145 172C150 170 175 168 178 131L178 123C178 90 156 58 112 58L107 58C45 62 26 106 26 139C26 192 112 249 198 249C203 249 208 248 213 248Z" /></g></g></g><g transform="translate(0,-247) scale(1,1)"><g><g transform="translate(0,0) scale(1,1)"><path d="M20 -95C20 -92 21 -88 23 -84C23 -83 24 -82 24 -81L30 -73C60 -31 158 108 158 232C158 248 172 251 181 251C189 251 234 249 252 249C270 249 311 251 320 251C328 251 335 245 335 237C335 235 334 234 334 232C331 221 171 -6 91 -74L226 -74L226 10C226 22 231 28 235 33L330 148C336 155 341 157 350 157C361 157 362 148 362 140L362 -74L435 -74C446 -74 450 -81 450 -93C450 -105 445 -112 435 -112L362 -112L362 -171C362 -203 383 -209 393 -209C403 -209 415 -215 415 -229C415 -243 405 -250 395 -250L182 -250C167 -250 163 -239 163 -229C163 -219 170 -210 186 -210C204 -210 226 -202 226 -175L226 -112L40 -112C28 -112 20 -105 20 -95Z" /></g></g></g></g></g><g transform="translate(1140,0) scale(1,1)"><g><g transform="translate(33.5,247) scale(1,1)"><g><g transform="translate(0,0) scale(1,1)"><path d="M76 59L76 55C76 52 76 48 80 48C81 48 83 48 85 49C117 68 160 78 218 78C309 78 383 4 383 -87C383 -177 317 -251 197 -251C74 -251 20 -210 20 -127C20 -121 20 -115 21 -109C24 -74 46 -35 100 -35C143 -35 178 -69 178 -113C178 -141 163 -166 140 -180C135 -183 128 -187 128 -194C129 -201 135 -205 140 -208C147 -211 155 -211 163 -211C189 -211 248 -197 248 -87C248 24 179 43 145 43C111 43 87 20 77 10C66 -1 65 -10 55 -10C45 -10 35 -8 35 5L35 7L46 229C47 237 52 246 70 246C87 244 173 236 205 236C237 236 315 245 328 245C339 245 342 237 342 224C342 208 337 128 198 128C157 128 110 135 100 137L96 137C87 137 82 132 81 124C80 115 76 59 76 59Z" /></g></g></g><g transform="translate(0,-247) scale(1,1)"><g><g transform="translate(0,0) scale(1,1)"><path d="M20 -95C20 -92 21 -88 23 -84C23 -83 24 -82 24 -81L30 -73C60 -31 158 108 158 232C158 248 172 251 181 251C189 251 234 249 252 249C270 249 311 251 320 251C328 251 335 245 335 237C335 235 334 234 334 232C331 221 171 -6 91 -74L226 -74L226 10C226 22 231 28 235 33L330 148C336 155 341 157 350 157C361 157 362 148 362 140L362 -74L435 -74C446 -74 450 -81 450 -93C450 -105 445 -112 435 -112L362 -112L362 -171C362 -203 383 -209 393 -209C403 -209 415 -215 415 -229C415 -243 405 -250 395 -250L182 -250C167 -250 163 -239 163 -229C163 -219 170 -210 186 -210C204 -210 226 -202 226 -175L226 -112L40 -112C28 -112 20 -105 20 -95Z" /></g></g></g></g></g><g transform="translate(1610,0) scale(1,1)"><g><g transform="translate(14.5,247) scale(1,1)"><g><g transform="translate(0,0) scale(1,1)"><path d="M421 204L421 200C421 97 302 -46 302 -213C302 -242 296 -250 286 -250C276 -250 229 -241 204 -241C179 -241 157 -250 139 -250C120 -250 120 -240 120 -219C120 -180 151 -122 189 -78C249 -7 326 49 326 77C325 83 323 86 319 86C317 86 313 84 310 82C302 76 288 61 260 61C202 61 154 136 114 136C69 136 56 78 46 53C42 42 39 33 31 33C21 33 20 49 20 49L20 214C20 223 25 226 30 226C35 226 40 223 42 219C47 209 60 195 68 195C75 196 81 200 95 213C109 226 124 249 182 249C265 249 312 164 337 164C362 164 376 221 383 233C387 240 403 244 404 244C421 244 421 231 421 204Z" /></g></g></g><g transform="translate(0,-247) scale(1,1)"><g><g transform="translate(0,0) scale(1,1)"><path d="M20 -95C20 -92 21 -88 23 -84C23 -83 24 -82 24 -81L30 -73C60 -31 158 108 158 232C158 248 172 251 181 251C189 251 234 249 252 249C270 249 311 251 320 251C328 251 335 245 335 237C335 235 334 234 334 232C331 221 171 -6 91 -74L226 -74L226 10C226 22 231 28 235 33L330 148C336 155 341 157 350 157C361 157 362 148 362 140L362 -74L435 -74C446 -74 450 -81 450 -93C450 -105 445 -112 435 -112L362 -112L362 -171C362 -203 383 -209 393 -209C403 -209 415 -215 415 -229C415 -243 405 -250 395 -250L182 -250C167 -250 163 -239 163 -229C163 -219 170 -210 186 -210C204 -210 226 -202 226 -175L226 -112L40 -112C28 -112 20 -105 20 -95Z" /></g></g></g></g></g><g transform="translate(2080,0) scale(1,1)"><g><g transform="translate(0,247) scale(1,1)"><g><g transform="translate(0,0) scale(1,1)"><path d="M24 13L120 232C124 241 128 251 138 251C139 251 141 250 143 250C158 248 176 247 195 247C208 247 233 251 247 251C261 250 267 244 267 228L267 -184C267 -201 285 -219 299 -219C314 -219 314 -234 314 -234C314 -234 314 -250 298 -250L85 -250C72 -250 63 -245 63 -234C63 -222 73 -219 80 -219C101 -219 124 -204 124 -181L124 77C124 83 122 91 118 91C116 91 112 88 108 81C97 62 54 -7 54 -7C54 -7 50 -16 40 -16C39 -16 35 -15 31 -14C23 -11 20 -5 20 0C20 7 24 13 24 13Z" /></g><g transform="translate(334,0) scale(1,1)"><path d="M421 -91C405 -246 328 -250 285 -250C196 -250 181 -196 141 -196C82 -196 70 -257 48 -257C29 -257 23 -233 23 -218C40 -155 79 -106 134 -71C206 -27 281 42 281 133C281 162 280 229 191 229C132 229 114 205 112 191C112 171 181 168 181 108C181 83 172 20 111 20C75 20 44 44 29 75C23 90 20 104 20 118C20 145 31 170 48 191C97 248 159 254 229 254C322 254 426 208 426 102C426 19 363 -10 293 -29C271 -35 186 -65 164 -101C175 -97 188 -95 201 -95C242 -95 289 -111 309 -119C319 -124 326 -125 339 -130C346 -132 351 -133 356 -133C377 -133 385 -114 395 -90C395 -89 396 -88 396 -87C398 -81 401 -77 409 -77C416 -77 421 -79 421 -91Z" /></g></g></g><g transform="translate(172,-247) scale(1,1)"><g><g transform="translate(0,0) scale(1,1)"><path d="M334 36C381 12 416 -21 416 -81C416 -216 309 -259 209 -259C110 -259 20 -219 20 -132C20 -69 60 -36 112 -11C64 16 25 53 25 122C25 206 104 259 220 259C247 259 394 244 394 142C394 92 370 59 334 36ZM205 -226C272 -226 303 -192 303 -152C303 -86 229 -65 156 -33C112 -50 77 -87 77 -127C77 -192 138 -226 205 -226ZM282 59C315 78 335 104 335 144C335 214 250 230 218 230C174 230 117 209 117 167C117 104 202 87 282 59Z" /></g></g></g></g></g><g transform="translate(2860,0) scale(1,1)"><g><g transform="translate(167,247) scale(1,1)"><g><g transform="translate(0,0) scale(1,1)"><path d="M305 83C292 83 263 91 256 104C246 115 241 130 241 145C241 155 243 165 248 174C254 186 273 198 273 212C273 222 260 227 240 227C219 227 160 222 157 37C157 21 160 13 166 13C168 13 170 13 172 15C198 38 231 50 263 50C340 50 414 -17 414 -95C414 -140 391 -185 356 -213C320 -242 270 -249 225 -249C141 -249 92 -213 51 -139C29 -99 21 -47 20 -1L20 3C20 50 37 103 59 145C95 213 166 250 242 251C296 251 374 234 384 170C385 166 385 163 385 159C385 116 347 83 305 83ZM222 2C190 2 164 -48 164 -110C164 -172 190 -222 222 -222C254 -222 281 -172 281 -110C281 -48 254 2 222 2Z" /></g></g></g><g transform="translate(0,-247) scale(1,1)"><g><g transform="translate(0,0) scale(1,1)"><path d="M24 13L120 232C124 241 128 251 138 251C139 251 141 250 143 250C158 248 176 247 195 247C208 247 233 251 247 251C261 250 267 244 267 228L267 -184C267 -201 285 -219 299 -219C314 -219 314 -234 314 -234C314 -234 314 -250 298 -250L85 -250C72 -250 63 -245 63 -234C63 -222 73 -219 80 -219C101 -219 124 -204 124 -181L124 77C124 83 122 91 118 91C116 91 112 88 108 81C97 62 54 -7 54 -7C54 -7 50 -16 40 -16C39 -16 35 -15 31 -14C23 -11 20 -5 20 0C20 7 24 13 24 13Z" /></g><g transform="translate(334,0) scale(1,1)"><path d="M305 83C292 83 263 91 256 104C246 115 241 130 241 145C241 155 243 165 248 174C254 186 273 198 273 212C273 222 260 227 240 227C219 227 160 222 157 37C157 21 160 13 166 13C168 13 170 13 172 15C198 38 231 50 263 50C340 50 414 -17 414 -95C414 -140 391 -185 356 -213C320 -242 270 -249 225 -249C141 -249 92 -213 51 -139C29 -99 21 -47 20 -1L20 3C20 50 37 103 59 145C95 213 166 250 242 251C296 251 374 234 384 170C385 166 385 163 385 159C385 116 347 83 305 83ZM222 2C190 2 164 -48 164 -110C164 -172 190 -222 222 -222C254 -222 281 -172 281 -110C281 -48 254 2 222 2Z" /></g></g></g></g></g><g transform="translate(3628,0) scale(1,1)"><g><g transform="translate(1,247) scale(1,1)"><g><g transform="translate(0,0) scale(1,1)"><path d="M129 -81C142 -81 171 -89 178 -102C188 -113 193 -128 193 -143C193 -153 191 -163 186 -172C180 -184 161 -196 161 -210C161 -220 174 -225 194 -225C215 -225 274 -220 277 -35C277 -19 274 -11 268 -11C266 -11 264 -11 262 -13C236 -36 203 -48 171 -48C94 -48 20 19 20 97C20 142 43 187 78 215C114 244 164 251 209 251C293 251 342 215 383 141C405 101 413 49 414 3L414 -1C414 -48 397 -101 375 -143C339 -211 268 -248 192 -249C138 -249 60 -232 50 -168C49 -164 49 -161 49 -157C49 -114 87 -81 129 -81ZM212 0C244 0 270 50 270 112C270 174 244 224 212 224C180 224 153 174 153 112C153 50 180 0 212 0Z" /></g></g></g><g transform="translate(0,-247) scale(1,1)"><g><g transform="translate(0,0) scale(1,1)"><path d="M334 36C381 12 416 -21 416 -81C416 -216 309 -259 209 -259C110 -259 20 -219 20 -132C20 -69 60 -36 112 -11C64 16 25 53 25 122C25 206 104 259 220 259C247 259 394 244 394 142C394 92 370 59 334 36ZM205 -226C272 -226 303 -192 303 -152C303 -86 229 -65 156 -33C112 -50 77 -87 77 -127C77 -192 138 -226 205 -226ZM282 59C315 78 335 104 335 144C335 214 250 230 218 230C174 230 117 209 117 167C117 104 202 87 282 59Z" /></g></g></g></g></g><g transform="translate(4064,0) scale(1,1)"><g><g transform="translate(1,247) scale(1,1)"><g><g transform="translate(0,0) scale(1,1)"><path d="M305 83C292 83 263 91 256 104C246 115 241 130 241 145C241 155 243 165 248 174C254 186 273 198 273 212C273 222 260 227 240 227C219 227 160 222 157 37C157 21 160 13 166 13C168 13 170 13 172 15C198 38 231 50 263 50C340 50 414 -17 414 -95C414 -140 391 -185 356 -213C320 -242 270 -249 225 -249C141 -249 92 -213 51 -139C29 -99 21 -47 20 -1L20 3C20 50 37 103 59 145C95 213 166 250 242 251C296 251 374 234 384 170C385 166 385 163 385 159C385 116 347 83 305 83ZM222 2C190 2 164 -48 164 -110C164 -172 190 -222 222 -222C254 -222 281 -172 281 -110C281 -48 254 2 222 2Z" /></g></g></g><g transform="translate(0,-247) scale(1,1)"><g><g transform="translate(0,0) scale(1,1)"><path d="M334 36C381 12 416 -21 416 -81C416 -216 309 -259 209 -259C110 -259 20 -219 20 -132C20 -69 60 -36 112 -11C64 16 25 53 25 122C25 206 104 259 220 259C247 259 394 244 394 142C394 92 370 59 334 36ZM205 -226C272 -226 303 -192 303 -152C303 -86 229 -65 156 -33C112 -50 77 -87 77 -127C77 -192 138 -226 205 -226ZM282 59C315 78 335 104 335 144C335 214 250 230 218 230C174 230 117 209 117 167C117 104 202 87 282 59Z" /></g></g></g></g></g><g transform="translate(4500,0) scale(1,1)"><path d="M233 251C252 251 403 239 403 108C403 25 327 22 327 22C299 22 250 40 250 97C250 128 273 171 313 171C328 171 331 184 331 193C331 203 310 227 258 227C204 227 128 193 128 28C128 -137 171 -216 252 -216C284 -216 394 -186 394 -57C394 -40 401 -39 409 -39C413 -39 424 -39 424 -61C424 -90 398 -249 223 -249C163 -249 108 -228 70 -182C29 -132 5 -75 5 -10C5 125 91 251 233 251Z" /></g><g transform="translate(4924,0) scale(1,1)"><path d="M0 -10C0 85 46 191 136 230L163 240C165 240 175 249 175 256L175 344C175 352 184 361 192 361C203 361 210 352 210 344L210 271C210 266 215 249 221 248C306 248 397 205 397 107C397 24 321 21 321 21C293 21 244 39 244 95C244 126 267 169 307 169C322 169 325 183 325 191C325 201 303 225 252 225C247 225 241 225 235 224C228 223 210 206 210 199L210 -197C210 -205 216 -211 220 -212C228 -214 236 -215 246 -215C278 -215 388 -185 388 -57C388 -42 394 -40 398 -40L402 -40C407 -40 417 -40 418 -59C418 -90 391 -246 221 -249C214 -252 210 -257 210 -263L210 -342C210 -351 203 -359 192 -359C184 -359 175 -351 175 -342L175 -265C175 -256 163 -243 156 -240C60 -215 0 -104 0 -10ZM123 26C123 -67 137 -134 164 -172C165 -174 167 -175 169 -175C172 -175 175 -172 175 -163L175 166C175 174 169 182 164 182C163 182 162 182 161 180C139 149 123 102 123 26Z" /></g><g transform="translate(5341,0) scale(1,1)"><path d="M0 375L73 375L202 72L332 375L405 375L238 0L405 -377L332 -377L202 -72L73 -377L0 -377L167 0Z" /></g><g transform="translate(5746,0) scale(1,1)"><path d="" /></g><path d="M16.25 -16.25L5929.75 -16.25C5938.724628 -16.25 5946 -8.974628000000001 5946 0C5946 8.974628000000001 5938.724628 16.25 5929.75 16.25L16.25 16.25C7.275371999999999 16.25 0 8.974628000000001 0 0C0 -8.974628000000001 7.275371999999999 -16.25 16.25 -16.25Z" /></g></g></g></g></svg>
