<svg viewBox="0 0 30842.9 39914.3" width="215.9mm" height="279.4mm" xmlns="http://www.w3.org/2000/svg" xmlns:xlink="http://www.w3.org/1999/xlink">"><g transform="translate(0,1000)"><g><path d="" /><g transform="translate(200,0)"><g><g transform="translate(0,-247)"><g><g transform="translate(0,0)"><path d="M20 95c0 10 8 17 20 17h186v63c0 27 -22 35 -40 35c-16 0 -23 9 -23 19s4 21 19 21h213c10 0 20 -7 20 -21s-12 -20 -22 -20s-31 -6 -31 -38v-59h73c10 0 15 -7 15 -19s-4 -19 -15 -19h-73v-214c0 -8 -1 -17 -12 -17c-9 0 -14 2 -20 9l-95 115c-4 5 -9 11 -9 23v84h-135 c80 -68 240 -295 243 -306c0 -2 1 -3 1 -5c0 -8 -7 -14 -15 -14c-9 0 -50 2 -68 2s-63 -2 -71 -2c-9 0 -23 3 -23 19c0 124 -98 263 -128 305l-6 8c0 1 -1 2 -1 3c-2 4 -3 8 -3 11z" /></g></g></g><g transform="translate(0,247)"><g><g transform="translate(0,0)"><path d="M20 95c0 10 8 17 20 17h186v63c0 27 -22 35 -40 35c-16 0 -23 9 -23 19s4 21 19 21h213c10 0 20 -7 20 -21s-12 -20 -22 -20s-31 -6 -31 -38v-59h73c10 0 15 -7 15 -19s-4 -19 -15 -19h-73v-214c0 -8 -1 -17 -12 -17c-9 0 -14 2 -20 9l-95 115c-4 5 -9 11 -9 23v84h-135 c80 -68 240 -295 243 -306c0 -2 1 -3 1 -5c0 -8 -7 -14 -15 -14c-9 0 -50 2 -68 2s-63 -2 -71 -2c-9 0 -23 3 -23 19c0 124 -98 263 -128 305l-6 8c0 1 -1 2 -1 3c-2 4 -3 8 -3 11z" /></g></g></g></g></g><g transform="translate(670,0)"><g><g transform="translate(25,-247)"><g><g transform="translate(0,0)"><path d="M213 -248c-5 0 -10 -1 -15 -1c-86 0 -172 57 -172 110c0 33 19 77 81 81h5c44 0 66 -32 66 -65v-8c-3 -37 -28 -39 -33 -41s-20 0 -20 -14v-4c2 -17 33 -25 42 -25c85 0 93 53 93 77v7c0 74 -59 103 -122 106c-10 1 -24 6 -24 17c0 12 17 12 25 12c115 0 124 78 124 91 c0 106 -54 118 -76 118c-4 0 -8 -1 -9 -1c-8 -1 -27 -1 -28 -16v-5c0 -22 22 -37 23 -66c0 -42 -29 -72 -72 -72c-4 0 -7 0 -11 1c-17 3 -36 13 -48 26c-17 15 -22 39 -22 61c2 78 73 108 171 110h9c99 0 201 -51 201 -139v-7c-2 -29 -9 -48 -28 -70c-6 -8 -14 -15 -24 -21 l-21 -12l-33 -9c-5 -1 -8 -1 -10 -5c-1 -2 -1 -3 -1 -5c0 -4 1 -8 4 -9c11 -3 22 -4 31 -9c40 -19 61 -45 61 -91c0 -92 -125 -119 -167 -122z" /></g></g></g><g transform="translate(0,247)"><g><g transform="translate(0,0)"><path d="M20 95c0 10 8 17 20 17h186v63c0 27 -22 35 -40 35c-16 0 -23 9 -23 19s4 21 19 21h213c10 0 20 -7 20 -21s-12 -20 -22 -20s-31 -6 -31 -38v-59h73c10 0 15 -7 15 -19s-4 -19 -15 -19h-73v-214c0 -8 -1 -17 -12 -17c-9 0 -14 2 -20 9l-95 115c-4 5 -9 11 -9 23v84h-135 c80 -68 240 -295 243 -306c0 -2 1 -3 1 -5c0 -8 -7 -14 -15 -14c-9 0 -50 2 -68 2s-63 -2 -71 -2c-9 0 -23 3 -23 19c0 124 -98 263 -128 305l-6 8c0 1 -1 2 -1 3c-2 4 -3 8 -3 11z" /></g></g></g></g></g><g transform="translate(1140,0)"><g><g transform="translate(34,-247)"><g><g transform="translate(0,0)"><path d="M76 -59c0 0 4 -56 5 -65c1 -8 6 -13 15 -13h4c10 2 57 9 98 9c139 0 144 -80 144 -96c0 -13 -3 -21 -14 -21c-13 0 -91 9 -123 9s-118 -8 -135 -10c-18 0 -23 9 -24 17l-11 222v2c0 13 10 15 20 15s11 -9 22 -20c10 -10 34 -33 68 -33s103 19 103 130 c0 110 -59 124 -85 124c-8 0 -16 0 -23 -3c-5 -3 -11 -7 -12 -14c0 -7 7 -11 12 -14c23 -14 38 -39 38 -67c0 -44 -35 -78 -78 -78c-54 0 -76 39 -79 74c-1 6 -1 12 -1 18c0 83 54 124 177 124c120 0 186 -74 186 -164c0 -91 -74 -165 -165 -165c-58 0 -101 10 -133 29 c-2 1 -4 1 -5 1c-4 0 -4 -4 -4 -7v-4z" /></g></g></g><g transform="translate(0,247)"><g><g transform="translate(0,0)"><path d="M20 95c0 10 8 17 20 17h186v63c0 27 -22 35 -40 35c-16 0 -23 9 -23 19s4 21 19 21h213c10 0 20 -7 20 -21s-12 -20 -22 -20s-31 -6 -31 -38v-59h73c10 0 15 -7 15 -19s-4 -19 -15 -19h-73v-214c0 -8 -1 -17 -12 -17c-9 0 -14 2 -20 9l-95 115c-4 5 -9 11 -9 23v84h-135 c80 -68 240 -295 243 -306c0 -2 1 -3 1 -5c0 -8 -7 -14 -15 -14c-9 0 -50 2 -68 2s-63 -2 -71 -2c-9 0 -23 3 -23 19c0 124 -98 263 -128 305l-6 8c0 1 -1 2 -1 3c-2 4 -3 8 -3 11z" /></g></g></g></g></g><g transform="translate(1610,0)"><g><g transform="translate(15,-247)"><g><g transform="translate(0,0)"><path d="M421 -204c0 -27 0 -40 -17 -40c-1 0 -17 4 -21 11c-7 12 -21 69 -46 69s-72 -85 -155 -85c-58 0 -73 23 -87 36s-20 17 -27 18c-8 0 -21 -14 -26 -24c-2 -4 -7 -7 -12 -7s-10 3 -10 12v165s1 16 11 16c8 0 11 -9 15 -20c10 -25 23 -83 68 -83c40 0 88 75 146 75 c28 0 42 -15 50 -21c3 -2 7 -4 9 -4c4 0 6 3 7 9c0 28 -77 84 -137 155c-38 44 -69 102 -69 141c0 21 0 31 19 31c18 0 40 -9 65 -9s72 9 82 9s16 -8 16 -37c0 -167 119 -310 119 -413v-4z" /></g></g></g><g transform="translate(0,247)"><g><g transform="translate(0,0)"><path d="M20 95c0 10 8 17 20 17h186v63c0 27 -22 35 -40 35c-16 0 -23 9 -23 19s4 21 19 21h213c10 0 20 -7 20 -21s-12 -20 -22 -20s-31 -6 -31 -38v-59h73c10 0 15 -7 15 -19s-4 -19 -15 -19h-73v-214c0 -8 -1 -17 -12 -17c-9 0 -14 2 -20 9l-95 115c-4 5 -9 11 -9 23v84h-135 c80 -68 240 -295 243 -306c0 -2 1 -3 1 -5c0 -8 -7 -14 -15 -14c-9 0 -50 2 -68 2s-63 -2 -71 -2c-9 0 -23 3 -23 19c0 124 -98 263 -128 305l-6 8c0 1 -1 2 -1 3c-2 4 -3 8 -3 11z" /></g></g></g></g></g><g transform="translate(2080,0)"><g><g transform="translate(0,-247)"><g><g transform="translate(0,0)"><path d="M24 -13c0 0 -4 6 -4 13c0 5 3 11 11 14c4 1 8 2 9 2c10 0 14 -9 14 -9s43 -69 54 -88c4 -7 8 -10 10 -10c4 0 6 8 6 14v258c0 23 -23 38 -44 38c-7 0 -17 3 -17 15c0 11 9 16 22 16h213c16 0 16 -16 16 -16s0 -15 -15 -15c-14 0 -32 -18 -32 -35v-412 c0 -16 -6 -22 -20 -23c-14 0 -39 4 -52 4c-19 0 -37 -1 -52 -3c-2 0 -4 -1 -5 -1c-10 0 -14 10 -18 19z" /></g><g transform="translate(334,0)"><path d="M421 91c0 -12 -5 -14 -12 -14c-8 0 -11 4 -13 10c0 1 -1 2 -1 3c-10 24 -18 43 -39 43c-5 0 -10 -1 -17 -3c-13 -5 -20 -6 -30 -11c-20 -8 -67 -24 -108 -24c-13 0 -26 2 -37 6c22 -36 107 -66 129 -72c70 -19 133 -48 133 -131c0 -106 -104 -152 -197 -152 c-70 0 -132 6 -181 63c-17 21 -28 46 -28 73c0 14 3 28 9 43c15 31 46 55 82 55c61 0 70 -63 70 -88c0 -60 -69 -63 -69 -83c2 -14 20 -38 79 -38c89 0 90 67 90 96c0 91 -75 160 -147 204c-55 35 -94 84 -111 147c0 15 6 39 25 39c22 0 34 -61 93 -61c40 0 55 54 144 54 c43 0 120 -4 136 -159z" /></g></g></g><g transform="translate(172,247)"><g><g transform="translate(0,0)"><path d="M334 -36c36 -23 60 -56 60 -106c0 -102 -147 -117 -174 -117c-116 0 -195 53 -195 137c0 69 39 106 87 133c-52 25 -92 58 -92 121c0 87 90 127 189 127c100 0 207 -43 207 -178c0 -60 -35 -93 -82 -117zM205 226c-67 0 -128 -34 -128 -99c0 -40 35 -77 79 -94 c73 32 147 53 147 119c0 40 -31 74 -98 74zM282 -59c-80 -28 -165 -45 -165 -108c0 -42 57 -63 101 -63c32 0 117 16 117 86c0 40 -20 66 -53 85z" /></g></g></g></g></g><g transform="translate(2860,0)"><g><g transform="translate(167,-247)"><g><g transform="translate(0,0)"><path d="M305 -83c42 0 80 -33 80 -76c0 -4 0 -7 -1 -11c-10 -64 -88 -81 -142 -81c-76 1 -147 38 -183 106c-22 42 -39 95 -39 142v4c1 46 9 98 31 138c41 74 90 110 174 110c45 0 95 -7 131 -36c35 -28 58 -73 58 -118c0 -78 -74 -145 -151 -145c-32 0 -65 12 -91 35 c-2 2 -4 2 -6 2c-6 0 -9 -8 -9 -24c3 -185 62 -190 83 -190c20 0 33 5 33 15c0 14 -19 26 -25 38c-5 9 -7 19 -7 29c0 15 5 30 15 41c7 13 36 21 49 21zM222 -2c32 0 59 50 59 112s-27 112 -59 112s-58 -50 -58 -112s26 -112 58 -112z" /></g></g></g><g transform="translate(0,247)"><g><g transform="translate(0,0)"><path d="M24 -13c0 0 -4 6 -4 13c0 5 3 11 11 14c4 1 8 2 9 2c10 0 14 -9 14 -9s43 -69 54 -88c4 -7 8 -10 10 -10c4 0 6 8 6 14v258c0 23 -23 38 -44 38c-7 0 -17 3 -17 15c0 11 9 16 22 16h213c16 0 16 -16 16 -16s0 -15 -15 -15c-14 0 -32 -18 -32 -35v-412 c0 -16 -6 -22 -20 -23c-14 0 -39 4 -52 4c-19 0 -37 -1 -52 -3c-2 0 -4 -1 -5 -1c-10 0 -14 10 -18 19z" /></g><g transform="translate(334,0)"><path d="M305 -83c42 0 80 -33 80 -76c0 -4 0 -7 -1 -11c-10 -64 -88 -81 -142 -81c-76 1 -147 38 -183 106c-22 42 -39 95 -39 142v4c1 46 9 98 31 138c41 74 90 110 174 110c45 0 95 -7 131 -36c35 -28 58 -73 58 -118c0 -78 -74 -145 -151 -145c-32 0 -65 12 -91 35 c-2 2 -4 2 -6 2c-6 0 -9 -8 -9 -24c3 -185 62 -190 83 -190c20 0 33 5 33 15c0 14 -19 26 -25 38c-5 9 -7 19 -7 29c0 15 5 30 15 41c7 13 36 21 49 21zM222 -2c32 0 59 50 59 112s-27 112 -59 112s-58 -50 -58 -112s26 -112 58 -112z" /></g></g></g></g></g><g transform="translate(3628,0)"><g><g transform="translate(1,-247)"><g><g transform="translate(0,0)"><path d="M129 81c-42 0 -80 33 -80 76c0 4 0 7 1 11c10 64 88 81 142 81c76 -1 147 -38 183 -106c22 -42 39 -95 39 -142v-4c-1 -46 -9 -98 -31 -138c-41 -74 -90 -110 -174 -110c-45 0 -95 7 -131 36c-35 28 -58 73 -58 118c0 78 74 145 151 145c32 0 65 -12 91 -35 c2 -2 4 -2 6 -2c6 0 9 8 9 24c-3 185 -62 190 -83 190c-20 0 -33 -5 -33 -15c0 -14 19 -26 25 -38c5 -9 7 -19 7 -29c0 -15 -5 -30 -15 -41c-7 -13 -36 -21 -49 -21zM212 0c-32 0 -59 -50 -59 -112s27 -112 59 -112s58 50 58 112s-26 112 -58 112z" /></g></g></g><g transform="translate(0,247)"><g><g transform="translate(0,0)"><path d="M334 -36c36 -23 60 -56 60 -106c0 -102 -147 -117 -174 -117c-116 0 -195 53 -195 137c0 69 39 106 87 133c-52 25 -92 58 -92 121c0 87 90 127 189 127c100 0 207 -43 207 -178c0 -60 -35 -93 -82 -117zM205 226c-67 0 -128 -34 -128 -99c0 -40 35 -77 79 -94 c73 32 147 53 147 119c0 40 -31 74 -98 74zM282 -59c-80 -28 -165 -45 -165 -108c0 -42 57 -63 101 -63c32 0 117 16 117 86c0 40 -20 66 -53 85z" /></g></g></g></g></g><g transform="translate(4064,0)"><g><g transform="translate(1,-247)"><g><g transform="translate(0,0)"><path d="M305 -83c42 0 80 -33 80 -76c0 -4 0 -7 -1 -11c-10 -64 -88 -81 -142 -81c-76 1 -147 38 -183 106c-22 42 -39 95 -39 142v4c1 46 9 98 31 138c41 74 90 110 174 110c45 0 95 -7 131 -36c35 -28 58 -73 58 -118c0 -78 -74 -145 -151 -145c-32 0 -65 12 -91 35 c-2 2 -4 2 -6 2c-6 0 -9 -8 -9 -24c3 -185 62 -190 83 -190c20 0 33 5 33 15c0 14 -19 26 -25 38c-5 9 -7 19 -7 29c0 15 5 30 15 41c7 13 36 21 49 21zM222 -2c32 0 59 50 59 112s-27 112 -59 112s-58 -50 -58 -112s26 -112 58 -112z" /></g></g></g><g transform="translate(0,247)"><g><g transform="translate(0,0)"><path d="M334 -36c36 -23 60 -56 60 -106c0 -102 -147 -117 -174 -117c-116 0 -195 53 -195 137c0 69 39 106 87 133c-52 25 -92 58 -92 121c0 87 90 127 189 127c100 0 207 -43 207 -178c0 -60 -35 -93 -82 -117zM205 226c-67 0 -128 -34 -128 -99c0 -40 35 -77 79 -94 c73 32 147 53 147 119c0 40 -31 74 -98 74zM282 -59c-80 -28 -165 -45 -165 -108c0 -42 57 -63 101 -63c32 0 117 16 117 86c0 40 -20 66 -53 85z" /></g></g></g></g></g><g transform="translate(4500,0)"><path d="M233 -251c-142 0 -228 126 -228 261c0 65 24 122 65 172c38 46 93 67 153 67c175 0 201 -159 201 -188c0 -22 -11 -22 -15 -22c-8 0 -15 1 -15 18c0 129 -110 159 -142 159c-81 0 -124 -79 -124 -244s76 -199 130 -199c52 0 73 24 73 34c0 9 -3 22 -18 22 c-40 0 -63 43 -63 74c0 57 49 75 77 75c0 0 76 -3 76 -86c0 -131 -151 -143 -170 -143z" /></g><g transform="translate(4924,0)"><path d="M0 10c0 94 60 205 156 230c7 3 19 16 19 25v77c0 9 9 17 17 17c11 0 18 -8 18 -17v-79c0 -6 4 -11 11 -14c170 -3 197 -159 197 -190c-1 -19 -11 -19 -16 -19h-4c-4 0 -10 2 -10 17c0 128 -110 158 -142 158c-10 0 -18 -1 -26 -3c-4 -1 -10 -7 -10 -15v-396 c0 -7 18 -24 25 -25c6 -1 12 -1 17 -1c51 0 73 24 73 34c0 8 -3 22 -18 22c-40 0 -63 43 -63 74c0 56 49 74 77 74c0 0 76 -3 76 -86c0 -98 -91 -141 -176 -141c-6 -1 -11 -18 -11 -23v-73c0 -8 -7 -17 -18 -17c-8 0 -17 9 -17 17v88c0 7 -10 16 -12 16l-27 10 c-90 39 -136 145 -136 240zM123 -26c0 -76 16 -123 38 -154c1 -2 2 -2 3 -2c5 0 11 8 11 16v329c0 9 -3 12 -6 12c-2 0 -4 -1 -5 -3c-27 -38 -41 -105 -41 -198z" /></g><g transform="translate(5341,0)"><path d="M0 -375l167 375l-167 377h73l129 -305l130 305h73l-167 -377l167 -375h-73l-130 303l-129 -303h-73z" /></g><g transform="translate(5746,0)"><path d="" /></g><path d="M16.25 -16.25L5929.75 -16.25C5938.724628 -16.25 5946 -8.974628000000001 5946 0C5946 8.974628000000001 5938.724628 16.25 5929.75 16.25L16.25 16.25C7.275371999999999 16.25 0 8.974628000000001 0 0C0 -8.974628000000001 7.275371999999999 -16.25 16.25 -16.25Z" /></g></g></svg>
