<svg viewBox="0 0 30842.9 39914.3" width="215.9mm" height="279.4mm" xmlns="http://www.w3.org/2000/svg" xmlns:xlink="http://www.w3.org/1999/xlink">"><g transform="translate(0,1000)"><g><g transform="translate(0,0)"><path d="" /></g><g transform="translate(100,0)"><path d="M20 -480L20 480C20 491.045696 11.045696 500 0 500C-11.045696 500 -20 491.045696 -20 480L-20 -480C-20 -491.045696 -11.045696 -500 0 -500C11.045696 -500 20 -491.045696 20 -480Z" /></g><g transform="translate(100,0)"><path d="" /></g><g transform="translate(200,0)"><g transform="translate(0,250)"><path d="M470 -943C409 -943 337 -847 337 -691C337 -659 339 -625 343 -599C344 -591 346 -587 349 -587C351 -587 353 -589 356 -591C435 -660 530 -750 530 -861C530 -916 503 -943 470 -943ZM430 -103L479 182C480 189 481 192 485 192C487 192 490 190 495 188C551 160 589 109 589 46C589 -42 522 -110 441 -117L437 -117C429 -117 428 -114 430 -103ZM361 -262L340 -390C339 -396 338 -399 335 -399C333 -399 330 -397 326 -394C205 -296 80 -190 80 -20C80 119 193 216 368 216C388 216 408 214 424 211C439 208 440 208 438 197L388 -101C387 -108 385 -111 380 -111C377 -111 373 -110 368 -109C307 -92 268 -49 268 8C268 54 298 97 340 115C347 118 355 121 355 128C355 134 351 139 343 139C336 139 324 136 316 133C248 110 201 46 201 -44C201 -129 258 -208 346 -238C364 -244 364 -243 361 -262ZM376 -415L401 -270C404 -252 404 -252 430 -252C577 -252 671 -139 671 -11C671 102 604 187 503 227C489 233 488 232 490 244C501 306 519 401 519 458C519 628 389 658 322 658C171 658 132 560 132 495C132 433 172 380 239 380C300 380 335 427 335 482C335 540 299 567 268 576C245 583 236 586 236 593C236 606 262 622 316 622C375 622 475 604 475 456C475 409 460 322 448 255C447 247 445 245 441 245C439 245 437 245 433 246C413 250 387 252 364 252C119 252 0 87 0 -87C0 -289 153 -432 297 -551C309 -561 308 -563 306 -575C299 -616 292 -681 292 -739C292 -843 316 -968 390 -1050C410 -1072 441 -1098 455 -1098C466 -1098 492 -1070 507 -1048C548 -988 572 -902 572 -815C572 -662 490 -535 382 -434C376 -428 374 -427 376 -415Z" /></g></g><g transform="translate(871,0)"><path d="" /></g><g transform="translate(971,0)"><g><g transform="translate(0,-247)"><g><g transform="translate(0,0)"><path d="M20 95C20 92 21 88 23 84C23 83 24 82 24 81L30 73C60 31 158 -108 158 -232C158 -248 172 -251 181 -251C189 -251 234 -249 252 -249C270 -249 311 -251 320 -251C328 -251 335 -245 335 -237C335 -235 334 -234 334 -232C331 -221 171 6 91 74L226 74L226 -10C226 -22 231 -28 235 -33L330 -148C336 -155 341 -157 350 -157C361 -157 362 -148 362 -140L362 74L435 74C446 74 450 81 450 93C450 105 445 112 435 112L362 112L362 171C362 203 383 209 393 209C403 209 415 215 415 229C415 243 405 250 395 250L182 250C167 250 163 239 163 229C163 219 170 210 186 210C204 210 226 202 226 175L226 112L40 112C28 112 20 105 20 95Z" /></g></g></g><g transform="translate(0,247)"><g><g transform="translate(0,0)"><path d="M20 95C20 92 21 88 23 84C23 83 24 82 24 81L30 73C60 31 158 -108 158 -232C158 -248 172 -251 181 -251C189 -251 234 -249 252 -249C270 -249 311 -251 320 -251C328 -251 335 -245 335 -237C335 -235 334 -234 334 -232C331 -221 171 6 91 74L226 74L226 -10C226 -22 231 -28 235 -33L330 -148C336 -155 341 -157 350 -157C361 -157 362 -148 362 -140L362 74L435 74C446 74 450 81 450 93C450 105 445 112 435 112L362 112L362 171C362 203 383 209 393 209C403 209 415 215 415 229C415 243 405 250 395 250L182 250C167 250 163 239 163 229C163 219 170 210 186 210C204 210 226 202 226 175L226 112L40 112C28 112 20 105 20 95Z" /></g></g></g></g></g><g transform="translate(1441,0)"><g><g transform="translate(0,0)"><path d="" /></g><g transform="translate(100,0)"><path d="M20 -480L20 480C20 491.045696 11.045696 500 0 500C-11.045696 500 -20 491.045696 -20 480L-20 -480C-20 -491.045696 -11.045696 -500 0 -500C11.045696 -500 20 -491.045696 20 -480Z" /></g><g transform="translate(100,0)"><path d="" /></g><g transform="translate(200,0)"><g transform="translate(0,250)"><path d="M470 -943C409 -943 337 -847 337 -691C337 -659 339 -625 343 -599C344 -591 346 -587 349 -587C351 -587 353 -589 356 -591C435 -660 530 -750 530 -861C530 -916 503 -943 470 -943ZM430 -103L479 182C480 189 481 192 485 192C487 192 490 190 495 188C551 160 589 109 589 46C589 -42 522 -110 441 -117L437 -117C429 -117 428 -114 430 -103ZM361 -262L340 -390C339 -396 338 -399 335 -399C333 -399 330 -397 326 -394C205 -296 80 -190 80 -20C80 119 193 216 368 216C388 216 408 214 424 211C439 208 440 208 438 197L388 -101C387 -108 385 -111 380 -111C377 -111 373 -110 368 -109C307 -92 268 -49 268 8C268 54 298 97 340 115C347 118 355 121 355 128C355 134 351 139 343 139C336 139 324 136 316 133C248 110 201 46 201 -44C201 -129 258 -208 346 -238C364 -244 364 -243 361 -262ZM376 -415L401 -270C404 -252 404 -252 430 -252C577 -252 671 -139 671 -11C671 102 604 187 503 227C489 233 488 232 490 244C501 306 519 401 519 458C519 628 389 658 322 658C171 658 132 560 132 495C132 433 172 380 239 380C300 380 335 427 335 482C335 540 299 567 268 576C245 583 236 586 236 593C236 606 262 622 316 622C375 622 475 604 475 456C475 409 460 322 448 255C447 247 445 245 441 245C439 245 437 245 433 246C413 250 387 252 364 252C119 252 0 87 0 -87C0 -289 153 -432 297 -551C309 -561 308 -563 306 -575C299 -616 292 -681 292 -739C292 -843 316 -968 390 -1050C410 -1072 441 -1098 455 -1098C466 -1098 492 -1070 507 -1048C548 -988 572 -902 572 -815C572 -662 490 -535 382 -434C376 -428 374 -427 376 -415Z" /></g></g><g transform="translate(871,0)"><path d="" /></g><g transform="translate(971,0)"><path d="" /></g><g transform="translate(1071,0)"><g transform="translate(0,-500)"><path d="M8 209C3 209 0 206 0 200L0 129C0 123 5 115 12 113C12 113 33 104 39 102C45 99 50 90 50 79L50 -20C50 -32 44 -37 34 -37C31 -35 12 -26 8 -26C3 -26 0 -29 0 -35L0 -106C0 -112 5 -120 12 -122C12 -122 32 -130 38 -133C44 -136 50 -146 50 -160L50 -295C50 -301 56 -306 66 -306C73 -306 80 -301 80 -295L80 -175C80 -167 83 -155 92 -155C109 -159 143 -173 155 -180C164 -186 167 -199 168 -209L168 -339C168 -345 174 -350 184 -350C192 -350 198 -345 198 -339L198 -217C198 -209 205 -204 212 -204C217 -205 237 -213 237 -213C239 -214 240 -214 242 -214C246 -214 249 -211 249 -206L249 -135C249 -129 244 -121 237 -118L211 -108C203 -105 198 -86 198 -79L198 14C198 26 205 32 211 32L237 22C239 21 240 21 242 21C246 21 249 24 249 29L249 100C249 106 244 114 237 117C237 117 216 125 209 128C202 131 198 143 198 151L198 293C198 299 192 304 181 304C174 304 168 299 168 293L168 168C168 162 163 150 155 150C154 150 152 151 151 151L90 176C85 178 80 185 80 198L80 337C80 343 73 348 63 348C56 348 50 343 50 337L50 214C50 209 45 198 38 198C37 198 36 198 35 199C26 202 12 208 12 208C11 208 9 209 8 209ZM80 -44C78 -36 77 -1 77 30C77 54 78 76 80 80C81 83 86 85 92 85C115 85 162 65 168 45C170 36 172 8 172 -19C172 -46 170 -71 168 -76C166 -80 160 -82 153 -82C128 -82 82 -61 80 -44Z" /></g></g><g transform="translate(1320,0)"><g transform="translate(0,-125)"><path d="M8 209C3 209 0 206 0 200L0 129C0 123 5 115 12 113C12 113 33 104 39 102C45 99 50 90 50 79L50 -20C50 -32 44 -37 34 -37C31 -35 12 -26 8 -26C3 -26 0 -29 0 -35L0 -106C0 -112 5 -120 12 -122C12 -122 32 -130 38 -133C44 -136 50 -146 50 -160L50 -295C50 -301 56 -306 66 -306C73 -306 80 -301 80 -295L80 -175C80 -167 83 -155 92 -155C109 -159 143 -173 155 -180C164 -186 167 -199 168 -209L168 -339C168 -345 174 -350 184 -350C192 -350 198 -345 198 -339L198 -217C198 -209 205 -204 212 -204C217 -205 237 -213 237 -213C239 -214 240 -214 242 -214C246 -214 249 -211 249 -206L249 -135C249 -129 244 -121 237 -118L211 -108C203 -105 198 -86 198 -79L198 14C198 26 205 32 211 32L237 22C239 21 240 21 242 21C246 21 249 24 249 29L249 100C249 106 244 114 237 117C237 117 216 125 209 128C202 131 198 143 198 151L198 293C198 299 192 304 181 304C174 304 168 299 168 293L168 168C168 162 163 150 155 150C154 150 152 151 151 151L90 176C85 178 80 185 80 198L80 337C80 343 73 348 63 348C56 348 50 343 50 337L50 214C50 209 45 198 38 198C37 198 36 198 35 199C26 202 12 208 12 208C11 208 9 209 8 209ZM80 -44C78 -36 77 -1 77 30C77 54 78 76 80 80C81 83 86 85 92 85C115 85 162 65 168 45C170 36 172 8 172 -19C172 -46 170 -71 168 -76C166 -80 160 -82 153 -82C128 -82 82 -61 80 -44Z" /></g></g><g transform="translate(1569,0)"><g transform="translate(0,-625)"><path d="M8 209C3 209 0 206 0 200L0 129C0 123 5 115 12 113C12 113 33 104 39 102C45 99 50 90 50 79L50 -20C50 -32 44 -37 34 -37C31 -35 12 -26 8 -26C3 -26 0 -29 0 -35L0 -106C0 -112 5 -120 12 -122C12 -122 32 -130 38 -133C44 -136 50 -146 50 -160L50 -295C50 -301 56 -306 66 -306C73 -306 80 -301 80 -295L80 -175C80 -167 83 -155 92 -155C109 -159 143 -173 155 -180C164 -186 167 -199 168 -209L168 -339C168 -345 174 -350 184 -350C192 -350 198 -345 198 -339L198 -217C198 -209 205 -204 212 -204C217 -205 237 -213 237 -213C239 -214 240 -214 242 -214C246 -214 249 -211 249 -206L249 -135C249 -129 244 -121 237 -118L211 -108C203 -105 198 -86 198 -79L198 14C198 26 205 32 211 32L237 22C239 21 240 21 242 21C246 21 249 24 249 29L249 100C249 106 244 114 237 117C237 117 216 125 209 128C202 131 198 143 198 151L198 293C198 299 192 304 181 304C174 304 168 299 168 293L168 168C168 162 163 150 155 150C154 150 152 151 151 151L90 176C85 178 80 185 80 198L80 337C80 343 73 348 63 348C56 348 50 343 50 337L50 214C50 209 45 198 38 198C37 198 36 198 35 199C26 202 12 208 12 208C11 208 9 209 8 209ZM80 -44C78 -36 77 -1 77 30C77 54 78 76 80 80C81 83 86 85 92 85C115 85 162 65 168 45C170 36 172 8 172 -19C172 -46 170 -71 168 -76C166 -80 160 -82 153 -82C128 -82 82 -61 80 -44Z" /></g></g><g transform="translate(1818,0)"><g transform="translate(0,-250)"><path d="M8 209C3 209 0 206 0 200L0 129C0 123 5 115 12 113C12 113 33 104 39 102C45 99 50 90 50 79L50 -20C50 -32 44 -37 34 -37C31 -35 12 -26 8 -26C3 -26 0 -29 0 -35L0 -106C0 -112 5 -120 12 -122C12 -122 32 -130 38 -133C44 -136 50 -146 50 -160L50 -295C50 -301 56 -306 66 -306C73 -306 80 -301 80 -295L80 -175C80 -167 83 -155 92 -155C109 -159 143 -173 155 -180C164 -186 167 -199 168 -209L168 -339C168 -345 174 -350 184 -350C192 -350 198 -345 198 -339L198 -217C198 -209 205 -204 212 -204C217 -205 237 -213 237 -213C239 -214 240 -214 242 -214C246 -214 249 -211 249 -206L249 -135C249 -129 244 -121 237 -118L211 -108C203 -105 198 -86 198 -79L198 14C198 26 205 32 211 32L237 22C239 21 240 21 242 21C246 21 249 24 249 29L249 100C249 106 244 114 237 117C237 117 216 125 209 128C202 131 198 143 198 151L198 293C198 299 192 304 181 304C174 304 168 299 168 293L168 168C168 162 163 150 155 150C154 150 152 151 151 151L90 176C85 178 80 185 80 198L80 337C80 343 73 348 63 348C56 348 50 343 50 337L50 214C50 209 45 198 38 198C37 198 36 198 35 199C26 202 12 208 12 208C11 208 9 209 8 209ZM80 -44C78 -36 77 -1 77 30C77 54 78 76 80 80C81 83 86 85 92 85C115 85 162 65 168 45C170 36 172 8 172 -19C172 -46 170 -71 168 -76C166 -80 160 -82 153 -82C128 -82 82 -61 80 -44Z" /></g></g><g transform="translate(2067,0)"><g transform="translate(0,125)"><path d="M8 209C3 209 0 206 0 200L0 129C0 123 5 115 12 113C12 113 33 104 39 102C45 99 50 90 50 79L50 -20C50 -32 44 -37 34 -37C31 -35 12 -26 8 -26C3 -26 0 -29 0 -35L0 -106C0 -112 5 -120 12 -122C12 -122 32 -130 38 -133C44 -136 50 -146 50 -160L50 -295C50 -301 56 -306 66 -306C73 -306 80 -301 80 -295L80 -175C80 -167 83 -155 92 -155C109 -159 143 -173 155 -180C164 -186 167 -199 168 -209L168 -339C168 -345 174 -350 184 -350C192 -350 198 -345 198 -339L198 -217C198 -209 205 -204 212 -204C217 -205 237 -213 237 -213C239 -214 240 -214 242 -214C246 -214 249 -211 249 -206L249 -135C249 -129 244 -121 237 -118L211 -108C203 -105 198 -86 198 -79L198 14C198 26 205 32 211 32L237 22C239 21 240 21 242 21C246 21 249 24 249 29L249 100C249 106 244 114 237 117C237 117 216 125 209 128C202 131 198 143 198 151L198 293C198 299 192 304 181 304C174 304 168 299 168 293L168 168C168 162 163 150 155 150C154 150 152 151 151 151L90 176C85 178 80 185 80 198L80 337C80 343 73 348 63 348C56 348 50 343 50 337L50 214C50 209 45 198 38 198C37 198 36 198 35 199C26 202 12 208 12 208C11 208 9 209 8 209ZM80 -44C78 -36 77 -1 77 30C77 54 78 76 80 80C81 83 86 85 92 85C115 85 162 65 168 45C170 36 172 8 172 -19C172 -46 170 -71 168 -76C166 -80 160 -82 153 -82C128 -82 82 -61 80 -44Z" /></g></g><g transform="translate(2316,0)"><g transform="translate(0,-375)"><path d="M8 209C3 209 0 206 0 200L0 129C0 123 5 115 12 113C12 113 33 104 39 102C45 99 50 90 50 79L50 -20C50 -32 44 -37 34 -37C31 -35 12 -26 8 -26C3 -26 0 -29 0 -35L0 -106C0 -112 5 -120 12 -122C12 -122 32 -130 38 -133C44 -136 50 -146 50 -160L50 -295C50 -301 56 -306 66 -306C73 -306 80 -301 80 -295L80 -175C80 -167 83 -155 92 -155C109 -159 143 -173 155 -180C164 -186 167 -199 168 -209L168 -339C168 -345 174 -350 184 -350C192 -350 198 -345 198 -339L198 -217C198 -209 205 -204 212 -204C217 -205 237 -213 237 -213C239 -214 240 -214 242 -214C246 -214 249 -211 249 -206L249 -135C249 -129 244 -121 237 -118L211 -108C203 -105 198 -86 198 -79L198 14C198 26 205 32 211 32L237 22C239 21 240 21 242 21C246 21 249 24 249 29L249 100C249 106 244 114 237 117C237 117 216 125 209 128C202 131 198 143 198 151L198 293C198 299 192 304 181 304C174 304 168 299 168 293L168 168C168 162 163 150 155 150C154 150 152 151 151 151L90 176C85 178 80 185 80 198L80 337C80 343 73 348 63 348C56 348 50 343 50 337L50 214C50 209 45 198 38 198C37 198 36 198 35 199C26 202 12 208 12 208C11 208 9 209 8 209ZM80 -44C78 -36 77 -1 77 30C77 54 78 76 80 80C81 83 86 85 92 85C115 85 162 65 168 45C170 36 172 8 172 -19C172 -46 170 -71 168 -76C166 -80 160 -82 153 -82C128 -82 82 -61 80 -44Z" /></g></g><g transform="translate(2565,0)"><path d="" /></g><g transform="translate(2665,0)"><g><g transform="translate(0,-247)"><g><g transform="translate(0,0)"><path d="M20 95C20 92 21 88 23 84C23 83 24 82 24 81L30 73C60 31 158 -108 158 -232C158 -248 172 -251 181 -251C189 -251 234 -249 252 -249C270 -249 311 -251 320 -251C328 -251 335 -245 335 -237C335 -235 334 -234 334 -232C331 -221 171 6 91 74L226 74L226 -10C226 -22 231 -28 235 -33L330 -148C336 -155 341 -157 350 -157C361 -157 362 -148 362 -140L362 74L435 74C446 74 450 81 450 93C450 105 445 112 435 112L362 112L362 171C362 203 383 209 393 209C403 209 415 215 415 229C415 243 405 250 395 250L182 250C167 250 163 239 163 229C163 219 170 210 186 210C204 210 226 202 226 175L226 112L40 112C28 112 20 105 20 95Z" /></g></g></g><g transform="translate(0,247)"><g><g transform="translate(0,0)"><path d="M20 95C20 92 21 88 23 84C23 83 24 82 24 81L30 73C60 31 158 -108 158 -232C158 -248 172 -251 181 -251C189 -251 234 -249 252 -249C270 -249 311 -251 320 -251C328 -251 335 -245 335 -237C335 -235 334 -234 334 -232C331 -221 171 6 91 74L226 74L226 -10C226 -22 231 -28 235 -33L330 -148C336 -155 341 -157 350 -157C361 -157 362 -148 362 -140L362 74L435 74C446 74 450 81 450 93C450 105 445 112 435 112L362 112L362 171C362 203 383 209 393 209C403 209 415 215 415 229C415 243 405 250 395 250L182 250C167 250 163 239 163 229C163 219 170 210 186 210C204 210 226 202 226 175L226 112L40 112C28 112 20 105 20 95Z" /></g></g></g></g></g></g></g><g transform="translate(4576,0)"><g><g transform="translate(0,0)"><path d="" /></g><g transform="translate(100,0)"><path d="M20 -480L20 480C20 491.045696 11.045696 500 0 500C-11.045696 500 -20 491.045696 -20 480L-20 -480C-20 -491.045696 -11.045696 -500 0 -500C11.045696 -500 20 -491.045696 20 -480Z" /></g><g transform="translate(100,0)"><path d="" /></g><g transform="translate(200,0)"><g transform="translate(0,250)"><path d="M470 -943C409 -943 337 -847 337 -691C337 -659 339 -625 343 -599C344 -591 346 -587 349 -587C351 -587 353 -589 356 -591C435 -660 530 -750 530 -861C530 -916 503 -943 470 -943ZM430 -103L479 182C480 189 481 192 485 192C487 192 490 190 495 188C551 160 589 109 589 46C589 -42 522 -110 441 -117L437 -117C429 -117 428 -114 430 -103ZM361 -262L340 -390C339 -396 338 -399 335 -399C333 -399 330 -397 326 -394C205 -296 80 -190 80 -20C80 119 193 216 368 216C388 216 408 214 424 211C439 208 440 208 438 197L388 -101C387 -108 385 -111 380 -111C377 -111 373 -110 368 -109C307 -92 268 -49 268 8C268 54 298 97 340 115C347 118 355 121 355 128C355 134 351 139 343 139C336 139 324 136 316 133C248 110 201 46 201 -44C201 -129 258 -208 346 -238C364 -244 364 -243 361 -262ZM376 -415L401 -270C404 -252 404 -252 430 -252C577 -252 671 -139 671 -11C671 102 604 187 503 227C489 233 488 232 490 244C501 306 519 401 519 458C519 628 389 658 322 658C171 658 132 560 132 495C132 433 172 380 239 380C300 380 335 427 335 482C335 540 299 567 268 576C245 583 236 586 236 593C236 606 262 622 316 622C375 622 475 604 475 456C475 409 460 322 448 255C447 247 445 245 441 245C439 245 437 245 433 246C413 250 387 252 364 252C119 252 0 87 0 -87C0 -289 153 -432 297 -551C309 -561 308 -563 306 -575C299 -616 292 -681 292 -739C292 -843 316 -968 390 -1050C410 -1072 441 -1098 455 -1098C466 -1098 492 -1070 507 -1048C548 -988 572 -902 572 -815C572 -662 490 -535 382 -434C376 -428 374 -427 376 -415Z" /></g></g><g transform="translate(871,0)"><path d="" /></g><g transform="translate(971,0)"><path d="" /></g><g transform="translate(1071,0)"><g transform="translate(0,0)"><path d="M47 81C47 86 49 96 58 96C61 96 64 95 68 93C111 66 157 12 157 -42C157 -67 145 -100 116 -100C93 -100 53 -71 46 -51C45 -47 44 -35 44 -19C44 21 47 81 47 81ZM12 170C4 160 0 -411 0 -411C1 -429 17 -439 31 -439C41 -439 50 -433 50 -422C50 -402 44 -162 43 -140C43 -133 47 -126 54 -123C56 -122 57 -122 59 -122C64 -122 75 -131 81 -136C95 -145 119 -153 136 -153C182 -150 226 -114 226 -57C226 -11 195 50 106 112C81 129 57 156 27 173C27 173 24 175 21 175C18 175 15 174 12 170Z" /></g></g><g transform="translate(1297,0)"><g transform="translate(0,-375)"><path d="M47 81C47 86 49 96 58 96C61 96 64 95 68 93C111 66 157 12 157 -42C157 -67 145 -100 116 -100C93 -100 53 -71 46 -51C45 -47 44 -35 44 -19C44 21 47 81 47 81ZM12 170C4 160 0 -411 0 -411C1 -429 17 -439 31 -439C41 -439 50 -433 50 -422C50 -402 44 -162 43 -140C43 -133 47 -126 54 -123C56 -122 57 -122 59 -122C64 -122 75 -131 81 -136C95 -145 119 -153 136 -153C182 -150 226 -114 226 -57C226 -11 195 50 106 112C81 129 57 156 27 173C27 173 24 175 21 175C18 175 15 174 12 170Z" /></g></g><g transform="translate(1523,0)"><g transform="translate(0,125)"><path d="M47 81C47 86 49 96 58 96C61 96 64 95 68 93C111 66 157 12 157 -42C157 -67 145 -100 116 -100C93 -100 53 -71 46 -51C45 -47 44 -35 44 -19C44 21 47 81 47 81ZM12 170C4 160 0 -411 0 -411C1 -429 17 -439 31 -439C41 -439 50 -433 50 -422C50 -402 44 -162 43 -140C43 -133 47 -126 54 -123C56 -122 57 -122 59 -122C64 -122 75 -131 81 -136C95 -145 119 -153 136 -153C182 -150 226 -114 226 -57C226 -11 195 50 106 112C81 129 57 156 27 173C27 173 24 175 21 175C18 175 15 174 12 170Z" /></g></g><g transform="translate(1749,0)"><g transform="translate(0,-250)"><path d="M47 81C47 86 49 96 58 96C61 96 64 95 68 93C111 66 157 12 157 -42C157 -67 145 -100 116 -100C93 -100 53 -71 46 -51C45 -47 44 -35 44 -19C44 21 47 81 47 81ZM12 170C4 160 0 -411 0 -411C1 -429 17 -439 31 -439C41 -439 50 -433 50 -422C50 -402 44 -162 43 -140C43 -133 47 -126 54 -123C56 -122 57 -122 59 -122C64 -122 75 -131 81 -136C95 -145 119 -153 136 -153C182 -150 226 -114 226 -57C226 -11 195 50 106 112C81 129 57 156 27 173C27 173 24 175 21 175C18 175 15 174 12 170Z" /></g></g><g transform="translate(1975,0)"><g transform="translate(0,250)"><path d="M47 81C47 86 49 96 58 96C61 96 64 95 68 93C111 66 157 12 157 -42C157 -67 145 -100 116 -100C93 -100 53 -71 46 -51C45 -47 44 -35 44 -19C44 21 47 81 47 81ZM12 170C4 160 0 -411 0 -411C1 -429 17 -439 31 -439C41 -439 50 -433 50 -422C50 -402 44 -162 43 -140C43 -133 47 -126 54 -123C56 -122 57 -122 59 -122C64 -122 75 -131 81 -136C95 -145 119 -153 136 -153C182 -150 226 -114 226 -57C226 -11 195 50 106 112C81 129 57 156 27 173C27 173 24 175 21 175C18 175 15 174 12 170Z" /></g></g><g transform="translate(2201,0)"><g transform="translate(0,-125)"><path d="M47 81C47 86 49 96 58 96C61 96 64 95 68 93C111 66 157 12 157 -42C157 -67 145 -100 116 -100C93 -100 53 -71 46 -51C45 -47 44 -35 44 -19C44 21 47 81 47 81ZM12 170C4 160 0 -411 0 -411C1 -429 17 -439 31 -439C41 -439 50 -433 50 -422C50 -402 44 -162 43 -140C43 -133 47 -126 54 -123C56 -122 57 -122 59 -122C64 -122 75 -131 81 -136C95 -145 119 -153 136 -153C182 -150 226 -114 226 -57C226 -11 195 50 106 112C81 129 57 156 27 173C27 173 24 175 21 175C18 175 15 174 12 170Z" /></g></g><g transform="translate(2427,0)"><path d="" /></g><g transform="translate(2527,0)"><g><g transform="translate(0,-247)"><g><g transform="translate(0,0)"><path d="M20 95C20 92 21 88 23 84C23 83 24 82 24 81L30 73C60 31 158 -108 158 -232C158 -248 172 -251 181 -251C189 -251 234 -249 252 -249C270 -249 311 -251 320 -251C328 -251 335 -245 335 -237C335 -235 334 -234 334 -232C331 -221 171 6 91 74L226 74L226 -10C226 -22 231 -28 235 -33L330 -148C336 -155 341 -157 350 -157C361 -157 362 -148 362 -140L362 74L435 74C446 74 450 81 450 93C450 105 445 112 435 112L362 112L362 171C362 203 383 209 393 209C403 209 415 215 415 229C415 243 405 250 395 250L182 250C167 250 163 239 163 229C163 219 170 210 186 210C204 210 226 202 226 175L226 112L40 112C28 112 20 105 20 95Z" /></g></g></g><g transform="translate(0,247)"><g><g transform="translate(0,0)"><path d="M20 95C20 92 21 88 23 84C23 83 24 82 24 81L30 73C60 31 158 -108 158 -232C158 -248 172 -251 181 -251C189 -251 234 -249 252 -249C270 -249 311 -251 320 -251C328 -251 335 -245 335 -237C335 -235 334 -234 334 -232C331 -221 171 6 91 74L226 74L226 -10C226 -22 231 -28 235 -33L330 -148C336 -155 341 -157 350 -157C361 -157 362 -148 362 -140L362 74L435 74C446 74 450 81 450 93C450 105 445 112 435 112L362 112L362 171C362 203 383 209 393 209C403 209 415 215 415 229C415 243 405 250 395 250L182 250C167 250 163 239 163 229C163 219 170 210 186 210C204 210 226 202 226 175L226 112L40 112C28 112 20 105 20 95Z" /></g></g></g></g></g></g></g><g transform="translate(7573,0)"><g><g transform="translate(0,0)"><path d="" /></g><g transform="translate(100,0)"><path d="M20 -480L20 480C20 491.045696 11.045696 500 0 500C-11.045696 500 -20 491.045696 -20 480L-20 -480C-20 -491.045696 -11.045696 -500 0 -500C11.045696 -500 20 -491.045696 20 -480Z" /></g><g transform="translate(100,0)"><path d="" /></g><g transform="translate(200,0)"><g transform="translate(0,-250)"><path d="M252 -262C425 -262 531 -146 531 28C531 332 271 510 25 630C19 633 13 635 8 635C-1 635 -5 629 -5 623C-5 615 1 610 10 605C243 472 381 316 381 37C381 -120 335 -224 229 -224C127 -224 67 -151 67 -111C67 -101 70 -93 83 -93C96 -93 106 -100 133 -100C182 -100 229 -60 229 4C229 66 186 110 123 110C42 110 0 41 0 -39C0 -135 78 -262 252 -262ZM630 71C661 71 684 94 684 125C684 156 661 179 630 179C599 179 576 156 576 125C576 94 599 71 630 71ZM629 -180C660 -180 684 -156 684 -125C684 -94 660 -70 629 -70C598 -70 574 -94 574 -125C574 -156 598 -180 629 -180Z" /></g></g><g transform="translate(884,0)"><path d="" /></g><g transform="translate(984,0)"><path d="" /></g><g transform="translate(1084,0)"><g transform="translate(0,-250)"><path d="M8 209C3 209 0 206 0 200L0 129C0 123 5 115 12 113C12 113 33 104 39 102C45 99 50 90 50 79L50 -20C50 -32 44 -37 34 -37C31 -35 12 -26 8 -26C3 -26 0 -29 0 -35L0 -106C0 -112 5 -120 12 -122C12 -122 32 -130 38 -133C44 -136 50 -146 50 -160L50 -295C50 -301 56 -306 66 -306C73 -306 80 -301 80 -295L80 -175C80 -167 83 -155 92 -155C109 -159 143 -173 155 -180C164 -186 167 -199 168 -209L168 -339C168 -345 174 -350 184 -350C192 -350 198 -345 198 -339L198 -217C198 -209 205 -204 212 -204C217 -205 237 -213 237 -213C239 -214 240 -214 242 -214C246 -214 249 -211 249 -206L249 -135C249 -129 244 -121 237 -118L211 -108C203 -105 198 -86 198 -79L198 14C198 26 205 32 211 32L237 22C239 21 240 21 242 21C246 21 249 24 249 29L249 100C249 106 244 114 237 117C237 117 216 125 209 128C202 131 198 143 198 151L198 293C198 299 192 304 181 304C174 304 168 299 168 293L168 168C168 162 163 150 155 150C154 150 152 151 151 151L90 176C85 178 80 185 80 198L80 337C80 343 73 348 63 348C56 348 50 343 50 337L50 214C50 209 45 198 38 198C37 198 36 198 35 199C26 202 12 208 12 208C11 208 9 209 8 209ZM80 -44C78 -36 77 -1 77 30C77 54 78 76 80 80C81 83 86 85 92 85C115 85 162 65 168 45C170 36 172 8 172 -19C172 -46 170 -71 168 -76C166 -80 160 -82 153 -82C128 -82 82 -61 80 -44Z" /></g></g><g transform="translate(1333,0)"><g transform="translate(0,125)"><path d="M8 209C3 209 0 206 0 200L0 129C0 123 5 115 12 113C12 113 33 104 39 102C45 99 50 90 50 79L50 -20C50 -32 44 -37 34 -37C31 -35 12 -26 8 -26C3 -26 0 -29 0 -35L0 -106C0 -112 5 -120 12 -122C12 -122 32 -130 38 -133C44 -136 50 -146 50 -160L50 -295C50 -301 56 -306 66 -306C73 -306 80 -301 80 -295L80 -175C80 -167 83 -155 92 -155C109 -159 143 -173 155 -180C164 -186 167 -199 168 -209L168 -339C168 -345 174 -350 184 -350C192 -350 198 -345 198 -339L198 -217C198 -209 205 -204 212 -204C217 -205 237 -213 237 -213C239 -214 240 -214 242 -214C246 -214 249 -211 249 -206L249 -135C249 -129 244 -121 237 -118L211 -108C203 -105 198 -86 198 -79L198 14C198 26 205 32 211 32L237 22C239 21 240 21 242 21C246 21 249 24 249 29L249 100C249 106 244 114 237 117C237 117 216 125 209 128C202 131 198 143 198 151L198 293C198 299 192 304 181 304C174 304 168 299 168 293L168 168C168 162 163 150 155 150C154 150 152 151 151 151L90 176C85 178 80 185 80 198L80 337C80 343 73 348 63 348C56 348 50 343 50 337L50 214C50 209 45 198 38 198C37 198 36 198 35 199C26 202 12 208 12 208C11 208 9 209 8 209ZM80 -44C78 -36 77 -1 77 30C77 54 78 76 80 80C81 83 86 85 92 85C115 85 162 65 168 45C170 36 172 8 172 -19C172 -46 170 -71 168 -76C166 -80 160 -82 153 -82C128 -82 82 -61 80 -44Z" /></g></g><g transform="translate(1582,0)"><g transform="translate(0,-375)"><path d="M8 209C3 209 0 206 0 200L0 129C0 123 5 115 12 113C12 113 33 104 39 102C45 99 50 90 50 79L50 -20C50 -32 44 -37 34 -37C31 -35 12 -26 8 -26C3 -26 0 -29 0 -35L0 -106C0 -112 5 -120 12 -122C12 -122 32 -130 38 -133C44 -136 50 -146 50 -160L50 -295C50 -301 56 -306 66 -306C73 -306 80 -301 80 -295L80 -175C80 -167 83 -155 92 -155C109 -159 143 -173 155 -180C164 -186 167 -199 168 -209L168 -339C168 -345 174 -350 184 -350C192 -350 198 -345 198 -339L198 -217C198 -209 205 -204 212 -204C217 -205 237 -213 237 -213C239 -214 240 -214 242 -214C246 -214 249 -211 249 -206L249 -135C249 -129 244 -121 237 -118L211 -108C203 -105 198 -86 198 -79L198 14C198 26 205 32 211 32L237 22C239 21 240 21 242 21C246 21 249 24 249 29L249 100C249 106 244 114 237 117C237 117 216 125 209 128C202 131 198 143 198 151L198 293C198 299 192 304 181 304C174 304 168 299 168 293L168 168C168 162 163 150 155 150C154 150 152 151 151 151L90 176C85 178 80 185 80 198L80 337C80 343 73 348 63 348C56 348 50 343 50 337L50 214C50 209 45 198 38 198C37 198 36 198 35 199C26 202 12 208 12 208C11 208 9 209 8 209ZM80 -44C78 -36 77 -1 77 30C77 54 78 76 80 80C81 83 86 85 92 85C115 85 162 65 168 45C170 36 172 8 172 -19C172 -46 170 -71 168 -76C166 -80 160 -82 153 -82C128 -82 82 -61 80 -44Z" /></g></g><g transform="translate(1831,0)"><g transform="translate(0,0)"><path d="M8 209C3 209 0 206 0 200L0 129C0 123 5 115 12 113C12 113 33 104 39 102C45 99 50 90 50 79L50 -20C50 -32 44 -37 34 -37C31 -35 12 -26 8 -26C3 -26 0 -29 0 -35L0 -106C0 -112 5 -120 12 -122C12 -122 32 -130 38 -133C44 -136 50 -146 50 -160L50 -295C50 -301 56 -306 66 -306C73 -306 80 -301 80 -295L80 -175C80 -167 83 -155 92 -155C109 -159 143 -173 155 -180C164 -186 167 -199 168 -209L168 -339C168 -345 174 -350 184 -350C192 -350 198 -345 198 -339L198 -217C198 -209 205 -204 212 -204C217 -205 237 -213 237 -213C239 -214 240 -214 242 -214C246 -214 249 -211 249 -206L249 -135C249 -129 244 -121 237 -118L211 -108C203 -105 198 -86 198 -79L198 14C198 26 205 32 211 32L237 22C239 21 240 21 242 21C246 21 249 24 249 29L249 100C249 106 244 114 237 117C237 117 216 125 209 128C202 131 198 143 198 151L198 293C198 299 192 304 181 304C174 304 168 299 168 293L168 168C168 162 163 150 155 150C154 150 152 151 151 151L90 176C85 178 80 185 80 198L80 337C80 343 73 348 63 348C56 348 50 343 50 337L50 214C50 209 45 198 38 198C37 198 36 198 35 199C26 202 12 208 12 208C11 208 9 209 8 209ZM80 -44C78 -36 77 -1 77 30C77 54 78 76 80 80C81 83 86 85 92 85C115 85 162 65 168 45C170 36 172 8 172 -19C172 -46 170 -71 168 -76C166 -80 160 -82 153 -82C128 -82 82 -61 80 -44Z" /></g></g><g transform="translate(2080,0)"><g transform="translate(0,375)"><path d="M8 209C3 209 0 206 0 200L0 129C0 123 5 115 12 113C12 113 33 104 39 102C45 99 50 90 50 79L50 -20C50 -32 44 -37 34 -37C31 -35 12 -26 8 -26C3 -26 0 -29 0 -35L0 -106C0 -112 5 -120 12 -122C12 -122 32 -130 38 -133C44 -136 50 -146 50 -160L50 -295C50 -301 56 -306 66 -306C73 -306 80 -301 80 -295L80 -175C80 -167 83 -155 92 -155C109 -159 143 -173 155 -180C164 -186 167 -199 168 -209L168 -339C168 -345 174 -350 184 -350C192 -350 198 -345 198 -339L198 -217C198 -209 205 -204 212 -204C217 -205 237 -213 237 -213C239 -214 240 -214 242 -214C246 -214 249 -211 249 -206L249 -135C249 -129 244 -121 237 -118L211 -108C203 -105 198 -86 198 -79L198 14C198 26 205 32 211 32L237 22C239 21 240 21 242 21C246 21 249 24 249 29L249 100C249 106 244 114 237 117C237 117 216 125 209 128C202 131 198 143 198 151L198 293C198 299 192 304 181 304C174 304 168 299 168 293L168 168C168 162 163 150 155 150C154 150 152 151 151 151L90 176C85 178 80 185 80 198L80 337C80 343 73 348 63 348C56 348 50 343 50 337L50 214C50 209 45 198 38 198C37 198 36 198 35 199C26 202 12 208 12 208C11 208 9 209 8 209ZM80 -44C78 -36 77 -1 77 30C77 54 78 76 80 80C81 83 86 85 92 85C115 85 162 65 168 45C170 36 172 8 172 -19C172 -46 170 -71 168 -76C166 -80 160 -82 153 -82C128 -82 82 -61 80 -44Z" /></g></g><g transform="translate(2329,0)"><g transform="translate(0,-125)"><path d="M8 209C3 209 0 206 0 200L0 129C0 123 5 115 12 113C12 113 33 104 39 102C45 99 50 90 50 79L50 -20C50 -32 44 -37 34 -37C31 -35 12 -26 8 -26C3 -26 0 -29 0 -35L0 -106C0 -112 5 -120 12 -122C12 -122 32 -130 38 -133C44 -136 50 -146 50 -160L50 -295C50 -301 56 -306 66 -306C73 -306 80 -301 80 -295L80 -175C80 -167 83 -155 92 -155C109 -159 143 -173 155 -180C164 -186 167 -199 168 -209L168 -339C168 -345 174 -350 184 -350C192 -350 198 -345 198 -339L198 -217C198 -209 205 -204 212 -204C217 -205 237 -213 237 -213C239 -214 240 -214 242 -214C246 -214 249 -211 249 -206L249 -135C249 -129 244 -121 237 -118L211 -108C203 -105 198 -86 198 -79L198 14C198 26 205 32 211 32L237 22C239 21 240 21 242 21C246 21 249 24 249 29L249 100C249 106 244 114 237 117C237 117 216 125 209 128C202 131 198 143 198 151L198 293C198 299 192 304 181 304C174 304 168 299 168 293L168 168C168 162 163 150 155 150C154 150 152 151 151 151L90 176C85 178 80 185 80 198L80 337C80 343 73 348 63 348C56 348 50 343 50 337L50 214C50 209 45 198 38 198C37 198 36 198 35 199C26 202 12 208 12 208C11 208 9 209 8 209ZM80 -44C78 -36 77 -1 77 30C77 54 78 76 80 80C81 83 86 85 92 85C115 85 162 65 168 45C170 36 172 8 172 -19C172 -46 170 -71 168 -76C166 -80 160 -82 153 -82C128 -82 82 -61 80 -44Z" /></g></g><g transform="translate(2578,0)"><path d="" /></g><g transform="translate(2678,0)"><g><g transform="translate(1,-247)"><g><g transform="translate(0,0)"><path d="M305 -83C292 -83 263 -91 256 -104C246 -115 241 -130 241 -145C241 -155 243 -165 248 -174C254 -186 273 -198 273 -212C273 -222 260 -227 240 -227C219 -227 160 -222 157 -37C157 -21 160 -13 166 -13C168 -13 170 -13 172 -15C198 -38 231 -50 263 -50C340 -50 414 17 414 95C414 140 391 185 356 213C320 242 270 249 225 249C141 249 92 213 51 139C29 99 21 47 20 1L20 -3C20 -50 37 -103 59 -145C95 -213 166 -250 242 -251C296 -251 374 -234 384 -170C385 -166 385 -163 385 -159C385 -116 347 -83 305 -83ZM222 -2C190 -2 164 48 164 110C164 172 190 222 222 222C254 222 281 172 281 110C281 48 254 -2 222 -2Z" /></g></g></g><g transform="translate(0,247)"><g><g transform="translate(0,0)"><path d="M334 -36C381 -12 416 21 416 81C416 216 309 259 209 259C110 259 20 219 20 132C20 69 60 36 112 11C64 -16 25 -53 25 -122C25 -206 104 -259 220 -259C247 -259 394 -244 394 -142C394 -92 370 -59 334 -36ZM205 226C272 226 303 192 303 152C303 86 229 65 156 33C112 50 77 87 77 127C77 192 138 226 205 226ZM282 -59C315 -78 335 -104 335 -144C335 -214 250 -230 218 -230C174 -230 117 -209 117 -167C117 -104 202 -87 282 -59Z" /></g></g></g></g></g></g></g><g transform="translate(10687,0)"><g><g transform="translate(0,0)"><path d="" /></g><g transform="translate(100,0)"><path d="M20 -480L20 480C20 491.045696 11.045696 500 0 500C-11.045696 500 -20 491.045696 -20 480L-20 -480C-20 -491.045696 -11.045696 -500 0 -500C11.045696 -500 20 -491.045696 20 -480Z" /></g><g transform="translate(100,0)"><path d="" /></g><g transform="translate(200,0)"><g transform="translate(0,-250)"><path d="M252 -262C425 -262 531 -146 531 28C531 332 271 510 25 630C19 633 13 635 8 635C-1 635 -5 629 -5 623C-5 615 1 610 10 605C243 472 381 316 381 37C381 -120 335 -224 229 -224C127 -224 67 -151 67 -111C67 -101 70 -93 83 -93C96 -93 106 -100 133 -100C182 -100 229 -60 229 4C229 66 186 110 123 110C42 110 0 41 0 -39C0 -135 78 -262 252 -262ZM630 71C661 71 684 94 684 125C684 156 661 179 630 179C599 179 576 156 576 125C576 94 599 71 630 71ZM629 -180C660 -180 684 -156 684 -125C684 -94 660 -70 629 -70C598 -70 574 -94 574 -125C574 -156 598 -180 629 -180Z" /></g></g><g transform="translate(884,0)"><path d="" /></g><g transform="translate(984,0)"><path d="" /></g><g transform="translate(1084,0)"><g transform="translate(0,250)"><path d="M47 81C47 86 49 96 58 96C61 96 64 95 68 93C111 66 157 12 157 -42C157 -67 145 -100 116 -100C93 -100 53 -71 46 -51C45 -47 44 -35 44 -19C44 21 47 81 47 81ZM12 170C4 160 0 -411 0 -411C1 -429 17 -439 31 -439C41 -439 50 -433 50 -422C50 -402 44 -162 43 -140C43 -133 47 -126 54 -123C56 -122 57 -122 59 -122C64 -122 75 -131 81 -136C95 -145 119 -153 136 -153C182 -150 226 -114 226 -57C226 -11 195 50 106 112C81 129 57 156 27 173C27 173 24 175 21 175C18 175 15 174 12 170Z" /></g></g><g transform="translate(1310,0)"><g transform="translate(0,-125)"><path d="M47 81C47 86 49 96 58 96C61 96 64 95 68 93C111 66 157 12 157 -42C157 -67 145 -100 116 -100C93 -100 53 -71 46 -51C45 -47 44 -35 44 -19C44 21 47 81 47 81ZM12 170C4 160 0 -411 0 -411C1 -429 17 -439 31 -439C41 -439 50 -433 50 -422C50 -402 44 -162 43 -140C43 -133 47 -126 54 -123C56 -122 57 -122 59 -122C64 -122 75 -131 81 -136C95 -145 119 -153 136 -153C182 -150 226 -114 226 -57C226 -11 195 50 106 112C81 129 57 156 27 173C27 173 24 175 21 175C18 175 15 174 12 170Z" /></g></g><g transform="translate(1536,0)"><g transform="translate(0,375)"><path d="M47 81C47 86 49 96 58 96C61 96 64 95 68 93C111 66 157 12 157 -42C157 -67 145 -100 116 -100C93 -100 53 -71 46 -51C45 -47 44 -35 44 -19C44 21 47 81 47 81ZM12 170C4 160 0 -411 0 -411C1 -429 17 -439 31 -439C41 -439 50 -433 50 -422C50 -402 44 -162 43 -140C43 -133 47 -126 54 -123C56 -122 57 -122 59 -122C64 -122 75 -131 81 -136C95 -145 119 -153 136 -153C182 -150 226 -114 226 -57C226 -11 195 50 106 112C81 129 57 156 27 173C27 173 24 175 21 175C18 175 15 174 12 170Z" /></g></g><g transform="translate(1762,0)"><g transform="translate(0,0)"><path d="M47 81C47 86 49 96 58 96C61 96 64 95 68 93C111 66 157 12 157 -42C157 -67 145 -100 116 -100C93 -100 53 -71 46 -51C45 -47 44 -35 44 -19C44 21 47 81 47 81ZM12 170C4 160 0 -411 0 -411C1 -429 17 -439 31 -439C41 -439 50 -433 50 -422C50 -402 44 -162 43 -140C43 -133 47 -126 54 -123C56 -122 57 -122 59 -122C64 -122 75 -131 81 -136C95 -145 119 -153 136 -153C182 -150 226 -114 226 -57C226 -11 195 50 106 112C81 129 57 156 27 173C27 173 24 175 21 175C18 175 15 174 12 170Z" /></g></g><g transform="translate(1988,0)"><g transform="translate(0,500)"><path d="M47 81C47 86 49 96 58 96C61 96 64 95 68 93C111 66 157 12 157 -42C157 -67 145 -100 116 -100C93 -100 53 -71 46 -51C45 -47 44 -35 44 -19C44 21 47 81 47 81ZM12 170C4 160 0 -411 0 -411C1 -429 17 -439 31 -439C41 -439 50 -433 50 -422C50 -402 44 -162 43 -140C43 -133 47 -126 54 -123C56 -122 57 -122 59 -122C64 -122 75 -131 81 -136C95 -145 119 -153 136 -153C182 -150 226 -114 226 -57C226 -11 195 50 106 112C81 129 57 156 27 173C27 173 24 175 21 175C18 175 15 174 12 170Z" /></g></g><g transform="translate(2214,0)"><g transform="translate(0,125)"><path d="M47 81C47 86 49 96 58 96C61 96 64 95 68 93C111 66 157 12 157 -42C157 -67 145 -100 116 -100C93 -100 53 -71 46 -51C45 -47 44 -35 44 -19C44 21 47 81 47 81ZM12 170C4 160 0 -411 0 -411C1 -429 17 -439 31 -439C41 -439 50 -433 50 -422C50 -402 44 -162 43 -140C43 -133 47 -126 54 -123C56 -122 57 -122 59 -122C64 -122 75 -131 81 -136C95 -145 119 -153 136 -153C182 -150 226 -114 226 -57C226 -11 195 50 106 112C81 129 57 156 27 173C27 173 24 175 21 175C18 175 15 174 12 170Z" /></g></g><g transform="translate(2440,0)"><path d="" /></g><g transform="translate(2540,0)"><g><g transform="translate(1,-247)"><g><g transform="translate(0,0)"><path d="M305 -83C292 -83 263 -91 256 -104C246 -115 241 -130 241 -145C241 -155 243 -165 248 -174C254 -186 273 -198 273 -212C273 -222 260 -227 240 -227C219 -227 160 -222 157 -37C157 -21 160 -13 166 -13C168 -13 170 -13 172 -15C198 -38 231 -50 263 -50C340 -50 414 17 414 95C414 140 391 185 356 213C320 242 270 249 225 249C141 249 92 213 51 139C29 99 21 47 20 1L20 -3C20 -50 37 -103 59 -145C95 -213 166 -250 242 -251C296 -251 374 -234 384 -170C385 -166 385 -163 385 -159C385 -116 347 -83 305 -83ZM222 -2C190 -2 164 48 164 110C164 172 190 222 222 222C254 222 281 172 281 110C281 48 254 -2 222 -2Z" /></g></g></g><g transform="translate(0,247)"><g><g transform="translate(0,0)"><path d="M334 -36C381 -12 416 21 416 81C416 216 309 259 209 259C110 259 20 219 20 132C20 69 60 36 112 11C64 -16 25 -53 25 -122C25 -206 104 -259 220 -259C247 -259 394 -244 394 -142C394 -92 370 -59 334 -36ZM205 226C272 226 303 192 303 152C303 86 229 65 156 33C112 50 77 87 77 127C77 192 138 226 205 226ZM282 -59C315 -78 335 -104 335 -144C335 -214 250 -230 218 -230C174 -230 117 -209 117 -167C117 -104 202 -87 282 -59Z" /></g></g></g></g></g></g></g></g></g></svg>
