<svg viewBox="0 0 30842.9 39914.3" width="215.9mm" height="279.4mm" xmlns="http://www.w3.org/2000/svg" xmlns:xlink="http://www.w3.org/1999/xlink">"><g transform="translate(0,1000)"><g><g transform="translate(0,0)"><path d="" /></g><g transform="translate(100,0)"><g transform="translate(0,250)"><path d="M470 -943c33 0 60 27 60 82c0 111 -95 201 -174 270c-3 2 -5 4 -7 4c-3 0 -5 -4 -6 -12c-4 -26 -6 -60 -6 -92c0 -156 72 -252 133 -252zM430 -103c-2 -11 -1 -14 7 -14h4c81 7 148 75 148 163c0 63 -38 114 -94 142c-5 2 -8 4 -10 4c-4 0 -5 -3 -6 -10zM361 -262 c3 19 3 18 -15 24c-88 30 -145 109 -145 194c0 90 47 154 115 177c8 3 20 6 27 6c8 0 12 -5 12 -11c0 -7 -8 -10 -15 -13c-42 -18 -72 -61 -72 -107c0 -57 39 -100 100 -117c5 -1 9 -2 12 -2c5 0 7 3 8 10l50 298c2 11 1 11 -14 14c-16 3 -36 5 -56 5 c-175 0 -288 -97 -288 -236c0 -170 125 -276 246 -374c4 -3 7 -5 9 -5c3 0 4 3 5 9zM376 -415c-2 -12 0 -13 6 -19c108 -101 190 -228 190 -381c0 -87 -24 -173 -65 -233c-15 -22 -41 -50 -52 -50c-14 0 -45 26 -65 48c-74 82 -98 207 -98 311c0 58 7 123 14 164 c2 12 3 14 -9 24c-144 119 -297 262 -297 464c0 174 119 339 364 339c23 0 49 -2 69 -6c4 -1 6 -1 8 -1c4 0 6 2 7 10c12 67 27 154 27 201c0 148 -100 166 -159 166c-54 0 -80 -16 -80 -29c0 -7 9 -10 32 -17c31 -9 67 -36 67 -94c0 -55 -35 -102 -96 -102 c-67 0 -107 53 -107 115c0 65 39 163 190 163c67 0 197 -30 197 -200c0 -57 -18 -152 -29 -214c-2 -12 -1 -11 13 -17c101 -40 168 -125 168 -238c0 -128 -94 -241 -241 -241c-26 0 -26 0 -29 -18z" /></g></g><g transform="translate(771,0)"><path d="" /></g><g transform="translate(871,0)"><g><g transform="translate(0,-247)"><g><g transform="translate(0,0)"><path d="M20 95c0 10 8 17 20 17h186v63c0 27 -22 35 -40 35c-16 0 -23 9 -23 19s4 21 19 21h213c10 0 20 -7 20 -21s-12 -20 -22 -20s-31 -6 -31 -38v-59h73c10 0 15 -7 15 -19s-4 -19 -15 -19h-73v-214c0 -8 -1 -17 -12 -17c-9 0 -14 2 -20 9l-95 115c-4 5 -9 11 -9 23v84h-135 c80 -68 240 -295 243 -306c0 -2 1 -3 1 -5c0 -8 -7 -14 -15 -14c-9 0 -50 2 -68 2s-63 -2 -71 -2c-9 0 -23 3 -23 19c0 124 -98 263 -128 305l-6 8c0 1 -1 2 -1 3c-2 4 -3 8 -3 11z" /></g></g></g><g transform="translate(0,247)"><g><g transform="translate(0,0)"><path d="M20 95c0 10 8 17 20 17h186v63c0 27 -22 35 -40 35c-16 0 -23 9 -23 19s4 21 19 21h213c10 0 20 -7 20 -21s-12 -20 -22 -20s-31 -6 -31 -38v-59h73c10 0 15 -7 15 -19s-4 -19 -15 -19h-73v-214c0 -8 -1 -17 -12 -17c-9 0 -14 2 -20 9l-95 115c-4 5 -9 11 -9 23v84h-135 c80 -68 240 -295 243 -306c0 -2 1 -3 1 -5c0 -8 -7 -14 -15 -14c-9 0 -50 2 -68 2s-63 -2 -71 -2c-9 0 -23 3 -23 19c0 124 -98 263 -128 305l-6 8c0 1 -1 2 -1 3c-2 4 -3 8 -3 11z" /></g></g></g></g></g><g transform="translate(1341,0)"><g><g transform="translate(0,0)"><path d="" /></g><g transform="translate(100,0)"><g transform="translate(0,250)"><path d="M470 -943c33 0 60 27 60 82c0 111 -95 201 -174 270c-3 2 -5 4 -7 4c-3 0 -5 -4 -6 -12c-4 -26 -6 -60 -6 -92c0 -156 72 -252 133 -252zM430 -103c-2 -11 -1 -14 7 -14h4c81 7 148 75 148 163c0 63 -38 114 -94 142c-5 2 -8 4 -10 4c-4 0 -5 -3 -6 -10zM361 -262 c3 19 3 18 -15 24c-88 30 -145 109 -145 194c0 90 47 154 115 177c8 3 20 6 27 6c8 0 12 -5 12 -11c0 -7 -8 -10 -15 -13c-42 -18 -72 -61 -72 -107c0 -57 39 -100 100 -117c5 -1 9 -2 12 -2c5 0 7 3 8 10l50 298c2 11 1 11 -14 14c-16 3 -36 5 -56 5 c-175 0 -288 -97 -288 -236c0 -170 125 -276 246 -374c4 -3 7 -5 9 -5c3 0 4 3 5 9zM376 -415c-2 -12 0 -13 6 -19c108 -101 190 -228 190 -381c0 -87 -24 -173 -65 -233c-15 -22 -41 -50 -52 -50c-14 0 -45 26 -65 48c-74 82 -98 207 -98 311c0 58 7 123 14 164 c2 12 3 14 -9 24c-144 119 -297 262 -297 464c0 174 119 339 364 339c23 0 49 -2 69 -6c4 -1 6 -1 8 -1c4 0 6 2 7 10c12 67 27 154 27 201c0 148 -100 166 -159 166c-54 0 -80 -16 -80 -29c0 -7 9 -10 32 -17c31 -9 67 -36 67 -94c0 -55 -35 -102 -96 -102 c-67 0 -107 53 -107 115c0 65 39 163 190 163c67 0 197 -30 197 -200c0 -57 -18 -152 -29 -214c-2 -12 -1 -11 13 -17c101 -40 168 -125 168 -238c0 -128 -94 -241 -241 -241c-26 0 -26 0 -29 -18z" /></g></g><g transform="translate(771,0)"><path d="" /></g><g transform="translate(871,0)"><path d="" /></g><g transform="translate(971,0)"><g transform="translate(0,-500)"><path d="M8 209c1 0 3 -1 4 -1c0 0 14 -6 23 -9c1 -1 2 -1 3 -1c7 0 12 11 12 16v123c0 6 6 11 13 11c10 0 17 -5 17 -11v-139c0 -13 5 -20 10 -22l61 -25c1 0 3 -1 4 -1c8 0 13 12 13 18v125c0 6 6 11 13 11c11 0 17 -5 17 -11v-142c0 -8 4 -20 11 -23s28 -11 28 -11 c7 -3 12 -11 12 -17v-71c0 -5 -3 -8 -7 -8c-2 0 -3 0 -5 1l-26 10c-6 0 -13 -6 -13 -18v-93c0 -7 5 -26 13 -29l26 -10c7 -3 12 -11 12 -17v-71c0 -5 -3 -8 -7 -8c-2 0 -3 0 -5 1c0 0 -20 8 -25 9c-7 0 -14 -5 -14 -13v-122c0 -6 -6 -11 -14 -11c-10 0 -16 5 -16 11v130 c-1 10 -4 23 -13 29c-12 7 -46 21 -63 25c-9 0 -12 -12 -12 -20v-120c0 -6 -7 -11 -14 -11c-10 0 -16 5 -16 11v135c0 14 -6 24 -12 27s-26 11 -26 11c-7 2 -12 10 -12 16v71c0 6 3 9 8 9c4 0 23 -9 26 -11c10 0 16 5 16 17v99c0 11 -5 20 -11 23c-6 2 -27 11 -27 11 c-7 2 -12 10 -12 16v71c0 6 3 9 8 9zM80 -44c2 -17 48 -38 73 -38c7 0 13 2 15 6c2 5 4 30 4 57s-2 55 -4 64c-6 20 -53 40 -76 40c-6 0 -11 -2 -12 -5c-2 -4 -3 -26 -3 -50c0 -31 1 -66 3 -74z" /></g></g><g transform="translate(1220,0)"><g transform="translate(0,-125)"><path d="M8 209c1 0 3 -1 4 -1c0 0 14 -6 23 -9c1 -1 2 -1 3 -1c7 0 12 11 12 16v123c0 6 6 11 13 11c10 0 17 -5 17 -11v-139c0 -13 5 -20 10 -22l61 -25c1 0 3 -1 4 -1c8 0 13 12 13 18v125c0 6 6 11 13 11c11 0 17 -5 17 -11v-142c0 -8 4 -20 11 -23s28 -11 28 -11 c7 -3 12 -11 12 -17v-71c0 -5 -3 -8 -7 -8c-2 0 -3 0 -5 1l-26 10c-6 0 -13 -6 -13 -18v-93c0 -7 5 -26 13 -29l26 -10c7 -3 12 -11 12 -17v-71c0 -5 -3 -8 -7 -8c-2 0 -3 0 -5 1c0 0 -20 8 -25 9c-7 0 -14 -5 -14 -13v-122c0 -6 -6 -11 -14 -11c-10 0 -16 5 -16 11v130 c-1 10 -4 23 -13 29c-12 7 -46 21 -63 25c-9 0 -12 -12 -12 -20v-120c0 -6 -7 -11 -14 -11c-10 0 -16 5 -16 11v135c0 14 -6 24 -12 27s-26 11 -26 11c-7 2 -12 10 -12 16v71c0 6 3 9 8 9c4 0 23 -9 26 -11c10 0 16 5 16 17v99c0 11 -5 20 -11 23c-6 2 -27 11 -27 11 c-7 2 -12 10 -12 16v71c0 6 3 9 8 9zM80 -44c2 -17 48 -38 73 -38c7 0 13 2 15 6c2 5 4 30 4 57s-2 55 -4 64c-6 20 -53 40 -76 40c-6 0 -11 -2 -12 -5c-2 -4 -3 -26 -3 -50c0 -31 1 -66 3 -74z" /></g></g><g transform="translate(1469,0)"><g transform="translate(0,-625)"><path d="M8 209c1 0 3 -1 4 -1c0 0 14 -6 23 -9c1 -1 2 -1 3 -1c7 0 12 11 12 16v123c0 6 6 11 13 11c10 0 17 -5 17 -11v-139c0 -13 5 -20 10 -22l61 -25c1 0 3 -1 4 -1c8 0 13 12 13 18v125c0 6 6 11 13 11c11 0 17 -5 17 -11v-142c0 -8 4 -20 11 -23s28 -11 28 -11 c7 -3 12 -11 12 -17v-71c0 -5 -3 -8 -7 -8c-2 0 -3 0 -5 1l-26 10c-6 0 -13 -6 -13 -18v-93c0 -7 5 -26 13 -29l26 -10c7 -3 12 -11 12 -17v-71c0 -5 -3 -8 -7 -8c-2 0 -3 0 -5 1c0 0 -20 8 -25 9c-7 0 -14 -5 -14 -13v-122c0 -6 -6 -11 -14 -11c-10 0 -16 5 -16 11v130 c-1 10 -4 23 -13 29c-12 7 -46 21 -63 25c-9 0 -12 -12 -12 -20v-120c0 -6 -7 -11 -14 -11c-10 0 -16 5 -16 11v135c0 14 -6 24 -12 27s-26 11 -26 11c-7 2 -12 10 -12 16v71c0 6 3 9 8 9c4 0 23 -9 26 -11c10 0 16 5 16 17v99c0 11 -5 20 -11 23c-6 2 -27 11 -27 11 c-7 2 -12 10 -12 16v71c0 6 3 9 8 9zM80 -44c2 -17 48 -38 73 -38c7 0 13 2 15 6c2 5 4 30 4 57s-2 55 -4 64c-6 20 -53 40 -76 40c-6 0 -11 -2 -12 -5c-2 -4 -3 -26 -3 -50c0 -31 1 -66 3 -74z" /></g></g><g transform="translate(1718,0)"><g transform="translate(0,-250)"><path d="M8 209c1 0 3 -1 4 -1c0 0 14 -6 23 -9c1 -1 2 -1 3 -1c7 0 12 11 12 16v123c0 6 6 11 13 11c10 0 17 -5 17 -11v-139c0 -13 5 -20 10 -22l61 -25c1 0 3 -1 4 -1c8 0 13 12 13 18v125c0 6 6 11 13 11c11 0 17 -5 17 -11v-142c0 -8 4 -20 11 -23s28 -11 28 -11 c7 -3 12 -11 12 -17v-71c0 -5 -3 -8 -7 -8c-2 0 -3 0 -5 1l-26 10c-6 0 -13 -6 -13 -18v-93c0 -7 5 -26 13 -29l26 -10c7 -3 12 -11 12 -17v-71c0 -5 -3 -8 -7 -8c-2 0 -3 0 -5 1c0 0 -20 8 -25 9c-7 0 -14 -5 -14 -13v-122c0 -6 -6 -11 -14 -11c-10 0 -16 5 -16 11v130 c-1 10 -4 23 -13 29c-12 7 -46 21 -63 25c-9 0 -12 -12 -12 -20v-120c0 -6 -7 -11 -14 -11c-10 0 -16 5 -16 11v135c0 14 -6 24 -12 27s-26 11 -26 11c-7 2 -12 10 -12 16v71c0 6 3 9 8 9c4 0 23 -9 26 -11c10 0 16 5 16 17v99c0 11 -5 20 -11 23c-6 2 -27 11 -27 11 c-7 2 -12 10 -12 16v71c0 6 3 9 8 9zM80 -44c2 -17 48 -38 73 -38c7 0 13 2 15 6c2 5 4 30 4 57s-2 55 -4 64c-6 20 -53 40 -76 40c-6 0 -11 -2 -12 -5c-2 -4 -3 -26 -3 -50c0 -31 1 -66 3 -74z" /></g></g><g transform="translate(1967,0)"><g transform="translate(0,125)"><path d="M8 209c1 0 3 -1 4 -1c0 0 14 -6 23 -9c1 -1 2 -1 3 -1c7 0 12 11 12 16v123c0 6 6 11 13 11c10 0 17 -5 17 -11v-139c0 -13 5 -20 10 -22l61 -25c1 0 3 -1 4 -1c8 0 13 12 13 18v125c0 6 6 11 13 11c11 0 17 -5 17 -11v-142c0 -8 4 -20 11 -23s28 -11 28 -11 c7 -3 12 -11 12 -17v-71c0 -5 -3 -8 -7 -8c-2 0 -3 0 -5 1l-26 10c-6 0 -13 -6 -13 -18v-93c0 -7 5 -26 13 -29l26 -10c7 -3 12 -11 12 -17v-71c0 -5 -3 -8 -7 -8c-2 0 -3 0 -5 1c0 0 -20 8 -25 9c-7 0 -14 -5 -14 -13v-122c0 -6 -6 -11 -14 -11c-10 0 -16 5 -16 11v130 c-1 10 -4 23 -13 29c-12 7 -46 21 -63 25c-9 0 -12 -12 -12 -20v-120c0 -6 -7 -11 -14 -11c-10 0 -16 5 -16 11v135c0 14 -6 24 -12 27s-26 11 -26 11c-7 2 -12 10 -12 16v71c0 6 3 9 8 9c4 0 23 -9 26 -11c10 0 16 5 16 17v99c0 11 -5 20 -11 23c-6 2 -27 11 -27 11 c-7 2 -12 10 -12 16v71c0 6 3 9 8 9zM80 -44c2 -17 48 -38 73 -38c7 0 13 2 15 6c2 5 4 30 4 57s-2 55 -4 64c-6 20 -53 40 -76 40c-6 0 -11 -2 -12 -5c-2 -4 -3 -26 -3 -50c0 -31 1 -66 3 -74z" /></g></g><g transform="translate(2216,0)"><g transform="translate(0,-375)"><path d="M8 209c1 0 3 -1 4 -1c0 0 14 -6 23 -9c1 -1 2 -1 3 -1c7 0 12 11 12 16v123c0 6 6 11 13 11c10 0 17 -5 17 -11v-139c0 -13 5 -20 10 -22l61 -25c1 0 3 -1 4 -1c8 0 13 12 13 18v125c0 6 6 11 13 11c11 0 17 -5 17 -11v-142c0 -8 4 -20 11 -23s28 -11 28 -11 c7 -3 12 -11 12 -17v-71c0 -5 -3 -8 -7 -8c-2 0 -3 0 -5 1l-26 10c-6 0 -13 -6 -13 -18v-93c0 -7 5 -26 13 -29l26 -10c7 -3 12 -11 12 -17v-71c0 -5 -3 -8 -7 -8c-2 0 -3 0 -5 1c0 0 -20 8 -25 9c-7 0 -14 -5 -14 -13v-122c0 -6 -6 -11 -14 -11c-10 0 -16 5 -16 11v130 c-1 10 -4 23 -13 29c-12 7 -46 21 -63 25c-9 0 -12 -12 -12 -20v-120c0 -6 -7 -11 -14 -11c-10 0 -16 5 -16 11v135c0 14 -6 24 -12 27s-26 11 -26 11c-7 2 -12 10 -12 16v71c0 6 3 9 8 9c4 0 23 -9 26 -11c10 0 16 5 16 17v99c0 11 -5 20 -11 23c-6 2 -27 11 -27 11 c-7 2 -12 10 -12 16v71c0 6 3 9 8 9zM80 -44c2 -17 48 -38 73 -38c7 0 13 2 15 6c2 5 4 30 4 57s-2 55 -4 64c-6 20 -53 40 -76 40c-6 0 -11 -2 -12 -5c-2 -4 -3 -26 -3 -50c0 -31 1 -66 3 -74z" /></g></g><g transform="translate(2465,0)"><path d="" /></g><g transform="translate(2565,0)"><g><g transform="translate(0,-247)"><g><g transform="translate(0,0)"><path d="M20 95c0 10 8 17 20 17h186v63c0 27 -22 35 -40 35c-16 0 -23 9 -23 19s4 21 19 21h213c10 0 20 -7 20 -21s-12 -20 -22 -20s-31 -6 -31 -38v-59h73c10 0 15 -7 15 -19s-4 -19 -15 -19h-73v-214c0 -8 -1 -17 -12 -17c-9 0 -14 2 -20 9l-95 115c-4 5 -9 11 -9 23v84h-135 c80 -68 240 -295 243 -306c0 -2 1 -3 1 -5c0 -8 -7 -14 -15 -14c-9 0 -50 2 -68 2s-63 -2 -71 -2c-9 0 -23 3 -23 19c0 124 -98 263 -128 305l-6 8c0 1 -1 2 -1 3c-2 4 -3 8 -3 11z" /></g></g></g><g transform="translate(0,247)"><g><g transform="translate(0,0)"><path d="M20 95c0 10 8 17 20 17h186v63c0 27 -22 35 -40 35c-16 0 -23 9 -23 19s4 21 19 21h213c10 0 20 -7 20 -21s-12 -20 -22 -20s-31 -6 -31 -38v-59h73c10 0 15 -7 15 -19s-4 -19 -15 -19h-73v-214c0 -8 -1 -17 -12 -17c-9 0 -14 2 -20 9l-95 115c-4 5 -9 11 -9 23v84h-135 c80 -68 240 -295 243 -306c0 -2 1 -3 1 -5c0 -8 -7 -14 -15 -14c-9 0 -50 2 -68 2s-63 -2 -71 -2c-9 0 -23 3 -23 19c0 124 -98 263 -128 305l-6 8c0 1 -1 2 -1 3c-2 4 -3 8 -3 11z" /></g></g></g></g></g></g></g><g transform="translate(4376,0)"><g><g transform="translate(0,0)"><path d="" /></g><g transform="translate(100,0)"><g transform="translate(0,250)"><path d="M470 -943c33 0 60 27 60 82c0 111 -95 201 -174 270c-3 2 -5 4 -7 4c-3 0 -5 -4 -6 -12c-4 -26 -6 -60 -6 -92c0 -156 72 -252 133 -252zM430 -103c-2 -11 -1 -14 7 -14h4c81 7 148 75 148 163c0 63 -38 114 -94 142c-5 2 -8 4 -10 4c-4 0 -5 -3 -6 -10zM361 -262 c3 19 3 18 -15 24c-88 30 -145 109 -145 194c0 90 47 154 115 177c8 3 20 6 27 6c8 0 12 -5 12 -11c0 -7 -8 -10 -15 -13c-42 -18 -72 -61 -72 -107c0 -57 39 -100 100 -117c5 -1 9 -2 12 -2c5 0 7 3 8 10l50 298c2 11 1 11 -14 14c-16 3 -36 5 -56 5 c-175 0 -288 -97 -288 -236c0 -170 125 -276 246 -374c4 -3 7 -5 9 -5c3 0 4 3 5 9zM376 -415c-2 -12 0 -13 6 -19c108 -101 190 -228 190 -381c0 -87 -24 -173 -65 -233c-15 -22 -41 -50 -52 -50c-14 0 -45 26 -65 48c-74 82 -98 207 -98 311c0 58 7 123 14 164 c2 12 3 14 -9 24c-144 119 -297 262 -297 464c0 174 119 339 364 339c23 0 49 -2 69 -6c4 -1 6 -1 8 -1c4 0 6 2 7 10c12 67 27 154 27 201c0 148 -100 166 -159 166c-54 0 -80 -16 -80 -29c0 -7 9 -10 32 -17c31 -9 67 -36 67 -94c0 -55 -35 -102 -96 -102 c-67 0 -107 53 -107 115c0 65 39 163 190 163c67 0 197 -30 197 -200c0 -57 -18 -152 -29 -214c-2 -12 -1 -11 13 -17c101 -40 168 -125 168 -238c0 -128 -94 -241 -241 -241c-26 0 -26 0 -29 -18z" /></g></g><g transform="translate(771,0)"><path d="" /></g><g transform="translate(871,0)"><path d="" /></g><g transform="translate(971,0)"><g transform="translate(0,0)"><path d="M47 81c0 0 -3 -60 -3 -100c0 -16 1 -28 2 -32c7 -20 47 -49 70 -49c29 0 41 33 41 58c0 54 -46 108 -89 135c-4 2 -7 3 -10 3c-9 0 -11 -10 -11 -15zM12 170c3 4 6 5 9 5s6 -2 6 -2c30 -17 54 -44 79 -61c89 -62 120 -123 120 -169c0 -57 -44 -93 -90 -96 c-17 0 -41 8 -55 17c-6 5 -17 14 -22 14c-2 0 -3 0 -5 -1c-7 -3 -11 -10 -11 -17c1 -22 7 -262 7 -282c0 -11 -9 -17 -19 -17c-14 0 -30 10 -31 28c0 0 4 571 12 581z" /></g></g><g transform="translate(1197,0)"><g transform="translate(0,-375)"><path d="M47 81c0 0 -3 -60 -3 -100c0 -16 1 -28 2 -32c7 -20 47 -49 70 -49c29 0 41 33 41 58c0 54 -46 108 -89 135c-4 2 -7 3 -10 3c-9 0 -11 -10 -11 -15zM12 170c3 4 6 5 9 5s6 -2 6 -2c30 -17 54 -44 79 -61c89 -62 120 -123 120 -169c0 -57 -44 -93 -90 -96 c-17 0 -41 8 -55 17c-6 5 -17 14 -22 14c-2 0 -3 0 -5 -1c-7 -3 -11 -10 -11 -17c1 -22 7 -262 7 -282c0 -11 -9 -17 -19 -17c-14 0 -30 10 -31 28c0 0 4 571 12 581z" /></g></g><g transform="translate(1423,0)"><g transform="translate(0,125)"><path d="M47 81c0 0 -3 -60 -3 -100c0 -16 1 -28 2 -32c7 -20 47 -49 70 -49c29 0 41 33 41 58c0 54 -46 108 -89 135c-4 2 -7 3 -10 3c-9 0 -11 -10 -11 -15zM12 170c3 4 6 5 9 5s6 -2 6 -2c30 -17 54 -44 79 -61c89 -62 120 -123 120 -169c0 -57 -44 -93 -90 -96 c-17 0 -41 8 -55 17c-6 5 -17 14 -22 14c-2 0 -3 0 -5 -1c-7 -3 -11 -10 -11 -17c1 -22 7 -262 7 -282c0 -11 -9 -17 -19 -17c-14 0 -30 10 -31 28c0 0 4 571 12 581z" /></g></g><g transform="translate(1649,0)"><g transform="translate(0,-250)"><path d="M47 81c0 0 -3 -60 -3 -100c0 -16 1 -28 2 -32c7 -20 47 -49 70 -49c29 0 41 33 41 58c0 54 -46 108 -89 135c-4 2 -7 3 -10 3c-9 0 -11 -10 -11 -15zM12 170c3 4 6 5 9 5s6 -2 6 -2c30 -17 54 -44 79 -61c89 -62 120 -123 120 -169c0 -57 -44 -93 -90 -96 c-17 0 -41 8 -55 17c-6 5 -17 14 -22 14c-2 0 -3 0 -5 -1c-7 -3 -11 -10 -11 -17c1 -22 7 -262 7 -282c0 -11 -9 -17 -19 -17c-14 0 -30 10 -31 28c0 0 4 571 12 581z" /></g></g><g transform="translate(1875,0)"><g transform="translate(0,250)"><path d="M47 81c0 0 -3 -60 -3 -100c0 -16 1 -28 2 -32c7 -20 47 -49 70 -49c29 0 41 33 41 58c0 54 -46 108 -89 135c-4 2 -7 3 -10 3c-9 0 -11 -10 -11 -15zM12 170c3 4 6 5 9 5s6 -2 6 -2c30 -17 54 -44 79 -61c89 -62 120 -123 120 -169c0 -57 -44 -93 -90 -96 c-17 0 -41 8 -55 17c-6 5 -17 14 -22 14c-2 0 -3 0 -5 -1c-7 -3 -11 -10 -11 -17c1 -22 7 -262 7 -282c0 -11 -9 -17 -19 -17c-14 0 -30 10 -31 28c0 0 4 571 12 581z" /></g></g><g transform="translate(2101,0)"><g transform="translate(0,-125)"><path d="M47 81c0 0 -3 -60 -3 -100c0 -16 1 -28 2 -32c7 -20 47 -49 70 -49c29 0 41 33 41 58c0 54 -46 108 -89 135c-4 2 -7 3 -10 3c-9 0 -11 -10 -11 -15zM12 170c3 4 6 5 9 5s6 -2 6 -2c30 -17 54 -44 79 -61c89 -62 120 -123 120 -169c0 -57 -44 -93 -90 -96 c-17 0 -41 8 -55 17c-6 5 -17 14 -22 14c-2 0 -3 0 -5 -1c-7 -3 -11 -10 -11 -17c1 -22 7 -262 7 -282c0 -11 -9 -17 -19 -17c-14 0 -30 10 -31 28c0 0 4 571 12 581z" /></g></g><g transform="translate(2327,0)"><path d="" /></g><g transform="translate(2427,0)"><g><g transform="translate(0,-247)"><g><g transform="translate(0,0)"><path d="M20 95c0 10 8 17 20 17h186v63c0 27 -22 35 -40 35c-16 0 -23 9 -23 19s4 21 19 21h213c10 0 20 -7 20 -21s-12 -20 -22 -20s-31 -6 -31 -38v-59h73c10 0 15 -7 15 -19s-4 -19 -15 -19h-73v-214c0 -8 -1 -17 -12 -17c-9 0 -14 2 -20 9l-95 115c-4 5 -9 11 -9 23v84h-135 c80 -68 240 -295 243 -306c0 -2 1 -3 1 -5c0 -8 -7 -14 -15 -14c-9 0 -50 2 -68 2s-63 -2 -71 -2c-9 0 -23 3 -23 19c0 124 -98 263 -128 305l-6 8c0 1 -1 2 -1 3c-2 4 -3 8 -3 11z" /></g></g></g><g transform="translate(0,247)"><g><g transform="translate(0,0)"><path d="M20 95c0 10 8 17 20 17h186v63c0 27 -22 35 -40 35c-16 0 -23 9 -23 19s4 21 19 21h213c10 0 20 -7 20 -21s-12 -20 -22 -20s-31 -6 -31 -38v-59h73c10 0 15 -7 15 -19s-4 -19 -15 -19h-73v-214c0 -8 -1 -17 -12 -17c-9 0 -14 2 -20 9l-95 115c-4 5 -9 11 -9 23v84h-135 c80 -68 240 -295 243 -306c0 -2 1 -3 1 -5c0 -8 -7 -14 -15 -14c-9 0 -50 2 -68 2s-63 -2 -71 -2c-9 0 -23 3 -23 19c0 124 -98 263 -128 305l-6 8c0 1 -1 2 -1 3c-2 4 -3 8 -3 11z" /></g></g></g></g></g></g></g><g transform="translate(7273,0)"><g><g transform="translate(0,0)"><path d="" /></g><g transform="translate(100,0)"><g transform="translate(0,-250)"><path d="M252 -262c-174 0 -252 127 -252 223c0 80 42 149 123 149c63 0 106 -44 106 -106c0 -64 -47 -104 -96 -104c-27 0 -37 7 -50 7s-16 -8 -16 -18c0 -40 60 -113 162 -113c106 0 152 104 152 261c0 279 -138 435 -371 568c-9 5 -15 10 -15 18c0 6 4 12 13 12 c5 0 11 -2 17 -5c246 -120 506 -298 506 -602c0 -174 -106 -290 -279 -290zM630 71c-31 0 -54 23 -54 54s23 54 54 54s54 -23 54 -54s-23 -54 -54 -54zM629 -180c-31 0 -55 24 -55 55s24 55 55 55s55 -24 55 -55s-24 -55 -55 -55z" /></g></g><g transform="translate(784,0)"><path d="" /></g><g transform="translate(884,0)"><path d="" /></g><g transform="translate(984,0)"><g transform="translate(0,-250)"><path d="M8 209c1 0 3 -1 4 -1c0 0 14 -6 23 -9c1 -1 2 -1 3 -1c7 0 12 11 12 16v123c0 6 6 11 13 11c10 0 17 -5 17 -11v-139c0 -13 5 -20 10 -22l61 -25c1 0 3 -1 4 -1c8 0 13 12 13 18v125c0 6 6 11 13 11c11 0 17 -5 17 -11v-142c0 -8 4 -20 11 -23s28 -11 28 -11 c7 -3 12 -11 12 -17v-71c0 -5 -3 -8 -7 -8c-2 0 -3 0 -5 1l-26 10c-6 0 -13 -6 -13 -18v-93c0 -7 5 -26 13 -29l26 -10c7 -3 12 -11 12 -17v-71c0 -5 -3 -8 -7 -8c-2 0 -3 0 -5 1c0 0 -20 8 -25 9c-7 0 -14 -5 -14 -13v-122c0 -6 -6 -11 -14 -11c-10 0 -16 5 -16 11v130 c-1 10 -4 23 -13 29c-12 7 -46 21 -63 25c-9 0 -12 -12 -12 -20v-120c0 -6 -7 -11 -14 -11c-10 0 -16 5 -16 11v135c0 14 -6 24 -12 27s-26 11 -26 11c-7 2 -12 10 -12 16v71c0 6 3 9 8 9c4 0 23 -9 26 -11c10 0 16 5 16 17v99c0 11 -5 20 -11 23c-6 2 -27 11 -27 11 c-7 2 -12 10 -12 16v71c0 6 3 9 8 9zM80 -44c2 -17 48 -38 73 -38c7 0 13 2 15 6c2 5 4 30 4 57s-2 55 -4 64c-6 20 -53 40 -76 40c-6 0 -11 -2 -12 -5c-2 -4 -3 -26 -3 -50c0 -31 1 -66 3 -74z" /></g></g><g transform="translate(1233,0)"><g transform="translate(0,125)"><path d="M8 209c1 0 3 -1 4 -1c0 0 14 -6 23 -9c1 -1 2 -1 3 -1c7 0 12 11 12 16v123c0 6 6 11 13 11c10 0 17 -5 17 -11v-139c0 -13 5 -20 10 -22l61 -25c1 0 3 -1 4 -1c8 0 13 12 13 18v125c0 6 6 11 13 11c11 0 17 -5 17 -11v-142c0 -8 4 -20 11 -23s28 -11 28 -11 c7 -3 12 -11 12 -17v-71c0 -5 -3 -8 -7 -8c-2 0 -3 0 -5 1l-26 10c-6 0 -13 -6 -13 -18v-93c0 -7 5 -26 13 -29l26 -10c7 -3 12 -11 12 -17v-71c0 -5 -3 -8 -7 -8c-2 0 -3 0 -5 1c0 0 -20 8 -25 9c-7 0 -14 -5 -14 -13v-122c0 -6 -6 -11 -14 -11c-10 0 -16 5 -16 11v130 c-1 10 -4 23 -13 29c-12 7 -46 21 -63 25c-9 0 -12 -12 -12 -20v-120c0 -6 -7 -11 -14 -11c-10 0 -16 5 -16 11v135c0 14 -6 24 -12 27s-26 11 -26 11c-7 2 -12 10 -12 16v71c0 6 3 9 8 9c4 0 23 -9 26 -11c10 0 16 5 16 17v99c0 11 -5 20 -11 23c-6 2 -27 11 -27 11 c-7 2 -12 10 -12 16v71c0 6 3 9 8 9zM80 -44c2 -17 48 -38 73 -38c7 0 13 2 15 6c2 5 4 30 4 57s-2 55 -4 64c-6 20 -53 40 -76 40c-6 0 -11 -2 -12 -5c-2 -4 -3 -26 -3 -50c0 -31 1 -66 3 -74z" /></g></g><g transform="translate(1482,0)"><g transform="translate(0,-375)"><path d="M8 209c1 0 3 -1 4 -1c0 0 14 -6 23 -9c1 -1 2 -1 3 -1c7 0 12 11 12 16v123c0 6 6 11 13 11c10 0 17 -5 17 -11v-139c0 -13 5 -20 10 -22l61 -25c1 0 3 -1 4 -1c8 0 13 12 13 18v125c0 6 6 11 13 11c11 0 17 -5 17 -11v-142c0 -8 4 -20 11 -23s28 -11 28 -11 c7 -3 12 -11 12 -17v-71c0 -5 -3 -8 -7 -8c-2 0 -3 0 -5 1l-26 10c-6 0 -13 -6 -13 -18v-93c0 -7 5 -26 13 -29l26 -10c7 -3 12 -11 12 -17v-71c0 -5 -3 -8 -7 -8c-2 0 -3 0 -5 1c0 0 -20 8 -25 9c-7 0 -14 -5 -14 -13v-122c0 -6 -6 -11 -14 -11c-10 0 -16 5 -16 11v130 c-1 10 -4 23 -13 29c-12 7 -46 21 -63 25c-9 0 -12 -12 -12 -20v-120c0 -6 -7 -11 -14 -11c-10 0 -16 5 -16 11v135c0 14 -6 24 -12 27s-26 11 -26 11c-7 2 -12 10 -12 16v71c0 6 3 9 8 9c4 0 23 -9 26 -11c10 0 16 5 16 17v99c0 11 -5 20 -11 23c-6 2 -27 11 -27 11 c-7 2 -12 10 -12 16v71c0 6 3 9 8 9zM80 -44c2 -17 48 -38 73 -38c7 0 13 2 15 6c2 5 4 30 4 57s-2 55 -4 64c-6 20 -53 40 -76 40c-6 0 -11 -2 -12 -5c-2 -4 -3 -26 -3 -50c0 -31 1 -66 3 -74z" /></g></g><g transform="translate(1731,0)"><g transform="translate(0,0)"><path d="M8 209c1 0 3 -1 4 -1c0 0 14 -6 23 -9c1 -1 2 -1 3 -1c7 0 12 11 12 16v123c0 6 6 11 13 11c10 0 17 -5 17 -11v-139c0 -13 5 -20 10 -22l61 -25c1 0 3 -1 4 -1c8 0 13 12 13 18v125c0 6 6 11 13 11c11 0 17 -5 17 -11v-142c0 -8 4 -20 11 -23s28 -11 28 -11 c7 -3 12 -11 12 -17v-71c0 -5 -3 -8 -7 -8c-2 0 -3 0 -5 1l-26 10c-6 0 -13 -6 -13 -18v-93c0 -7 5 -26 13 -29l26 -10c7 -3 12 -11 12 -17v-71c0 -5 -3 -8 -7 -8c-2 0 -3 0 -5 1c0 0 -20 8 -25 9c-7 0 -14 -5 -14 -13v-122c0 -6 -6 -11 -14 -11c-10 0 -16 5 -16 11v130 c-1 10 -4 23 -13 29c-12 7 -46 21 -63 25c-9 0 -12 -12 -12 -20v-120c0 -6 -7 -11 -14 -11c-10 0 -16 5 -16 11v135c0 14 -6 24 -12 27s-26 11 -26 11c-7 2 -12 10 -12 16v71c0 6 3 9 8 9c4 0 23 -9 26 -11c10 0 16 5 16 17v99c0 11 -5 20 -11 23c-6 2 -27 11 -27 11 c-7 2 -12 10 -12 16v71c0 6 3 9 8 9zM80 -44c2 -17 48 -38 73 -38c7 0 13 2 15 6c2 5 4 30 4 57s-2 55 -4 64c-6 20 -53 40 -76 40c-6 0 -11 -2 -12 -5c-2 -4 -3 -26 -3 -50c0 -31 1 -66 3 -74z" /></g></g><g transform="translate(1980,0)"><g transform="translate(0,375)"><path d="M8 209c1 0 3 -1 4 -1c0 0 14 -6 23 -9c1 -1 2 -1 3 -1c7 0 12 11 12 16v123c0 6 6 11 13 11c10 0 17 -5 17 -11v-139c0 -13 5 -20 10 -22l61 -25c1 0 3 -1 4 -1c8 0 13 12 13 18v125c0 6 6 11 13 11c11 0 17 -5 17 -11v-142c0 -8 4 -20 11 -23s28 -11 28 -11 c7 -3 12 -11 12 -17v-71c0 -5 -3 -8 -7 -8c-2 0 -3 0 -5 1l-26 10c-6 0 -13 -6 -13 -18v-93c0 -7 5 -26 13 -29l26 -10c7 -3 12 -11 12 -17v-71c0 -5 -3 -8 -7 -8c-2 0 -3 0 -5 1c0 0 -20 8 -25 9c-7 0 -14 -5 -14 -13v-122c0 -6 -6 -11 -14 -11c-10 0 -16 5 -16 11v130 c-1 10 -4 23 -13 29c-12 7 -46 21 -63 25c-9 0 -12 -12 -12 -20v-120c0 -6 -7 -11 -14 -11c-10 0 -16 5 -16 11v135c0 14 -6 24 -12 27s-26 11 -26 11c-7 2 -12 10 -12 16v71c0 6 3 9 8 9c4 0 23 -9 26 -11c10 0 16 5 16 17v99c0 11 -5 20 -11 23c-6 2 -27 11 -27 11 c-7 2 -12 10 -12 16v71c0 6 3 9 8 9zM80 -44c2 -17 48 -38 73 -38c7 0 13 2 15 6c2 5 4 30 4 57s-2 55 -4 64c-6 20 -53 40 -76 40c-6 0 -11 -2 -12 -5c-2 -4 -3 -26 -3 -50c0 -31 1 -66 3 -74z" /></g></g><g transform="translate(2229,0)"><g transform="translate(0,-125)"><path d="M8 209c1 0 3 -1 4 -1c0 0 14 -6 23 -9c1 -1 2 -1 3 -1c7 0 12 11 12 16v123c0 6 6 11 13 11c10 0 17 -5 17 -11v-139c0 -13 5 -20 10 -22l61 -25c1 0 3 -1 4 -1c8 0 13 12 13 18v125c0 6 6 11 13 11c11 0 17 -5 17 -11v-142c0 -8 4 -20 11 -23s28 -11 28 -11 c7 -3 12 -11 12 -17v-71c0 -5 -3 -8 -7 -8c-2 0 -3 0 -5 1l-26 10c-6 0 -13 -6 -13 -18v-93c0 -7 5 -26 13 -29l26 -10c7 -3 12 -11 12 -17v-71c0 -5 -3 -8 -7 -8c-2 0 -3 0 -5 1c0 0 -20 8 -25 9c-7 0 -14 -5 -14 -13v-122c0 -6 -6 -11 -14 -11c-10 0 -16 5 -16 11v130 c-1 10 -4 23 -13 29c-12 7 -46 21 -63 25c-9 0 -12 -12 -12 -20v-120c0 -6 -7 -11 -14 -11c-10 0 -16 5 -16 11v135c0 14 -6 24 -12 27s-26 11 -26 11c-7 2 -12 10 -12 16v71c0 6 3 9 8 9c4 0 23 -9 26 -11c10 0 16 5 16 17v99c0 11 -5 20 -11 23c-6 2 -27 11 -27 11 c-7 2 -12 10 -12 16v71c0 6 3 9 8 9zM80 -44c2 -17 48 -38 73 -38c7 0 13 2 15 6c2 5 4 30 4 57s-2 55 -4 64c-6 20 -53 40 -76 40c-6 0 -11 -2 -12 -5c-2 -4 -3 -26 -3 -50c0 -31 1 -66 3 -74z" /></g></g><g transform="translate(2478,0)"><path d="" /></g><g transform="translate(2578,0)"><g><g transform="translate(1,-247)"><g><g transform="translate(0,0)"><path d="M305 -83c42 0 80 -33 80 -76c0 -4 0 -7 -1 -11c-10 -64 -88 -81 -142 -81c-76 1 -147 38 -183 106c-22 42 -39 95 -39 142v4c1 46 9 98 31 138c41 74 90 110 174 110c45 0 95 -7 131 -36c35 -28 58 -73 58 -118c0 -78 -74 -145 -151 -145c-32 0 -65 12 -91 35 c-2 2 -4 2 -6 2c-6 0 -9 -8 -9 -24c3 -185 62 -190 83 -190c20 0 33 5 33 15c0 14 -19 26 -25 38c-5 9 -7 19 -7 29c0 15 5 30 15 41c7 13 36 21 49 21zM222 -2c32 0 59 50 59 112s-27 112 -59 112s-58 -50 -58 -112s26 -112 58 -112z" /></g></g></g><g transform="translate(0,247)"><g><g transform="translate(0,0)"><path d="M334 -36c36 -23 60 -56 60 -106c0 -102 -147 -117 -174 -117c-116 0 -195 53 -195 137c0 69 39 106 87 133c-52 25 -92 58 -92 121c0 87 90 127 189 127c100 0 207 -43 207 -178c0 -60 -35 -93 -82 -117zM205 226c-67 0 -128 -34 -128 -99c0 -40 35 -77 79 -94 c73 32 147 53 147 119c0 40 -31 74 -98 74zM282 -59c-80 -28 -165 -45 -165 -108c0 -42 57 -63 101 -63c32 0 117 16 117 86c0 40 -20 66 -53 85z" /></g></g></g></g></g></g></g><g transform="translate(10287,0)"><g><g transform="translate(0,0)"><path d="" /></g><g transform="translate(100,0)"><g transform="translate(0,-250)"><path d="M252 -262c-174 0 -252 127 -252 223c0 80 42 149 123 149c63 0 106 -44 106 -106c0 -64 -47 -104 -96 -104c-27 0 -37 7 -50 7s-16 -8 -16 -18c0 -40 60 -113 162 -113c106 0 152 104 152 261c0 279 -138 435 -371 568c-9 5 -15 10 -15 18c0 6 4 12 13 12 c5 0 11 -2 17 -5c246 -120 506 -298 506 -602c0 -174 -106 -290 -279 -290zM630 71c-31 0 -54 23 -54 54s23 54 54 54s54 -23 54 -54s-23 -54 -54 -54zM629 -180c-31 0 -55 24 -55 55s24 55 55 55s55 -24 55 -55s-24 -55 -55 -55z" /></g></g><g transform="translate(784,0)"><path d="" /></g><g transform="translate(884,0)"><path d="" /></g><g transform="translate(984,0)"><g transform="translate(0,250)"><path d="M47 81c0 0 -3 -60 -3 -100c0 -16 1 -28 2 -32c7 -20 47 -49 70 -49c29 0 41 33 41 58c0 54 -46 108 -89 135c-4 2 -7 3 -10 3c-9 0 -11 -10 -11 -15zM12 170c3 4 6 5 9 5s6 -2 6 -2c30 -17 54 -44 79 -61c89 -62 120 -123 120 -169c0 -57 -44 -93 -90 -96 c-17 0 -41 8 -55 17c-6 5 -17 14 -22 14c-2 0 -3 0 -5 -1c-7 -3 -11 -10 -11 -17c1 -22 7 -262 7 -282c0 -11 -9 -17 -19 -17c-14 0 -30 10 -31 28c0 0 4 571 12 581z" /></g></g><g transform="translate(1210,0)"><g transform="translate(0,-125)"><path d="M47 81c0 0 -3 -60 -3 -100c0 -16 1 -28 2 -32c7 -20 47 -49 70 -49c29 0 41 33 41 58c0 54 -46 108 -89 135c-4 2 -7 3 -10 3c-9 0 -11 -10 -11 -15zM12 170c3 4 6 5 9 5s6 -2 6 -2c30 -17 54 -44 79 -61c89 -62 120 -123 120 -169c0 -57 -44 -93 -90 -96 c-17 0 -41 8 -55 17c-6 5 -17 14 -22 14c-2 0 -3 0 -5 -1c-7 -3 -11 -10 -11 -17c1 -22 7 -262 7 -282c0 -11 -9 -17 -19 -17c-14 0 -30 10 -31 28c0 0 4 571 12 581z" /></g></g><g transform="translate(1436,0)"><g transform="translate(0,375)"><path d="M47 81c0 0 -3 -60 -3 -100c0 -16 1 -28 2 -32c7 -20 47 -49 70 -49c29 0 41 33 41 58c0 54 -46 108 -89 135c-4 2 -7 3 -10 3c-9 0 -11 -10 -11 -15zM12 170c3 4 6 5 9 5s6 -2 6 -2c30 -17 54 -44 79 -61c89 -62 120 -123 120 -169c0 -57 -44 -93 -90 -96 c-17 0 -41 8 -55 17c-6 5 -17 14 -22 14c-2 0 -3 0 -5 -1c-7 -3 -11 -10 -11 -17c1 -22 7 -262 7 -282c0 -11 -9 -17 -19 -17c-14 0 -30 10 -31 28c0 0 4 571 12 581z" /></g></g><g transform="translate(1662,0)"><g transform="translate(0,0)"><path d="M47 81c0 0 -3 -60 -3 -100c0 -16 1 -28 2 -32c7 -20 47 -49 70 -49c29 0 41 33 41 58c0 54 -46 108 -89 135c-4 2 -7 3 -10 3c-9 0 -11 -10 -11 -15zM12 170c3 4 6 5 9 5s6 -2 6 -2c30 -17 54 -44 79 -61c89 -62 120 -123 120 -169c0 -57 -44 -93 -90 -96 c-17 0 -41 8 -55 17c-6 5 -17 14 -22 14c-2 0 -3 0 -5 -1c-7 -3 -11 -10 -11 -17c1 -22 7 -262 7 -282c0 -11 -9 -17 -19 -17c-14 0 -30 10 -31 28c0 0 4 571 12 581z" /></g></g><g transform="translate(1888,0)"><g transform="translate(0,500)"><path d="M47 81c0 0 -3 -60 -3 -100c0 -16 1 -28 2 -32c7 -20 47 -49 70 -49c29 0 41 33 41 58c0 54 -46 108 -89 135c-4 2 -7 3 -10 3c-9 0 -11 -10 -11 -15zM12 170c3 4 6 5 9 5s6 -2 6 -2c30 -17 54 -44 79 -61c89 -62 120 -123 120 -169c0 -57 -44 -93 -90 -96 c-17 0 -41 8 -55 17c-6 5 -17 14 -22 14c-2 0 -3 0 -5 -1c-7 -3 -11 -10 -11 -17c1 -22 7 -262 7 -282c0 -11 -9 -17 -19 -17c-14 0 -30 10 -31 28c0 0 4 571 12 581z" /></g></g><g transform="translate(2114,0)"><g transform="translate(0,125)"><path d="M47 81c0 0 -3 -60 -3 -100c0 -16 1 -28 2 -32c7 -20 47 -49 70 -49c29 0 41 33 41 58c0 54 -46 108 -89 135c-4 2 -7 3 -10 3c-9 0 -11 -10 -11 -15zM12 170c3 4 6 5 9 5s6 -2 6 -2c30 -17 54 -44 79 -61c89 -62 120 -123 120 -169c0 -57 -44 -93 -90 -96 c-17 0 -41 8 -55 17c-6 5 -17 14 -22 14c-2 0 -3 0 -5 -1c-7 -3 -11 -10 -11 -17c1 -22 7 -262 7 -282c0 -11 -9 -17 -19 -17c-14 0 -30 10 -31 28c0 0 4 571 12 581z" /></g></g><g transform="translate(2340,0)"><path d="" /></g><g transform="translate(2440,0)"><g><g transform="translate(1,-247)"><g><g transform="translate(0,0)"><path d="M305 -83c42 0 80 -33 80 -76c0 -4 0 -7 -1 -11c-10 -64 -88 -81 -142 -81c-76 1 -147 38 -183 106c-22 42 -39 95 -39 142v4c1 46 9 98 31 138c41 74 90 110 174 110c45 0 95 -7 131 -36c35 -28 58 -73 58 -118c0 -78 -74 -145 -151 -145c-32 0 -65 12 -91 35 c-2 2 -4 2 -6 2c-6 0 -9 -8 -9 -24c3 -185 62 -190 83 -190c20 0 33 5 33 15c0 14 -19 26 -25 38c-5 9 -7 19 -7 29c0 15 5 30 15 41c7 13 36 21 49 21zM222 -2c32 0 59 50 59 112s-27 112 -59 112s-58 -50 -58 -112s26 -112 58 -112z" /></g></g></g><g transform="translate(0,247)"><g><g transform="translate(0,0)"><path d="M334 -36c36 -23 60 -56 60 -106c0 -102 -147 -117 -174 -117c-116 0 -195 53 -195 137c0 69 39 106 87 133c-52 25 -92 58 -92 121c0 87 90 127 189 127c100 0 207 -43 207 -178c0 -60 -35 -93 -82 -117zM205 226c-67 0 -128 -34 -128 -99c0 -40 35 -77 79 -94 c73 32 147 53 147 119c0 40 -31 74 -98 74zM282 -59c-80 -28 -165 -45 -165 -108c0 -42 57 -63 101 -63c32 0 117 16 117 86c0 40 -20 66 -53 85z" /></g></g></g></g></g></g></g></g></g></svg>
