<svg viewBox="0 0 30843 39914" width="215.9mm" height="279.4mm" xmlns="http://www.w3.org/2000/svg" xmlns:xlink="http://www.w3.org/1999/xlink"><g><g transform="translate(0,5500)"><g><g><g transform="translate(2500,-500)"><path d="M16.25 -16.249999999999996L7793.419642857143 -16.249999999999996C7802.394270857143 -16.249999999999996 7809.669642857143 -8.974628 7809.669642857143 0C7809.669642857143 8.974628 7802.394270857143 16.249999999999996 7793.419642857143 16.249999999999996L16.25 16.249999999999996C7.275372000000001 16.249999999999996 0.000000000000003552713678800501 8.974628 0.000000000000003552713678800501 0C0.000000000000003552713678800501 -8.974628 7.275372000000001 -16.249999999999996 16.25 -16.249999999999996Z" /></g><g transform="translate(2500,-250)"><path d="M16.25 -16.249999999999996L7793.419642857143 -16.249999999999996C7802.394270857143 -16.249999999999996 7809.669642857143 -8.974628 7809.669642857143 0C7809.669642857143 8.974628 7802.394270857143 16.249999999999996 7793.419642857143 16.249999999999996L16.25 16.249999999999996C7.275372000000001 16.249999999999996 0.000000000000003552713678800501 8.974628 0.000000000000003552713678800501 0C0.000000000000003552713678800501 -8.974628 7.275372000000001 -16.249999999999996 16.25 -16.249999999999996Z" /></g><g transform="translate(2500,0)"><path d="M16.25 -16.249999999999996L7793.419642857143 -16.249999999999996C7802.394270857143 -16.249999999999996 7809.669642857143 -8.974628 7809.669642857143 0C7809.669642857143 8.974628 7802.394270857143 16.249999999999996 7793.419642857143 16.249999999999996L16.25 16.249999999999996C7.275372000000001 16.249999999999996 0.000000000000003552713678800501 8.974628 0.000000000000003552713678800501 0C0.000000000000003552713678800501 -8.974628 7.275372000000001 -16.249999999999996 16.25 -16.249999999999996Z" /></g><g transform="translate(2500,250)"><path d="M16.25 -16.249999999999996L7793.419642857143 -16.249999999999996C7802.394270857143 -16.249999999999996 7809.669642857143 -8.974628 7809.669642857143 0C7809.669642857143 8.974628 7802.394270857143 16.249999999999996 7793.419642857143 16.249999999999996L16.25 16.249999999999996C7.275372000000001 16.249999999999996 0.000000000000003552713678800501 8.974628 0.000000000000003552713678800501 0C0.000000000000003552713678800501 -8.974628 7.275372000000001 -16.249999999999996 16.25 -16.249999999999996Z" /></g><g transform="translate(2500,500)"><path d="M16.25 -16.249999999999996L7793.419642857143 -16.249999999999996C7802.394270857143 -16.249999999999996 7809.669642857143 -8.974628 7809.669642857143 0C7809.669642857143 8.974628 7802.394270857143 16.249999999999996 7793.419642857143 16.249999999999996L16.25 16.249999999999996C7.275372000000001 16.249999999999996 0.000000000000003552713678800501 8.974628 0.000000000000003552713678800501 0C0.000000000000003552713678800501 -8.974628 7.275372000000001 -16.249999999999996 16.25 -16.249999999999996Z" /></g></g><g transform="translate(2500,0)"><g><g transform="translate(0,0)"><path d="" /></g><g transform="translate(100,0)"><g transform="translate(0,250)"><path d="M470 -943c33 0 60 27 60 82c0 111 -95 201 -174 270c-3 2 -5 4 -7 4c-3 0 -5 -4 -6 -12c-4 -26 -6 -60 -6 -92c0 -156 72 -252 133 -252zM430 -103c-2 -11 -1 -14 7 -14h4c81 7 148 75 148 163c0 63 -38 114 -94 142c-5 2 -8 4 -10 4c-4 0 -5 -3 -6 -10zM361 -262 c3 19 3 18 -15 24c-88 30 -145 109 -145 194c0 90 47 154 115 177c8 3 20 6 27 6c8 0 12 -5 12 -11c0 -7 -8 -10 -15 -13c-42 -18 -72 -61 -72 -107c0 -57 39 -100 100 -117c5 -1 9 -2 12 -2c5 0 7 3 8 10l50 298c2 11 1 11 -14 14c-16 3 -36 5 -56 5 c-175 0 -288 -97 -288 -236c0 -170 125 -276 246 -374c4 -3 7 -5 9 -5c3 0 4 3 5 9zM376 -415c-2 -12 0 -13 6 -19c108 -101 190 -228 190 -381c0 -87 -24 -173 -65 -233c-15 -22 -41 -50 -52 -50c-14 0 -45 26 -65 48c-74 82 -98 207 -98 311c0 58 7 123 14 164 c2 12 3 14 -9 24c-144 119 -297 262 -297 464c0 174 119 339 364 339c23 0 49 -2 69 -6c4 -1 6 -1 8 -1c4 0 6 2 7 10c12 67 27 154 27 201c0 148 -100 166 -159 166c-54 0 -80 -16 -80 -29c0 -7 9 -10 32 -17c31 -9 67 -36 67 -94c0 -55 -35 -102 -96 -102 c-67 0 -107 53 -107 115c0 65 39 163 190 163c67 0 197 -30 197 -200c0 -57 -18 -152 -29 -214c-2 -12 -1 -11 13 -17c101 -40 168 -125 168 -238c0 -128 -94 -241 -241 -241c-26 0 -26 0 -29 -18z" /></g></g><g transform="translate(771,0)"><path d="" /></g><g transform="translate(871,0)"><g><g transform="translate(0,-247)"><g><g transform="translate(0,0)"><path d="M20 95c0 10 8 17 20 17h186v63c0 27 -22 35 -40 35c-16 0 -23 9 -23 19s4 21 19 21h213c10 0 20 -7 20 -21s-12 -20 -22 -20s-31 -6 -31 -38v-59h73c10 0 15 -7 15 -19s-4 -19 -15 -19h-73v-214c0 -8 -1 -17 -12 -17c-9 0 -14 2 -20 9l-95 115c-4 5 -9 11 -9 23v84h-135 c80 -68 240 -295 243 -306c0 -2 1 -3 1 -5c0 -8 -7 -14 -15 -14c-9 0 -50 2 -68 2s-63 -2 -71 -2c-9 0 -23 3 -23 19c0 124 -98 263 -128 305l-6 8c0 1 -1 2 -1 3c-2 4 -3 8 -3 11z" /></g></g></g><g transform="translate(0,247)"><g><g transform="translate(0,0)"><path d="M20 95c0 10 8 17 20 17h186v63c0 27 -22 35 -40 35c-16 0 -23 9 -23 19s4 21 19 21h213c10 0 20 -7 20 -21s-12 -20 -22 -20s-31 -6 -31 -38v-59h73c10 0 15 -7 15 -19s-4 -19 -15 -19h-73v-214c0 -8 -1 -17 -12 -17c-9 0 -14 2 -20 9l-95 115c-4 5 -9 11 -9 23v84h-135 c80 -68 240 -295 243 -306c0 -2 1 -3 1 -5c0 -8 -7 -14 -15 -14c-9 0 -50 2 -68 2s-63 -2 -71 -2c-9 0 -23 3 -23 19c0 124 -98 263 -128 305l-6 8c0 1 -1 2 -1 3c-2 4 -3 8 -3 11z" /></g></g></g></g></g></g></g><g transform="translate(3841,0)"><g><g transform="translate(200,0)"><g><g transform="translate(0,750)"><path d="M97 125c89 0 198 -82 198 -167c0 -51 -40 -83 -97 -83c-110 0 -198 81 -198 167c0 52 43 83 97 83z" /></g><path d="M-100 730L395 730C406.045696 730 415 738.954304 415 750C415 761.045696 406.045696 770 395 770L-100 770C-111.04569599999999 770 -120 761.045696 -120 750C-120 738.954304 -111.04569599999999 730 -100 730Z" /><g transform="translate(295,-125)"><g></g></g></g></g><g transform="translate(1054.4528061224491,0)"><g><g transform="translate(0,750)"><path d="M97 125c89 0 198 -82 198 -167c0 -51 -40 -83 -97 -83c-110 0 -198 81 -198 167c0 52 43 83 97 83z" /></g><path d="M-100 730L395 730C406.045696 730 415 738.954304 415 750C415 761.045696 406.045696 770 395 770L-100 770C-111.04569599999999 770 -120 761.045696 -120 750C-120 738.954304 -111.04569599999999 730 -100 730Z" /><g transform="translate(295,-125)"><g></g></g></g></g><g transform="translate(1908.9056122448983,0)"><g><path d="M78 38c16 20 30 39 43 60c2 4 6 12 6 14c0 1 0 3 -1 4c-2 4 -6 5 -11 5c-4 0 -12 -2 -16 -3c-5 0 -11 -3 -16 -3c-43 0 -82 43 -82 96c0 50 43 99 116 155c8 6 18 9 26 9c7 0 14 -2 15 -6c1 -3 2 -5 2 -7c0 -9 -8 -17 -16 -24c-13 0 -24 -27 -26 -36c-3 -8 -4 -17 -4 -26 c0 -41 21 -73 63 -73c29 0 62 11 78 17c1 0 2 1 3 1c3 1 5 1 7 1c3 0 5 -1 5 -4c0 -12 -26 -45 -37 -57c-38 -46 -69 -83 -69 -139c0 -4 1 -9 1 -13c4 -58 40 -106 66 -147c3 -5 4 -10 4 -15c0 -10 -4 -19 -4 -19s-148 -176 -165 -193c-5 -5 -12 -8 -18 -8 c-10 0 -20 7 -20 21c0 5 1 10 4 16c4 11 61 62 61 134c0 37 -15 80 -60 127c-10 10 -14 21 -14 29c0 14 10 24 10 24z" /><g transform="translate(270,-125)"><g></g></g></g></g><g transform="translate(3617.8112244897966,0)"><g><path d="M282 -24v-92c0 -15 -12 -26 -26 -26h-230c-15 0 -26 11 -26 26v92c0 14 11 26 26 26h230c14 0 26 -12 26 -26z" /><g transform="translate(282,-125)"><g></g></g></g></g><g><path d="M495 -1062.5C486.715728 -1062.5 480 -1055.784272 480 -1047.5L480 -952.5C480 -944.215728 486.715728 -937.5 495 -937.5L1349.4528061224491 -937.5C1357.7370781224492 -937.5 1364.4528061224491 -944.215728 1364.4528061224491 -952.5L1364.4528061224491 -1047.5C1364.4528061224491 -1055.784272 1357.7370781224492 -1062.5 1349.4528061224491 -1062.5L495 -1062.5Z" /><path d="M510 -985L510 693C510 701.284272 503.284272 708 495 708C486.715728 708 480 701.284272 480 693L480 -985C480 -993.284272 486.715728 -1000 495 -1000C503.284272 -1000 510 -993.284272 510 -985Z" /><path d="M1364.4528061224491 -985L1364.4528061224491 693C1364.4528061224491 701.284272 1357.7370781224492 708 1349.4528061224491 708C1341.168534122449 708 1334.4528061224491 701.284272 1334.4528061224491 693L1334.4528061224491 -985C1334.4528061224491 -993.284272 1341.168534122449 -1000 1349.4528061224491 -1000C1357.7370781224492 -1000 1364.4528061224491 -993.284272 1364.4528061224491 -985Z" /></g></g></g><g transform="translate(10022.169642857143,0)"><g><g transform="translate(0,0)"><path d="" /></g><g transform="translate(100,0)"><path d="M20 -480L20 480C20 491.045696 11.045696 500 0 500C-11.045696 500 -20 491.045696 -20 480L-20 -480C-20 -491.045696 -11.045696 -500 0 -500C11.045696 -500 20 -491.045696 20 -480Z" /></g><g transform="translate(100,0)"><path d="" /></g><g transform="translate(225,0)"><path d="M-42.5 -500C-53.545696 -500 -62.5 -491.045696 -62.5 -480L-62.5 480C-62.5 491.045696 -53.545696 500 -42.5 500L42.5 500C53.545696 500 62.5 491.045696 62.5 480L62.5 -480C62.5 -491.045696 53.545696 -500 42.5 -500L-42.5 -500Z" /></g></g></g></g></g><g transform="translate(13536,2500)"><text style="font-size: 1000px; font-family: 'Times New Roman', Times, serif ">Six Eight</text></g><g transform="translate(25649,3500)"><text style="font-size: 714px; font-family: 'Times New Roman', Times, serif ">Six Eight</text></g></g></svg>
