<svg viewBox="0 0 215.9 279.4" width="215.9mm" height="279.4mm" xmlns="http://www.w3.org/2000/svg" xmlns:xlink="http://www.w3.org/1999/xlink"><g transform="scale(1, -1)"><g transform="translate(0,-10.5) scale(0.007,0.007)"><g transform="translate(0,0) scale(1,1)"><g><g transform="translate(200,0) scale(1,1)"><g><path d="M78 -38L29 22C29 22 19 32 19 46C19 54 23 65 33 75C78 122 93 165 93 202C93 274 36 325 32 336C29 342 28 347 28 352C28 366 38 373 48 373C54 373 61 370 66 365C83 348 231 172 231 172C231 172 235 163 235 153C235 148 234 143 231 138C205 97 169 49 165 -9C165 -13 164 -18 164 -22C164 -78 195 -115 233 -161C244 -173 270 -206 270 -218C270 -221 268 -222 265 -222C263 -222 261 -222 258 -221C257 -221 256 -220 255 -220C239 -214 206 -203 177 -203C135 -203 114 -235 114 -276C114 -285 115 -294 118 -302C120 -311 131 -338 144 -338C152 -345 160 -353 160 -362C160 -364 159 -366 158 -369C157 -373 150 -375 143 -375C135 -375 125 -372 117 -366C44 -310 1 -261 1 -211C1 -158 40 -115 83 -115C88 -115 94 -118 99 -118C103 -119 111 -121 115 -121C120 -121 124 -120 126 -116C127 -115 127 -113 127 -112C127 -110 123 -102 121 -98C108 -77 94 -58 78 -38Z" /><g transform="translate(270,125) scale(1,1)"><g></g></g></g></g><g transform="translate(1318.6666666666665,0) scale(1,1)"><g><path d="M285 -99C288 -102 290 -106 290 -111C290 -117 285 -125 277 -125C275 -125 272 -124 270 -122L144 -17L20 -122C18 -124 16 -125 13 -125C5 -125 0 -118 0 -110C0 -106 1 -102 5 -99L124 0L5 100C2 103 0 108 0 112C0 118 5 125 12 125C15 125 18 124 20 123L144 18L270 123C272 124 275 125 277 125C283 125 290 119 290 111C290 107 288 102 285 100L166 0Z" /><path d="M305 126L305 961C305 969.284272 298.284272 976 290 976C281.715728 976 275 969.284272 275 961L275 126C275 117.715728 281.715728 111 290 111C298.284272 111 305 117.715728 305 126Z" /><g transform="translate(275,986) scale(1,1)"><path d="M238 -790C234 -804 222 -810 215 -810C213 -810 211 -810 210 -809C204 -805 194 -796 194 -780C194 -776 195 -771 197 -765C214 -720 221 -673 221 -628C221 -569 212 -512 197 -478C161 -393 66 -257 0 -245L0 -6C0 6 4 9 10 9C29 9 37 3 40 -13C56 -109 98 -195 149 -274C212 -374 264 -492 264 -617C264 -695 238 -790 238 -790Z" /></g><g transform="translate(290,125) scale(1,1)"><g></g></g></g></g><g transform="translate(2157.6666666666665,0) scale(1,1)"><g><path d="M134 107L134 97C167 97 217 157 224 163C230 167 233 167 235 167C237 166 247 161 247 151C246 146 241 130 237 112C237 112 139 -239 136 -241C126 -249 112 -251 101 -251C95 -251 72 -250 72 -238C90 -172 162 27 165 42C166 46 166 50 166 53C166 58 165 62 161 62C160 62 158 62 156 61C143 54 134 50 120 46C109 42 95 39 81 39C62 39 43 45 27 56C12 68 0 86 0 107C0 144 30 174 67 174C104 174 134 144 134 107Z" /><g transform="translate(247,125) scale(1,1)"><g></g></g></g></g><g transform="translate(2996.6666666666665,0) scale(1,1)"><g><path d="M282 24C282 10 270 -2 256 -2L26 -2C11 -2 0 10 0 24L0 116C0 131 11 142 26 142L256 142C270 142 282 131 282 116L282 24Z" /><g transform="translate(282,125) scale(1,1)"><g></g></g></g></g></g></g><g transform="translate(4395,0) scale(1,1)"><g><g transform="translate(200,0) scale(1,1)"><g><path d="M78 -38L29 22C29 22 19 32 19 46C19 54 23 65 33 75C78 122 93 165 93 202C93 274 36 325 32 336C29 342 28 347 28 352C28 366 38 373 48 373C54 373 61 370 66 365C83 348 231 172 231 172C231 172 235 163 235 153C235 148 234 143 231 138C205 97 169 49 165 -9C165 -13 164 -18 164 -22C164 -78 195 -115 233 -161C244 -173 270 -206 270 -218C270 -221 268 -222 265 -222C263 -222 261 -222 258 -221C257 -221 256 -220 255 -220C239 -214 206 -203 177 -203C135 -203 114 -235 114 -276C114 -285 115 -294 118 -302C120 -311 131 -338 144 -338C152 -345 160 -353 160 -362C160 -364 159 -366 158 -369C157 -373 150 -375 143 -375C135 -375 125 -372 117 -366C44 -310 1 -261 1 -211C1 -158 40 -115 83 -115C88 -115 94 -118 99 -118C103 -119 111 -121 115 -121C120 -121 124 -120 126 -116C127 -115 127 -113 127 -112C127 -110 123 -102 121 -98C108 -77 94 -58 78 -38Z" /><g transform="translate(270,125) scale(1,1)"><g></g></g></g></g><g transform="translate(1318.6666666666665,0) scale(1,1)"><g><path d="M285 -99C288 -102 290 -106 290 -111C290 -117 285 -125 277 -125C275 -125 272 -124 270 -122L144 -17L20 -122C18 -124 16 -125 13 -125C5 -125 0 -118 0 -110C0 -106 1 -102 5 -99L124 0L5 100C2 103 0 108 0 112C0 118 5 125 12 125C15 125 18 124 20 123L144 18L270 123C272 124 275 125 277 125C283 125 290 119 290 111C290 107 288 102 285 100L166 0Z" /><path d="M305 126L305 961C305 969.284272 298.284272 976 290 976C281.715728 976 275 969.284272 275 961L275 126C275 117.715728 281.715728 111 290 111C298.284272 111 305 117.715728 305 126Z" /><g transform="translate(275,986) scale(1,1)"><path d="M238 -790C234 -804 222 -810 215 -810C213 -810 211 -810 210 -809C204 -805 194 -796 194 -780C194 -776 195 -771 197 -765C214 -720 221 -673 221 -628C221 -569 212 -512 197 -478C161 -393 66 -257 0 -245L0 -6C0 6 4 9 10 9C29 9 37 3 40 -13C56 -109 98 -195 149 -274C212 -374 264 -492 264 -617C264 -695 238 -790 238 -790Z" /></g><g transform="translate(290,125) scale(1,1)"><g></g></g></g></g><g transform="translate(2157.6666666666665,0) scale(1,1)"><g><path d="M134 107L134 97C167 97 217 157 224 163C230 167 233 167 235 167C237 166 247 161 247 151C246 146 241 130 237 112C237 112 139 -239 136 -241C126 -249 112 -251 101 -251C95 -251 72 -250 72 -238C90 -172 162 27 165 42C166 46 166 50 166 53C166 58 165 62 161 62C160 62 158 62 156 61C143 54 134 50 120 46C109 42 95 39 81 39C62 39 43 45 27 56C12 68 0 86 0 107C0 144 30 174 67 174C104 174 134 144 134 107Z" /><g transform="translate(247,125) scale(1,1)"><g></g></g></g></g><g transform="translate(2996.6666666666665,0) scale(1,1)"><g><path d="M282 24C282 10 270 -2 256 -2L26 -2C11 -2 0 10 0 24L0 116C0 131 11 142 26 142L256 142C270 142 282 131 282 116L282 24Z" /><g transform="translate(282,125) scale(1,1)"><g></g></g></g></g></g></g><path d="M0 -16.25L8990 -16.25C8998.974628 -16.25 9006.25 -8.974628000000001 9006.25 0C9006.25 8.974628000000001 8998.974628 16.25 8990 16.25L0 16.25C-8.974628000000001 16.25 -16.25 8.974628000000001 -16.25 0C-16.25 -8.974628000000001 -8.974628000000001 -16.25 0 -16.25Z" /></g></g></svg>
