<svg viewBox="0 0 30843 39914" width="215.9mm" height="279.4mm" xmlns="http://www.w3.org/2000/svg" xmlns:xlink="http://www.w3.org/1999/xlink"><g><g transform="translate(0,5500)"><g><g><g transform="translate(2500,-500)"><path d="M16.25 -16.249999999999996L25826.607142857145 -16.249999999999996C25835.581770857145 -16.249999999999996 25842.857142857145 -8.974628 25842.857142857145 0C25842.857142857145 8.974628 25835.581770857145 16.249999999999996 25826.607142857145 16.249999999999996L16.25 16.249999999999996C7.275372000000001 16.249999999999996 0.000000000000003552713678800501 8.974628 0.000000000000003552713678800501 0C0.000000000000003552713678800501 -8.974628 7.275372000000001 -16.249999999999996 16.25 -16.249999999999996Z" /></g><g transform="translate(2500,-250)"><path d="M16.25 -16.249999999999996L25826.607142857145 -16.249999999999996C25835.581770857145 -16.249999999999996 25842.857142857145 -8.974628 25842.857142857145 0C25842.857142857145 8.974628 25835.581770857145 16.249999999999996 25826.607142857145 16.249999999999996L16.25 16.249999999999996C7.275372000000001 16.249999999999996 0.000000000000003552713678800501 8.974628 0.000000000000003552713678800501 0C0.000000000000003552713678800501 -8.974628 7.275372000000001 -16.249999999999996 16.25 -16.249999999999996Z" /></g><g transform="translate(2500,0)"><path d="M16.25 -16.249999999999996L25826.607142857145 -16.249999999999996C25835.581770857145 -16.249999999999996 25842.857142857145 -8.974628 25842.857142857145 0C25842.857142857145 8.974628 25835.581770857145 16.249999999999996 25826.607142857145 16.249999999999996L16.25 16.249999999999996C7.275372000000001 16.249999999999996 0.000000000000003552713678800501 8.974628 0.000000000000003552713678800501 0C0.000000000000003552713678800501 -8.974628 7.275372000000001 -16.249999999999996 16.25 -16.249999999999996Z" /></g><g transform="translate(2500,250)"><path d="M16.25 -16.249999999999996L25826.607142857145 -16.249999999999996C25835.581770857145 -16.249999999999996 25842.857142857145 -8.974628 25842.857142857145 0C25842.857142857145 8.974628 25835.581770857145 16.249999999999996 25826.607142857145 16.249999999999996L16.25 16.249999999999996C7.275372000000001 16.249999999999996 0.000000000000003552713678800501 8.974628 0.000000000000003552713678800501 0C0.000000000000003552713678800501 -8.974628 7.275372000000001 -16.249999999999996 16.25 -16.249999999999996Z" /></g><g transform="translate(2500,500)"><path d="M16.25 -16.249999999999996L25826.607142857145 -16.249999999999996C25835.581770857145 -16.249999999999996 25842.857142857145 -8.974628 25842.857142857145 0C25842.857142857145 8.974628 25835.581770857145 16.249999999999996 25826.607142857145 16.249999999999996L16.25 16.249999999999996C7.275372000000001 16.249999999999996 0.000000000000003552713678800501 8.974628 0.000000000000003552713678800501 0C0.000000000000003552713678800501 -8.974628 7.275372000000001 -16.249999999999996 16.25 -16.249999999999996Z" /></g></g><g transform="translate(2500,0)"><g><g transform="translate(0,0)"><path d="" /></g><g transform="translate(100,0)"><path d="M222 235c0 8 6 15 14 15h132c8 0 14 -7 14 -15v-470c0 -8 -6 -15 -14 -15h-132c-8 0 -14 7 -14 15v470zM0 -235v470c0 8 6 15 14 15h132c8 0 14 -7 14 -15v-470c0 -8 -6 -15 -14 -15h-132c-8 0 -14 7 -14 15z" /></g><g transform="translate(482,0)"><path d="" /></g><g transform="translate(582,0)"><g><g transform="translate(0,-247)"><g><g transform="translate(0,0)"><path d="M20 95c0 10 8 17 20 17h186v63c0 27 -22 35 -40 35c-16 0 -23 9 -23 19s4 21 19 21h213c10 0 20 -7 20 -21s-12 -20 -22 -20s-31 -6 -31 -38v-59h73c10 0 15 -7 15 -19s-4 -19 -15 -19h-73v-214c0 -8 -1 -17 -12 -17c-9 0 -14 2 -20 9l-95 115c-4 5 -9 11 -9 23v84h-135 c80 -68 240 -295 243 -306c0 -2 1 -3 1 -5c0 -8 -7 -14 -15 -14c-9 0 -50 2 -68 2s-63 -2 -71 -2c-9 0 -23 3 -23 19c0 124 -98 263 -128 305l-6 8c0 1 -1 2 -1 3c-2 4 -3 8 -3 11z" /></g></g></g><g transform="translate(0,247)"><g><g transform="translate(0,0)"><path d="M20 95c0 10 8 17 20 17h186v63c0 27 -22 35 -40 35c-16 0 -23 9 -23 19s4 21 19 21h213c10 0 20 -7 20 -21s-12 -20 -22 -20s-31 -6 -31 -38v-59h73c10 0 15 -7 15 -19s-4 -19 -15 -19h-73v-214c0 -8 -1 -17 -12 -17c-9 0 -14 2 -20 9l-95 115c-4 5 -9 11 -9 23v84h-135 c80 -68 240 -295 243 -306c0 -2 1 -3 1 -5c0 -8 -7 -14 -15 -14c-9 0 -50 2 -68 2s-63 -2 -71 -2c-9 0 -23 3 -23 19c0 124 -98 263 -128 305l-6 8c0 1 -1 2 -1 3c-2 4 -3 8 -3 11z" /></g></g></g></g></g></g></g><g transform="translate(3552,0)"><g><g transform="translate(200,0)"><g><path d="M78 38c16 20 30 39 43 60c2 4 6 12 6 14c0 1 0 3 -1 4c-2 4 -6 5 -11 5c-4 0 -12 -2 -16 -3c-5 0 -11 -3 -16 -3c-43 0 -82 43 -82 96c0 50 43 99 116 155c8 6 18 9 26 9c7 0 14 -2 15 -6c1 -3 2 -5 2 -7c0 -9 -8 -17 -16 -24c-13 0 -24 -27 -26 -36c-3 -8 -4 -17 -4 -26 c0 -41 21 -73 63 -73c29 0 62 11 78 17c1 0 2 1 3 1c3 1 5 1 7 1c3 0 5 -1 5 -4c0 -12 -26 -45 -37 -57c-38 -46 -69 -83 -69 -139c0 -4 1 -9 1 -13c4 -58 40 -106 66 -147c3 -5 4 -10 4 -15c0 -10 -4 -19 -4 -19s-148 -176 -165 -193c-5 -5 -12 -8 -18 -8 c-10 0 -20 7 -20 21c0 5 1 10 4 16c4 11 61 62 61 134c0 37 -15 80 -60 127c-10 10 -14 21 -14 29c0 14 10 24 10 24z" /><g transform="translate(270,-125)"><g></g></g></g></g><g transform="translate(7197.387755102041,0)"><g><path d="M285 99l-119 -99l119 -100c3 -2 5 -7 5 -11c0 -8 -7 -14 -13 -14c-2 0 -5 1 -7 2l-126 105l-124 -105c-2 -1 -5 -2 -8 -2c-7 0 -12 7 -12 13c0 4 2 9 5 12l119 100l-119 99c-4 3 -5 7 -5 11c0 8 5 15 13 15c3 0 5 -1 7 -3l124 -105l126 105c2 2 5 3 7 3c8 0 13 -8 13 -14 c0 -5 -2 -9 -5 -12z" /><path d="M305 -961L305 -126C305 -117.715728 298.284272 -111 290 -111C281.715728 -111 275 -117.715728 275 -126L275 -961C275 -969.284272 281.715728 -976 290 -976C298.284272 -976 305 -969.284272 305 -961Z" /><g transform="translate(275,-986)"><path d="M238 790c0 0 26 -95 26 -173c0 -125 -52 -243 -115 -343c-51 -79 -93 -165 -109 -261c-3 -16 -11 -22 -30 -22c-6 0 -10 3 -10 15v239c66 12 161 148 197 233c15 34 24 91 24 150c0 45 -7 92 -24 137c-2 6 -3 11 -3 15c0 16 10 25 16 29c1 1 3 1 5 1c7 0 19 -6 23 -20z " /></g><g transform="translate(290,-125)"><g></g></g></g></g><g transform="translate(10696.081632653062,0)"><g><path d="M134 -107c0 -37 -30 -67 -67 -67s-67 30 -67 67c0 21 12 39 27 51c16 11 35 17 54 17c14 0 28 -3 39 -7c14 -4 23 -8 36 -15c2 -1 4 -1 5 -1c4 0 5 4 5 9c0 3 0 7 -1 11c-3 15 -75 214 -93 280c0 12 23 13 29 13c11 0 25 -2 35 -10c3 -2 101 -353 101 -353 c4 -18 9 -34 10 -39c0 -10 -10 -15 -12 -16c-2 0 -5 0 -11 4c-7 6 -57 66 -90 66v-10z" /><g transform="translate(247,-125)"><g></g></g></g></g><g transform="translate(14194.775510204083,0)"><g><path d="M282 -24v-92c0 -15 -12 -26 -26 -26h-230c-15 0 -26 11 -26 26v92c0 14 11 26 26 26h230c14 0 26 -12 26 -26z" /><g transform="translate(282,-125)"><g></g></g></g></g></g></g><g transform="translate(28242.857142857145,0)"><g><g transform="translate(0,0)"><path d="" /></g><g transform="translate(100,0)"><path d="M20 -480L20 480C20 491.045696 11.045696 500 0 500C-11.045696 500 -20 491.045696 -20 480L-20 -480C-20 -491.045696 -11.045696 -500 0 -500C11.045696 -500 20 -491.045696 20 -480Z" /></g></g></g></g></g><g transform="translate(0,8500)"><g><g><g transform="translate(2500,-500)"><path d="M16.25 -16.25L16217.919642857145 -16.25C16226.894270857145 -16.25 16234.169642857145 -8.974628000000001 16234.169642857145 0C16234.169642857145 8.974628000000001 16226.894270857145 16.25 16217.919642857145 16.25L16.25 16.25C7.275371999999999 16.25 0 8.974628000000001 0 0C0 -8.974628000000001 7.275371999999999 -16.25 16.25 -16.25Z" /></g><g transform="translate(2500,-250)"><path d="M16.25 -16.25L16217.919642857145 -16.25C16226.894270857145 -16.25 16234.169642857145 -8.974628000000001 16234.169642857145 0C16234.169642857145 8.974628000000001 16226.894270857145 16.25 16217.919642857145 16.25L16.25 16.25C7.275371999999999 16.25 0 8.974628000000001 0 0C0 -8.974628000000001 7.275371999999999 -16.25 16.25 -16.25Z" /></g><g transform="translate(2500,0)"><path d="M16.25 -16.25L16217.919642857145 -16.25C16226.894270857145 -16.25 16234.169642857145 -8.974628000000001 16234.169642857145 0C16234.169642857145 8.974628000000001 16226.894270857145 16.25 16217.919642857145 16.25L16.25 16.25C7.275371999999999 16.25 0 8.974628000000001 0 0C0 -8.974628000000001 7.275371999999999 -16.25 16.25 -16.25Z" /></g><g transform="translate(2500,250)"><path d="M16.25 -16.25L16217.919642857145 -16.25C16226.894270857145 -16.25 16234.169642857145 -8.974628000000001 16234.169642857145 0C16234.169642857145 8.974628000000001 16226.894270857145 16.25 16217.919642857145 16.25L16.25 16.25C7.275371999999999 16.25 0 8.974628000000001 0 0C0 -8.974628000000001 7.275371999999999 -16.25 16.25 -16.25Z" /></g><g transform="translate(2500,500)"><path d="M16.25 -16.25L16217.919642857145 -16.25C16226.894270857145 -16.25 16234.169642857145 -8.974628000000001 16234.169642857145 0C16234.169642857145 8.974628000000001 16226.894270857145 16.25 16217.919642857145 16.25L16.25 16.25C7.275371999999999 16.25 0 8.974628000000001 0 0C0 -8.974628000000001 7.275371999999999 -16.25 16.25 -16.25Z" /></g></g><g transform="translate(2500,0)"><g><g transform="translate(0,0)"><path d="" /></g><g transform="translate(100,0)"><path d="M222 235c0 8 6 15 14 15h132c8 0 14 -7 14 -15v-470c0 -8 -6 -15 -14 -15h-132c-8 0 -14 7 -14 15v470zM0 -235v470c0 8 6 15 14 15h132c8 0 14 -7 14 -15v-470c0 -8 -6 -15 -14 -15h-132c-8 0 -14 7 -14 15z" /></g><g transform="translate(482,0)"><path d="" /></g></g></g><g transform="translate(3082,0)"><g><g transform="translate(200,0)"><g><path d="M78 38c16 20 30 39 43 60c2 4 6 12 6 14c0 1 0 3 -1 4c-2 4 -6 5 -11 5c-4 0 -12 -2 -16 -3c-5 0 -11 -3 -16 -3c-43 0 -82 43 -82 96c0 50 43 99 116 155c8 6 18 9 26 9c7 0 14 -2 15 -6c1 -3 2 -5 2 -7c0 -9 -8 -17 -16 -24c-13 0 -24 -27 -26 -36c-3 -8 -4 -17 -4 -26 c0 -41 21 -73 63 -73c29 0 62 11 78 17c1 0 2 1 3 1c3 1 5 1 7 1c3 0 5 -1 5 -4c0 -12 -26 -45 -37 -57c-38 -46 -69 -83 -69 -139c0 -4 1 -9 1 -13c4 -58 40 -106 66 -147c3 -5 4 -10 4 -15c0 -10 -4 -19 -4 -19s-148 -176 -165 -193c-5 -5 -12 -8 -18 -8 c-10 0 -20 7 -20 21c0 5 1 10 4 16c4 11 61 62 61 134c0 37 -15 80 -60 127c-10 10 -14 21 -14 29c0 14 10 24 10 24z" /><g transform="translate(270,-125)"><g></g></g></g></g><g transform="translate(3646.515827922078,0)"><g><path d="M285 99l-119 -99l119 -100c3 -2 5 -7 5 -11c0 -8 -7 -14 -13 -14c-2 0 -5 1 -7 2l-126 105l-124 -105c-2 -1 -5 -2 -8 -2c-7 0 -12 7 -12 13c0 4 2 9 5 12l119 100l-119 99c-4 3 -5 7 -5 11c0 8 5 15 13 15c3 0 5 -1 7 -3l124 -105l126 105c2 2 5 3 7 3c8 0 13 -8 13 -14 c0 -5 -2 -9 -5 -12z" /><path d="M305 -1264L305 -126C305 -117.715728 298.284272 -111 290 -111C281.715728 -111 275 -117.715728 275 -126L275 -1264C275 -1272.284272 281.715728 -1279 290 -1279C298.284272 -1279 305 -1272.284272 305 -1264Z" /><g transform="translate(275,-986)"><path d="M260 673c-2 -39 -11 -77 -26 -113c-1 -2 -1 -4 -1 -7c0 -2 0 -4 1 -6c2 -7 23 -62 23 -119c0 -32 -7 -64 -21 -93c9 -26 20 -67 20 -106c0 -30 -7 -61 -22 -88c9 -25 22 -69 22 -111c0 -9 -1 -18 -2 -27c-11 -61 -34 -88 -101 -161c-50 -54 -104 -70 -121 -170 c-1 -9 -14 -19 -20 -19s-12 12 -12 12v758h5c58 2 124 4 188 134c22 44 31 89 31 137c0 28 -3 56 -8 85c0 3 -1 5 -1 7c0 12 6 21 13 24c2 1 4 2 6 2c6 0 13 -5 20 -16c3 -6 7 -52 7 -95c0 -10 -1 -19 -1 -28zM208 -17c11 20 15 35 15 48c0 8 -2 14 -3 21l-13 49 c-14 -17 -31 -36 -54 -61c-50 -54 -96 -70 -113 -170c0 -1 0 -3 -1 -4c57 0 114 25 169 117zM208 181c11 20 15 35 15 48c0 8 -2 14 -3 21c-2 10 -7 27 -12 44c-14 -18 -32 -37 -55 -62c-49 -54 -98 -71 -114 -168c55 0 114 24 169 117zM219 456c-2 8 -2 16 -5 23 c-1 3 -6 6 -11 6c-3 0 -6 -1 -7 -4c-15 -22 -29 -39 -46 -59l-5 -5c-43 -51 -87 -72 -107 -149c0 -1 7 -12 13 -13c80 0 170 96 170 177c0 8 -1 16 -2 24z" /></g><g transform="translate(290,-125)"><g></g></g></g></g><g transform="translate(4335.818993506494,0)"><g><path d="M414 -423c-5 0 -8 2 -11 4c-8 6 -58 67 -92 67c1 -3 1 -6 1 -10c0 -37 -31 -68 -68 -68c-38 0 -68 31 -68 68c0 42 44 69 82 69c27 0 52 -11 76 -22c2 -1 5 -2 7 -2c5 0 9 4 9 11c0 3 -1 6 -2 10c-1 3 -35 145 -39 156c-7 19 -43 40 -60 40v-10c0 -37 -30 -68 -68 -68 c-37 0 -68 31 -68 68c0 32 27 56 56 65c8 2 16 3 25 3c28 0 56 -9 82 -21c2 -1 3 -1 4 -1c4 0 6 4 6 9c0 2 0 3 -1 5c-2 9 -38 154 -41 162c-8 26 -35 35 -49 35v-10c0 -37 -30 -68 -68 -68c-37 0 -68 31 -68 68c0 21 12 39 28 51c9 6 18 11 28 14c8 2 18 4 27 4 c14 0 28 -3 40 -7c14 -5 17 -9 30 -15c1 -1 2 -1 3 -1c5 0 6 8 6 14c0 3 -1 7 -1 8c-1 5 -36 148 -40 159c-6 21 -32 30 -45 30c1 -3 1 -6 1 -9c0 -38 -30 -68 -68 -68c-37 0 -68 30 -68 68c0 20 12 38 28 50c14 12 36 18 54 18c19 0 47 -7 64 -16c2 -1 3 -1 4 -1 c5 0 8 5 8 11c0 2 -1 4 -1 6l-72 279c-1 3 -1 5 -1 7c0 9 9 14 32 14c24 0 29 -6 33 -17c2 -9 10 -27 130 -543c1 0 20 -81 24 -99l93 -400s24 -89 27 -102c0 -11 -5 -14 -9 -15z" /><g transform="translate(423,-125)"><g></g></g></g></g><g transform="translate(5025.12215909091,0)"><g><path d="M353 -419c-5 0 -8 2 -11 4c-7 5 -57 66 -91 66v-9c0 -38 -30 -68 -68 -68c-37 0 -68 30 -68 68c0 20 12 38 28 50c8 7 18 11 28 14c8 2 16 4 26 4c26 0 53 -10 76 -22c1 -1 3 -1 4 -1c7 0 11 10 11 16c0 1 -1 3 -1 4l-39 160c-5 16 -38 36 -54 36c1 -3 1 -6 1 -9 c0 -38 -31 -68 -68 -68c-38 0 -68 30 -68 68c0 20 12 38 28 50c8 7 17 11 27 14c8 2 17 4 27 4c26 0 52 -10 75 -22c1 -1 2 -1 3 -1c5 0 7 8 7 13l-40 164c-5 21 -36 34 -51 35c1 -4 1 -7 1 -10c0 -38 -30 -68 -68 -68c-37 0 -68 30 -68 68c0 41 42 68 80 68 c27 0 55 -9 78 -22c1 -1 2 -1 3 -1c3 0 6 3 6 6c0 4 -69 279 -71 286c-1 2 -1 4 -1 6c0 8 6 16 27 16c32 0 35 -10 39 -21c3 -12 175 -782 175 -782s24 -89 26 -101c0 -2 1 -3 1 -4c0 -9 -8 -11 -10 -11z" /><g transform="translate(363,-125)"><g></g></g></g></g><g transform="translate(6403.728490259741,0)"><g><path d="M208 -111c0 -38 -30 -68 -68 -68c-37 0 -68 30 -68 68c0 41 42 68 80 68c27 0 55 -9 78 -22c3 -1 5 -2 7 -2c3 0 5 2 5 7c0 16 -51 165 -58 180c-8 19 -35 31 -49 31c1 -4 1 -7 1 -10c0 -38 -31 -68 -68 -68c-38 0 -68 30 -68 68c0 42 42 68 80 68c26 0 52 -9 75 -21 c2 0 4 2 4 5c0 1 -1 2 -1 3l-95 283c0 1 -1 2 -1 3c0 8 9 18 31 18c29 0 34 -12 38 -23l116 -381c26 -85 45 -152 45 -152s25 -88 27 -101c0 -2 1 -3 1 -4c0 -6 -8 -10 -10 -11c-5 0 -8 2 -11 4c-7 6 -57 66 -91 67v-10z" /><g transform="translate(320,-125)"><g></g></g></g></g><g transform="translate(8471.637987012988,0)"><g><path d="M134 -107c0 -37 -30 -67 -67 -67s-67 30 -67 67c0 21 12 39 27 51c16 11 35 17 54 17c14 0 28 -3 39 -7c14 -4 23 -8 36 -15c2 -1 4 -1 5 -1c4 0 5 4 5 9c0 3 0 7 -1 11c-3 15 -75 214 -93 280c0 12 23 13 29 13c11 0 25 -2 35 -10c3 -2 101 -353 101 -353 c4 -18 9 -34 10 -39c0 -10 -10 -15 -12 -16c-2 0 -5 0 -11 4c-7 6 -57 66 -90 66v-10z" /><g transform="translate(247,-125)"><g></g></g></g></g><g transform="translate(11228.85064935065,0)"><g><path d="M282 -24v-92c0 -15 -12 -26 -26 -26h-230c-15 0 -26 11 -26 26v92c0 14 11 26 26 26h230c14 0 26 -12 26 -26z" /><g transform="translate(282,-125)"><g></g></g></g></g></g></g><g transform="translate(18446.669642857145,0)"><g><g transform="translate(0,0)"><path d="" /></g><g transform="translate(100,0)"><path d="M20 -480L20 480C20 491.045696 11.045696 500 0 500C-11.045696 500 -20 491.045696 -20 480L-20 -480C-20 -491.045696 -11.045696 -500 0 -500C11.045696 -500 20 -491.045696 20 -480Z" /></g><g transform="translate(100,0)"><path d="" /></g><g transform="translate(225,0)"><path d="M-42.5 -500C-53.545696 -500 -62.5 -491.045696 -62.5 -480L-62.5 480C-62.5 491.045696 -53.545696 500 -42.5 500L42.5 500C53.545696 500 62.5 491.045696 62.5 480L62.5 -480C62.5 -491.045696 53.545696 -500 42.5 -500L-42.5 -500Z" /></g></g></g></g></g><g transform="translate(13536,2500)"><text style="font-size: 1000px; font-family: 'Times New Roman', Times, serif ">Six Eight</text></g><g transform="translate(25649,3500)"><text style="font-size: 714px; font-family: 'Times New Roman', Times, serif ">Six Eight</text></g></g></svg>
