<svg viewBox="0 0 215.9 279.4" width="215.9mm" height="279.4mm" xmlns="http://www.w3.org/2000/svg" xmlns:xlink="http://www.w3.org/1999/xlink"><g transform="scale(1, -1)"><g transform="translate(0,0) scale(7,7)"><g transform="translate(0,-1.5) scale(1,1)"><g><g transform="translate(0.2,0) scale(1,1)"><g><path d="M0.078 -0.038L0.029 0.022C0.029 0.022 0.019 0.032 0.019 0.046C0.019 0.054 0.023 0.065 0.033 0.075C0.078 0.122 0.093 0.165 0.093 0.202C0.093 0.274 0.036000000000000004 0.325 0.032 0.336C0.029 0.342 0.028 0.34700000000000003 0.028 0.352C0.028 0.366 0.038 0.373 0.048 0.373C0.054 0.373 0.061 0.37 0.066 0.365C0.083 0.34800000000000003 0.231 0.17200000000000001 0.231 0.17200000000000001C0.231 0.17200000000000001 0.23500000000000001 0.163 0.23500000000000001 0.153C0.23500000000000001 0.148 0.234 0.14300000000000002 0.231 0.138C0.20500000000000002 0.097 0.169 0.049 0.165 -0.009000000000000001C0.165 -0.013000000000000001 0.164 -0.018000000000000002 0.164 -0.022C0.164 -0.078 0.195 -0.115 0.233 -0.161C0.244 -0.17300000000000001 0.27 -0.20600000000000002 0.27 -0.218C0.27 -0.221 0.268 -0.222 0.265 -0.222C0.263 -0.222 0.261 -0.222 0.258 -0.221C0.257 -0.221 0.256 -0.22 0.255 -0.22C0.23900000000000002 -0.214 0.20600000000000002 -0.203 0.177 -0.203C0.135 -0.203 0.114 -0.23500000000000001 0.114 -0.276C0.114 -0.28500000000000003 0.115 -0.294 0.11800000000000001 -0.302C0.12 -0.311 0.131 -0.338 0.14400000000000002 -0.338C0.152 -0.34500000000000003 0.16 -0.353 0.16 -0.362C0.16 -0.364 0.159 -0.366 0.158 -0.369C0.157 -0.373 0.15 -0.375 0.14300000000000002 -0.375C0.135 -0.375 0.125 -0.372 0.117 -0.366C0.044 -0.31 0.001 -0.261 0.001 -0.211C0.001 -0.158 0.04 -0.115 0.083 -0.115C0.088 -0.115 0.094 -0.11800000000000001 0.099 -0.11800000000000001C0.10300000000000001 -0.11900000000000001 0.111 -0.121 0.115 -0.121C0.12 -0.121 0.124 -0.12 0.126 -0.116C0.127 -0.115 0.127 -0.113 0.127 -0.112C0.127 -0.11 0.123 -0.10200000000000001 0.121 -0.098C0.108 -0.077 0.094 -0.058 0.078 -0.038Z" /><g transform="translate(0.27,0.125) scale(1,1)"><g></g></g></g></g><g transform="translate(1.3186666666666664,0) scale(1,1)"><g><path d="M0.28500000000000003 -0.099C0.28800000000000003 -0.10200000000000001 0.29 -0.106 0.29 -0.111C0.29 -0.117 0.28500000000000003 -0.125 0.277 -0.125C0.275 -0.125 0.272 -0.124 0.27 -0.122L0.14400000000000002 -0.017L0.02 -0.122C0.018000000000000002 -0.124 0.016 -0.125 0.013000000000000001 -0.125C0.005 -0.125 0 -0.11800000000000001 0 -0.11C0 -0.106 0.001 -0.10200000000000001 0.005 -0.099L0.124 0L0.005 0.1C0.002 0.10300000000000001 0 0.108 0 0.112C0 0.11800000000000001 0.005 0.125 0.012 0.125C0.015 0.125 0.018000000000000002 0.124 0.02 0.123L0.14400000000000002 0.018000000000000002L0.27 0.123C0.272 0.124 0.275 0.125 0.277 0.125C0.28300000000000003 0.125 0.29 0.11900000000000001 0.29 0.111C0.29 0.107 0.28800000000000003 0.10200000000000001 0.28500000000000003 0.1L0.166 0Z" /><path d="M0.305 0.126L0.305 0.961C0.305 0.969284272 0.29828427199999996 0.976 0.29 0.976C0.281715728 0.976 0.27499999999999997 0.969284272 0.27499999999999997 0.961L0.27499999999999997 0.126C0.27499999999999997 0.117715728 0.281715728 0.111 0.29 0.111C0.29828427199999996 0.111 0.305 0.117715728 0.305 0.126Z" /><g transform="translate(0.27499999999999997,0.986) scale(1,1)"><path d="M0.23800000000000002 -0.79C0.234 -0.804 0.222 -0.81 0.215 -0.81C0.213 -0.81 0.211 -0.81 0.21 -0.809C0.20400000000000001 -0.805 0.194 -0.796 0.194 -0.78C0.194 -0.776 0.195 -0.771 0.197 -0.765C0.214 -0.72 0.221 -0.673 0.221 -0.628C0.221 -0.5690000000000001 0.212 -0.512 0.197 -0.47800000000000004C0.161 -0.393 0.066 -0.257 0 -0.245L0 -0.006C0 0.006 0.004 0.009000000000000001 0.01 0.009000000000000001C0.029 0.009000000000000001 0.037 0.003 0.04 -0.013000000000000001C0.056 -0.109 0.098 -0.195 0.149 -0.274C0.212 -0.374 0.264 -0.492 0.264 -0.617C0.264 -0.6950000000000001 0.23800000000000002 -0.79 0.23800000000000002 -0.79Z" /></g><g transform="translate(0.29,0.125) scale(1,1)"><g></g></g></g></g><g transform="translate(2.157666666666666,0) scale(1,1)"><g><path d="M0.134 0.107L0.134 0.097C0.167 0.097 0.217 0.157 0.224 0.163C0.23 0.167 0.233 0.167 0.23500000000000001 0.167C0.23700000000000002 0.166 0.247 0.161 0.247 0.151C0.246 0.146 0.241 0.13 0.23700000000000002 0.112C0.23700000000000002 0.112 0.139 -0.23900000000000002 0.136 -0.241C0.126 -0.249 0.112 -0.251 0.101 -0.251C0.095 -0.251 0.07200000000000001 -0.25 0.07200000000000001 -0.23800000000000002C0.09 -0.17200000000000001 0.162 0.027 0.165 0.042C0.166 0.046 0.166 0.05 0.166 0.053C0.166 0.058 0.165 0.062 0.161 0.062C0.16 0.062 0.158 0.062 0.156 0.061C0.14300000000000002 0.054 0.134 0.05 0.12 0.046C0.109 0.042 0.095 0.039 0.081 0.039C0.062 0.039 0.043000000000000003 0.045 0.027 0.056C0.012 0.068 0 0.08600000000000001 0 0.107C0 0.14400000000000002 0.03 0.17400000000000002 0.067 0.17400000000000002C0.10400000000000001 0.17400000000000002 0.134 0.14400000000000002 0.134 0.107Z" /><g transform="translate(0.247,0.125) scale(1,1)"><g></g></g></g></g><g transform="translate(2.996666666666666,0) scale(1,1)"><g><path d="M0.28200000000000003 0.024C0.28200000000000003 0.01 0.27 -0.002 0.256 -0.002L0.026000000000000002 -0.002C0.011 -0.002 0 0.01 0 0.024L0 0.116C0 0.131 0.011 0.14200000000000002 0.026000000000000002 0.14200000000000002L0.256 0.14200000000000002C0.27 0.14200000000000002 0.28200000000000003 0.131 0.28200000000000003 0.116L0.28200000000000003 0.024Z" /><g transform="translate(0.282,0.125) scale(1,1)"><g></g></g></g></g><path d="M0 -0.016249999999999997L4.595 -0.016249999999999997C4.603974628 -0.016249999999999997 4.61125 -0.008974627999999998 4.61125 0C4.61125 0.008974627999999998 4.603974628 0.016249999999999997 4.595 0.016249999999999997L0 0.016249999999999997C-0.008974627999999998 0.016249999999999997 -0.016249999999999997 0.008974627999999998 -0.016249999999999997 0C-0.016249999999999997 -0.008974627999999998 -0.008974627999999998 -0.016249999999999997 0 -0.016249999999999997Z" /></g></g></g></g></svg>
