<svg viewBox="0 0 215.9 279.4" width="215.9mm" height="279.4mm" xmlns="http://www.w3.org/2000/svg" xmlns:xlink="http://www.w3.org/1999/xlink"><g transform="scale(1, -1)"><g transform="translate(0,0) scale(0.007,0.007)"><g transform="translate(0,-5500) scale(1,1)"><g><g><g transform="translate(2500,-500) scale(1,1)"><path d="M16.25 -16.249999999999996L25826.607142857145 -16.249999999999996C25835.581770857145 -16.249999999999996 25842.857142857145 -8.974628 25842.857142857145 0C25842.857142857145 8.974628 25835.581770857145 16.249999999999996 25826.607142857145 16.249999999999996L16.25 16.249999999999996C7.275372000000001 16.249999999999996 0.000000000000003552713678800501 8.974628 0.000000000000003552713678800501 0C0.000000000000003552713678800501 -8.974628 7.275372000000001 -16.249999999999996 16.25 -16.249999999999996Z" /></g><g transform="translate(2500,-250) scale(1,1)"><path d="M16.25 -16.249999999999996L25826.607142857145 -16.249999999999996C25835.581770857145 -16.249999999999996 25842.857142857145 -8.974628 25842.857142857145 0C25842.857142857145 8.974628 25835.581770857145 16.249999999999996 25826.607142857145 16.249999999999996L16.25 16.249999999999996C7.275372000000001 16.249999999999996 0.000000000000003552713678800501 8.974628 0.000000000000003552713678800501 0C0.000000000000003552713678800501 -8.974628 7.275372000000001 -16.249999999999996 16.25 -16.249999999999996Z" /></g><g transform="translate(2500,0) scale(1,1)"><path d="M16.25 -16.249999999999996L25826.607142857145 -16.249999999999996C25835.581770857145 -16.249999999999996 25842.857142857145 -8.974628 25842.857142857145 0C25842.857142857145 8.974628 25835.581770857145 16.249999999999996 25826.607142857145 16.249999999999996L16.25 16.249999999999996C7.275372000000001 16.249999999999996 0.000000000000003552713678800501 8.974628 0.000000000000003552713678800501 0C0.000000000000003552713678800501 -8.974628 7.275372000000001 -16.249999999999996 16.25 -16.249999999999996Z" /></g><g transform="translate(2500,250) scale(1,1)"><path d="M16.25 -16.249999999999996L25826.607142857145 -16.249999999999996C25835.581770857145 -16.249999999999996 25842.857142857145 -8.974628 25842.857142857145 0C25842.857142857145 8.974628 25835.581770857145 16.249999999999996 25826.607142857145 16.249999999999996L16.25 16.249999999999996C7.275372000000001 16.249999999999996 0.000000000000003552713678800501 8.974628 0.000000000000003552713678800501 0C0.000000000000003552713678800501 -8.974628 7.275372000000001 -16.249999999999996 16.25 -16.249999999999996Z" /></g><g transform="translate(2500,500) scale(1,1)"><path d="M16.25 -16.249999999999996L25826.607142857145 -16.249999999999996C25835.581770857145 -16.249999999999996 25842.857142857145 -8.974628 25842.857142857145 0C25842.857142857145 8.974628 25835.581770857145 16.249999999999996 25826.607142857145 16.249999999999996L16.25 16.249999999999996C7.275372000000001 16.249999999999996 0.000000000000003552713678800501 8.974628 0.000000000000003552713678800501 0C0.000000000000003552713678800501 -8.974628 7.275372000000001 -16.249999999999996 16.25 -16.249999999999996Z" /></g></g><g transform="translate(2500,0) scale(1,1)"><g><g transform="translate(0,0) scale(1,1)"><path d="" /></g><g transform="translate(100,0) scale(1,1)"><path d="M222 -235L222 235C222 243 228 250 236 250L368 250C376 250 382 243 382 235L382 -235C382 -243 376 -250 368 -250L236 -250C228 -250 222 -243 222 -235ZM0 235C0 243 6 250 14 250L146 250C154 250 160 243 160 235L160 -235C160 -243 154 -250 146 -250L14 -250C6 -250 0 -243 0 -235L0 235Z" /></g><g transform="translate(482,0) scale(1,1)"><path d="" /></g><g transform="translate(582,0) scale(1,1)"><g><g transform="translate(0,247) scale(1,1)"><g><g transform="translate(0,0) scale(1,1)"><path d="M20 -95C20 -92 21 -88 23 -84C23 -83 24 -82 24 -81L30 -73C60 -31 158 108 158 232C158 248 172 251 181 251C189 251 234 249 252 249C270 249 311 251 320 251C328 251 335 245 335 237C335 235 334 234 334 232C331 221 171 -6 91 -74L226 -74L226 10C226 22 231 28 235 33L330 148C336 155 341 157 350 157C361 157 362 148 362 140L362 -74L435 -74C446 -74 450 -81 450 -93C450 -105 445 -112 435 -112L362 -112L362 -171C362 -203 383 -209 393 -209C403 -209 415 -215 415 -229C415 -243 405 -250 395 -250L182 -250C167 -250 163 -239 163 -229C163 -219 170 -210 186 -210C204 -210 226 -202 226 -175L226 -112L40 -112C28 -112 20 -105 20 -95Z" /></g></g></g><g transform="translate(0,-247) scale(1,1)"><g><g transform="translate(0,0) scale(1,1)"><path d="M20 -95C20 -92 21 -88 23 -84C23 -83 24 -82 24 -81L30 -73C60 -31 158 108 158 232C158 248 172 251 181 251C189 251 234 249 252 249C270 249 311 251 320 251C328 251 335 245 335 237C335 235 334 234 334 232C331 221 171 -6 91 -74L226 -74L226 10C226 22 231 28 235 33L330 148C336 155 341 157 350 157C361 157 362 148 362 140L362 -74L435 -74C446 -74 450 -81 450 -93C450 -105 445 -112 435 -112L362 -112L362 -171C362 -203 383 -209 393 -209C403 -209 415 -215 415 -229C415 -243 405 -250 395 -250L182 -250C167 -250 163 -239 163 -229C163 -219 170 -210 186 -210C204 -210 226 -202 226 -175L226 -112L40 -112C28 -112 20 -105 20 -95Z" /></g></g></g></g></g></g></g><g transform="translate(3552,0) scale(1,1)"><g><g transform="translate(200,0) scale(1,1)"><g><path d="M78 -38L29 22C29 22 19 32 19 46C19 54 23 65 33 75C78 122 93 165 93 202C93 274 36 325 32 336C29 342 28 347 28 352C28 366 38 373 48 373C54 373 61 370 66 365C83 348 231 172 231 172C231 172 235 163 235 153C235 148 234 143 231 138C205 97 169 49 165 -9C165 -13 164 -18 164 -22C164 -78 195 -115 233 -161C244 -173 270 -206 270 -218C270 -221 268 -222 265 -222C263 -222 261 -222 258 -221C257 -221 256 -220 255 -220C239 -214 206 -203 177 -203C135 -203 114 -235 114 -276C114 -285 115 -294 118 -302C120 -311 131 -338 144 -338C152 -345 160 -353 160 -362C160 -364 159 -366 158 -369C157 -373 150 -375 143 -375C135 -375 125 -372 117 -366C44 -310 1 -261 1 -211C1 -158 40 -115 83 -115C88 -115 94 -118 99 -118C103 -119 111 -121 115 -121C120 -121 124 -120 126 -116C127 -115 127 -113 127 -112C127 -110 123 -102 121 -98C108 -77 94 -58 78 -38Z" /><g transform="translate(270,125) scale(1,1)"><g></g></g></g></g><g transform="translate(7197.387755102041,0) scale(1,1)"><g><path d="M285 -99C288 -102 290 -106 290 -111C290 -117 285 -125 277 -125C275 -125 272 -124 270 -122L144 -17L20 -122C18 -124 16 -125 13 -125C5 -125 0 -118 0 -110C0 -106 1 -102 5 -99L124 0L5 100C2 103 0 108 0 112C0 118 5 125 12 125C15 125 18 124 20 123L144 18L270 123C272 124 275 125 277 125C283 125 290 119 290 111C290 107 288 102 285 100L166 0Z" /><path d="M305 126L305 961C305 969.284272 298.284272 976 290 976C281.715728 976 275 969.284272 275 961L275 126C275 117.715728 281.715728 111 290 111C298.284272 111 305 117.715728 305 126Z" /><g transform="translate(275,986) scale(1,1)"><path d="M238 -790C234 -804 222 -810 215 -810C213 -810 211 -810 210 -809C204 -805 194 -796 194 -780C194 -776 195 -771 197 -765C214 -720 221 -673 221 -628C221 -569 212 -512 197 -478C161 -393 66 -257 0 -245L0 -6C0 6 4 9 10 9C29 9 37 3 40 -13C56 -109 98 -195 149 -274C212 -374 264 -492 264 -617C264 -695 238 -790 238 -790Z" /></g><g transform="translate(290,125) scale(1,1)"><g></g></g></g></g><g transform="translate(10696.081632653062,0) scale(1,1)"><g><path d="M134 107L134 97C167 97 217 157 224 163C230 167 233 167 235 167C237 166 247 161 247 151C246 146 241 130 237 112C237 112 139 -239 136 -241C126 -249 112 -251 101 -251C95 -251 72 -250 72 -238C90 -172 162 27 165 42C166 46 166 50 166 53C166 58 165 62 161 62C160 62 158 62 156 61C143 54 134 50 120 46C109 42 95 39 81 39C62 39 43 45 27 56C12 68 0 86 0 107C0 144 30 174 67 174C104 174 134 144 134 107Z" /><g transform="translate(247,125) scale(1,1)"><g></g></g></g></g><g transform="translate(14194.775510204083,0) scale(1,1)"><g><path d="M282 24C282 10 270 -2 256 -2L26 -2C11 -2 0 10 0 24L0 116C0 131 11 142 26 142L256 142C270 142 282 131 282 116L282 24Z" /><g transform="translate(282,125) scale(1,1)"><g></g></g></g></g></g></g><g transform="translate(28242.857142857145,0) scale(1,1)"><g><g transform="translate(0,0) scale(1,1)"><path d="" /></g><g transform="translate(100,0) scale(1,1)"><path d="M20 -480L20 480C20 491.045696 11.045696 500 0 500C-11.045696 500 -20 491.045696 -20 480L-20 -480C-20 -491.045696 -11.045696 -500 0 -500C11.045696 -500 20 -491.045696 20 -480Z" /></g></g></g></g></g><g transform="translate(0,-7500) scale(1,1)"><g><g><g transform="translate(2500,-500) scale(1,1)"><path d="M16.25 -16.25L15708.669642857145 -16.25C15717.644270857145 -16.25 15724.919642857145 -8.974628000000001 15724.919642857145 0C15724.919642857145 8.974628000000001 15717.644270857145 16.25 15708.669642857145 16.25L16.25 16.25C7.275371999999999 16.25 0 8.974628000000001 0 0C0 -8.974628000000001 7.275371999999999 -16.25 16.25 -16.25Z" /></g><g transform="translate(2500,-250) scale(1,1)"><path d="M16.25 -16.25L15708.669642857145 -16.25C15717.644270857145 -16.25 15724.919642857145 -8.974628000000001 15724.919642857145 0C15724.919642857145 8.974628000000001 15717.644270857145 16.25 15708.669642857145 16.25L16.25 16.25C7.275371999999999 16.25 0 8.974628000000001 0 0C0 -8.974628000000001 7.275371999999999 -16.25 16.25 -16.25Z" /></g><g transform="translate(2500,0) scale(1,1)"><path d="M16.25 -16.25L15708.669642857145 -16.25C15717.644270857145 -16.25 15724.919642857145 -8.974628000000001 15724.919642857145 0C15724.919642857145 8.974628000000001 15717.644270857145 16.25 15708.669642857145 16.25L16.25 16.25C7.275371999999999 16.25 0 8.974628000000001 0 0C0 -8.974628000000001 7.275371999999999 -16.25 16.25 -16.25Z" /></g><g transform="translate(2500,250) scale(1,1)"><path d="M16.25 -16.25L15708.669642857145 -16.25C15717.644270857145 -16.25 15724.919642857145 -8.974628000000001 15724.919642857145 0C15724.919642857145 8.974628000000001 15717.644270857145 16.25 15708.669642857145 16.25L16.25 16.25C7.275371999999999 16.25 0 8.974628000000001 0 0C0 -8.974628000000001 7.275371999999999 -16.25 16.25 -16.25Z" /></g><g transform="translate(2500,500) scale(1,1)"><path d="M16.25 -16.25L15708.669642857145 -16.25C15717.644270857145 -16.25 15724.919642857145 -8.974628000000001 15724.919642857145 0C15724.919642857145 8.974628000000001 15717.644270857145 16.25 15708.669642857145 16.25L16.25 16.25C7.275371999999999 16.25 0 8.974628000000001 0 0C0 -8.974628000000001 7.275371999999999 -16.25 16.25 -16.25Z" /></g></g><g transform="translate(2500,0) scale(1,1)"><g><g transform="translate(200,0) scale(1,1)"><g><path d="M78 -38L29 22C29 22 19 32 19 46C19 54 23 65 33 75C78 122 93 165 93 202C93 274 36 325 32 336C29 342 28 347 28 352C28 366 38 373 48 373C54 373 61 370 66 365C83 348 231 172 231 172C231 172 235 163 235 153C235 148 234 143 231 138C205 97 169 49 165 -9C165 -13 164 -18 164 -22C164 -78 195 -115 233 -161C244 -173 270 -206 270 -218C270 -221 268 -222 265 -222C263 -222 261 -222 258 -221C257 -221 256 -220 255 -220C239 -214 206 -203 177 -203C135 -203 114 -235 114 -276C114 -285 115 -294 118 -302C120 -311 131 -338 144 -338C152 -345 160 -353 160 -362C160 -364 159 -366 158 -369C157 -373 150 -375 143 -375C135 -375 125 -372 117 -366C44 -310 1 -261 1 -211C1 -158 40 -115 83 -115C88 -115 94 -118 99 -118C103 -119 111 -121 115 -121C120 -121 124 -120 126 -116C127 -115 127 -113 127 -112C127 -110 123 -102 121 -98C108 -77 94 -58 78 -38Z" /><g transform="translate(270,125) scale(1,1)"><g></g></g></g></g><g transform="translate(3663.0499188311687,0) scale(1,1)"><g><path d="M285 -99C288 -102 290 -106 290 -111C290 -117 285 -125 277 -125C275 -125 272 -124 270 -122L144 -17L20 -122C18 -124 16 -125 13 -125C5 -125 0 -118 0 -110C0 -106 1 -102 5 -99L124 0L5 100C2 103 0 108 0 112C0 118 5 125 12 125C15 125 18 124 20 123L144 18L270 123C272 124 275 125 277 125C283 125 290 119 290 111C290 107 288 102 285 100L166 0Z" /><path d="M305 126L305 1264C305 1272.284272 298.284272 1279 290 1279C281.715728 1279 275 1272.284272 275 1264L275 126C275 117.715728 281.715728 111 290 111C298.284272 111 305 117.715728 305 126Z" /><g transform="translate(275,986) scale(1,1)"><path d="M260 -673C260 -682 261 -691 261 -701C261 -744 257 -790 254 -796C247 -807 240 -812 234 -812C232 -812 230 -811 228 -810C221 -807 215 -798 215 -786C215 -784 216 -782 216 -779C221 -750 224 -722 224 -694C224 -646 215 -601 193 -557C129 -427 63 -425 5 -423L0 -423L0 335C0 335 6 347 12 347C18 347 31 337 32 328C49 228 103 212 153 158C220 85 243 58 254 -3C255 -12 256 -21 256 -30C256 -72 243 -116 234 -141C249 -168 256 -199 256 -229C256 -268 245 -309 236 -335C250 -364 257 -396 257 -428C257 -485 236 -540 234 -547C233 -549 233 -551 233 -553C233 -556 233 -558 234 -560C249 -596 258 -634 260 -673ZM208 17C153 109 96 134 39 134C40 133 40 131 40 130C57 30 103 14 153 -40C176 -65 193 -84 207 -101L220 -52C221 -45 223 -39 223 -31C223 -18 219 -3 208 17ZM208 -181C153 -88 94 -64 39 -64C55 -161 104 -178 153 -232C176 -257 194 -276 208 -294C213 -277 218 -260 220 -250C221 -243 223 -237 223 -229C223 -216 219 -201 208 -181ZM219 -456C220 -448 221 -440 221 -432C221 -351 131 -255 51 -255C45 -256 38 -267 38 -268C58 -345 102 -366 145 -417L150 -422C167 -442 181 -459 196 -481C197 -484 200 -485 203 -485C208 -485 213 -482 214 -479C217 -472 217 -464 219 -456Z" /></g><g transform="translate(290,125) scale(1,1)"><g></g></g></g></g><g transform="translate(4355.659902597403,0) scale(1,1)"><g><path d="M414 423C418 422 423 419 423 408C420 395 396 306 396 306L303 -94C299 -112 280 -193 279 -193C159 -709 151 -727 149 -736C145 -747 140 -753 116 -753C93 -753 84 -748 84 -739C84 -737 84 -735 85 -732L157 -453C157 -451 158 -449 158 -447C158 -441 155 -436 150 -436C149 -436 148 -436 146 -437C129 -446 101 -453 82 -453C64 -453 42 -447 28 -435C12 -423 0 -405 0 -385C0 -347 31 -317 68 -317C106 -317 136 -347 136 -385C136 -388 136 -391 135 -394C148 -394 174 -385 180 -364C184 -353 219 -210 220 -205C220 -204 221 -200 221 -197C221 -191 220 -183 215 -183C214 -183 213 -183 212 -184C199 -190 196 -194 182 -199C170 -203 156 -206 142 -206C133 -206 123 -204 115 -202C105 -199 96 -194 87 -188C71 -176 59 -158 59 -137C59 -100 90 -69 127 -69C165 -69 195 -100 195 -137L195 -147C209 -147 236 -138 244 -112C247 -104 283 41 285 50C286 52 286 53 286 55C286 60 284 64 280 64C279 64 278 64 276 63C250 51 222 42 194 42C185 42 177 43 169 45C140 54 113 78 113 110C113 147 144 178 181 178C219 178 249 147 249 110L249 100C266 100 302 121 309 140C313 151 347 293 348 296C349 300 350 303 350 306C350 313 346 317 341 317C339 317 336 316 334 315C310 304 285 293 258 293C220 293 176 320 176 362C176 399 206 430 244 430C281 430 312 399 312 362C312 358 312 355 311 352C345 352 395 413 403 419C406 421 409 423 414 423Z" /><g transform="translate(423,125) scale(1,1)"><g></g></g></g></g><g transform="translate(5048.269886363637,0) scale(1,1)"><g><path d="M353 419C355 419 363 417 363 408C363 407 362 406 362 404C360 392 336 303 336 303C336 303 164 -467 161 -479C157 -490 154 -500 122 -500C101 -500 95 -492 95 -484C95 -482 95 -480 96 -478C98 -471 167 -196 167 -192C167 -189 164 -186 161 -186C160 -186 159 -186 158 -187C135 -200 107 -209 80 -209C42 -209 0 -182 0 -141C0 -103 31 -73 68 -73C106 -73 136 -103 136 -141C136 -144 136 -147 135 -151C150 -150 181 -137 186 -116L226 48C226 53 224 61 219 61C218 61 217 61 216 60C193 48 167 38 141 38C131 38 122 40 114 42C104 45 95 49 87 56C71 68 59 86 59 106C59 144 89 174 127 174C164 174 195 144 195 106C195 103 195 100 194 97C210 97 243 117 248 133L287 293C287 294 288 296 288 297C288 303 284 313 277 313C276 313 274 313 273 312C250 300 223 290 197 290C187 290 179 292 171 294C161 297 151 301 143 308C127 320 115 338 115 358C115 396 146 426 183 426C221 426 251 396 251 358L251 349C285 349 335 410 342 415C345 417 348 419 353 419Z" /><g transform="translate(363,125) scale(1,1)"><g></g></g></g></g><g transform="translate(6433.489853896104,0) scale(1,1)"><g><path d="M208 111L208 101C242 102 292 162 299 168C302 170 305 172 310 172C312 171 320 167 320 161C320 160 319 159 319 157C317 144 292 56 292 56C292 56 273 -11 247 -96L131 -477C127 -488 122 -500 93 -500C71 -500 62 -490 62 -482C62 -481 63 -480 63 -479L158 -196C158 -195 159 -194 159 -193C159 -190 157 -188 155 -188C132 -200 106 -209 80 -209C42 -209 0 -183 0 -141C0 -103 30 -73 68 -73C105 -73 136 -103 136 -141C136 -144 136 -147 135 -151C149 -151 176 -139 184 -120C191 -105 242 44 242 60C242 65 240 67 237 67C235 67 233 66 230 65C207 52 179 43 152 43C114 43 72 70 72 111C72 149 103 179 140 179C178 179 208 149 208 111Z" /><g transform="translate(320,125) scale(1,1)"><g></g></g></g></g><g transform="translate(8511.319805194806,0) scale(1,1)"><g><path d="M134 107L134 97C167 97 217 157 224 163C230 167 233 167 235 167C237 166 247 161 247 151C246 146 241 130 237 112C237 112 139 -239 136 -241C126 -249 112 -251 101 -251C95 -251 72 -250 72 -238C90 -172 162 27 165 42C166 46 166 50 166 53C166 58 165 62 161 62C160 62 158 62 156 61C143 54 134 50 120 46C109 42 95 39 81 39C62 39 43 45 27 56C12 68 0 86 0 107C0 144 30 174 67 174C104 174 134 144 134 107Z" /><g transform="translate(247,125) scale(1,1)"><g></g></g></g></g><g transform="translate(11281.75974025974,0) scale(1,1)"><g><path d="M282 24C282 10 270 -2 256 -2L26 -2C11 -2 0 10 0 24L0 116C0 131 11 142 26 142L256 142C270 142 282 131 282 116L282 24Z" /><g transform="translate(282,125) scale(1,1)"><g></g></g></g></g></g></g><g transform="translate(17937.419642857145,0) scale(1,1)"><g><g transform="translate(0,0) scale(1,1)"><path d="" /></g><g transform="translate(100,0) scale(1,1)"><path d="M20 -480L20 480C20 491.045696 11.045696 500 0 500C-11.045696 500 -20 491.045696 -20 480L-20 -480C-20 -491.045696 -11.045696 -500 0 -500C11.045696 -500 20 -491.045696 20 -480Z" /></g><g transform="translate(100,0) scale(1,1)"><path d="" /></g><g transform="translate(225,0) scale(1,1)"><path d="M-42.5 -500C-53.545696 -500 -62.5 -491.045696 -62.5 -480L-62.5 480C-62.5 491.045696 -53.545696 500 -42.5 500L42.5 500C53.545696 500 62.5 491.045696 62.5 480L62.5 -480C62.5 -491.045696 53.545696 -500 42.5 -500L-42.5 -500Z" /></g></g></g></g></g><g transform="translate(13535.714285714286,-2500) scale(1,-1)"><text style="font-size: 1000px; font-family: Palatino, 'Palatino Linotype', 'Palatino LT STD', 'Book Antiqua', Georgia, serif; ">Six Eight</text></g><g transform="translate(25648.979591836734,-3500) scale(1,-1)"><text style="font-size: 714.2857142857143px; font-family: Palatino, 'Palatino Linotype', 'Palatino LT STD', 'Book Antiqua', Georgia, serif; ">Six Eight</text></g></g></g></svg>
